<?xml version="1.0" encoding="utf-8"?>
<!-- Generator: Adobe Illustrator 20.0.0, SVG Export Plug-In . SVG Version: 6.00 Build 0)  -->
<svg version="1.1" id="Logo" xmlns="http://www.w3.org/2000/svg" xmlns:xlink="http://www.w3.org/1999/xlink" x="0px" y="0px"
	 viewBox="0 0 1345.3 283.5" enable-background="new 0 0 1345.3 283.5" xml:space="preserve">
<title>AXA_logo</title>
<path fill="#103184" d="M376.1,179.3h-0.6c-0.6,20.4-2,48.8-2.3,75.4h-21.3c2.9-33.8,4.2-67.5,4.9-101.4h27.8
	c14.8,26.1,31.6,50.9,46.5,76.8h0.3c1.1-23.7,2.4-51.4,2.7-76.8h21c-2.8,33-4.4,67.6-5,101.4h-26.9L376.1,179.3z"/>
<path fill="#103184" d="M500.4,219.3c-5.8,11.2-11.4,23.4-16.9,35.4h-25.1c18.3-33.3,36-67.4,52.9-101.4h27.5
	c11.4,33.7,24.4,67.8,36.9,101.4h-24.3c-3.5-12.2-7.8-24.2-12-35.4L500.4,219.3L500.4,219.3z M535.4,203.1l-11.7-33.9l-16.6,33.9
	H535.4L535.4,203.1z"/>
<path fill="#103184" d="M680.5,196.5c-1.2,16.1-2.1,32.4-2.9,55.2c-12.9,2.6-26,4.6-39.5,4.6c-39.2,0-58.7-17.6-58.7-49.2
	c0-27.1,17.6-55.8,62.9-55.8c11.5,0.1,22.9,1.5,34.1,4l0.9,17.9c-10.2-3.3-21-5.8-31.8-5.8c-25,0-43.2,14.4-43.2,40.4
	c0,22,13.8,32.4,34.8,32.4c6.7-0.1,13.3-1,19.8-2.6l1.2-26.1h-18.6l0.8-14.9L680.5,196.5L680.5,196.5z"/>
<path fill="#103184" d="M775.3,152.8l-0.8,16.7c-8.7-0.5-17.3-0.6-26-0.6h-24.8l-1.2,26.4h24.3c5.8,0,11.9-0.5,20.2-0.6l-0.9,15.5
	h-44.6l-1.2,27.9h29.8c3.9,0,8.5,0,21.4-1l-0.9,17.1h-74.2c2.9-20.7,4.7-80.9,4.7-101.4L775.3,152.8L775.3,152.8z"/>
<path fill="#103184" d="M870.9,255.1h-24.4c-7.3-19.3-17-37.6-26-56.1c3,0.5,6.1,0.8,9.1,0.9c11.5,0,22.5-5.2,22.5-18.1
	c0-11.9-10.8-13.3-19.9-13.3c-5.5,0-10.8,0.3-16.3,0.8c-0.4,13.2-2.3,70.5-2.4,85.7h-22.9c3.3-33.6,4.4-67.5,4.6-101.4H841
	c17.7,0,33,6.3,33,25.2c0,17.8-11.8,26.6-28,29.8L870.9,255.1z"/>
<path fill="#103184" d="M951.9,171.8c-6.7-2.4-13.8-4.4-21.2-4.4c-9.6,0-16.6,4.7-16.6,11.4c0,15.7,39.2,26.1,39.2,50.2
	c0,11.2-7.9,27.4-36,27.4c-9.7,0-19.2-1.8-28.6-4l-1.7-18.7c8.4,3.8,17.5,6.5,26.8,6.5c7.1,0,16.6-2.8,16.6-11.4
	c0-16-39.2-26.8-39.2-51.7c0-17.8,17.2-25.8,35.1-25.8c8.1,0.1,16.1,1,24,2.7L951.9,171.8z"/>
<path fill="#103184" d="M355.4,130.6c2-30.7,4.1-60.8,4.1-101.4h23.9c-2.1,28.9-3.3,57.3-3.9,101.4H355.4L355.4,130.6z"/>
<path fill="#103184" d="M428.1,54.8h-0.6c-0.6,20.4-2,48.8-2.3,75.4h-21.3c2.9-33.8,4.2-67.5,4.8-101.4h27.8
	c14.7,26.2,31.6,50.9,46.5,76.8h0.3c1.1-23.7,2.4-51.4,2.7-76.8h21c-2.7,33-4.4,67.7-5,101.4h-26.9L428.1,54.8z"/>
<path fill="#103184" d="M553.6,130.6c-11-34-23.6-67.6-35.5-101.4h23.7c7.9,28.7,18.5,54.1,26.3,82.5h0.3
	c12.2-27.8,26.9-54.4,38.9-82.5h24c-17.7,33.6-35,67.2-51.2,101.4H553.6z"/>
<path fill="#103184" d="M715.3,29.3L714.5,46c-8.7-0.5-17.3-0.6-26-0.6h-24.7l-1.2,26.5h24.3c5.8,0,11.8-0.5,20.2-0.6l-0.9,15.5
	h-44.5l-1.2,27.9h29.8c3.9,0,8.5,0,21.4-0.9l-0.9,17h-74.2c2.9-20.7,4.8-80.9,4.8-101.4h73.9V29.3z"/>
<path fill="#103184" d="M792,47.4c-6.7-2.4-13.8-4.4-21.1-4.4c-9.6,0-16.6,4.7-16.6,11.4c0,15.7,39.2,26.1,39.2,50.2
	c0,11.2-7.9,27.3-36,27.3c-9.7,0-19.1-1.8-28.6-3.9l-1.7-18.7c8.3,3.8,17.5,6.5,26.8,6.5c7.1,0,16.6-2.7,16.6-11.4
	c0-16-39.2-26.8-39.2-51.7c0-17.8,17.2-25.9,35.1-25.9c8.1,0.1,16.1,1,24,2.7L792,47.4z"/>
<path fill="#103184" d="M892.7,29.3l-0.6,16.9c-9.4-0.6-18.7-0.7-31.6-0.7c-1.5,25.7-3,52.1-3.2,85.3h-23.7
	c2.1-25.4,3.5-56.2,4.4-85.3c-22.2,0-24.8,0.4-31.8,0.6l0.6-16.7L892.7,29.3L892.7,29.3z"/>
<path fill="#103184" d="M967.9,130.6h-20.5L933,78.8c-2.6-9.6-6.2-20.5-8.2-28.3h-0.3c-2.3,26.3-4.1,53.2-5,80.1H900
	c4-31.2,8.1-94.7,8.7-101.4h30c1.7,10.3,5.2,20.2,8.4,30.1c4.9,14.8,8.7,29.8,12.5,43.9h0.3c5.2-14.1,10.6-29.2,16.9-43.8
	c4.2-9.9,8.5-19.8,11.6-30.2h30.5c-1.2,28.9-2.1,55.8-2.1,101.4h-20.2c0.9-23.9,2.1-47.9,2.1-71.9v-8.2h-0.3L967.9,130.6z"/>
<rect fill="#103184" width="283.4" height="283.5"/>
<rect x="-141.7" y="283.5" fill="none" width="141.7" height="141.7"/>
<polygon fill="none" points="-53.9,353.5 0,283.5 -7.9,283.5 -62,353.5 "/>
<path fill="none" d="M-82.2,401.4l3.9-5.3c-0.4-0.4-2.6-7-2.6-7l-3.8,4.9L-82.2,401.4z M-103.5,368.4c-1.5,3.3-10.5,14.2-10.5,14.2
	h14.2c0,0-2.7-8.5-3.2-10.3c-0.3-1.2-0.4-2.5-0.3-3.7C-103.4,368.3-103.4,368-103.5,368.4 M-49.1,368.4
	c-1.6,3.3-10.5,14.2-10.5,14.2h14.2c0,0-2.8-8.5-3.3-10.4c-0.2-1.2-0.3-2.5-0.3-3.7C-49,368.3-49,368-49.1,368.4 M-33.4,384.7
	c2.4,6.9,7.6,24.9,9.6,26.3h-13.3c0-1.6-0.3-3.2-0.7-4.7c-0.6-2-5.4-17.6-5.4-17.6h-21.2l-3.3,4.7c0,0,4,12.6,4.3,13.2
	c0.4,1.1,2.3,4.4,2.3,4.4H-74c0,0-0.3-1.9-0.5-2.7c-0.1-0.7-1.2-4.2-1.2-4.2c-1.4,1.4-2.6,3-3.7,4.6c-0.8,1.5-1.2,2.2-1.2,2.2h-10
	c0,0-0.3-1.9-0.5-2.7c-0.1-0.7-1.3-4.5-1.3-4.5c-1.3,1.6-2.5,3.2-3.6,4.9c-0.8,1.5-1.1,2.3-1.1,2.3h-9.9c0,0,2.8-2.7,3.8-3.8
	c1.7-1.9,7.8-10,7.8-10l-2.5-8.5h-21c0,0-12,15.8-12.5,16.3c-1.5,1.9-2.9,3.9-4.1,6h-6.3v-4c0.1-0.1,0.2-0.2,0.2-0.3
	c0.2-0.1,9.1-11.2,17.3-22.1c7.3-9.5,14.3-18.8,14.9-19.6c1.3-2.1,2.5-4.3,3.6-6.6h10.9c0.1,1.8,0.3,3.5,0.6,5.2
	c0.3,0.9,6.9,22.7,7.1,22.9l3.7-4.7l-6.3-19.3c-0.6-1.4-1.2-2.8-2-4.2H-79c0,1.2,0.1,2.3,0.4,3.5c0.5,1.6,3.2,11.4,3.2,11.4
	s8.7-10.9,9.2-11.7c0.6-1,1-2.1,1.1-3.2h10.6c-2,1.7-3.8,3.6-5.3,5.7c-1.1,1.4-12.3,15.7-12.3,15.7s1,3.3,1.4,5
	c0.1,0.5,0.2,0.8,0.2,0.8s0.2-0.3,0.7-0.8c2.9-3.6,16-20.9,16.8-22.4c0.8-1.3,1.5-2.6,2.1-4h10.3c0.1,1.3,0.3,2.6,0.6,3.9
	L-33.4,384.7z"/>
<rect x="-141.7" y="-141.7" fill="none" width="141.7" height="141.7"/>
<polygon fill="none" points="-53.9,-71.8 0,-141.7 -7.9,-141.7 -62,-71.8 "/>
<path fill="none" d="M-82.2-23.8l3.9-5.3c-0.4-0.4-2.6-7-2.6-7l-3.8,4.9L-82.2-23.8z M-103.5-56.8c-1.5,3.3-10.4,14.2-10.4,14.2
	h14.1c0,0-2.7-8.4-3.2-10.3c-0.3-1.2-0.4-2.5-0.3-3.7C-103.4-56.9-103.4-57.1-103.5-56.8 M-49.1-56.8c-1.6,3.3-10.5,14.1-10.5,14.1
	h14.2c0,0-2.8-8.5-3.3-10.3c-0.2-1.2-0.3-2.5-0.2-3.7C-48.9-56.9-48.9-57.2-49.1-56.8 M-33.4-40.5c2.4,6.9,7.6,24.9,9.6,26.3h-13.4
	c0-1.6-0.3-3.2-0.7-4.7c-0.6-2-5.4-17.6-5.4-17.6h-21.2l-3.3,4.8c0,0,4,12.6,4.3,13.2c0.4,1.1,2.3,4.4,2.3,4.4H-74
	c0,0-0.3-1.9-0.5-2.7c-0.1-0.7-1.2-4.2-1.2-4.2c-1.4,1.4-2.6,3-3.7,4.6c-0.8,1.5-1.2,2.2-1.2,2.2h-10c0,0-0.3-1.9-0.5-2.7
	c-0.1-0.7-1.3-4.5-1.3-4.5c-1.3,1.6-2.5,3.2-3.6,4.9c-0.8,1.5-1.1,2.3-1.1,2.3h-9.9c0,0,2.8-2.7,3.8-3.8c1.7-1.9,7.8-10,7.8-10
	l-2.5-8.5h-21c0,0-12,15.8-12.5,16.3c-1.5,1.9-2.9,3.9-4.1,6h-6.3v-4c0.1-0.1,0.2-0.2,0.2-0.3c0.2-0.1,9.1-11.2,17.3-22.1
	c7.3-9.5,14.3-18.8,14.9-19.6c1.3-2.1,2.5-4.3,3.6-6.6h10.9c0.1,1.8,0.3,3.5,0.6,5.2c0.3,0.9,6.9,22.7,7.1,22.9l3.7-4.7l-6.3-19.3
	c-0.6-1.4-1.2-2.8-2-4.2H-79c0,1.2,0.1,2.3,0.4,3.4C-78-61.9-75.3-52-75.3-52s8.7-10.9,9.2-11.7c0.6-1,1-2.1,1.1-3.2h10.6
	c-2,1.7-3.8,3.6-5.3,5.8c-1.2,1.4-12.4,15.7-12.4,15.7s1,3.3,1.4,5c0.1,0.5,0.2,0.8,0.2,0.8s0.2-0.3,0.7-0.8
	c2.9-3.6,16-20.9,16.8-22.3c0.8-1.3,1.5-2.6,2.1-4h10.3c0.1,1.3,0.3,2.6,0.6,3.9L-33.4-40.5z"/>
<rect x="1338.6" y="-141.7" fill="none" width="141.7" height="141.7"/>
<polygon fill="none" points="1426.4,-71.8 1480.3,-141.7 1472.3,-141.7 1418.3,-71.8 "/>
<path fill="none" d="M1398.1-23.8l3.9-5.3c-0.4-0.4-2.6-7-2.6-7l-3.8,4.9L1398.1-23.8z M1376.7-56.8c-1.5,3.3-10.4,14.2-10.4,14.2
	h14.1c0,0-2.7-8.4-3.2-10.3c-0.3-1.2-0.4-2.5-0.3-3.7C1376.9-56.9,1376.9-57.1,1376.7-56.8 M1431.1-56.8
	c-1.5,3.3-10.5,14.2-10.5,14.2h14.2c0,0-2.8-8.4-3.2-10.3c-0.3-1.2-0.4-2.5-0.3-3.8C1431.3-56.9,1431.3-57.2,1431.1-56.8
	 M1446.8-40.5c2.4,6.9,7.6,24.9,9.6,26.3h-13.3c0-1.6-0.3-3.2-0.7-4.7c-0.6-2-5.4-17.6-5.4-17.6h-21.2l-3.3,4.7c0,0,4,12.6,4.3,13.2
	c0.4,1.1,2.3,4.4,2.3,4.4h-12.8c0,0-0.3-1.9-0.5-2.7c-0.1-0.7-1.2-4.2-1.2-4.2c-1.4,1.4-2.6,3-3.7,4.6c-0.8,1.5-1.2,2.2-1.2,2.2h-10
	c0,0-0.3-1.9-0.5-2.7c-0.1-0.7-1.3-4.5-1.3-4.5c-1.3,1.6-2.5,3.2-3.6,4.9c-0.8,1.5-1.1,2.3-1.1,2.3h-9.9c0,0,2.8-2.7,3.8-3.8
	c1.7-1.9,7.8-10,7.8-10l-2.5-8.5h-21.1c0,0-12,15.8-12.5,16.3c-1.5,1.9-2.9,3.9-4.1,6h-6.3v-4c0.1-0.1,0.2-0.2,0.2-0.3
	c0.2-0.1,9.1-11.2,17.3-22.1c7.3-9.5,14.3-18.8,14.9-19.6c1.3-2.2,2.5-4.4,3.6-6.7h10.9c0.1,1.8,0.3,3.5,0.6,5.2
	c0.3,0.9,6.9,22.7,7.1,22.9l3.7-4.7l-6.2-19.2c-0.6-1.4-1.2-2.8-2-4.2h12.7c0,1.2,0.1,2.3,0.4,3.4c0.5,1.6,3.2,11.4,3.2,11.4
	s8.7-10.9,9.2-11.7c0.6-1,1-2.1,1.1-3.2h10.6c-2,1.7-3.8,3.6-5.3,5.7c-1.1,1.4-12.3,15.7-12.3,15.7s1,3.3,1.4,5
	c0.1,0.5,0.2,0.8,0.2,0.8s0.2-0.3,0.7-0.8c2.9-3.6,16-20.9,16.8-22.3c0.8-1.3,1.5-2.6,2.1-4h10.3c0.1,1.3,0.3,2.6,0.6,3.9
	L1446.8-40.5z"/>
<rect x="1338.6" y="283.5" fill="none" width="141.7" height="141.7"/>
<polygon fill="none" points="1426.4,353.5 1480.3,283.5 1472.3,283.5 1418.3,353.5 "/>
<path fill="none" d="M1398.1,401.4l3.9-5.3c-0.4-0.4-2.6-7-2.6-7l-3.8,4.9L1398.1,401.4z M1376.7,368.4
	c-1.5,3.3-10.5,14.2-10.5,14.2h14.1c0,0-2.7-8.5-3.2-10.3c-0.3-1.2-0.4-2.5-0.3-3.7C1376.9,368.3,1376.9,368,1376.7,368.4
	 M1431.1,368.4c-1.5,3.3-10.5,14.2-10.5,14.2h14.2c0,0-2.8-8.5-3.2-10.3c-0.2-1.2-0.3-2.5-0.3-3.7
	C1431.3,368.3,1431.3,368.1,1431.1,368.4 M1446.9,384.7c2.4,6.9,7.6,24.9,9.6,26.3h-13.4c0-1.6-0.3-3.2-0.7-4.7
	c-0.6-2-5.4-17.6-5.4-17.6h-21.2l-3.3,4.7c0,0,4,12.6,4.3,13.2c0.4,1.1,2.3,4.4,2.3,4.4h-12.8c0,0-0.3-1.9-0.5-2.7
	c-0.1-0.7-1.2-4.2-1.2-4.2c-1.4,1.4-2.6,3-3.7,4.6c-0.8,1.5-1.2,2.2-1.2,2.2h-10c0,0-0.3-1.9-0.5-2.7c-0.1-0.7-1.3-4.5-1.3-4.5
	c-1.3,1.6-2.5,3.2-3.6,4.9c-0.8,1.5-1.1,2.3-1.1,2.3h-9.9c0,0,2.8-2.7,3.8-3.8c1.7-1.9,7.8-10,7.8-10l-2.5-8.5h-21.1
	c0,0-12,15.8-12.5,16.3c-1.5,1.9-2.9,3.9-4.1,6h-6.3v-4c0.1-0.1,0.2-0.2,0.2-0.3c0.2-0.1,9.1-11.2,17.3-22.1
	c7.3-9.5,14.3-18.8,14.9-19.6c1.3-2.2,2.5-4.4,3.6-6.7h10.9c0.1,1.8,0.3,3.5,0.6,5.2c0.3,0.9,6.9,22.7,7.1,22.9l3.7-4.7l-6.3-19.3
	c-0.6-1.4-1.2-2.8-2-4.2h12.8c0,1.2,0.1,2.3,0.4,3.5c0.5,1.6,3.2,11.4,3.2,11.4s8.7-10.9,9.2-11.7c0.6-1,1-2.1,1.1-3.2h10.6
	c-2,1.7-3.8,3.6-5.3,5.7c-1.1,1.4-12.3,15.7-12.3,15.7s1,3.3,1.4,5c0.1,0.5,0.2,0.8,0.2,0.8s0.2-0.3,0.7-0.8
	c2.9-3.6,16-20.9,16.8-22.4c0.8-1.3,1.5-2.6,2.1-4h10.3c0.1,1.3,0.3,2.6,0.6,3.9L1446.9,384.7z"/>
<polyline fill="none" stroke="#FFFFFF" stroke-width="18" stroke-miterlimit="10" points="73.7,156.1 73.7,224.8 179.7,157.1 
	76.2,92.5 106.5,58.7 126.7,74.4 "/>
</svg>
