<?xml version="1.0" encoding="utf-8"?>
<!-- Generator: Adobe Illustrator 19.2.1, SVG Export Plug-In . SVG Version: 6.00 Build 0)  -->
<svg version="1.1" id="Layer_1" xmlns="http://www.w3.org/2000/svg" xmlns:xlink="http://www.w3.org/1999/xlink" x="0px" y="0px"
	 viewBox="0 0 109.8 14.9" style="enable-background:new 0 0 109.8 14.9;" xml:space="preserve">
<style type="text/css">
	.st0{fill:#E5097E;}
</style>
<g>
	<path class="st0" d="M0,0.6h3.9v10.6h6.8v3.4H0V0.6z"/>
	<path class="st0" d="M10.9,9.2L10.9,9.2c0-3.1,2.5-5.7,6-5.7c3.5,0,6,2.5,6,5.6v0c0,3.1-2.5,5.7-6,5.7
		C13.4,14.9,10.9,12.3,10.9,9.2z M19.1,9.2L19.1,9.2c0-1.4-1-2.5-2.3-2.5c-1.4,0-2.3,1.1-2.3,2.4v0c0,1.3,1,2.4,2.3,2.4
		C18.2,11.6,19.1,10.5,19.1,9.2z"/>
	<path class="st0" d="M23.4,9.2L23.4,9.2c0-3.1,2.5-5.7,6-5.7c3.5,0,6,2.5,6,5.6v0c0,3.1-2.5,5.7-6,5.7
		C25.9,14.9,23.4,12.3,23.4,9.2z M31.6,9.2L31.6,9.2c0-1.4-1-2.5-2.3-2.5c-1.4,0-2.3,1.1-2.3,2.4v0c0,1.3,1,2.4,2.3,2.4
		C30.8,11.6,31.6,10.5,31.6,9.2z"/>
	<path class="st0" d="M36.3,0h3.8v7.4l2.9-3.6h4.3l-3.8,4.3l3.9,6.5h-4.2l-2.2-3.7l-1,1.1v2.5h-3.8V0z"/>
	<path class="st0" d="M52.3,9.2L52.3,9.2c0-3.1,2.4-5.7,5.8-5.7c2.2,0,3.7,1,4.6,2.4l-2.6,1.9c-0.5-0.7-1.1-1.1-2-1.1
		c-1.2,0-2.1,1.1-2.1,2.4v0c0,1.4,0.9,2.5,2.2,2.5c0.9,0,1.5-0.4,2.1-1.1l2.5,1.8c-1,1.5-2.4,2.5-4.8,2.5
		C54.7,14.9,52.3,12.3,52.3,9.2z"/>
	<path class="st0" d="M63.6,0h3.8v14.6h-3.8V0z"/>
	<path class="st0" d="M68.5,9.2L68.5,9.2c0-3.1,2.5-5.7,6-5.7c3.5,0,6,2.5,6,5.6v0c0,3.1-2.5,5.7-6,5.7C71,14.9,68.5,12.3,68.5,9.2z
		 M76.7,9.2L76.7,9.2c0-1.4-1-2.5-2.3-2.5c-1.4,0-2.3,1.1-2.3,2.4v0c0,1.3,1,2.4,2.3,2.4C75.9,11.6,76.7,10.5,76.7,9.2z"/>
	<path class="st0" d="M80.6,13.2l1.4-2.3c1.2,0.8,2.6,1.2,3.7,1.2c0.7,0,1-0.2,1-0.6v0c0-0.4-0.6-0.6-1.7-0.9
		c-2.1-0.6-3.8-1.3-3.8-3.5v0c0-2.3,1.8-3.6,4.3-3.6c1.6,0,3.2,0.5,4.5,1.3l-1.3,2.4c-1.1-0.6-2.3-1-3.2-1c-0.6,0-0.9,0.2-0.9,0.5v0
		c0,0.4,0.6,0.6,1.8,1c2.1,0.6,3.8,1.3,3.8,3.4v0c0,2.4-1.8,3.6-4.4,3.6C83.9,14.8,82.1,14.3,80.6,13.2z"/>
	<path class="st0" d="M90.6,9.2L90.6,9.2c0-3.2,2.3-5.7,5.5-5.7c3.7,0,5.5,2.7,5.5,5.9c0,0.2,0,0.5,0,0.8h-7.2
		c0.3,1.2,1.2,1.8,2.3,1.8c0.9,0,1.6-0.3,2.4-1.1l2.1,1.7c-1,1.3-2.5,2.2-4.7,2.2C93,14.9,90.6,12.6,90.6,9.2z M98,8.3
		c-0.1-1.2-0.8-2-1.9-2c-1,0-1.7,0.8-1.9,2H98z"/>
	<path class="st0" d="M102.6,3.8h3.8V6c0.6-1.5,1.6-2.4,3.4-2.4v4h-0.3c-2,0-3.1,1.1-3.1,3.6v3.4h-3.8V3.8z"/>
</g>
</svg>
