<svg xmlns="http://www.w3.org/2000/svg" width="600" height="501" viewBox="0 0 600 501">
  <defs>
    <style>
      .cls-1 {
        fill: #fff;
        fill-rule: evenodd;
      }
    </style>
  </defs>
  <path id="h1.svg" class="cls-1" d="M600,500h600v501H600V500Zm51.575,109.117h16.3V564.589h17.643V550.306H633.932v14.283h17.643v44.528Zm38.218,0h15.962V584.5c0-4.957,2.857-7.645,6.722-7.645,3.78,0,6.385,2.688,6.385,7.645v24.617h15.963V579.375c0-10.334-5.8-16.719-15.459-16.719-6.469,0-10.67,3.445-13.611,7.226v-22.1H689.793v61.331Zm51.575-49.569H758V547.786H741.368v11.762Zm0.336,49.569h15.962V563.664H741.7v45.453Zm23.182,0h15.963V584.5c0-4.957,2.857-7.645,6.721-7.645,3.781,0,6.386,2.688,6.386,7.645v24.617h15.962V579.375c0-10.334-5.8-16.719-15.458-16.719-6.469,0-10.67,3.613-13.611,7.394v-6.386H764.886v45.453Zm51.575,0h15.963v-10.67l4.117-4.789,9.158,15.459h17.559L847.043,581.9l15.795-18.232H844.774l-12.35,15.207V547.786H816.461v61.331ZM660.313,684.125c14.283,0,23.776-7.142,23.776-19.156V664.8c0-11.006-8.4-15.374-21.928-18.315-8.149-1.848-10.165-3.025-10.165-5.713v-0.168c0-2.1,1.932-3.781,5.881-3.781,5.209,0,11.09,2.017,16.467,5.8l8.149-11.51c-6.385-5.125-14.2-7.813-24.2-7.813-14.115,0-22.768,7.9-22.768,18.819v0.168c0,12.1,9.661,15.627,22.18,18.484,7.981,1.848,9.913,3.192,9.913,5.629v0.168c0,2.52-2.352,4.032-6.721,4.032a30.291,30.291,0,0,1-19.071-7.057l-9.074,10.838C639.981,680.848,649.9,684.125,660.313,684.125Zm29.059-1.008h15.963v-24.7c0-4.957,2.688-7.561,6.469-7.561s6.217,2.6,6.217,7.561v24.7h15.963v-24.7c0-4.957,2.773-7.561,6.553-7.561s6.217,2.6,6.217,7.561v24.7h15.963V653.291c0-10.586-5.881-16.635-15.543-16.635-6.637,0-11.258,2.857-15.206,7.394-2.437-4.7-7.058-7.394-13.107-7.394-6.385,0-10.585,3.445-13.526,7.226v-6.218H689.372v45.453Zm92.906,1.008a17.141,17.141,0,0,0,13.358-5.713v4.7h15.8V656.988c0-6.385-1.428-11.09-4.873-14.451-3.612-3.612-9.157-5.545-17.307-5.545a45.666,45.666,0,0,0-18.4,3.529l3.276,11.258a32.02,32.02,0,0,1,12.519-2.52c6.133,0,9.073,2.688,9.073,7.393v0.756a34.862,34.862,0,0,0-10.922-1.764c-10.67,0-17.811,4.873-17.811,14.282v0.168C766.987,679.168,773.624,684.125,782.278,684.125Zm5.713-10c-3.277,0-5.629-1.848-5.629-4.957V669c0-3.361,2.688-5.629,7.309-5.629a16.722,16.722,0,0,1,6.217,1.176v2.1C795.888,671.186,792.612,674.127,787.991,674.127Zm30.237,8.99H834.19V621.786H818.228v61.331Zm23.519,0h15.962V621.786H841.747v61.331Zm74.007,1.176c13.022,0,20.5-5.629,26.045-13.275l-12.267-8.737c-3.528,4.285-7.141,7.141-13.274,7.141-8.233,0-14.03-6.889-14.03-15.711v-0.168c0-8.569,5.8-15.542,14.03-15.542,5.629,0,9.494,2.688,12.854,6.889l12.267-9.494c-5.209-7.225-12.939-12.266-24.953-12.266-17.811,0-31,13.442-31,30.581v0.168A29.864,29.864,0,0,0,915.754,684.293Zm43.425-.168a17.141,17.141,0,0,0,13.358-5.713v4.7h15.795V656.988c0-6.385-1.428-11.09-4.873-14.451-3.613-3.612-9.158-5.545-17.307-5.545a45.666,45.666,0,0,0-18.4,3.529l3.276,11.258a32.02,32.02,0,0,1,12.519-2.52c6.133,0,9.073,2.688,9.073,7.393v0.756a34.862,34.862,0,0,0-10.922-1.764c-10.67,0-17.811,4.873-17.811,14.282v0.168C943.888,679.168,950.525,684.125,959.179,684.125Zm5.713-10c-3.277,0-5.629-1.848-5.629-4.957V669c0-3.361,2.688-5.629,7.309-5.629a16.726,16.726,0,0,1,6.217,1.176v2.1C972.789,671.186,969.513,674.127,964.892,674.127Zm29.9,22.432h15.968V677.572a17.062,17.062,0,0,0,13.86,6.553c10.75,0,20.08-8.99,20.08-23.777V660.18c0-14.534-9.33-23.524-20.17-23.524-6.8,0-10.67,3.277-13.77,7.058v-6.05H994.792v58.895Zm24.868-25.793c-5.12,0-9.24-4.284-9.24-10.334v-0.168c0-5.965,4.12-10.249,9.24-10.249,5.21,0,9.33,4.284,9.33,10.249v0.168C1028.99,666.566,1024.87,670.766,1019.66,670.766Zm48.3,13.359c11.09,0,18.57-5.209,18.57-15.207V668.75c0-8.822-7.14-11.93-16.13-14.451-4.79-1.428-7.4-2.268-7.4-4.032V650.1c0-1.261,1.26-2.185,3.7-2.185,3.61,0,8.74,1.6,13.44,4.2l5.46-10.082a35.556,35.556,0,0,0-18.73-5.293c-10.5,0-18.23,5.377-18.23,15.039v0.168c0,9.158,7.14,12.182,16.13,14.535,4.79,1.344,7.31,2.1,7.31,3.864v0.168c0,1.6-1.26,2.437-4.04,2.437-4.7,0-10.41-1.765-15.62-5.209l-5.97,9.662A36.66,36.66,0,0,0,1067.96,684.125Zm-418.653,74a17.141,17.141,0,0,0,13.358-5.713v4.7h15.8V730.988c0-6.385-1.428-11.09-4.873-14.451-3.612-3.612-9.157-5.545-17.307-5.545a45.666,45.666,0,0,0-18.4,3.529l3.277,11.258a32.011,32.011,0,0,1,12.518-2.52c6.133,0,9.073,2.688,9.073,7.393v0.756a34.861,34.861,0,0,0-10.921-1.764c-10.67,0-17.812,4.873-17.812,14.282v0.168C634.016,753.168,640.654,758.125,649.307,758.125Zm5.713-10c-3.277,0-5.629-1.848-5.629-4.957V743c0-3.361,2.689-5.629,7.309-5.629a16.722,16.722,0,0,1,6.217,1.176v2.1C662.917,745.186,659.641,748.127,655.02,748.127Zm29.9,8.99h15.963V743c0-10.5,4.7-15.291,13.022-15.291h1.344v-16.8c-7.561-.336-11.762,3.7-14.366,9.914v-9.158H684.921v45.453Zm55.948,1.092c9.073,0,15.374-3.7,19.743-9.242l-8.821-7.309c-3.277,3.192-6.3,4.621-10.082,4.621-4.957,0-8.57-2.521-9.83-7.478h30.413c0.084-1.092.084-2.268,0.084-3.276,0-13.359-7.225-24.869-22.936-24.869-13.442,0-22.936,10.5-22.936,23.776V734.6C716.5,748.715,726.586,758.209,740.869,758.209Zm-9.242-27.557c0.84-4.957,3.7-8.234,7.9-8.234,4.369,0,7.31,3.193,7.9,8.234h-15.8Zm75.516,27.389a22.761,22.761,0,0,0,11.09-2.605V742.918a14.006,14.006,0,0,1-6.049,1.512c-2.941,0-4.369-1.344-4.369-4.537V724.519H818.4V711.664H807.815v-11.51H791.852v11.51h-5.377v12.855h5.377V743C791.852,753.84,797.565,758.041,807.143,758.041Zm38.389,0.168c14.618,0,25.2-10.838,25.2-23.777v-0.168c0-12.938-10.5-23.608-25.036-23.608-14.619,0-25.205,10.838-25.205,23.776V734.6C820.5,747.539,831,758.209,845.532,758.209Zm0.168-13.527c-5.629,0-9.662-4.705-9.662-10.25v-0.168c0-5.461,3.7-10.081,9.494-10.081,5.629,0,9.662,4.705,9.662,10.249V734.6C855.194,740.061,851.5,744.682,845.7,744.682Zm53.255,13.527c14.619,0,25.2-10.838,25.2-23.777v-0.168c0-12.938-10.5-23.608-25.036-23.608-14.619,0-25.2,10.838-25.2,23.776V734.6C873.919,747.539,884.42,758.209,898.955,758.209Zm0.168-13.527c-5.629,0-9.662-4.705-9.662-10.25v-0.168c0-5.461,3.7-10.081,9.494-10.081,5.629,0,9.662,4.705,9.662,10.249V734.6C908.617,740.061,904.92,744.682,899.123,744.682ZM650.987,831.453h14.535l18.147-45.789H667.118l-8.737,26.549-8.738-26.549h-16.8Zm56.535,0.756c14.618,0,25.2-10.838,25.2-23.777v-0.168c0-12.938-10.5-23.608-25.036-23.608-14.619,0-25.205,10.838-25.205,23.776V808.6C682.485,821.539,692.987,832.209,707.522,832.209Zm0.168-13.527c-5.629,0-9.662-4.705-9.662-10.25v-0.168c0-5.461,3.7-10.081,9.494-10.081,5.629,0,9.661,4.705,9.661,10.249V808.6C717.183,814.061,713.487,818.682,707.69,818.682Zm30.4,12.435h15.963V769.786H738.093v61.331Zm36.205,1.008a17.141,17.141,0,0,0,13.358-5.713v4.7h15.8V804.988c0-6.385-1.428-11.09-4.873-14.451-3.612-3.612-9.157-5.545-17.307-5.545a45.666,45.666,0,0,0-18.4,3.529l3.277,11.258a32.011,32.011,0,0,1,12.518-2.52c6.133,0,9.074,2.688,9.074,7.393v0.756a34.873,34.873,0,0,0-10.922-1.764c-10.67,0-17.812,4.873-17.812,14.282v0.168C759.007,827.168,765.645,832.125,774.3,832.125Zm5.713-10c-3.276,0-5.629-1.848-5.629-4.957V817c0-3.361,2.689-5.629,7.309-5.629a16.732,16.732,0,0,1,6.218,1.176v2.1C787.909,819.186,784.632,822.127,780.011,822.127Zm47.545,9.914a22.761,22.761,0,0,0,11.09-2.605V816.918a14.006,14.006,0,0,1-6.049,1.512c-2.941,0-4.369-1.344-4.369-4.537V798.519h10.586V785.664H828.228v-11.51H812.265v11.51h-5.377v12.855h5.377V817C812.265,827.84,817.978,832.041,827.556,832.041Zm16.461-50.493h16.635V769.786H844.017v11.762Zm0.336,49.569h15.962V785.664H844.353v45.453Zm23.519,0h15.962V769.786H867.872v61.331Zm45.7,1.092c9.073,0,15.374-3.7,19.743-9.242l-8.822-7.309c-3.276,3.192-6.3,4.621-10.081,4.621-4.957,0-8.57-2.521-9.83-7.478h30.413c0.084-1.092.084-2.268,0.084-3.276,0-13.359-7.225-24.869-22.936-24.869-13.442,0-22.936,10.5-22.936,23.776V808.6C889.206,822.715,899.288,832.209,913.571,832.209Zm-9.242-27.557c0.84-4.957,3.7-8.234,7.9-8.234,4.369,0,7.31,3.193,7.9,8.234h-15.8Zm44.268,7.309h10.166l1.008-5.377c9.325-2.268,16.383-6.8,16.383-17.391v-0.168c0-10.922-8.654-17.643-21-17.643a29.549,29.549,0,0,0-21.76,8.821l8.4,11.09c3.948-3.528,8.317-5.545,12.266-5.545,4.033,0,6.3,1.765,6.3,4.621v0.084c0,3.613-3.445,5.881-13.19,6.721l-0.673.757Zm-3.445,19.156H961.7V816.834H945.152v14.283Z" transform="translate(-600 -500)"/>
</svg>
