<svg xmlns="http://www.w3.org/2000/svg" width="537.44" height="84.656" viewBox="0 0 537.44 84.656">
  <defs>
    <style>
      .cls-1 {
        fill: #fff;
        fill-rule: evenodd;
      }
    </style>
  </defs>
  <path id="h2.svg" class="cls-1" d="M1368.79,804.261c5.44,0,9.06-2.721,9.06-7.3V796.9c0-4.194-3.2-5.859-8.36-6.979-3.1-.7-3.87-1.153-3.87-2.177v-0.064c0-.8.74-1.441,2.24-1.441a11.22,11.22,0,0,1,6.27,2.209l3.11-4.386a14.1,14.1,0,0,0-9.22-2.977c-5.38,0-8.68,3.009-8.68,7.171v0.064c0,4.61,3.69,5.955,8.46,7.043,3.04,0.7,3.77,1.217,3.77,2.145v0.064c0,0.96-.89,1.537-2.56,1.537a11.512,11.512,0,0,1-7.26-2.69l-3.46,4.13A15.647,15.647,0,0,0,1368.79,804.261Zm11.07-19.272h6.33v-4.482h-6.33v4.482Zm0.12,18.887h6.09V786.557h-6.09v17.319Zm8.84,0h6.08V794.5c0-1.889,1.09-2.914,2.56-2.914,1.44,0,2.43,1.025,2.43,2.914v9.379h6.08V792.544c0-3.938-2.2-6.371-5.89-6.371a6.419,6.419,0,0,0-5.18,2.817v-2.433h-6.08v17.319Zm28,0.417a8.584,8.584,0,0,0,7.71-3.97l-4.06-2.945a4.154,4.154,0,0,1-3.33,1.793c-2.05,0-3.46-1.7-3.46-3.938v-0.064a3.593,3.593,0,0,1,3.4-3.842,3.729,3.729,0,0,1,3.23,1.825l4.13-3.073a8.189,8.189,0,0,0-7.4-3.874,9,9,0,0,0-9.28,9.028V795.3A8.936,8.936,0,0,0,1416.82,804.293Zm17.31,0a9.055,9.055,0,0,0,7.52-3.522l-3.36-2.785a5.224,5.224,0,0,1-3.84,1.761,3.569,3.569,0,0,1-3.74-2.849h11.58c0.04-.417.04-0.865,0.04-1.249,0-5.09-2.76-9.476-8.74-9.476-5.13,0-8.74,4-8.74,9.06V795.3C1424.85,800.675,1428.69,804.293,1434.13,804.293Zm-3.52-10.5c0.32-1.888,1.41-3.137,3.01-3.137,1.66,0,2.78,1.217,3.01,3.137h-6.02Zm21.31,10.084h17.73v-5.058h-9.25l3.84-2.689c3.33-2.4,5.19-4.257,5.19-7.843v-0.064c0-4.226-3.36-7.139-8.26-7.139-4.35,0-6.72,1.7-9.12,4.8l4.19,3.49c1.76-2.017,2.95-2.882,4.45-2.882a2.239,2.239,0,0,1,2.5,2.273c0,1.345-.8,2.4-2.88,4.034l-8.39,6.4v4.673Zm29.92,0.449c6.41,0,10.41-5.315,10.41-11.653v-0.064c0-6.339-3.97-11.589-10.34-11.589s-10.41,5.314-10.41,11.653v0.064C1471.5,799.075,1475.44,804.325,1481.84,804.325Zm0.07-5.507c-2.5,0-4.17-2.561-4.17-6.146v-0.064c0-3.586,1.64-6.083,4.1-6.083s4.16,2.593,4.16,6.147v0.064C1486,796.289,1484.4,798.818,1481.91,798.818Zm22.65,5.507c6.41,0,10.41-5.315,10.41-11.653v-0.064c0-6.339-3.97-11.589-10.34-11.589s-10.41,5.314-10.41,11.653v0.064C1494.22,799.075,1498.16,804.325,1504.56,804.325Zm0.07-5.507c-2.5,0-4.17-2.561-4.17-6.146v-0.064c0-3.586,1.64-6.083,4.1-6.083s4.16,2.593,4.16,6.147v0.064C1508.72,796.289,1507.12,798.818,1504.63,798.818Zm22.65,5.507c6.4,0,10.41-5.315,10.41-11.653v-0.064c0-6.339-3.97-11.589-10.34-11.589s-10.41,5.314-10.41,11.653v0.064C1516.94,799.075,1520.88,804.325,1527.28,804.325Zm0.07-5.507c-2.5,0-4.17-2.561-4.17-6.146v-0.064c0-3.586,1.64-6.083,4.1-6.083s4.16,2.593,4.16,6.147v0.064C1531.44,796.289,1529.84,798.818,1527.35,798.818Zm11.48,10.341c4-.128,6.59-1.761,6.59-6.5v-5.09h-6.33v6.242h2.46c0.07,1.729-1.06,2.754-3.2,3.01Zm26.34-4.9c5.44,0,9.06-2.721,9.06-7.3V796.9c0-4.194-3.2-5.859-8.36-6.979-3.1-.7-3.87-1.153-3.87-2.177v-0.064c0-.8.74-1.441,2.24-1.441a11.249,11.249,0,0,1,6.28,2.209l3.1-4.386a14.1,14.1,0,0,0-9.22-2.977c-5.38,0-8.67,3.009-8.67,7.171v0.064c0,4.61,3.68,5.955,8.45,7.043,3.04,0.7,3.78,1.217,3.78,2.145v0.064c0,0.96-.9,1.537-2.57,1.537a11.532,11.532,0,0,1-7.26-2.69l-3.46,4.13A15.647,15.647,0,0,0,1565.17,804.261Zm11.07-.385h6.08v-9.411c0-1.889,1.02-2.882,2.47-2.882s2.36,0.993,2.36,2.882v9.411h6.09v-9.411c0-1.889,1.05-2.882,2.49-2.882s2.37,0.993,2.37,2.882v9.411h6.09V792.512c0-4.034-2.25-6.339-5.93-6.339a7.268,7.268,0,0,0-5.79,2.817,5.316,5.316,0,0,0-5-2.817,6.356,6.356,0,0,0-5.15,2.753v-2.369h-6.08v17.319Zm35.39,0.385a6.53,6.53,0,0,0,5.09-2.177v1.792h6.02V793.92c0-2.433-.54-4.225-1.86-5.506-1.37-1.376-3.49-2.113-6.59-2.113a17.379,17.379,0,0,0-7.01,1.345l1.25,4.29a12.141,12.141,0,0,1,4.77-.961c2.33,0,3.45,1.025,3.45,2.817v0.289a13.236,13.236,0,0,0-4.16-.673c-4.06,0-6.78,1.857-6.78,5.442v0.064C1605.81,802.372,1608.33,804.261,1611.63,804.261Zm2.18-3.81a1.912,1.912,0,0,1-2.15-1.889V798.5c0-1.28,1.03-2.145,2.79-2.145a6.372,6.372,0,0,1,2.37.449v0.8A2.784,2.784,0,0,1,1613.81,800.451Zm11.52,3.425h6.08V780.507h-6.08v23.369Zm8.96,0h6.08V780.507h-6.08v23.369Zm28.19,0.449a11.323,11.323,0,0,0,9.93-5.058l-4.68-3.33c-1.34,1.633-2.72,2.721-5.06,2.721-3.13,0-5.34-2.625-5.34-5.986v-0.064c0-3.265,2.21-5.922,5.34-5.922a6,6,0,0,1,4.9,2.625l4.68-3.618a10.98,10.98,0,0,0-9.51-4.674,11.516,11.516,0,0,0-11.82,11.653v0.064A11.384,11.384,0,0,0,1662.48,804.325Zm16.54-.064a6.515,6.515,0,0,0,5.09-2.177v1.792h6.02V793.92c0-2.433-.54-4.225-1.86-5.506-1.37-1.376-3.49-2.113-6.59-2.113a17.379,17.379,0,0,0-7.01,1.345l1.25,4.29a12.141,12.141,0,0,1,4.77-.961c2.33,0,3.45,1.025,3.45,2.817v0.289a13.236,13.236,0,0,0-4.16-.673c-4.06,0-6.78,1.857-6.78,5.442v0.064C1673.2,802.372,1675.73,804.261,1679.02,804.261Zm2.18-3.81a1.912,1.912,0,0,1-2.15-1.889V798.5c0-1.28,1.03-2.145,2.79-2.145a6.372,6.372,0,0,1,2.37.449v0.8A2.784,2.784,0,0,1,1681.2,800.451ZM1692.59,809h6.08v-7.235a6.507,6.507,0,0,0,5.28,2.5c4.1,0,7.65-3.426,7.65-9.06v-0.064c0-5.538-3.55-8.964-7.68-8.964a6.371,6.371,0,0,0-5.25,2.689v-2.3h-6.08V809Zm9.47-9.828a3.663,3.663,0,0,1-3.52-3.938v-0.064a3.557,3.557,0,1,1,7.08,0v0.064A3.65,3.65,0,0,1,1702.06,799.171Zm18.4,5.09c4.23,0,7.08-1.985,7.08-5.795V798.4c0-3.361-2.72-4.546-6.15-5.506-1.82-.544-2.82-0.864-2.82-1.537V791.3c0-.48.48-0.832,1.41-0.832a11.747,11.747,0,0,1,5.13,1.6l2.08-3.842a13.565,13.565,0,0,0-7.14-2.017c-4,0-6.95,2.049-6.95,5.731V792c0,3.489,2.72,4.642,6.15,5.538,1.82,0.512,2.78.8,2.78,1.472v0.065c0,0.608-.48.928-1.53,0.928a11.262,11.262,0,0,1-5.96-1.985l-2.27,3.682A13.963,13.963,0,0,0,1720.46,804.261Zm17.15-.385h6.08V794.5c0-1.889,1.09-2.914,2.57-2.914,1.44,0,2.43,1.025,2.43,2.914v9.379h6.08V792.544c0-3.938-2.21-6.371-5.89-6.371a6.389,6.389,0,0,0-5.19,2.753v-8.419h-6.08v23.369Zm24.61,0.385a6.53,6.53,0,0,0,5.09-2.177v1.792h6.02V793.92c0-2.433-.54-4.225-1.86-5.506-1.37-1.376-3.49-2.113-6.59-2.113a17.379,17.379,0,0,0-7.01,1.345l1.25,4.29a12.141,12.141,0,0,1,4.77-.961c2.33,0,3.45,1.025,3.45,2.817v0.289a13.236,13.236,0,0,0-4.16-.673c-4.06,0-6.78,1.857-6.78,5.442v0.064C1756.4,802.372,1758.92,804.261,1762.22,804.261Zm2.18-3.81a1.912,1.912,0,0,1-2.15-1.889V798.5c0-1.28,1.03-2.145,2.79-2.145a6.413,6.413,0,0,1,2.37.449v0.8A2.784,2.784,0,0,1,1764.4,800.451Zm16.09,3.554h5.54l6.92-17.448h-6.31l-3.33,10.117-3.33-10.117h-6.4Zm21.29,0.288a9.082,9.082,0,0,0,7.52-3.522l-3.36-2.785a5.224,5.224,0,0,1-3.84,1.761,3.579,3.579,0,0,1-3.75-2.849h11.59c0.03-.417.03-0.865,0.03-1.249,0-5.09-2.75-9.476-8.74-9.476-5.12,0-8.74,4-8.74,9.06V795.3C1792.49,800.675,1796.33,804.293,1801.78,804.293Zm-3.53-10.5c0.32-1.888,1.41-3.137,3.01-3.137,1.67,0,2.79,1.217,3.01,3.137h-6.02Zm33.25,10.469c4.1,0,7.66-3.426,7.66-9.06v-0.064c0-5.538-3.56-8.964-7.69-8.964a6.371,6.371,0,0,0-5.25,2.689v-8.355h-6.08v23.369h6.08v-2.112A6.507,6.507,0,0,0,1831.5,804.261Zm-1.88-5.09a3.665,3.665,0,0,1-3.53-3.938v-0.064a3.557,3.557,0,1,1,7.08,0v0.064A3.649,3.649,0,0,1,1829.62,799.171Zm20.09,5.122a9.055,9.055,0,0,0,7.52-3.522l-3.36-2.785a5.224,5.224,0,0,1-3.84,1.761,3.569,3.569,0,0,1-3.74-2.849h11.58c0.04-.417.04-0.865,0.04-1.249,0-5.09-2.76-9.476-8.74-9.476-5.13,0-8.74,4-8.74,9.06V795.3C1840.43,800.675,1844.27,804.293,1849.71,804.293Zm-3.52-10.5c0.32-1.888,1.41-3.137,3.01-3.137,1.66,0,2.78,1.217,3.01,3.137h-6.02Zm22.24,10.5a9.055,9.055,0,0,0,7.52-3.522l-3.36-2.785a5.224,5.224,0,0,1-3.84,1.761,3.569,3.569,0,0,1-3.74-2.849h11.58c0.04-.417.04-0.865,0.04-1.249,0-5.09-2.76-9.476-8.74-9.476-5.13,0-8.74,4-8.74,9.06V795.3C1859.15,800.675,1862.99,804.293,1868.43,804.293Zm-3.52-10.5c0.32-1.888,1.41-3.137,3.01-3.137,1.66,0,2.78,1.217,3.01,3.137h-6.02Zm13.66,10.084h6.08V794.5c0-1.889,1.09-2.914,2.56-2.914,1.45,0,2.44,1.025,2.44,2.914v9.379h6.08V792.544c0-3.938-2.21-6.371-5.89-6.371a6.423,6.423,0,0,0-5.19,2.817v-2.433h-6.08v17.319Zm-518.94,32h6.09V826.5c0-1.889,1.08-2.914,2.56-2.914,1.44,0,2.43,1.025,2.43,2.914v9.379h6.08V824.544c0-3.938-2.21-6.371-5.89-6.371a6.419,6.419,0,0,0-5.18,2.817v-2.433h-6.09v17.319Zm28.49,0.417c5.57,0,9.6-4.13,9.6-9.06v-0.064c0-4.93-4-9-9.54-9-5.57,0-9.6,4.13-9.6,9.06V827.3C1378.58,832.227,1382.58,836.293,1388.12,836.293Zm0.06-5.154a3.75,3.75,0,0,1-3.68-3.906v-0.064a3.629,3.629,0,0,1,3.62-3.842,3.756,3.756,0,0,1,3.68,3.906V827.3A3.629,3.629,0,0,1,1388.18,831.139Zm19.68,4.737h6.08v-9.411c0-1.889,1.02-2.882,2.46-2.882s2.37,0.993,2.37,2.882v9.411h6.08v-9.411c0-1.889,1.06-2.882,2.5-2.882s2.37,0.993,2.37,2.882v9.411h6.08V824.512c0-4.034-2.24-6.339-5.92-6.339a7.268,7.268,0,0,0-5.79,2.817,5.316,5.316,0,0,0-5-2.817,6.356,6.356,0,0,0-5.15,2.753v-2.369h-6.08v17.319Zm39.26,0.417c5.57,0,9.61-4.13,9.61-9.06v-0.064c0-4.93-4-9-9.54-9-5.57,0-9.61,4.13-9.61,9.06V827.3C1437.58,832.227,1441.58,836.293,1447.12,836.293Zm0.07-5.154a3.75,3.75,0,0,1-3.68-3.906v-0.064a3.621,3.621,0,0,1,3.61-3.842,3.75,3.75,0,0,1,3.68,3.906V827.3A3.621,3.621,0,0,1,1447.19,831.139Zm11.45,4.737h6.08V830.5c0-4,1.79-5.826,4.96-5.826h0.52v-6.4c-2.89-.128-4.49,1.409-5.48,3.778v-3.49h-6.08v17.319Zm21.31,0.417a9.088,9.088,0,0,0,7.53-3.522l-3.36-2.785a5.229,5.229,0,0,1-3.85,1.761,3.576,3.576,0,0,1-3.74-2.849h11.59c0.03-.417.03-0.865,0.03-1.249,0-5.09-2.75-9.476-8.74-9.476-5.12,0-8.74,4-8.74,9.06V827.3C1470.67,832.675,1474.51,836.293,1479.95,836.293Zm-3.52-10.5c0.32-1.888,1.41-3.137,3.01-3.137,1.67,0,2.79,1.217,3.01,3.137h-6.02Zm27.49,10.213h5.54l6.91-17.448h-6.3l-3.33,10.117-3.33-10.117h-6.4Zm21.54,0.288c5.57,0,9.6-4.13,9.6-9.06v-0.064c0-4.93-4-9-9.54-9-5.57,0-9.6,4.13-9.6,9.06V827.3C1515.92,832.227,1519.92,836.293,1525.46,836.293Zm0.06-5.154a3.756,3.756,0,0,1-3.68-3.906v-0.064a3.629,3.629,0,0,1,3.62-3.842,3.756,3.756,0,0,1,3.68,3.906V827.3A3.629,3.629,0,0,1,1525.52,831.139Zm11.58,4.737h6.09V812.507h-6.09v23.369Zm13.8,0.385a6.546,6.546,0,0,0,5.09-2.177v1.792H1562V825.92c0-2.433-.54-4.225-1.85-5.506-1.38-1.376-3.49-2.113-6.6-2.113a17.451,17.451,0,0,0-7.01,1.345l1.25,4.29a12.214,12.214,0,0,1,4.77-.961c2.34,0,3.46,1.025,3.46,2.817v0.289a13.236,13.236,0,0,0-4.16-.673c-4.07,0-6.79,1.857-6.79,5.442v0.064C1545.07,834.372,1547.6,836.261,1550.9,836.261Zm2.17-3.81a1.9,1.9,0,0,1-2.14-1.889V830.5c0-1.28,1.02-2.145,2.78-2.145a6.372,6.372,0,0,1,2.37.449v0.8A2.784,2.784,0,0,1,1553.07,832.451Zm18.12,3.778a8.678,8.678,0,0,0,4.22-.993v-4.77a5.331,5.331,0,0,1-2.3.577,1.476,1.476,0,0,1-1.67-1.729v-5.859h4.04v-4.9h-4.04v-4.385h-6.08v4.385h-2.05v4.9h2.05V830.5C1565.36,834.628,1567.54,836.229,1571.19,836.229Zm6.26-19.24h6.34v-4.482h-6.34v4.482Zm0.13,18.887h6.09V818.557h-6.09v17.319Zm8.96,0h6.08V812.507h-6.08v23.369Zm17.41,0.417a9.088,9.088,0,0,0,7.53-3.522l-3.36-2.785a5.245,5.245,0,0,1-3.85,1.761,3.569,3.569,0,0,1-3.74-2.849h11.59c0.03-.417.03-0.865,0.03-1.249,0-5.09-2.75-9.476-8.74-9.476-5.12,0-8.74,4-8.74,9.06V827.3C1594.67,832.675,1598.51,836.293,1603.95,836.293Zm-3.52-10.5c0.32-1.888,1.41-3.137,3.01-3.137,1.67,0,2.79,1.217,3.01,3.137h-6.02Zm28.77,10.437a8.691,8.691,0,0,0,4.23-.993v-4.77a5.374,5.374,0,0,1-2.31.577,1.469,1.469,0,0,1-1.66-1.729v-5.859h4.03v-4.9h-4.03v-4.385h-6.09v4.385h-2.04v4.9h2.04V830.5C1623.37,834.628,1625.55,836.229,1629.2,836.229Zm6.27-.353h6.08V826.5c0-1.889,1.09-2.914,2.56-2.914,1.44,0,2.44,1.025,2.44,2.914v9.379h6.08V824.544c0-3.938-2.21-6.371-5.89-6.371a6.374,6.374,0,0,0-5.19,2.753v-8.419h-6.08v23.369Zm24.61,0.385a6.546,6.546,0,0,0,5.09-2.177v1.792h6.02V825.92c0-2.433-.55-4.225-1.86-5.506-1.38-1.376-3.49-2.113-6.59-2.113a17.379,17.379,0,0,0-7.01,1.345l1.24,4.29a12.214,12.214,0,0,1,4.77-.961c2.34,0,3.46,1.025,3.46,2.817v0.289a13.236,13.236,0,0,0-4.16-.673c-4.07,0-6.79,1.857-6.79,5.442v0.064C1654.25,834.372,1656.78,836.261,1660.08,836.261Zm2.18-3.81a1.912,1.912,0,0,1-2.15-1.889V830.5c0-1.28,1.03-2.145,2.79-2.145a6.413,6.413,0,0,1,2.37.449v0.8A2.784,2.784,0,0,1,1662.26,832.451Zm11.39,3.425h6.08V826.5c0-1.889,1.09-2.914,2.56-2.914,1.44,0,2.43,1.025,2.43,2.914v9.379h6.08V824.544c0-3.938-2.2-6.371-5.89-6.371a6.419,6.419,0,0,0-5.18,2.817v-2.433h-6.08v17.319Zm28.22,0h17.06v-5.442h-10.85V813.467h-6.21v22.409Zm23.68,0.385a6.53,6.53,0,0,0,5.09-2.177v1.792h6.02V825.92c0-2.433-.55-4.225-1.86-5.506-1.37-1.376-3.49-2.113-6.59-2.113a17.379,17.379,0,0,0-7.01,1.345l1.25,4.29a12.141,12.141,0,0,1,4.77-.961c2.33,0,3.45,1.025,3.45,2.817v0.289a13.236,13.236,0,0,0-4.16-.673c-4.06,0-6.79,1.857-6.79,5.442v0.064C1719.72,834.372,1722.25,836.261,1725.55,836.261Zm2.18-3.81a1.912,1.912,0,0,1-2.15-1.889V830.5c0-1.28,1.03-2.145,2.79-2.145a6.413,6.413,0,0,1,2.37.449v0.8A2.784,2.784,0,0,1,1727.73,832.451Zm11.39,3.425h6.08V830.5c0-4,1.79-5.826,4.96-5.826h0.51v-6.4c-2.88-.128-4.48,1.409-5.47,3.778v-3.49h-6.08v17.319Zm21.25,5.187c3.62,0,6.05-.865,7.62-2.433,1.53-1.537,2.24-3.746,2.24-6.915V818.557h-6.08v2.049a6.975,6.975,0,0,0-5.45-2.433c-4,0-7.49,3.074-7.49,8.068v0.064c0,4.962,3.43,8.035,7.69,8.035a6.719,6.719,0,0,0,5.34-2.593v0.672c0,2.753-1.5,4.258-4.54,4.258a11.918,11.918,0,0,1-6.05-1.633l-1.96,4.034A18.59,18.59,0,0,0,1760.37,841.063Zm0.35-11.4a3.324,3.324,0,0,1-3.55-3.329v-0.064a3.349,3.349,0,0,1,3.55-3.362,3.315,3.315,0,0,1,3.52,3.33v0.064A3.34,3.34,0,0,1,1760.72,829.666Zm20.7,6.627a9.088,9.088,0,0,0,7.53-3.522l-3.36-2.785a5.245,5.245,0,0,1-3.85,1.761A3.576,3.576,0,0,1,1778,828.9h11.59c0.03-.417.03-0.865,0.03-1.249,0-5.09-2.75-9.476-8.74-9.476-5.12,0-8.74,4-8.74,9.06V827.3C1772.14,832.675,1775.98,836.293,1781.42,836.293Zm-3.52-10.5c0.32-1.888,1.41-3.137,3.01-3.137,1.67,0,2.79,1.217,3.01,3.137h-6.02Zm33.03,10.533a11.293,11.293,0,0,0,9.92-5.058l-4.67-3.33c-1.35,1.633-2.72,2.721-5.06,2.721-3.14,0-5.35-2.625-5.35-5.986v-0.064c0-3.265,2.21-5.922,5.35-5.922a6,6,0,0,1,4.9,2.625l4.67-3.618a10.968,10.968,0,0,0-9.51-4.674,11.514,11.514,0,0,0-11.81,11.653v0.064A11.384,11.384,0,0,0,1810.93,836.325Zm16.54-.064a6.53,6.53,0,0,0,5.09-2.177v1.792h6.02V825.92c0-2.433-.55-4.225-1.86-5.506-1.38-1.376-3.49-2.113-6.59-2.113a17.379,17.379,0,0,0-7.01,1.345l1.24,4.29a12.214,12.214,0,0,1,4.77-.961c2.34,0,3.46,1.025,3.46,2.817v0.289a13.236,13.236,0,0,0-4.16-.673c-4.07,0-6.79,1.857-6.79,5.442v0.064C1821.64,834.372,1824.17,836.261,1827.47,836.261Zm2.18-3.81a1.912,1.912,0,0,1-2.15-1.889V830.5c0-1.28,1.03-2.145,2.79-2.145a6.413,6.413,0,0,1,2.37.449v0.8A2.784,2.784,0,0,1,1829.65,832.451ZM1841.04,841h6.08v-7.235a6.507,6.507,0,0,0,5.28,2.5c4.1,0,7.65-3.426,7.65-9.06v-0.064c0-5.538-3.55-8.964-7.68-8.964a6.356,6.356,0,0,0-5.25,2.689v-2.3h-6.08V841Zm9.47-9.828a3.663,3.663,0,0,1-3.52-3.938v-0.064a3.553,3.553,0,1,1,7.07,0v0.064A3.643,3.643,0,0,1,1850.51,831.171Zm18.4,5.09c4.23,0,7.08-1.985,7.08-5.795V830.4c0-3.361-2.73-4.546-6.15-5.506-1.83-.544-2.82-0.864-2.82-1.537V823.3c0-.48.48-0.832,1.41-0.832a11.672,11.672,0,0,1,5.12,1.6l2.08-3.842a13.539,13.539,0,0,0-7.14-2.017c-4,0-6.94,2.049-6.94,5.731V824c0,3.489,2.72,4.642,6.14,5.538,1.83,0.512,2.79.8,2.79,1.472v0.065c0,0.608-.48.928-1.54,0.928a11.232,11.232,0,0,1-5.95-1.985l-2.28,3.682A14.015,14.015,0,0,0,1868.91,836.261Zm-501.49,27.1c2.22,0,3.82-1.247,3.82-3.166v-0.032c0-1.711-1.15-2.622-3.64-3.166-2.47-.528-3.04-1.119-3.04-2.175v-0.032c0-1.007.93-1.807,2.38-1.807a4.922,4.922,0,0,1,3.23,1.215l0.74-.975a5.869,5.869,0,0,0-3.94-1.375c-2.12,0-3.67,1.3-3.67,3.054v0.032c0,1.839,1.18,2.671,3.75,3.23,2.35,0.5,2.91,1.088,2.91,2.127v0.032c0,1.1-.99,1.9-2.49,1.9a5.343,5.343,0,0,1-3.84-1.583l-0.78.927A6.542,6.542,0,0,0,1367.42,863.356Zm9.97,0.032a4.292,4.292,0,0,0,4.33-4.317v-0.032a4.31,4.31,0,0,0-8.62.032V859.1A4.237,4.237,0,0,0,1377.39,863.388Zm0.03-1.1a3.1,3.1,0,0,1-3.05-3.214v-0.032a3.05,3.05,0,0,1,3.02-3.2,3.13,3.13,0,0,1,3.07,3.23V859.1A3.052,3.052,0,0,1,1377.42,862.285Zm9.57,1.087a3.152,3.152,0,0,0,2.83-1.615v1.44h1.22v-8.268h-1.22v4.733a2.441,2.441,0,0,1-2.48,2.591,2.208,2.208,0,0,1-2.29-2.5v-4.829h-1.23v5.133A3.022,3.022,0,0,0,1386.99,863.372Zm6.82-.175h1.23V859.9c0-2.494,1.47-3.79,3.28-3.79h0.09v-1.327a3.544,3.544,0,0,0-3.37,2.3v-2.159h-1.23V863.2Zm9.85,0.191a4.285,4.285,0,0,0,3.38-1.6l-0.79-.735a3.4,3.4,0,0,1-2.52,1.231,3.088,3.088,0,0,1-3.04-3.214v-0.032a3.051,3.051,0,0,1,2.96-3.2,3.358,3.358,0,0,1,2.51,1.247l0.81-.864a4.308,4.308,0,0,0-7.55,2.847V859.1A4.249,4.249,0,0,0,1403.66,863.388Zm5.91-3.821h6.55a3.757,3.757,0,0,0,.02-0.432c0-2.431-1.41-4.382-3.85-4.382a4.327,4.327,0,0,0,.16,8.635,4.261,4.261,0,0,0,3.4-1.551l-0.77-.687a3.415,3.415,0,0,1-2.6,1.167A2.882,2.882,0,0,1,1409.57,859.567Zm0-.992a2.846,2.846,0,0,1,2.68-2.782c1.63,0,2.5,1.279,2.64,2.782h-5.32Zm8.67-1.967h1.47v-1.679h-1.47v1.679Zm0,6.589h1.47v-1.68h-1.47v1.68Zm9.15,0h1.26v-4.878h6.06v-1.151h-6.06v-4h6.78V852h-8.04V863.2Zm12.35,0.175a3.635,3.635,0,0,0,2.98-1.407V863.2h1.21v-5.054a3.289,3.289,0,0,0-.86-2.43,3.676,3.676,0,0,0-2.67-.912,6.769,6.769,0,0,0-3.01.7l0.37,1.007a5.738,5.738,0,0,1,2.51-.591c1.55,0,2.45.767,2.45,2.238v0.256a8.733,8.733,0,0,0-2.53-.352c-2.1,0-3.53.928-3.53,2.7V860.8C1436.66,862.493,1438.19,863.372,1439.74,863.372Zm0.24-.991a1.832,1.832,0,0,1-2.08-1.647V860.7c0-.992.88-1.663,2.42-1.663a8.516,8.516,0,0,1,2.41.352v0.767C1442.73,861.469,1441.5,862.381,1439.98,862.381Zm10.29,1.007a4.249,4.249,0,0,0,3.37-1.6l-0.78-.735a3.42,3.42,0,0,1-2.53,1.231,3.1,3.1,0,0,1-3.04-3.214v-0.032a3.051,3.051,0,0,1,2.96-3.2,3.325,3.325,0,0,1,2.51,1.247l0.82-.864a4.308,4.308,0,0,0-7.55,2.847V859.1A4.243,4.243,0,0,0,1450.27,863.388Zm8.18-.048a3.066,3.066,0,0,0,1.48-.351v-1.056a2.574,2.574,0,0,1-1.2.288,1.223,1.223,0,0,1-1.39-1.375v-4.83h2.62v-1.087h-2.62v-2.5h-1.23v2.5h-1.15v1.087h1.15v4.99A2.107,2.107,0,0,0,1458.45,863.34Zm6.43,0.016c1.64,0,2.94-.911,2.94-2.478v-0.032c0-1.487-1.38-1.983-2.66-2.367-1.1-.336-2.12-0.64-2.12-1.423v-0.032a1.368,1.368,0,0,1,1.6-1.2,4.627,4.627,0,0,1,2.44.8l0.56-.927a5.608,5.608,0,0,0-2.97-.912c-1.63,0-2.82.944-2.82,2.367v0.032c0,1.519,1.44,1.967,2.74,2.335,1.09,0.3,2.06.623,2.06,1.455v0.032a1.474,1.474,0,0,1-1.71,1.311,4.83,4.83,0,0,1-2.86-1.055l-0.63.879A5.7,5.7,0,0,0,1464.88,863.356Zm5.97-3.789h6.55a3.757,3.757,0,0,0,.02-0.432c0-2.431-1.41-4.382-3.86-4.382a4.328,4.328,0,0,0,.16,8.635,4.267,4.267,0,0,0,3.41-1.551l-0.77-.687a3.415,3.415,0,0,1-2.6,1.167A2.882,2.882,0,0,1,1470.85,859.567Zm0-.992a2.846,2.846,0,0,1,2.68-2.782c1.63,0,2.5,1.279,2.64,2.782h-5.32Zm11.5,4.765a3.135,3.135,0,0,0,1.49-.351v-1.056a2.631,2.631,0,0,1-1.2.288,1.223,1.223,0,0,1-1.39-1.375v-4.83h2.62v-1.087h-2.62v-2.5h-1.24v2.5h-1.15v1.087h1.15v4.99A2.107,2.107,0,0,0,1482.35,863.34Zm3.25,1.807a1.965,1.965,0,0,0,1.77-2.19v-1.44h-1.47v1.68h0.58a1.277,1.277,0,0,1-1.07,1.391Zm8.56-1.95h7.82v-1.152h-5.93l2.99-2.654c1.96-1.711,2.83-2.719,2.83-4.35v-0.032a3.226,3.226,0,0,0-3.47-3.166,4.422,4.422,0,0,0-4.03,2.382l0.92,0.672c0.9-1.247,1.73-1.919,3.01-1.919a2.133,2.133,0,0,1,2.25,2.143c0,1.119-.62,1.983-2.33,3.518l-4.06,3.582V863.2Zm10.81,0h1.41l5.09-10.251V852h-7.6v1.151h6.16Zm6.98,0h1.47v-1.68h-1.47v1.68Zm8.08,0.191c2.88,0,4.73-2.654,4.73-5.788v-0.032c0-3.135-1.82-5.757-4.7-5.757s-4.75,2.654-4.75,5.789v0.032C1515.31,860.766,1517.13,863.388,1520.03,863.388Zm0.03-1.151c-2.1,0-3.44-2.191-3.44-4.637v-0.032c0-2.463,1.31-4.606,3.41-4.606,2.08,0,3.42,2.191,3.42,4.638v0.032C1523.45,860.078,1522.15,862.237,1520.06,862.237Zm11.02,1.151a3.788,3.788,0,0,0,4.02-3.726V859.63a3.865,3.865,0,0,0-7.05-1.727c-0.02-2.894,1.24-4.941,3.27-4.941a3.891,3.891,0,0,1,2.64,1.1l0.74-.976a4.96,4.96,0,0,0-3.31-1.279c-2.93,0-4.66,2.67-4.66,6.076v0.032c0,2.287.52,3.439,1.41,4.334A4.07,4.07,0,0,0,1531.08,863.388Zm0.02-1.119a2.609,2.609,0,0,1-2.83-2.511v-0.032a2.624,2.624,0,0,1,2.8-2.446,2.488,2.488,0,0,1,2.73,2.4v0.032A2.531,2.531,0,0,1,1531.1,862.269Zm6.24,0.928h1.47v-1.68h-1.47v1.68Zm3.46,0h7.82v-1.152h-5.93l2.99-2.654c1.96-1.711,2.83-2.719,2.83-4.35v-0.032a3.226,3.226,0,0,0-3.47-3.166,4.422,4.422,0,0,0-4.03,2.382l0.92,0.672c0.9-1.247,1.73-1.919,3.01-1.919a2.133,2.133,0,0,1,2.25,2.143c0,1.119-.62,1.983-2.33,3.518l-4.06,3.582V863.2Zm14.52,0.191c2.88,0,4.74-2.654,4.74-5.788v-0.032c0-3.135-1.83-5.757-4.7-5.757s-4.75,2.654-4.75,5.789v0.032C1550.61,860.766,1552.43,863.388,1555.32,863.388Zm0.04-1.151c-2.1,0-3.44-2.191-3.44-4.637v-0.032c0-2.463,1.31-4.606,3.4-4.606s3.43,2.191,3.43,4.638v0.032C1558.75,860.078,1557.45,862.237,1555.36,862.237Zm8.48,0.96h1.24V851.923h-0.92l-2.74.943,0.31,1.024,2.11-.656V863.2Zm8.19,0.191a3.779,3.779,0,0,0,4.01-3.726V859.63a3.582,3.582,0,0,0-3.87-3.438,3.628,3.628,0,0,0-3.18,1.711c-0.02-2.894,1.25-4.941,3.28-4.941a3.929,3.929,0,0,1,2.64,1.1l0.73-.976a4.941,4.941,0,0,0-3.31-1.279c-2.93,0-4.65,2.67-4.65,6.076v0.032c0,2.287.51,3.439,1.41,4.334A4.053,4.053,0,0,0,1572.03,863.388Zm0.01-1.119a2.615,2.615,0,0,1-2.83-2.511v-0.032a2.624,2.624,0,0,1,2.8-2.446,2.491,2.491,0,0,1,2.74,2.4v0.032A2.539,2.539,0,0,1,1572.04,862.269Z" transform="translate(-1358.28 -780.5)"/>
</svg>
