<svg xmlns="http://www.w3.org/2000/svg" width="600" height="500" viewBox="0 0 600 500">
  <defs>
    <style>
      .cls-1 {
        fill: #fff;
        fill-rule: evenodd;
      }
    </style>
  </defs>
  <path id="h5.svg" class="cls-1" d="M3504,500.507h600V1000.49H3504V500.507Zm60.31,139.618c14.29,0,23.78-7.142,23.78-19.156V620.8c0-11.006-8.4-15.374-21.93-18.315-8.15-1.848-10.16-3.025-10.16-5.713v-0.168c0-2.1,1.93-3.781,5.88-3.781,5.21,0,11.09,2.017,16.46,5.8l8.15-11.51c-6.38-5.125-14.2-7.813-24.19-7.813-14.12,0-22.77,7.9-22.77,18.819v0.168c0,12.1,9.66,15.627,22.18,18.484,7.98,1.848,9.91,3.192,9.91,5.629v0.168c0,2.52-2.35,4.032-6.72,4.032a30.3,30.3,0,0,1-19.07-7.057l-9.07,10.838C3543.98,636.848,3553.9,640.125,3564.31,640.125Zm29.06-1.008h15.96v-24.7c0-4.957,2.69-7.561,6.47-7.561s6.22,2.6,6.22,7.561v24.7h15.96v-24.7c0-4.957,2.78-7.561,6.56-7.561s6.21,2.6,6.21,7.561v24.7h15.97V609.291c0-10.586-5.88-16.635-15.55-16.635-6.63,0-11.25,2.857-15.2,7.394-2.44-4.7-7.06-7.394-13.11-7.394-6.38,0-10.58,3.445-13.53,7.226v-6.218h-15.96v45.453Zm92.91,1.008a17.156,17.156,0,0,0,13.36-5.713v4.7h15.79V612.988c0-6.385-1.43-11.09-4.87-14.451-3.61-3.612-9.16-5.545-17.31-5.545a45.7,45.7,0,0,0-18.4,3.529l3.28,11.258a32.01,32.01,0,0,1,12.52-2.52c6.13,0,9.07,2.688,9.07,7.393v0.756a34.833,34.833,0,0,0-10.92-1.764c-10.67,0-17.81,4.873-17.81,14.282v0.168C3670.99,635.168,3677.62,640.125,3686.28,640.125Zm5.71-10c-3.28,0-5.63-1.848-5.63-4.957V625c0-3.361,2.69-5.629,7.31-5.629a16.768,16.768,0,0,1,6.22,1.176v2.1C3699.89,627.186,3696.61,630.127,3691.99,630.127Zm30.24,8.99h15.96V577.786h-15.96v61.331Zm23.52,0h15.96V577.786h-15.96v61.331Zm74,1.176c13.03,0,20.5-5.629,26.05-13.275l-12.27-8.737c-3.53,4.285-7.14,7.141-13.27,7.141-8.24,0-14.03-6.889-14.03-15.711v-0.168c0-8.569,5.79-15.542,14.03-15.542,5.63,0,9.49,2.688,12.85,6.889l12.27-9.494c-5.21-7.225-12.94-12.266-24.95-12.266-17.82,0-31.01,13.442-31.01,30.581v0.168A29.867,29.867,0,0,0,3819.75,640.293Zm43.43-.168a17.156,17.156,0,0,0,13.36-5.713v4.7h15.79V612.988c0-6.385-1.43-11.09-4.87-14.451-3.61-3.612-9.16-5.545-17.31-5.545a45.7,45.7,0,0,0-18.4,3.529l3.28,11.258a32.01,32.01,0,0,1,12.52-2.52c6.13,0,9.07,2.688,9.07,7.393v0.756a34.833,34.833,0,0,0-10.92-1.764c-10.67,0-17.81,4.873-17.81,14.282v0.168C3847.89,635.168,3854.53,640.125,3863.18,640.125Zm5.71-10c-3.27,0-5.63-1.848-5.63-4.957V625c0-3.361,2.69-5.629,7.31-5.629a16.768,16.768,0,0,1,6.22,1.176v2.1C3876.79,627.186,3873.51,630.127,3868.89,630.127Zm29.9,22.432h15.97V633.572a17.062,17.062,0,0,0,13.86,6.553c10.75,0,20.08-8.99,20.08-23.777V616.18c0-14.534-9.33-23.524-20.17-23.524-6.8,0-10.67,3.277-13.77,7.058v-6.05h-15.97v58.895Zm24.87-25.793c-5.12,0-9.24-4.284-9.24-10.334v-0.168c0-5.965,4.12-10.249,9.24-10.249,5.21,0,9.33,4.284,9.33,10.249v0.168C3932.99,622.566,3928.87,626.766,3923.66,626.766Zm48.3,13.359c11.09,0,18.57-5.209,18.57-15.207V624.75c0-8.822-7.14-11.93-16.13-14.451-4.79-1.428-7.4-2.268-7.4-4.032V606.1c0-1.261,1.26-2.185,3.7-2.185,3.61,0,8.74,1.6,13.44,4.2l5.46-10.082a35.556,35.556,0,0,0-18.73-5.293c-10.5,0-18.23,5.377-18.23,15.039v0.168c0,9.158,7.14,12.182,16.13,14.535,4.79,1.344,7.31,2.1,7.31,3.864v0.168c0,1.6-1.26,2.437-4.04,2.437-4.7,0-10.41-1.765-15.62-5.209l-5.97,9.662A36.66,36.66,0,0,0,3971.96,640.125ZM3562.8,722.209c9.07,0,15.38-3.7,19.74-9.242l-8.82-7.309c-3.27,3.192-6.3,4.621-10.08,4.621-4.96,0-8.57-2.521-9.83-7.478h30.41c0.09-1.092.09-2.268,0.09-3.276,0-13.359-7.23-24.869-22.94-24.869-13.44,0-22.93,10.5-22.93,23.776V698.6C3538.44,712.715,3548.52,722.209,3562.8,722.209Zm-9.24-27.557c0.84-4.957,3.7-8.234,7.9-8.234,4.37,0,7.31,3.193,7.89,8.234h-15.79Zm68.13,39.907h15.96V675.664h-15.96v5.545c-3.03-3.444-7.06-6.553-13.95-6.553-10.75,0-20,8.99-20,23.776V698.6c0,14.534,9.33,23.524,20.08,23.524,6.81,0,10.76-3.277,13.87-7.058v19.492Zm-8.99-25.793c-5.13,0-9.33-4.284-9.33-10.334v-0.168c0-6.049,4.2-10.249,9.33-10.249s9.24,4.284,9.24,10.249v0.168C3621.94,704.482,3617.82,708.766,3612.7,708.766Zm46.95,13.359c6.47,0,10.67-3.445,13.61-7.226v6.218h15.96V675.664h-15.96v24.617c0,4.957-2.86,7.645-6.64,7.645-3.86,0-6.47-2.688-6.47-7.645V675.664h-15.96v29.742C3644.19,715.74,3649.99,722.125,3659.65,722.125Zm36.45-50.577h16.64V659.786H3696.1v11.762Zm0.34,49.569h15.96V675.664h-15.96v45.453Zm41.25,0.924a22.778,22.778,0,0,0,11.09-2.605V706.918a14.035,14.035,0,0,1-6.05,1.512c-2.94,0-4.37-1.344-4.37-4.537V688.519h10.58V675.664h-10.58v-11.51h-15.97v11.51h-5.37v12.855h5.37V707C3722.39,717.84,3728.11,722.041,3737.69,722.041Zm16.46-50.493h16.63V659.786h-16.63v11.762Zm0.33,49.569h15.96V675.664h-15.96v45.453Zm45.7,1.092c9.07,0,15.38-3.7,19.74-9.242l-8.82-7.309c-3.27,3.192-6.3,4.621-10.08,4.621-4.96,0-8.57-2.521-9.83-7.478h30.41c0.09-1.092.09-2.268,0.09-3.276,0-13.359-7.23-24.869-22.94-24.869-13.44,0-22.93,10.5-22.93,23.776V698.6C3775.82,712.715,3785.9,722.209,3800.18,722.209Zm-9.24-27.557c0.84-4.957,3.7-8.234,7.9-8.234,4.37,0,7.31,3.193,7.89,8.234h-15.79Zm53.93,27.473c11.09,0,18.56-5.209,18.56-15.207V706.75c0-8.822-7.14-11.93-16.13-14.451-4.78-1.428-7.39-2.268-7.39-4.032V688.1c0-1.261,1.26-2.185,3.7-2.185,3.61,0,8.74,1.6,13.44,4.2l5.46-10.082a35.556,35.556,0,0,0-18.73-5.293c-10.51,0-18.24,5.377-18.24,15.039v0.168c0,9.158,7.15,12.182,16.14,14.535,4.78,1.344,7.3,2.1,7.3,3.864v0.168c0,1.6-1.26,2.437-4.03,2.437-4.7,0-10.42-1.765-15.63-5.209l-5.96,9.662A36.66,36.66,0,0,0,3844.87,722.125Z" transform="translate(-3504 -500.5)"/>
</svg>
