<?xml version="1.0" encoding="utf-8"?>
<!-- Generator: Adobe Illustrator 19.2.1, SVG Export Plug-In . SVG Version: 6.00 Build 0)  -->
<svg version="1.1" id="Layer_1" xmlns="http://www.w3.org/2000/svg" xmlns:xlink="http://www.w3.org/1999/xlink" x="0px" y="0px"
	 viewBox="0 0 74.9 39.5" style="enable-background:new 0 0 74.9 39.5;" xml:space="preserve">
<style type="text/css">
	.st0{fill:#575756;}
</style>
<path class="st0" d="M1.2,7.9V4.8H0.3V2.6h0.9V0.7h2.7v1.9h1.8v2.1H3.8v2.6c0,0.5,0.2,0.8,0.7,0.8c0.4,0,0.7-0.1,1-0.3v2.1
	c-0.5,0.3-1.1,0.4-1.8,0.4C2.1,10.4,1.2,9.7,1.2,7.9z"/>
<path class="st0" d="M5.8,6.5L5.8,6.5c0-2.2,1.8-4,4.2-4s4.2,1.8,4.2,3.9l0,0c0,2.2-1.8,4-4.2,4S5.8,8.6,5.8,6.5z M11.6,6.5
	L11.6,6.5c0-1-0.7-1.7-1.6-1.7c-1,0-1.6,0.8-1.6,1.7l0,0c0,0.9,0.7,1.7,1.6,1.7C11,8.1,11.6,7.4,11.6,6.5z"/>
<path class="st0" d="M18.1,6.5L18.1,6.5c0-2.5,1.5-4,3.3-4c1.1,0,1.8,0.5,2.3,1.1V0h2.7v10.2h-2.7v-1c-0.5,0.6-1.2,1.2-2.3,1.2
	C19.7,10.4,18.1,8.9,18.1,6.5z M23.8,6.4L23.8,6.4c0-1-0.7-1.7-1.5-1.7c-0.9,0-1.6,0.7-1.6,1.7l0,0c0,1,0.7,1.7,1.6,1.7
	C23.2,8.2,23.8,7.4,23.8,6.4z"/>
<path class="st0" d="M27.5,0h2.8v2h-2.8V0z M27.6,2.6h2.7v7.6h-2.7V2.6z"/>
<path class="st0" d="M30.7,9.3l1-1.6c0.9,0.6,1.8,0.9,2.6,0.9c0.5,0,0.7-0.1,0.7-0.4l0,0c0-0.3-0.4-0.4-1.2-0.6
	c-1.5-0.4-2.7-0.9-2.7-2.4l0,0c0-1.6,1.3-2.5,3-2.5c1.1,0,2.3,0.3,3.1,0.9l-0.9,1.7c-0.8-0.4-1.6-0.7-2.2-0.7
	c-0.4,0-0.6,0.2-0.6,0.4l0,0c0,0.3,0.4,0.4,1.2,0.7c1.5,0.4,2.7,0.9,2.7,2.4l0,0c0,1.7-1.2,2.5-3.1,2.5C33,10.4,31.8,10,30.7,9.3z"
	/>
<path class="st0" d="M37.8,6.5L37.8,6.5c0-2.2,1.7-4,4.1-4c1.6,0,2.6,0.7,3.2,1.7l-1.8,1.3c-0.4-0.5-0.8-0.8-1.4-0.8
	c-0.9,0-1.5,0.8-1.5,1.7l0,0c0,1,0.6,1.7,1.5,1.7c0.6,0,1-0.3,1.5-0.8l1.8,1.3c-0.7,1-1.7,1.7-3.4,1.7C39.5,10.4,37.8,8.6,37.8,6.5z
	"/>
<path class="st0" d="M45.2,6.5L45.2,6.5c0-2.2,1.8-4,4.2-4s4.2,1.8,4.2,3.9l0,0c0,2.2-1.8,4-4.2,4C46.9,10.4,45.2,8.6,45.2,6.5z
	 M50.9,6.5L50.9,6.5c0-1-0.7-1.7-1.6-1.7c-1,0-1.6,0.8-1.6,1.7l0,0c0,0.9,0.7,1.7,1.6,1.7C50.3,8.1,50.9,7.4,50.9,6.5z"/>
<path class="st0" d="M53.3,2.6h2.8L57.6,7L59,2.6h2.8l-3,7.6h-2.4L53.3,2.6z"/>
<path class="st0" d="M61.4,6.5L61.4,6.5c0-2.2,1.6-4,3.8-4c2.6,0,3.8,1.9,3.8,4.1c0,0.2,0,0.4,0,0.5h-5c0.2,0.8,0.8,1.2,1.6,1.2
	c0.6,0,1.1-0.2,1.7-0.8l1.5,1.2c-0.7,0.9-1.8,1.5-3.3,1.5C63.1,10.4,61.4,8.8,61.4,6.5z M66.6,5.8C66.5,5,66,4.4,65.3,4.4
	S64.1,4.9,64,5.8H66.6z"/>
<path class="st0" d="M69.8,2.6h2.7v1.5c0.4-1,1.1-1.7,2.4-1.7v2.8h-0.2c-1.4,0-2.2,0.8-2.2,2.5v2.4h-2.7
	C69.8,10.1,69.8,2.6,69.8,2.6z"/>
<path class="st0" d="M0.9,22.1V19H0v-2.2h0.9v-1.9h2.6v1.9h1.8v2.1H3.5v2.6c0,0.5,0.2,0.8,0.7,0.8c0.4,0,0.7-0.1,1-0.3v2.1
	c-0.5,0.3-1.1,0.4-1.8,0.4C1.8,24.6,0.9,23.9,0.9,22.1z"/>
<path class="st0" d="M6,14.2h2.7v3.7c0.5-0.6,1.2-1.2,2.3-1.2c1.6,0,2.6,1.1,2.6,2.8v5h-2.7v-4.2c0-0.8-0.4-1.3-1.1-1.3
	c-0.6,0-1.1,0.4-1.1,1.3v4.1H6C6,24.4,6,14.2,6,14.2z"/>
<path class="st0" d="M14.2,20.7L14.2,20.7c0-2.2,1.6-4,3.8-4c2.6,0,3.8,1.9,3.8,4.1c0,0.2,0,0.4,0,0.5h-5.1c0.2,0.8,0.8,1.2,1.6,1.2
	c0.6,0,1.1-0.2,1.7-0.8l1.5,1.2c-0.7,0.9-1.8,1.5-3.3,1.5C15.9,24.6,14.2,23,14.2,20.7z M19.4,20c-0.1-0.8-0.6-1.4-1.3-1.4
	c-0.7,0-1.2,0.5-1.3,1.4H19.4z"/>
<path class="st0" d="M22.6,14.2h2.8v2h-2.8V14.2z M22.7,16.8h2.7v7.6h-2.7V16.8z"/>
<path class="st0" d="M26.4,16.8h2.7v1.5c0.4-1,1.1-1.7,2.4-1.7v2.8h-0.2c-1.4,0-2.2,0.8-2.2,2.5v2.4h-2.7
	C26.4,24.3,26.4,16.8,26.4,16.8z"/>
<path class="st0" d="M36,19h-0.9v-2.1H36v-0.2c0-0.9,0.2-1.5,0.6-2c0.5-0.5,1.1-0.7,2-0.7c0.8,0,1.3,0.1,1.7,0.2v2
	c-0.3-0.1-0.6-0.2-1-0.2c-0.5,0-0.8,0.2-0.8,0.7v0.2h1.7v2h-1.7v5.4h-2.6V19H36z"/>
<path class="st0" d="M40.7,21.8v-5h2.7v4.1c0,0.8,0.4,1.3,1.1,1.3c0.6,0,1.1-0.4,1.1-1.3v-4.1h2.7v7.6h-2.7v-1
	c-0.5,0.6-1.2,1.2-2.3,1.2C41.7,24.6,40.7,23.5,40.7,21.8z"/>
<path class="st0" d="M49.3,14.2H52v10.2h-2.7V14.2z"/>
<path class="st0" d="M53.1,14.2h2.7v10.2h-2.7V14.2z"/>
<path class="st0" d="M0.7,29.7h2.7v1c0.5-0.6,1.2-1.2,2.3-1.2c1.8,0,3.4,1.5,3.4,3.9l0,0c0,2.5-1.6,4-3.3,4c-1.1,0-1.8-0.5-2.3-1.1
	v3.2H0.8L0.7,29.7L0.7,29.7z M6.5,33.5L6.5,33.5c0-1-0.7-1.7-1.6-1.7c-0.9,0-1.5,0.7-1.5,1.7l0,0c0,1,0.7,1.7,1.5,1.7
	C5.7,35.3,6.5,34.6,6.5,33.5z"/>
<path class="st0" d="M9.5,33.6L9.5,33.6c0-2.2,1.8-4,4.2-4s4.2,1.8,4.2,3.9l0,0c0,2.2-1.8,4-4.2,4C11.2,37.5,9.5,35.7,9.5,33.6z
	 M15.2,33.6L15.2,33.6c0-1-0.7-1.7-1.6-1.7c-1,0-1.6,0.8-1.6,1.7l0,0c0,0.9,0.7,1.7,1.6,1.7C14.7,35.2,15.2,34.5,15.2,33.6z"/>
<path class="st0" d="M19,35v-3.1h-0.9v-2.2H19v-1.9h2.7v1.9h1.8v2.1h-1.8v2.6c0,0.5,0.2,0.8,0.7,0.8c0.4,0,0.7-0.1,1-0.3V37
	c-0.5,0.3-1.1,0.4-1.8,0.4C20,37.5,19,36.8,19,35z"/>
<path class="st0" d="M23.7,33.6L23.7,33.6c0-2.2,1.6-4,3.8-4c2.6,0,3.8,1.9,3.8,4.1c0,0.2,0,0.4,0,0.5h-5.1c0.2,0.8,0.8,1.2,1.6,1.2
	c0.6,0,1.1-0.2,1.7-0.8l1.5,1.2c-0.7,0.9-1.8,1.5-3.3,1.5C25.4,37.5,23.7,35.9,23.7,33.6z M28.7,32.9c-0.1-0.8-0.6-1.4-1.3-1.4
	s-1.2,0.5-1.3,1.4H28.7z"/>
<path class="st0" d="M32,29.7h2.7v1.1c0.5-0.6,1.2-1.2,2.3-1.2c1.6,0,2.6,1.1,2.6,2.8v5h-2.8v-4.2c0-0.8-0.4-1.3-1.1-1.3
	c-0.6,0-1.1,0.4-1.1,1.3v4.1h-2.7v-7.6H32z"/>
<path class="st0" d="M41,35v-3.1h-0.9v-2.2H41v-1.9h2.7v1.9h1.8v2.1h-1.8v2.6c0,0.5,0.2,0.8,0.7,0.8c0.4,0,0.7-0.1,1-0.3V37
	c-0.5,0.3-1.1,0.4-1.8,0.4C42,37.5,41,36.8,41,35z"/>
<path class="st0" d="M46.2,27.1H49v2h-2.8V27.1z M46.2,29.7h2.7v7.6h-2.7V29.7z"/>
<path class="st0" d="M49.5,35.1L49.5,35.1c0-1.6,1.2-2.4,3-2.4c0.7,0,1.4,0.1,1.8,0.3v-0.1c0-0.8-0.5-1.2-1.5-1.2
	c-0.8,0-1.4,0.2-2.1,0.4l-0.5-1.9c0.9-0.4,1.8-0.6,3.1-0.6c1.4,0,2.3,0.3,2.9,0.9c0.6,0.6,0.8,1.3,0.8,2.4v4.4h-2.6v-0.8
	c-0.5,0.6-1.2,1-2.2,1C50.7,37.5,49.5,36.7,49.5,35.1z M54.4,34.6v-0.4c-0.3-0.1-0.6-0.2-1-0.2c-0.8,0-1.2,0.4-1.2,0.9l0,0
	c0,0.5,0.4,0.8,0.9,0.8C53.9,35.8,54.4,35.3,54.4,34.6z"/>
<path class="st0" d="M58,27.1h2.7v10.2H58V27.1z"/>
</svg>
