<?xml version="1.0" encoding="utf-8"?>
<!-- Generator: Adobe Illustrator 19.2.1, SVG Export Plug-In . SVG Version: 6.00 Build 0)  -->
<svg version="1.1" id="Layer_1" xmlns="http://www.w3.org/2000/svg" xmlns:xlink="http://www.w3.org/1999/xlink" x="0px" y="0px"
	 viewBox="0 0 60 60" style="enable-background:new 0 0 60 60;" xml:space="preserve">
<style type="text/css">
	.st0{fill:#FFFFFF;}
	.st1{fill:#E6007E;}
</style>
<g>
	<g>
		<path class="st0" d="M30,59.5C13.7,59.5,0.5,46.3,0.5,30S13.7,0.5,30,0.5S59.5,13.7,59.5,30S46.3,59.5,30,59.5z"/>
		<path class="st1" d="M30,1c16,0,29,13,29,29S46,59,30,59S1,46,1,30S14,1,30,1 M30,0C13.4,0,0,13.4,0,30s13.4,30,30,30
			s30-13.4,30-30S46.6,0,30,0L30,0z"/>
	</g>
	<g>
		<path class="st1" d="M30,6C16.7,6,6,16.7,6,30s10.7,24,24,24s24-10.7,24-24S43.3,6,30,6z M33.2,40l-1.6-1.8l7.5-7L16,31.3v-2.4
			l23.1-0.2l-7.6-6.9l1.6-1.8L44,30L33.2,40z"/>
	</g>
</g>
</svg>
