<svg xmlns="http://www.w3.org/2000/svg" width="435.22" height="85.656" viewBox="0 0 435.22 85.656">
  <defs>
    <style>
      .cls-1 {
        fill: #fff;
        fill-rule: evenodd;
      }
    </style>
  </defs>
  <path id="h3.svg" class="cls-1" d="M2084.19,803.876h6.53l1.6-4h8.65l1.63,4h6.66l-9.54-22.569h-5.99Zm9.96-8.835,2.53-6.371,2.49,6.371h-5.02Zm16.28,8.835h6.09V794.5c0-1.889,1.08-2.914,2.56-2.914,1.44,0,2.43,1.025,2.43,2.914v9.379h6.08V792.544c0-3.938-2.21-6.371-5.89-6.371a6.419,6.419,0,0,0-5.18,2.817v-2.433h-6.09v17.319Zm26.66,0.385a6.415,6.415,0,0,0,5.28-2.689v2.3h6.09V780.507h-6.09v8.163a6.616,6.616,0,0,0-5.31-2.5c-4.1,0-7.62,3.426-7.62,9.06V795.3C2129.44,800.835,2132.99,804.261,2137.09,804.261Zm1.86-5.09a3.687,3.687,0,0,1-3.56-3.938v-0.064a3.557,3.557,0,1,1,7.08,0v0.064A3.663,3.663,0,0,1,2138.95,799.171ZM2159.3,809h6.08v-7.235a6.507,6.507,0,0,0,5.28,2.5c4.1,0,7.65-3.426,7.65-9.06v-0.064c0-5.538-3.55-8.964-7.68-8.964a6.356,6.356,0,0,0-5.25,2.689v-2.3h-6.08V809Zm9.47-9.828a3.663,3.663,0,0,1-3.52-3.938v-0.064a3.557,3.557,0,1,1,7.08,0v0.064A3.65,3.65,0,0,1,2168.77,799.171Zm20.35,5.122c5.57,0,9.61-4.13,9.61-9.06v-0.064c0-4.93-4-9-9.54-9-5.57,0-9.61,4.13-9.61,9.06V795.3C2179.58,800.227,2183.58,804.293,2189.12,804.293Zm0.07-5.154a3.75,3.75,0,0,1-3.68-3.906v-0.064a3.621,3.621,0,0,1,3.61-3.842,3.75,3.75,0,0,1,3.68,3.906V795.3A3.621,3.621,0,0,1,2189.19,799.139Zm18.24,5.122c4.22,0,7.07-1.985,7.07-5.795V798.4c0-3.361-2.72-4.546-6.15-5.506-1.82-.544-2.81-0.864-2.81-1.537V791.3c0-.48.48-0.832,1.41-0.832a11.71,11.71,0,0,1,5.12,1.6l2.08-3.842a13.565,13.565,0,0,0-7.14-2.017c-4,0-6.95,2.049-6.95,5.731V792c0,3.489,2.72,4.642,6.15,5.538,1.82,0.512,2.79.8,2.79,1.472v0.065c0,0.608-.49.928-1.54,0.928a11.29,11.29,0,0,1-5.96-1.985l-2.27,3.682A13.971,13.971,0,0,0,2207.43,804.261Zm15.48-.032a8.691,8.691,0,0,0,4.23-.993v-4.77a5.331,5.331,0,0,1-2.3.577,1.472,1.472,0,0,1-1.67-1.729v-5.859h4.03v-4.9h-4.03v-4.385h-6.08v4.385h-2.05v4.9h2.05V798.5C2217.09,802.628,2219.26,804.229,2222.91,804.229Zm14.37,0.064a9.088,9.088,0,0,0,7.53-3.522l-3.37-2.785a5.209,5.209,0,0,1-3.84,1.761,3.569,3.569,0,0,1-3.74-2.849h11.59c0.03-.417.03-0.865,0.03-1.249,0-5.09-2.75-9.476-8.74-9.476-5.12,0-8.74,4-8.74,9.06V795.3C2228,800.675,2231.84,804.293,2237.28,804.293Zm-3.52-10.5c0.32-1.888,1.41-3.137,3.01-3.137,1.67,0,2.79,1.217,3.01,3.137h-6.02Zm20.67,10.469a6.434,6.434,0,0,0,5.29-2.689v2.3h6.08V780.507h-6.08v8.163a6.637,6.637,0,0,0-5.32-2.5c-4.1,0-7.62,3.426-7.62,9.06V795.3C2246.78,800.835,2250.34,804.261,2254.43,804.261Zm1.86-5.09a3.686,3.686,0,0,1-3.55-3.938v-0.064a3.553,3.553,0,1,1,7.07,0v0.064A3.663,3.663,0,0,1,2256.29,799.171Zm20.35,4.7h6.08V794.5c0-1.889,1.09-2.914,2.56-2.914,1.44,0,2.44,1.025,2.44,2.914v9.379h6.08V792.544c0-3.938-2.21-6.371-5.89-6.371a6.374,6.374,0,0,0-5.19,2.753v-8.419h-6.08v23.369Zm19.65-18.887h6.34v-4.482h-6.34v4.482Zm0.12,18.887h6.09V786.557h-6.09v17.319Zm17.35,5.187c3.62,0,6.05-.865,7.62-2.433,1.54-1.537,2.24-3.746,2.24-6.915V786.557h-6.08v2.049a6.954,6.954,0,0,0-5.44-2.433c-4,0-7.49,3.074-7.49,8.068v0.064c0,4.962,3.42,8.035,7.68,8.035a6.724,6.724,0,0,0,5.35-2.593v0.672c0,2.753-1.51,4.258-4.55,4.258a11.946,11.946,0,0,1-6.05-1.633l-1.95,4.034A18.519,18.519,0,0,0,2313.76,809.063Zm0.35-11.4a3.324,3.324,0,0,1-3.55-3.329v-0.064a3.546,3.546,0,0,1,7.08-.032v0.064A3.349,3.349,0,0,1,2314.11,797.666Zm12.13,6.21h6.08V794.5c0-1.889,1.09-2.914,2.56-2.914,1.44,0,2.43,1.025,2.43,2.914v9.379h6.09V792.544c0-3.938-2.21-6.371-5.89-6.371a6.374,6.374,0,0,0-5.19,2.753v-8.419h-6.08v23.369Zm28.23,0.417a9.082,9.082,0,0,0,7.52-3.522l-3.36-2.785a5.224,5.224,0,0,1-3.84,1.761,3.579,3.579,0,0,1-3.75-2.849h11.59c0.03-.417.03-0.865,0.03-1.249,0-5.09-2.75-9.476-8.74-9.476-5.12,0-8.74,4-8.74,9.06V795.3C2345.18,800.675,2349.02,804.293,2354.47,804.293Zm-3.53-10.5c0.32-1.888,1.41-3.137,3.01-3.137,1.67,0,2.79,1.217,3.01,3.137h-6.02Zm13.67,10.084h6.08V798.5c0-4,1.79-5.826,4.96-5.826h0.51v-6.4c-2.88-.128-4.48,1.409-5.47,3.778v-3.49h-6.08v17.319Zm29.85,0.417a9.088,9.088,0,0,0,7.53-3.522l-3.36-2.785a5.229,5.229,0,0,1-3.85,1.761,3.576,3.576,0,0,1-3.74-2.849h11.59c0.03-.417.03-0.865,0.03-1.249,0-5.09-2.75-9.476-8.74-9.476-5.12,0-8.74,4-8.74,9.06V795.3C2385.18,800.675,2389.02,804.293,2394.46,804.293Zm-3.52-10.5c0.32-1.888,1.41-3.137,3.01-3.137,1.67,0,2.79,1.217,3.01,3.137h-6.02Zm18.63,10.469a6.546,6.546,0,0,0,5.09-2.177v1.792h6.02V793.92c0-2.433-.55-4.225-1.86-5.506-1.38-1.376-3.49-2.113-6.6-2.113a17.451,17.451,0,0,0-7.01,1.345l1.25,4.29a12.214,12.214,0,0,1,4.77-.961c2.34,0,3.46,1.025,3.46,2.817v0.289a13.236,13.236,0,0,0-4.16-.673c-4.07,0-6.79,1.857-6.79,5.442v0.064C2403.74,802.372,2406.27,804.261,2409.57,804.261Zm2.17-3.81a1.908,1.908,0,0,1-2.14-1.889V798.5c0-1.28,1.02-2.145,2.78-2.145a6.372,6.372,0,0,1,2.37.449v0.8A2.784,2.784,0,0,1,2411.74,800.451Zm11.39,3.425h6.09V798.5c0-4,1.79-5.826,4.96-5.826h0.51v-6.4c-2.88-.128-4.48,1.409-5.47,3.778v-3.49h-6.09v17.319Zm13.06,0h6.08V794.5c0-1.889,1.09-2.914,2.56-2.914,1.44,0,2.44,1.025,2.44,2.914v9.379h6.08V792.544c0-3.938-2.21-6.371-5.89-6.371a6.423,6.423,0,0,0-5.19,2.817v-2.433h-6.08v17.319Zm19.65-18.887h6.33v-4.482h-6.33v4.482Zm0.12,18.887h6.09V786.557h-6.09v17.319Zm8.84,0h6.08V794.5c0-1.889,1.09-2.914,2.56-2.914,1.44,0,2.43,1.025,2.43,2.914v9.379h6.08V792.544c0-3.938-2.2-6.371-5.89-6.371a6.419,6.419,0,0,0-5.18,2.817v-2.433h-6.08v17.319Zm28.16,5.187c3.62,0,6.05-.865,7.62-2.433,1.53-1.537,2.24-3.746,2.24-6.915V786.557h-6.08v2.049a6.975,6.975,0,0,0-5.45-2.433c-4,0-7.49,3.074-7.49,8.068v0.064c0,4.962,3.43,8.035,7.69,8.035a6.689,6.689,0,0,0,5.34-2.593v0.672c0,2.753-1.5,4.258-4.54,4.258a11.918,11.918,0,0,1-6.05-1.633l-1.96,4.034A18.59,18.59,0,0,0,2492.96,809.063Zm0.35-11.4a3.324,3.324,0,0,1-3.55-3.329v-0.064a3.349,3.349,0,0,1,3.55-3.362,3.315,3.315,0,0,1,3.52,3.33v0.064A3.34,3.34,0,0,1,2493.31,797.666Zm19.01,6.595c4.22,0,7.07-1.985,7.07-5.795V798.4c0-3.361-2.72-4.546-6.14-5.506-1.83-.544-2.82-0.864-2.82-1.537V791.3c0-.48.48-0.832,1.41-0.832a11.71,11.71,0,0,1,5.12,1.6l2.08-3.842a13.539,13.539,0,0,0-7.14-2.017c-4,0-6.94,2.049-6.94,5.731V792c0,3.489,2.72,4.642,6.14,5.538,1.83,0.512,2.79.8,2.79,1.472v0.065c0,0.608-.48.928-1.54,0.928a11.232,11.232,0,0,1-5.95-1.985l-2.28,3.682A13.971,13.971,0,0,0,2512.32,804.261Zm-418.11,32.032a9.088,9.088,0,0,0,7.53-3.522l-3.37-2.785a5.209,5.209,0,0,1-3.84,1.761,3.569,3.569,0,0,1-3.74-2.849h11.59c0.03-.417.03-0.865,0.03-1.249,0-5.09-2.76-9.476-8.74-9.476-5.12,0-8.74,4-8.74,9.06V827.3C2084.93,832.675,2088.77,836.293,2094.21,836.293Zm-3.52-10.5c0.32-1.888,1.41-3.137,3.01-3.137,1.66,0,2.79,1.217,3.01,3.137h-6.02Zm18.46,10.213h5.54l6.92-17.448h-6.31l-3.33,10.117-3.33-10.117h-6.4Zm21.29,0.288a9.082,9.082,0,0,0,7.52-3.522l-3.36-2.785a5.224,5.224,0,0,1-3.84,1.761,3.579,3.579,0,0,1-3.75-2.849h11.59c0.03-.417.03-0.865,0.03-1.249,0-5.09-2.75-9.476-8.74-9.476-5.12,0-8.74,4-8.74,9.06V827.3C2121.15,832.675,2124.99,836.293,2130.44,836.293Zm-3.52-10.5c0.32-1.888,1.4-3.137,3-3.137,1.67,0,2.79,1.217,3.01,3.137h-6.01Zm13.66,10.084h6.08V830.5c0-4,1.79-5.826,4.96-5.826h0.51v-6.4c-2.88-.128-4.48,1.409-5.47,3.778v-3.49h-6.08v17.319Zm18.17,5.219c3.46,0,5.09-1.6,6.6-5.635l6.34-16.9h-6.24l-3.27,10.437-3.46-10.437h-6.37l6.79,17a1.523,1.523,0,0,1-1.41.7,5.9,5.9,0,0,1-2.66-.929l-1.89,4.258A11.235,11.235,0,0,0,2158.75,841.1Zm27.62,0c3.46,0,5.09-1.6,6.59-5.635l6.34-16.9h-6.24l-3.26,10.437-3.46-10.437h-6.37l6.78,17a1.507,1.507,0,0,1-1.4.7,5.863,5.863,0,0,1-2.66-.929l-1.89,4.258A11.206,11.206,0,0,0,2186.37,841.1Zm21.89-4.8a9.055,9.055,0,0,0,7.52-3.522l-3.36-2.785a5.224,5.224,0,0,1-3.84,1.761,3.579,3.579,0,0,1-3.75-2.849h11.59c0.03-.417.03-0.865,0.03-1.249,0-5.09-2.75-9.476-8.73-9.476-5.13,0-8.74,4-8.74,9.06V827.3C2198.98,832.675,2202.82,836.293,2208.26,836.293Zm-3.52-10.5c0.32-1.888,1.41-3.137,3.01-3.137,1.66,0,2.78,1.217,3.01,3.137h-6.02Zm18.62,10.469a6.53,6.53,0,0,0,5.09-2.177v1.792h6.02V825.92c0-2.433-.54-4.225-1.86-5.506-1.37-1.376-3.49-2.113-6.59-2.113a17.379,17.379,0,0,0-7.01,1.345l1.25,4.29a12.141,12.141,0,0,1,4.77-.961c2.33,0,3.45,1.025,3.45,2.817v0.289a13.236,13.236,0,0,0-4.16-.673c-4.06,0-6.78,1.857-6.78,5.442v0.064C2217.54,834.372,2220.06,836.261,2223.36,836.261Zm2.18-3.81a1.912,1.912,0,0,1-2.15-1.889V830.5c0-1.28,1.03-2.145,2.79-2.145a6.372,6.372,0,0,1,2.37.449v0.8A2.784,2.784,0,0,1,2225.54,832.451Zm11.39,3.425h6.08V830.5c0-4,1.79-5.826,4.96-5.826h0.51v-6.4c-2.88-.128-4.48,1.409-5.47,3.778v-3.49h-6.08v17.319Zm32.64,0.385c4.1,0,7.65-3.426,7.65-9.06v-0.064c0-5.538-3.55-8.964-7.68-8.964a6.356,6.356,0,0,0-5.25,2.689v-8.355h-6.08v23.369h6.08v-2.112A6.507,6.507,0,0,0,2269.57,836.261Zm-1.89-5.09a3.663,3.663,0,0,1-3.52-3.938v-0.064a3.557,3.557,0,1,1,7.08,0v0.064A3.65,3.65,0,0,1,2267.68,831.171Zm17.28,5.09a6.374,6.374,0,0,0,5.19-2.753v2.368h6.08V818.557h-6.08v9.38c0,1.889-1.09,2.913-2.53,2.913-1.47,0-2.47-1.024-2.47-2.913v-9.38h-6.08V829.89C2279.07,833.828,2281.28,836.261,2284.96,836.261Zm20.77-.032a8.691,8.691,0,0,0,4.23-.993v-4.77a5.374,5.374,0,0,1-2.31.577,1.469,1.469,0,0,1-1.66-1.729v-5.859h4.03v-4.9h-4.03v-4.385h-6.09v4.385h-2.05v4.9h2.05V830.5C2299.9,834.628,2302.08,836.229,2305.73,836.229Zm21.38,0a8.678,8.678,0,0,0,4.22-.993v-4.77a5.331,5.331,0,0,1-2.3.577,1.476,1.476,0,0,1-1.67-1.729v-5.859h4.04v-4.9h-4.04v-4.385h-6.08v4.385h-2.05v4.9h2.05V830.5C2321.28,834.628,2323.46,836.229,2327.11,836.229Zm10.3-.224h5.22l2.88-9,2.81,9h5.25l5.35-17.448h-5.86l-2.33,8.772-2.69-8.836h-5.03l-2.66,8.772-2.27-8.708h-5.95Zm30.91,0.288c5.57,0,9.61-4.13,9.61-9.06v-0.064c0-4.93-4.01-9-9.54-9-5.57,0-9.61,4.13-9.61,9.06V827.3C2358.78,832.227,2362.78,836.293,2368.32,836.293Zm0.07-5.154a3.758,3.758,0,0,1-3.69-3.906v-0.064a3.629,3.629,0,0,1,3.62-3.842,3.75,3.75,0,0,1,3.68,3.906V827.3A3.621,3.621,0,0,1,2368.39,831.139Zm-274.97,33.217c2.22,0,3.82-1.247,3.82-3.166v-0.032c0-1.711-1.15-2.622-3.64-3.166-2.47-.528-3.04-1.119-3.04-2.175v-0.032c0-1.007.93-1.807,2.38-1.807a4.922,4.922,0,0,1,3.23,1.215l0.74-.975a5.869,5.869,0,0,0-3.94-1.375c-2.12,0-3.67,1.3-3.67,3.054v0.032c0,1.839,1.18,2.671,3.75,3.23,2.35,0.5,2.91,1.088,2.91,2.127v0.032c0,1.1-.99,1.9-2.49,1.9a5.343,5.343,0,0,1-3.84-1.583l-0.78.927A6.542,6.542,0,0,0,2093.42,864.356Zm9.97,0.032a4.292,4.292,0,0,0,4.33-4.317v-0.032a4.31,4.31,0,0,0-8.62.032V860.1A4.237,4.237,0,0,0,2103.39,864.388Zm0.03-1.1a3.1,3.1,0,0,1-3.05-3.214v-0.032a3.05,3.05,0,0,1,3.02-3.2,3.13,3.13,0,0,1,3.07,3.23V860.1A3.052,3.052,0,0,1,2103.42,863.285Zm9.57,1.087a3.152,3.152,0,0,0,2.83-1.615v1.44h1.22v-8.268h-1.22v4.733a2.441,2.441,0,0,1-2.48,2.591,2.208,2.208,0,0,1-2.29-2.5v-4.829h-1.23v5.133A3.022,3.022,0,0,0,2112.99,864.372Zm6.82-.175h1.23V860.9c0-2.494,1.47-3.79,3.28-3.79h0.09v-1.327a3.544,3.544,0,0,0-3.37,2.3v-2.159h-1.23V864.2Zm9.85,0.191a4.285,4.285,0,0,0,3.38-1.6l-0.79-.735a3.4,3.4,0,0,1-2.52,1.231,3.088,3.088,0,0,1-3.04-3.214v-0.032a3.051,3.051,0,0,1,2.96-3.2,3.358,3.358,0,0,1,2.51,1.247l0.81-.864a4.308,4.308,0,0,0-7.55,2.847V860.1A4.249,4.249,0,0,0,2129.66,864.388Zm5.91-3.821h6.55a3.757,3.757,0,0,0,.02-0.432c0-2.431-1.41-4.382-3.85-4.382a4.327,4.327,0,0,0,.16,8.635,4.261,4.261,0,0,0,3.4-1.551l-0.77-.687a3.415,3.415,0,0,1-2.6,1.167A2.882,2.882,0,0,1,2135.57,860.567Zm0-.992a2.846,2.846,0,0,1,2.68-2.782c1.63,0,2.5,1.279,2.64,2.782h-5.32Zm8.67-1.967h1.47v-1.679h-1.47v1.679Zm0,6.589h1.47v-1.68h-1.47v1.68Zm14.27,0.191a5.84,5.84,0,0,0,4.48-1.966l-0.84-.816a4.842,4.842,0,0,1-3.61,1.615,4.416,4.416,0,0,1-4.33-4.621v-0.032a4.385,4.385,0,0,1,4.33-4.59,4.881,4.881,0,0,1,3.52,1.535l0.86-.927a5.813,5.813,0,0,0-4.36-1.775,5.635,5.635,0,0,0-5.66,5.789v0.032A5.581,5.581,0,0,0,2158.51,864.388Zm6.48-.191h1.23V860.9c0-2.494,1.47-3.79,3.28-3.79h0.1v-1.327a3.548,3.548,0,0,0-3.38,2.3v-2.159h-1.23V864.2Zm6.86-3.63h6.56a3.757,3.757,0,0,0,.02-0.432c0-2.431-1.41-4.382-3.86-4.382a4.328,4.328,0,0,0,.16,8.635,4.267,4.267,0,0,0,3.41-1.551l-0.77-.687a3.421,3.421,0,0,1-2.61,1.167A2.894,2.894,0,0,1,2171.85,860.567Zm0-.992a2.862,2.862,0,0,1,2.69-2.782c1.63,0,2.5,1.279,2.64,2.782h-5.33Zm12.21,4.8a3.719,3.719,0,0,0,3.17-1.839V864.2h1.23V852.523h-1.23v4.989a3.731,3.731,0,0,0-3.17-1.759,4.059,4.059,0,0,0-3.95,4.3v0.032A4.034,4.034,0,0,0,2184.06,864.372Zm0.22-1.1a2.981,2.981,0,0,1-2.91-3.2v-0.032a2.922,2.922,0,0,1,2.91-3.182,3.077,3.077,0,0,1,3,3.182v0.032A3.091,3.091,0,0,1,2184.28,863.269Zm6.97-9.147h1.4v-1.359h-1.4v1.359Zm0.08,10.075h1.23v-8.268h-1.23V864.2Zm6.86,0.143a3.135,3.135,0,0,0,1.49-.351v-1.056a2.631,2.631,0,0,1-1.2.288,1.223,1.223,0,0,1-1.39-1.375v-4.83h2.62v-1.087h-2.62v-2.5h-1.24v2.5h-1.15v1.087h1.15v4.99A2.107,2.107,0,0,0,2198.19,864.34Zm12.54,0.016c2.22,0,3.82-1.247,3.82-3.166v-0.032c0-1.711-1.15-2.622-3.64-3.166-2.46-.528-3.04-1.119-3.04-2.175v-0.032c0-1.007.93-1.807,2.38-1.807a4.922,4.922,0,0,1,3.23,1.215l0.74-.975a5.851,5.851,0,0,0-3.94-1.375c-2.12,0-3.67,1.3-3.67,3.054v0.032c0,1.839,1.18,2.671,3.75,3.23,2.35,0.5,2.91,1.088,2.91,2.127v0.032c0,1.1-.99,1.9-2.49,1.9a5.343,5.343,0,0,1-3.84-1.583l-0.78.927A6.542,6.542,0,0,0,2210.73,864.356Zm9.23,0.016a3.128,3.128,0,0,0,2.83-1.615v1.44h1.22v-8.268h-1.22v4.733a2.439,2.439,0,0,1-2.47,2.591,2.2,2.2,0,0,1-2.29-2.5v-4.829h-1.23v5.133A3.02,3.02,0,0,0,2219.96,864.372Zm6.85-10.25h1.41v-1.359h-1.41v1.359Zm0.08,10.075h1.24v-8.268h-1.24V864.2Zm6.83,0.159c1.65,0,2.95-.911,2.95-2.478v-0.032c0-1.487-1.38-1.983-2.66-2.367-1.1-.336-2.12-0.64-2.12-1.423v-0.032a1.364,1.364,0,0,1,1.59-1.2,4.688,4.688,0,0,1,2.45.8l0.56-.927a5.662,5.662,0,0,0-2.97-.912c-1.63,0-2.82.944-2.82,2.367v0.032c0,1.519,1.44,1.967,2.74,2.335,1.08,0.3,2.06.623,2.06,1.455v0.032a1.474,1.474,0,0,1-1.71,1.311,4.806,4.806,0,0,1-2.86-1.055l-0.63.879A5.69,5.69,0,0,0,2233.72,864.356Zm7.81,0c1.65,0,2.94-.911,2.94-2.478v-0.032c0-1.487-1.37-1.983-2.65-2.367-1.1-.336-2.13-0.64-2.13-1.423v-0.032a1.374,1.374,0,0,1,1.6-1.2,4.688,4.688,0,0,1,2.45.8l0.56-.927a5.669,5.669,0,0,0-2.98-.912c-1.63,0-2.81.944-2.81,2.367v0.032c0,1.519,1.44,1.967,2.73,2.335,1.09,0.3,2.07.623,2.07,1.455v0.032a1.474,1.474,0,0,1-1.71,1.311,4.858,4.858,0,0,1-2.87-1.055l-0.62.879A5.69,5.69,0,0,0,2241.53,864.356Zm5.97-3.789h6.56c0.01-.192.01-0.32,0.01-0.432,0-2.431-1.4-4.382-3.85-4.382a4.327,4.327,0,0,0,.16,8.635,4.282,4.282,0,0,0,3.41-1.551l-0.77-.687a3.421,3.421,0,0,1-2.61,1.167A2.894,2.894,0,0,1,2247.5,860.567Zm0-.992a2.855,2.855,0,0,1,2.69-2.782c1.63,0,2.49,1.279,2.64,2.782h-5.33Zm8.13,6.572a1.965,1.965,0,0,0,1.77-2.19v-1.44h-1.47v1.68h0.58a1.277,1.277,0,0,1-1.07,1.391Zm9.38-1.95h1.23v-9.051l4.07,5.98h0.07l4.08-6V864.2h1.26V853h-1.28l-4.08,6.108L2266.28,853h-1.27V864.2Zm16.14,0.175a3.614,3.614,0,0,0,2.97-1.407V864.2h1.22v-5.054a3.254,3.254,0,0,0-.87-2.43,3.66,3.66,0,0,0-2.67-.912,6.758,6.758,0,0,0-3,.7l0.36,1.007a5.783,5.783,0,0,1,2.52-.591c1.55,0,2.44.767,2.44,2.238v0.256a8.609,8.609,0,0,0-2.52-.352c-2.1,0-3.54.928-3.54,2.7V861.8C2278.06,863.493,2279.6,864.372,2281.15,864.372Zm0.24-.991a1.832,1.832,0,0,1-2.08-1.647V861.7c0-.992.88-1.663,2.41-1.663a8.535,8.535,0,0,1,2.42.352v0.767C2284.14,862.469,2282.91,863.381,2281.39,863.381Zm6.56,0.816h1.23V860.9c0-2.494,1.47-3.79,3.28-3.79h0.09v-1.327a3.544,3.544,0,0,0-3.37,2.3v-2.159h-1.23V864.2Zm9.85,0.191a4.269,4.269,0,0,0,3.38-1.6l-0.79-.735a3.4,3.4,0,0,1-2.52,1.231,3.088,3.088,0,0,1-3.04-3.214v-0.032a3.051,3.051,0,0,1,2.96-3.2,3.342,3.342,0,0,1,2.51,1.247l0.81-.864a4.3,4.3,0,0,0-7.54,2.847V860.1A4.241,4.241,0,0,0,2297.8,864.388Zm5.41-.191h1.23v-4.734a2.435,2.435,0,0,1,2.48-2.59,2.2,2.2,0,0,1,2.29,2.494v4.83h1.23v-5.134a3.022,3.022,0,0,0-3.17-3.31,3.142,3.142,0,0,0-2.83,1.615v-4.845h-1.23V864.2Zm14.05,0h7.82v-1.152h-5.93l2.99-2.654c1.97-1.711,2.83-2.719,2.83-4.35v-0.032a3.226,3.226,0,0,0-3.47-3.166,4.432,4.432,0,0,0-4.03,2.382l0.93,0.672c0.89-1.247,1.72-1.919,3-1.919a2.141,2.141,0,0,1,2.26,2.143c0,1.119-.63,1.983-2.34,3.518l-4.06,3.582V864.2Zm14.53,0.191c2.87,0,4.73-2.654,4.73-5.788v-0.032c0-3.135-1.82-5.757-4.7-5.757s-4.75,2.654-4.75,5.789v0.032C2327.07,861.766,2328.89,864.388,2331.79,864.388Zm0.03-1.151c-2.1,0-3.44-2.191-3.44-4.637v-0.032c0-2.463,1.31-4.606,3.41-4.606,2.08,0,3.42,2.191,3.42,4.638v0.032C2335.21,861.078,2333.91,863.237,2331.82,863.237Zm8.48,0.96h1.25V852.923h-0.93l-2.73.943,0.3,1.024,2.11-.656V864.2Zm8.19,0.191a3.779,3.779,0,0,0,4.01-3.726V860.63a3.582,3.582,0,0,0-3.87-3.438,3.628,3.628,0,0,0-3.18,1.711c-0.01-2.894,1.25-4.941,3.28-4.941a3.91,3.91,0,0,1,2.64,1.1l0.73-.976a4.922,4.922,0,0,0-3.31-1.279c-2.92,0-4.65,2.67-4.65,6.076v0.032c0,2.287.51,3.439,1.41,4.334A4.053,4.053,0,0,0,2348.49,864.388Zm0.02-1.119a2.609,2.609,0,0,1-2.83-2.511v-0.032a2.621,2.621,0,0,1,2.79-2.446,2.491,2.491,0,0,1,2.74,2.4v0.032A2.537,2.537,0,0,1,2348.51,863.269Z" transform="translate(-2084.19 -780.5)"/>
</svg>
