<svg xmlns="http://www.w3.org/2000/svg" width="600" height="500" viewBox="0 0 600 500">
  <defs>
    <style>
      .cls-1 {
        fill: #fff;
        fill-rule: evenodd;
      }
    </style>
  </defs>
  <path id="h4.svg" class="cls-1" d="M2778,500h600v500H2778V500Zm60.31,140.125c14.29,0,23.78-7.142,23.78-19.156V620.8c0-11.006-8.4-15.374-21.93-18.315-8.15-1.848-10.16-3.025-10.16-5.713v-0.168c0-2.1,1.93-3.781,5.88-3.781,5.21,0,11.09,2.017,16.46,5.8l8.15-11.51c-6.38-5.125-14.2-7.813-24.19-7.813-14.12,0-22.77,7.9-22.77,18.819v0.168c0,12.1,9.66,15.627,22.18,18.484,7.98,1.848,9.91,3.192,9.91,5.629v0.168c0,2.52-2.35,4.032-6.72,4.032a30.3,30.3,0,0,1-19.07-7.057l-9.07,10.838C2817.98,636.848,2827.9,640.125,2838.31,640.125Zm29.06-1.008h15.96v-24.7c0-4.957,2.69-7.561,6.47-7.561s6.22,2.6,6.22,7.561v24.7h15.96v-24.7c0-4.957,2.78-7.561,6.56-7.561s6.21,2.6,6.21,7.561v24.7h15.97V609.291c0-10.586-5.88-16.635-15.55-16.635-6.63,0-11.25,2.857-15.2,7.394-2.44-4.7-7.06-7.394-13.11-7.394-6.38,0-10.58,3.445-13.53,7.226v-6.218h-15.96v45.453Zm92.91,1.008a17.156,17.156,0,0,0,13.36-5.713v4.7h15.79V612.988c0-6.385-1.43-11.09-4.87-14.451-3.61-3.612-9.16-5.545-17.31-5.545a45.7,45.7,0,0,0-18.4,3.529l3.28,11.258a32.01,32.01,0,0,1,12.52-2.52c6.13,0,9.07,2.688,9.07,7.393v0.756a34.833,34.833,0,0,0-10.92-1.764c-10.67,0-17.81,4.873-17.81,14.282v0.168C2944.99,635.168,2951.62,640.125,2960.28,640.125Zm5.71-10c-3.28,0-5.63-1.848-5.63-4.957V625c0-3.361,2.69-5.629,7.31-5.629a16.768,16.768,0,0,1,6.22,1.176v2.1C2973.89,627.186,2970.61,630.127,2965.99,630.127Zm30.24,8.99h15.96V577.786h-15.96v61.331Zm23.52,0h15.96V577.786h-15.96v61.331Zm74,1.176c13.03,0,20.5-5.629,26.05-13.275l-12.27-8.737c-3.53,4.285-7.14,7.141-13.27,7.141-8.24,0-14.03-6.889-14.03-15.711v-0.168c0-8.569,5.79-15.542,14.03-15.542,5.63,0,9.49,2.688,12.85,6.889l12.27-9.494c-5.21-7.225-12.94-12.266-24.95-12.266-17.82,0-31.01,13.442-31.01,30.581v0.168A29.867,29.867,0,0,0,3093.75,640.293Zm43.43-.168a17.156,17.156,0,0,0,13.36-5.713v4.7h15.79V612.988c0-6.385-1.43-11.09-4.87-14.451-3.61-3.612-9.16-5.545-17.31-5.545a45.7,45.7,0,0,0-18.4,3.529l3.28,11.258a32.01,32.01,0,0,1,12.52-2.52c6.13,0,9.07,2.688,9.07,7.393v0.756a34.833,34.833,0,0,0-10.92-1.764c-10.67,0-17.81,4.873-17.81,14.282v0.168C3121.89,635.168,3128.53,640.125,3137.18,640.125Zm5.71-10c-3.27,0-5.63-1.848-5.63-4.957V625c0-3.361,2.69-5.629,7.31-5.629a16.768,16.768,0,0,1,6.22,1.176v2.1C3150.79,627.186,3147.51,630.127,3142.89,630.127Zm29.9,22.432h15.97V633.572a17.062,17.062,0,0,0,13.86,6.553c10.75,0,20.08-8.99,20.08-23.777V616.18c0-14.534-9.33-23.524-20.17-23.524-6.8,0-10.67,3.277-13.77,7.058v-6.05h-15.97v58.895Zm24.87-25.793c-5.12,0-9.24-4.284-9.24-10.334v-0.168c0-5.965,4.12-10.249,9.24-10.249,5.21,0,9.33,4.284,9.33,10.249v0.168C3206.99,622.566,3202.87,626.766,3197.66,626.766Zm48.3,13.359c11.09,0,18.57-5.209,18.57-15.207V624.75c0-8.822-7.14-11.93-16.13-14.451-4.79-1.428-7.4-2.268-7.4-4.032V606.1c0-1.261,1.26-2.185,3.7-2.185,3.61,0,8.74,1.6,13.44,4.2l5.46-10.082a35.556,35.556,0,0,0-18.73-5.293c-10.5,0-18.23,5.377-18.23,15.039v0.168c0,9.158,7.14,12.182,16.13,14.535,4.79,1.344,7.31,2.1,7.31,3.864v0.168c0,1.6-1.26,2.437-4.04,2.437-4.7,0-10.41-1.765-15.62-5.209l-5.97,9.662A36.66,36.66,0,0,0,3245.96,640.125ZM2836.8,722.209c9.07,0,15.38-3.7,19.74-9.242l-8.82-7.309c-3.27,3.192-6.3,4.621-10.08,4.621-4.96,0-8.57-2.521-9.83-7.478h30.41c0.09-1.092.09-2.268,0.09-3.276,0-13.359-7.23-24.869-22.94-24.869-13.44,0-22.93,10.5-22.93,23.776V698.6C2812.44,712.715,2822.52,722.209,2836.8,722.209Zm-9.24-27.557c0.84-4.957,3.7-8.234,7.9-8.234,4.37,0,7.31,3.193,7.89,8.234h-15.79Zm68.13,39.907h15.96V675.664h-15.96v5.545c-3.03-3.444-7.06-6.553-13.95-6.553-10.75,0-20,8.99-20,23.776V698.6c0,14.534,9.33,23.524,20.08,23.524,6.81,0,10.76-3.277,13.87-7.058v19.492Zm-8.99-25.793c-5.13,0-9.33-4.284-9.33-10.334v-0.168c0-6.049,4.2-10.249,9.33-10.249s9.24,4.284,9.24,10.249v0.168C2895.94,704.482,2891.82,708.766,2886.7,708.766Zm46.95,13.359c6.47,0,10.67-3.445,13.61-7.226v6.218h15.96V675.664h-15.96v24.617c0,4.957-2.86,7.645-6.64,7.645-3.86,0-6.47-2.688-6.47-7.645V675.664h-15.96v29.742C2918.19,715.74,2923.99,722.125,2933.65,722.125Zm36.45-50.577h16.64V659.786H2970.1v11.762Zm0.34,49.569h15.96V675.664h-15.96v45.453Zm41.25,0.924a22.778,22.778,0,0,0,11.09-2.605V706.918a14.035,14.035,0,0,1-6.05,1.512c-2.94,0-4.37-1.344-4.37-4.537V688.519h10.58V675.664h-10.58v-11.51h-15.97v11.51h-5.37v12.855h5.37V707C2996.39,717.84,3002.11,722.041,3011.69,722.041Zm16.46-50.493h16.63V659.786h-16.63v11.762Zm0.33,49.569h15.96V675.664h-15.96v45.453Zm45.7,1.092c9.07,0,15.38-3.7,19.74-9.242l-8.82-7.309c-3.27,3.192-6.3,4.621-10.08,4.621-4.96,0-8.57-2.521-9.83-7.478h30.41c0.09-1.092.09-2.268,0.09-3.276,0-13.359-7.23-24.869-22.94-24.869-13.44,0-22.93,10.5-22.93,23.776V698.6C3049.82,712.715,3059.9,722.209,3074.18,722.209Zm-9.24-27.557c0.84-4.957,3.7-8.234,7.9-8.234,4.37,0,7.31,3.193,7.89,8.234h-15.79Zm53.93,27.473c11.09,0,18.56-5.209,18.56-15.207V706.75c0-8.822-7.14-11.93-16.13-14.451-4.78-1.428-7.39-2.268-7.39-4.032V688.1c0-1.261,1.26-2.185,3.7-2.185,3.61,0,8.74,1.6,13.44,4.2l5.46-10.082a35.556,35.556,0,0,0-18.73-5.293c-10.51,0-18.24,5.377-18.24,15.039v0.168c0,9.158,7.15,12.182,16.14,14.535,4.78,1.344,7.3,2.1,7.3,3.864v0.168c0,1.6-1.26,2.437-4.03,2.437-4.7,0-10.42-1.765-15.63-5.209l-5.96,9.662A36.66,36.66,0,0,0,3118.87,722.125ZM2823.32,813h7.76v-21.2h8.41v-6.8h-24.57v6.8h8.4V813Zm18.2,0h7.6V801.274c0-2.36,1.36-3.641,3.2-3.641,1.8,0,3.04,1.281,3.04,3.641V813h7.6V798.834c0-4.921-2.76-7.962-7.36-7.962a7.961,7.961,0,0,0-6.48,3.441V783.79h-7.6V813Zm35.28,0.52a11.334,11.334,0,0,0,9.4-4.4l-4.2-3.481a6.531,6.531,0,0,1-4.8,2.2,4.468,4.468,0,0,1-4.68-3.561H2887c0.04-.52.04-1.08,0.04-1.56,0-6.362-3.44-11.843-10.92-11.843-6.4,0-10.92,5-10.92,11.322v0.08C2865.2,809,2870,813.517,2876.8,813.517Zm-4.4-13.123c0.4-2.36,1.76-3.921,3.76-3.921,2.08,0,3.48,1.52,3.76,3.921h-7.52Zm27.52,12.6h7.6V783.79h-7.6V813Zm22.08,0.52c6.96,0,12-5.161,12-11.323v-0.08c0-6.161-5-11.242-11.92-11.242-6.96,0-12,5.161-12,11.322v0.08C2910.08,808.436,2915.08,813.517,2922,813.517Zm0.08-6.442a4.691,4.691,0,0,1-4.6-4.881v-0.08a4.533,4.533,0,0,1,4.52-4.8,4.692,4.692,0,0,1,4.6,4.881v0.08A4.533,4.533,0,0,1,2922.08,807.075ZM2936.4,813h7.6V801.274c0-2.36,1.36-3.641,3.2-3.641,1.8,0,3.04,1.281,3.04,3.641V813h7.6V798.834c0-4.921-2.76-7.962-7.36-7.962a8.023,8.023,0,0,0-6.48,3.521v-3.041h-7.6V813Zm35.2,6.481c4.52,0,7.56-1.08,9.52-3.041,1.92-1.92,2.8-4.681,2.8-8.641V791.352h-7.6v2.561a8.689,8.689,0,0,0-6.8-3.041c-5,0-9.36,3.841-9.36,10.082v0.08c0,6.2,4.28,10.042,9.6,10.042a8.385,8.385,0,0,0,6.68-3.24v0.84c0,3.441-1.88,5.321-5.68,5.321a14.925,14.925,0,0,1-7.56-2.041L2960.76,817A23.181,23.181,0,0,0,2971.6,819.478Zm0.44-14.243a4.156,4.156,0,0,1-4.44-4.161v-0.08a4.188,4.188,0,0,1,4.44-4.2,4.145,4.145,0,0,1,4.4,4.161v0.08A4.176,4.176,0,0,1,2972.04,805.235Zm25.88,8.282a11.334,11.334,0,0,0,9.4-4.4l-4.2-3.481a6.531,6.531,0,0,1-4.8,2.2,4.468,4.468,0,0,1-4.68-3.561h14.48c0.04-.52.04-1.08,0.04-1.56,0-6.362-3.44-11.843-10.92-11.843-6.4,0-10.92,5-10.92,11.322v0.08C2986.32,809,2991.12,813.517,2997.92,813.517Zm-4.4-13.123c0.4-2.36,1.76-3.921,3.76-3.921,2.08,0,3.48,1.52,3.76,3.921h-7.52ZM3010.6,813h7.6v-6.722c0-5,2.24-7.281,6.2-7.281h0.64v-8c-3.6-.16-5.6,1.76-6.84,4.721v-4.361h-7.6V813Zm33,6.521c4.32,0,6.36-2,8.24-7.041l7.92-21.125h-7.8l-4.08,13.043-4.32-13.043h-7.96l8.48,21.245a1.9,1.9,0,0,1-1.76.88,7.346,7.346,0,0,1-3.32-1.16l-2.36,5.321A13.983,13.983,0,0,0,3043.6,819.518Zm27.68-6c6.96,0,12-5.161,12-11.323v-0.08c0-6.161-5-11.242-11.92-11.242-6.96,0-12,5.161-12,11.322v0.08C3059.36,808.436,3064.36,813.517,3071.28,813.517Zm0.08-6.442a4.691,4.691,0,0,1-4.6-4.881v-0.08a4.533,4.533,0,0,1,4.52-4.8,4.692,4.692,0,0,1,4.6,4.881v0.08A4.533,4.533,0,0,1,3071.36,807.075Zm21.52,6.4a7.964,7.964,0,0,0,6.48-3.441V813h7.6V791.352h-7.6v11.723c0,2.36-1.36,3.64-3.16,3.64-1.84,0-3.08-1.28-3.08-3.64V791.352h-7.6v14.163C3085.52,810.436,3088.28,813.477,3092.88,813.477Zm27.8-.48h7.6V783.79h-7.6V813Zm22.08,0.52c6.96,0,12-5.161,12-11.323v-0.08c0-6.161-5-11.242-11.92-11.242-6.96,0-12.01,5.161-12.01,11.322v0.08C3130.83,808.436,3135.84,813.517,3142.76,813.517Zm0.08-6.442a4.691,4.691,0,0,1-4.6-4.881v-0.08a4.533,4.533,0,0,1,4.52-4.8,4.692,4.692,0,0,1,4.6,4.881v0.08A4.533,4.533,0,0,1,3142.84,807.075Zm25.36,6.442c6.96,0,12-5.161,12-11.323v-0.08c0-6.161-5-11.242-11.92-11.242-6.96,0-12.01,5.161-12.01,11.322v0.08C3156.27,808.436,3161.28,813.517,3168.2,813.517Zm0.08-6.442a4.691,4.691,0,0,1-4.6-4.881v-0.08a4.533,4.533,0,0,1,4.52-4.8,4.692,4.692,0,0,1,4.6,4.881v0.08A4.533,4.533,0,0,1,3168.28,807.075ZM3182.59,813h7.61v-5.081l1.96-2.281,4.36,7.362h8.36l-7.72-12.963,7.52-8.682h-8.6l-5.88,7.242v-14.8h-7.61V813Zm22.68,6.6c5.01-.16,8.25-2.2,8.25-8.122v-6.361h-7.93v7.8h3.08c0.08,2.16-1.32,3.44-4,3.76Zm-375.95,33.839a10.84,10.84,0,0,0,5.28-1.24v-5.962a6.666,6.666,0,0,1-2.88.72c-1.4,0-2.08-.64-2.08-2.16v-7.322h5.04v-6.121h-5.04v-5.481h-7.6v5.481h-2.56v6.121h2.56v8.8C2822.04,851.436,2824.76,853.437,2829.32,853.437Zm7.84-.44h7.6V841.274c0-2.36,1.36-3.641,3.2-3.641,1.8,0,3.04,1.281,3.04,3.641V853h7.6V838.834c0-4.921-2.76-7.962-7.36-7.962a7.961,7.961,0,0,0-6.48,3.441V823.79h-7.6V853Zm35.28,0.52a11.334,11.334,0,0,0,9.4-4.4l-4.2-3.481a6.531,6.531,0,0,1-4.8,2.2,4.468,4.468,0,0,1-4.68-3.561h14.48c0.04-.52.04-1.08,0.04-1.56,0-6.362-3.44-11.843-10.92-11.843-6.4,0-10.92,5-10.92,11.322v0.08C2860.84,849,2865.64,853.517,2872.44,853.517Zm-4.4-13.123c0.4-2.36,1.76-3.921,3.76-3.921,2.08,0,3.48,1.52,3.76,3.921h-7.52Zm41.56,13.083c5.12,0,9.56-4.281,9.56-11.323v-0.08c0-6.921-4.44-11.2-9.6-11.2a7.942,7.942,0,0,0-6.56,3.361V823.79h-7.6V853h7.6v-2.641A8.127,8.127,0,0,0,2909.6,853.477Zm-2.36-6.362c-2.44,0-4.4-2.04-4.4-4.921v-0.08a4.442,4.442,0,1,1,8.84,0v0.08C2911.68,845.115,2909.72,847.115,2907.24,847.115Zm25.12,6.4a11.334,11.334,0,0,0,9.4-4.4l-4.2-3.481a6.531,6.531,0,0,1-4.8,2.2,4.468,4.468,0,0,1-4.68-3.561h14.48c0.04-.52.04-1.08,0.04-1.56,0-6.362-3.44-11.843-10.92-11.843-6.4,0-10.92,5-10.92,11.322v0.08C2920.76,849,2925.56,853.517,2932.36,853.517Zm-4.4-13.123c0.4-2.36,1.76-3.921,3.76-3.921,2.08,0,3.48,1.52,3.76,3.921h-7.52Zm25.68,13.043a10.84,10.84,0,0,0,5.28-1.24v-5.962a6.666,6.666,0,0,1-2.88.72c-1.4,0-2.08-.64-2.08-2.16v-7.322H2959v-6.121h-5.04v-5.481h-7.6v5.481h-2.56v6.121h2.56v8.8C2946.36,851.436,2949.08,853.437,2953.64,853.437Zm16.44,0a10.84,10.84,0,0,0,5.28-1.24v-5.962a6.666,6.666,0,0,1-2.88.72c-1.4,0-2.08-.64-2.08-2.16v-7.322h5.04v-6.121h-5.04v-5.481h-7.6v5.481h-2.56v6.121h2.56v8.8C2962.8,851.436,2965.52,853.437,2970.08,853.437Zm17.96,0.08a11.334,11.334,0,0,0,9.4-4.4l-4.2-3.481a6.531,6.531,0,0,1-4.8,2.2,4.468,4.468,0,0,1-4.68-3.561h14.48c0.04-.52.04-1.08,0.04-1.56,0-6.362-3.44-11.843-10.92-11.843-6.4,0-10.92,5-10.92,11.322v0.08C2976.44,849,2981.24,853.517,2988.04,853.517Zm-4.4-13.123c0.4-2.36,1.76-3.921,3.76-3.921,2.08,0,3.48,1.52,3.76,3.921h-7.52Zm17.08,12.6h7.6v-6.722c0-5,2.24-7.281,6.2-7.281h0.64v-8c-3.6-.16-5.6,1.76-6.84,4.721v-4.361h-7.6V853Zm35.2,0.44a10.84,10.84,0,0,0,5.28-1.24v-5.962a6.666,6.666,0,0,1-2.88.72c-1.4,0-2.08-.64-2.08-2.16v-7.322h5.04v-6.121h-5.04v-5.481h-7.6v5.481h-2.56v6.121h2.56v8.8C3028.64,851.436,3031.36,853.437,3035.92,853.437Zm7.84-.44h7.6V841.274c0-2.36,1.36-3.641,3.2-3.641,1.8,0,3.04,1.281,3.04,3.641V853h7.6V838.834c0-4.921-2.76-7.962-7.36-7.962a7.961,7.961,0,0,0-6.48,3.441V823.79h-7.6V853Zm35.28,0.52a11.334,11.334,0,0,0,9.4-4.4l-4.2-3.481a6.531,6.531,0,0,1-4.8,2.2,4.468,4.468,0,0,1-4.68-3.561h14.48c0.04-.52.04-1.08,0.04-1.56,0-6.362-3.44-11.843-10.92-11.843-6.4,0-10.92,5-10.92,11.322v0.08C3067.44,849,3072.24,853.517,3079.04,853.517Zm-4.4-13.123c0.4-2.36,1.76-3.921,3.76-3.921,2.08,0,3.48,1.52,3.76,3.921h-7.52Zm22.48,19.124c4.32,0,6.36-2,8.24-7.041l7.92-21.125h-7.8L3101.4,844.4l-4.32-13.043h-7.96l8.48,21.245a1.9,1.9,0,0,1-1.76.88,7.346,7.346,0,0,1-3.32-1.16l-2.36,5.321A13.983,13.983,0,0,0,3097.12,859.518Zm38.76-.04c4.52,0,7.56-1.08,9.52-3.041,1.92-1.92,2.8-4.681,2.8-8.641V831.352h-7.6v2.561a8.689,8.689,0,0,0-6.8-3.041c-5,0-9.36,3.841-9.36,10.082v0.08c0,6.2,4.28,10.042,9.6,10.042a8.385,8.385,0,0,0,6.68-3.24v0.84c0,3.441-1.88,5.321-5.68,5.321a14.925,14.925,0,0,1-7.56-2.041L3125.04,857A23.181,23.181,0,0,0,3135.88,859.478Zm0.44-14.243a4.156,4.156,0,0,1-4.44-4.161v-0.08a4.188,4.188,0,0,1,4.44-4.2,4.145,4.145,0,0,1,4.4,4.161v0.08A4.176,4.176,0,0,1,3136.32,845.235Zm25.88,8.282a11.334,11.334,0,0,0,9.4-4.4l-4.2-3.481a6.531,6.531,0,0,1-4.8,2.2,4.468,4.468,0,0,1-4.68-3.561h14.48c0.04-.52.04-1.08,0.04-1.56,0-6.362-3.44-11.843-10.92-11.843-6.4,0-10.92,5-10.92,11.322v0.08C3150.6,849,3155.4,853.517,3162.2,853.517Zm-4.4-13.123c0.4-2.36,1.76-3.921,3.76-3.921,2.08,0,3.48,1.52,3.76,3.921h-7.52Zm25.68,13.043a10.84,10.84,0,0,0,5.28-1.24v-5.962a6.666,6.666,0,0,1-2.88.72c-1.4,0-2.08-.64-2.08-2.16v-7.322h5.04v-6.121h-5.04v-5.481h-7.6v5.481h-2.56v6.121h2.56v8.8C3176.2,851.436,3178.92,853.437,3183.48,853.437ZM3191,853h7.92v-7.8H3191V853Z" transform="translate(-2778 -500)"/>
</svg>
