<?xml version="1.0" encoding="utf-8"?>
<!-- Generator: Adobe Illustrator 19.1.0, SVG Export Plug-In . SVG Version: 6.00 Build 0)  -->
<svg version="1.1" id="Layer_1" xmlns="http://www.w3.org/2000/svg" xmlns:xlink="http://www.w3.org/1999/xlink" x="0px" y="0px"
	 viewBox="0 0 300 600" enable-background="new 0 0 300 600" xml:space="preserve">
<polygon display="none" fill="#3DAE2C" points="1.9,321.5 77.9,325.5 77.9,600 1.9,600 "/>
<polygon display="none" fill="#FFC400" points="88,320.9 85.8,404.3 291.1,403.8 292,325.8 "/>
<polygon display="none" fill="#FFC400" points="300,434.8 300,554.4 194.6,554.4 194,434.8 "/>
<polygon display="none" fill="#0089FF" points="85.8,410.7 189.9,413.7 189.9,545.3 85.8,545.3 "/>
<polygon display="none" fill="#0089FF" points="7,7 7,35.7 291.7,35.7 293.7,3.7 "/>
<polygon display="none" fill="#FF6600" points="9,44 277.7,44 279.3,318.3 9,313.6 "/>
<image display="none" overflow="visible" width="300" height="600" xlink:href="../../../../../../Desktop/FOX-FAMILY-FUN-HTML5-300x600-endframe.jpg"  transform="matrix(1 0 0 1 0.3333 0)">
</image>
<polygon fill="#CB08FF" points="83.2,559.8 293.5,565.9 293.5,599.3 83.2,599.3 "/>
</svg>
