<?xml version="1.0" encoding="utf-8"?>
<!-- Generator: Adobe Illustrator 16.0.0, SVG Export Plug-In . SVG Version: 6.00 Build 0)  -->
<!DOCTYPE svg PUBLIC "-//W3C//DTD SVG 1.1//EN" "http://www.w3.org/Graphics/SVG/1.1/DTD/svg11.dtd">
<svg version="1.1" id="Layer_1" xmlns="http://www.w3.org/2000/svg" xmlns:xlink="http://www.w3.org/1999/xlink" x="0px" y="0px"
	 width="94.3px" height="94.3px" viewBox="0 0 94.3 94.3" style="enable-background:new 0 0 94.3 94.3;" xml:space="preserve">
<circle style="fill:#FFFFFF;" cx="47.1" cy="47.1" r="47.1"/>
<circle style="fill:#FC726B;" cx="47.2" cy="47.4" r="41.5"/>
<circle style="fill:#EA1B06;" cx="46.8" cy="46.6" r="40.5"/>
<rect x="20.9" y="23.5" style="fill:#FF3616;" width="48.6" height="46.7"/>
<rect x="23.6" y="26.1" style="fill:#260600;" width="43.3" height="41.5"/>
<polygon style="fill:#FF4522;" points="35.8,36 40.5,36 46.8,57.7 42.9,57.7 38.1,39.4 33.2,57.7 29.9,57.7 "/>
<rect x="32.5" y="48.5" style="fill:#FF4522;" width="11.4" height="3.2"/>
<rect x="48.5" y="43.4" style="fill:#FF3D1C;" width="3.6" height="13.9"/>
<rect x="56.9" y="45.4" style="fill:#FF3D1C;" width="3.6" height="11.9"/>
<path style="fill:#FF3D1C;" d="M54,41.2c-2.3,0-4.3,0.9-5.5,2.1v3.3c1.2-1.1,3-1.8,5.1-1.8c2.9,0,5.3,1.4,6.2,3.2
	c0.4-0.6,0.7-1.3,0.7-2.1C60.5,43.4,57.6,41.2,54,41.2z"/>
</svg>
