<?xml version="1.0" encoding="utf-8"?>
<!-- Generator: Adobe Illustrator 19.2.1, SVG Export Plug-In . SVG Version: 6.00 Build 0)  -->
<svg version="1.1" id="Layer_1" xmlns="http://www.w3.org/2000/svg" xmlns:xlink="http://www.w3.org/1999/xlink" x="0px" y="0px"
	 viewBox="0 0 56.1 77.5" style="enable-background:new 0 0 56.1 77.5;" xml:space="preserve">
<g>
	<path style="fill:#FFFFFF;stroke:#231F20;stroke-width:0.5;stroke-miterlimit:10;" d="M33,55.4H23c-0.3,0-0.5-0.1-0.7-0.3l-5.5-5
		c-0.5-0.7-0.4-1.3,0.2-1.3h22c0.6,0,0.6,0.6,0.2,1.3l-5.5,5C33.6,55.2,33.3,55.4,33,55.4z"/>
	<path style="fill:#ED2583;stroke:#231F20;stroke-width:0.5;stroke-miterlimit:10;" d="M28,0.3C12.7,0.3,0.3,8.5,0.3,18.7
		c0,1.8,0.4,3.6,1.2,5.3c0,0.1,0,0.1,0,0.2l0.2,0.4c0.3,0.6,0.6,1.1,1,1.7l13.8,23.4c0,0.1,0.2,0.2,0.3,0.2h22.5
		c0.1,0,0.3-0.1,0.3-0.2l13.8-23.4c0.4-0.5,0.7-1.1,1-1.7l0.2-0.4c0-0.1,0-0.1,0-0.2c0.8-1.7,1.2-3.5,1.2-5.3
		C55.8,8.5,43.4,0.3,28,0.3z"/>
	<path style="fill:#E87C24;stroke:#231F20;stroke-width:0.5;stroke-miterlimit:10;" d="M48.8,24.2c0-0.1,0-0.1,0-0.2
		c0.6-1.7,0.9-3.5,0.9-5.3C49.7,8.5,40,0.3,27.9,0.3S6.1,8.5,6.1,18.7c0,1.8,0.3,3.6,0.9,5.3c0,0.1,0,0.1,0,0.2l0.2,0.4
		c0.2,0.6,0.5,1.1,0.8,1.7l10.8,23.4c0,0.1,0.2,0.2,0.3,0.2h17.6c0.1,0,0.2-0.1,0.3-0.2l10.8-23.4c0.3-0.5,0.6-1.1,0.8-1.7
		L48.8,24.2z"/>
	<path style="fill:#E64425;stroke:#231F20;stroke-width:0.5;stroke-miterlimit:10;" d="M43.8,24.2c0-0.1,0-0.1,0-0.2
		c0.5-1.7,0.7-3.5,0.7-5.3C44.5,8.5,37,0.3,27.7,0.3S10.8,8.5,10.8,18.7c0,1.8,0.2,3.6,0.7,5.3c0,0.1,0,0.1,0,0.2l0.1,0.4
		c0.2,0.6,0.4,1.1,0.6,1.7l8.4,23.4c0,0.1,0.1,0.2,0.2,0.2h13.6c0.1,0,0.2-0.1,0.2-0.2l8.4-23.4c0.2-0.5,0.4-1.1,0.6-1.7L43.8,24.2z
		"/>
	<path style="fill:#FFFFFF;stroke:#231F20;stroke-width:0.5;stroke-miterlimit:10;" d="M34.6,24.2c0-0.1,0-0.1,0-0.2
		c0.2-1.7,0.3-3.5,0.3-5.3c0-10.2-3.3-18.5-7.4-18.5s-7.4,8.3-7.4,18.5c0,1.8,0.1,3.6,0.3,5.3c0,0.1,0,0.1,0,0.2l0.1,0.4
		c0.1,0.6,0.2,1.1,0.3,1.7l3.7,23.4c0,0.1,0.1,0.2,0.1,0.2h6c0,0,0.1-0.1,0.1-0.2l3.7-23.4c0.1-0.5,0.2-1.1,0.3-1.7L34.6,24.2z"/>
	<path style="fill:#D3196B;stroke:#231F20;stroke-width:0.5;stroke-miterlimit:10;" d="M40.2,24.2c0-0.1,0-0.1,0-0.2
		c0.4-1.7,0.5-3.5,0.5-5.3C40.8,8.5,35,0.3,27.9,0.3S14.9,8.5,14.9,18.7c0,1.8,0.2,3.6,0.5,5.3c0,0.1,0,0.1,0,0.2l0.1,0.4
		c0.1,0.6,0.3,1.1,0.5,1.7l6.4,23.4c0,0.1,0.1,0.2,0.2,0.2h10.5c0.1,0,0.1-0.1,0.2-0.2l6.4-23.4c0.2-0.5,0.3-1.1,0.5-1.7L40.2,24.2z
		"/>
	<path style="fill:#E73E25;stroke:#231F20;stroke-width:0.5;stroke-miterlimit:10;" d="M34.2,24.2c0-0.1,0-0.1,0-0.2
		c0.2-1.7,0.3-3.5,0.3-5.3c0-10.2-3.1-18.5-7-18.5s-7,8.3-7,18.5c0,1.8,0.1,3.6,0.3,5.3c0,0.1,0,0.1,0,0.2l0.1,0.4
		c0.1,0.6,0.2,1.1,0.2,1.7l3.5,23.4c0,0.1,0,0.2,0.1,0.2h5.6c0,0,0.1-0.1,0.1-0.2l3.5-23.4c0.1-0.5,0.2-1.1,0.2-1.7L34.2,24.2z"/>
	<ellipse style="fill:#FFFFFF;stroke:#231F20;stroke-width:0.5;stroke-miterlimit:10;" cx="27.7" cy="1" rx="6.2" ry="0.8"/>
	<ellipse style="fill:#FFFFFF;stroke:#231F20;stroke-width:0.5;stroke-miterlimit:10;" cx="28.1" cy="55.1" rx="5.6" ry="1.4"/>
	<ellipse style="fill:#D1D1D1;stroke:#231F20;stroke-width:0.5;stroke-miterlimit:10;" cx="28.1" cy="55.2" rx="5.6" ry="1.3"/>
	<line style="fill:none;stroke:#231F20;stroke-width:0.5;stroke-miterlimit:10;" x1="18.9" y1="60.7" x2="23.1" y2="54.6"/>
	<line style="fill:none;stroke:#231F20;stroke-width:0.5;stroke-miterlimit:10;" x1="33.6" y1="55.2" x2="38.3" y2="61.1"/>
	<line style="fill:none;stroke:#231F20;stroke-width:0.5;stroke-miterlimit:10;" x1="28.1" y1="56.5" x2="27.7" y2="60.7"/>
	<line style="fill:none;stroke:#231F20;stroke-width:0.5;stroke-miterlimit:10;" x1="30.9" y1="54.1" x2="32.6" y2="60.7"/>
	<line style="fill:none;stroke:#231F20;stroke-width:0.5;stroke-miterlimit:10;" x1="24.8" y1="53.9" x2="23.7" y2="60.3"/>
	<g>
		<path style="fill:#FBED1D;stroke:#231F20;stroke-width:0.5;stroke-miterlimit:10;" d="M34.8,74.4H22.1c-0.4,0-0.8-0.2-0.9-0.4
			l-4.9-10.9c-0.3-0.6,0.1-1.1,0.8-1.1h22.6c0.7,0,1.1,0.5,0.8,1.1L35.7,74C35.6,74.2,35.2,74.4,34.8,74.4z"/>
		<g>
			<path style="fill:#FFFFFF;stroke:#231F20;stroke-miterlimit:10;" d="M16.3,62.8c0,0.1,0,0.3,0.1,0.4l0.7,1.6l15.4,9.4h1.8
				c0.2,0,0.4-0.1,0.6-0.1L16.3,62.8z"/>
			<polygon style="fill:#FFFFFF;stroke:#231F20;stroke-miterlimit:10;" points="27.7,74.2 30.3,74.2 17.9,66.7 18.9,68.8 			"/>
			<path style="fill:#FFFFFF;stroke:#231F20;stroke-miterlimit:10;" d="M39.5,64l0.3-0.8c0.3-0.6-0.1-1-0.8-1h-2.6L39.5,64z"/>
			<polygon style="fill:#FFFFFF;stroke:#231F20;stroke-miterlimit:10;" points="20,62.2 17.5,62.2 35.4,73.1 36,71.9 			"/>
			<polygon style="fill:#FFFFFF;stroke:#231F20;stroke-miterlimit:10;" points="34.3,62.2 31.8,62.2 38.5,66.3 39,65.1 			"/>
			<path style="fill:#FFFFFF;stroke:#231F20;stroke-miterlimit:10;" d="M19.7,70.6l1.4,3.2c0.1,0.2,0.5,0.4,0.8,0.4h3.5L19.7,70.6z"
				/>
			<polygon style="fill:#FFFFFF;stroke:#231F20;stroke-miterlimit:10;" points="29.5,62.2 27,62.2 37.5,68.5 38,67.3 			"/>
			<polygon style="fill:#FFFFFF;stroke:#231F20;stroke-miterlimit:10;" points="24.8,62.2 22.3,62.2 36.5,70.8 37,69.6 			"/>
		</g>
	</g>
	<path style="fill:#FFFFFF;stroke:#231F20;stroke-miterlimit:10;" d="M39.3,63.4H16.5c-0.7,0-1.4-0.6-1.4-1.4v0
		c0-0.7,0.6-1.4,1.4-1.4h22.8c0.7,0,1.4,0.6,1.4,1.4v0C40.7,62.8,40.1,63.4,39.3,63.4z"/>
	<path style="fill:#FFFFFF;stroke:#231F20;stroke-miterlimit:10;" d="M34.6,77H22c-0.7,0-1.4-0.6-1.4-1.4l0,0c0-0.7,0.6-1.4,1.4-1.4
		h12.6c0.7,0,1.4,0.6,1.4,1.4l0,0C36,76.4,35.4,77,34.6,77z"/>
</g>
</svg>
