<?xml version="1.0" encoding="utf-8"?>
<!-- Generator: Adobe Illustrator 19.2.1, SVG Export Plug-In . SVG Version: 6.00 Build 0)  -->
<svg version="1.1" id="Layer_1" xmlns="http://www.w3.org/2000/svg" xmlns:xlink="http://www.w3.org/1999/xlink" x="0px" y="0px"
	 viewBox="0 0 92.3 145.1" style="enable-background:new 0 0 92.3 145.1;" xml:space="preserve">
<g>
	<path style="fill:#FFFFFF;stroke:#231F20;stroke-width:0.5;stroke-miterlimit:10;" d="M54.4,104H37.9c-0.4,0-0.9-0.3-1.1-0.6
		l-9.1-9.5c-0.7-1.3-0.7-2.5,0.3-2.5h36.4c0.9,0,1,1.2,0.3,2.5l-9.1,9.5C55.4,103.7,54.9,104,54.4,104z"/>
	<path style="fill:#A82178;stroke:#231F20;stroke-width:0.5;stroke-miterlimit:10;" d="M46.2,0.3C20.8,0.3,0.3,15.8,0.3,35
		c0,3.5,0.7,6.8,1.9,10c0,0.1,0,0.2,0.1,0.3L2.6,46c0.5,1.1,1,2.1,1.6,3.2l22.8,44.1c0.1,0.2,0.3,0.3,0.6,0.3h37.1
		c0.2,0,0.5-0.1,0.6-0.3l22.8-44.1c0.6-1,1.2-2.1,1.6-3.2l0.4-0.7c0-0.1,0.1-0.2,0.1-0.3c1.3-3.2,1.9-6.5,1.9-10
		C92.1,15.8,71.5,0.3,46.2,0.3z"/>
	<path style="fill:#E66F24;stroke:#231F20;stroke-width:0.5;stroke-miterlimit:10;" d="M80.5,45.3c0-0.1,0-0.2,0-0.3
		c1-3.2,1.5-6.5,1.5-10C82,15.8,65.9,0.3,46,0.3S9.9,15.8,9.9,35c0,3.5,0.5,6.8,1.5,10c0,0.1,0,0.2,0,0.3l0.3,0.7
		c0.4,1.1,0.8,2.1,1.3,3.2L31,93.3c0.1,0.2,0.3,0.3,0.4,0.3h29.1c0.2,0,0.4-0.1,0.4-0.3l17.9-44.1c0.5-1,0.9-2.1,1.3-3.2L80.5,45.3z
		"/>
	<path style="fill:#ACBE37;stroke:#231F20;stroke-width:0.5;stroke-miterlimit:10;" d="M72.2,45.3c0-0.1,0-0.2,0-0.3
		c0.8-3.2,1.2-6.5,1.2-10c0-19.2-12.5-34.7-27.9-34.7S17.7,15.8,17.7,35c0,3.5,0.4,6.8,1.2,10c0,0.1,0,0.2,0,0.3l0.2,0.7
		c0.3,1.1,0.6,2.1,1,3.2l13.8,44.1c0,0.2,0.2,0.3,0.3,0.3h22.5c0.1,0,0.3-0.1,0.3-0.3L71,49.2c0.4-1,0.7-2.1,1-3.2L72.2,45.3z"/>
	<path style="fill:#FFFFFF;stroke:#231F20;stroke-width:0.5;stroke-miterlimit:10;" d="M57,45.3c0-0.1,0-0.2,0-0.3
		c0.3-3.2,0.5-6.5,0.5-10c0-19.2-5.5-34.7-12.2-34.7S33.1,15.8,33.1,35c0,3.5,0.2,6.8,0.5,10c0,0.1,0,0.2,0,0.3l0.1,0.7
		c0.1,1.1,0.3,2.1,0.4,3.2l6.1,44.1c0,0.2,0.1,0.3,0.1,0.3h9.9c0.1,0,0.1-0.1,0.1-0.3l6.1-44.1c0.2-1,0.3-2.1,0.4-3.2L57,45.3z"/>
	<path style="fill:#2D3491;stroke:#231F20;stroke-width:0.5;stroke-miterlimit:10;" d="M66.3,45.3c0-0.1,0-0.2,0-0.3
		c0.6-3.2,0.9-6.5,0.9-10c0-19.2-9.6-34.7-21.4-34.7S24.5,15.8,24.5,35c0,3.5,0.3,6.8,0.9,10c0,0.1,0,0.2,0,0.3l0.2,0.7
		c0.2,1.1,0.5,2.1,0.8,3.2L37,93.3c0,0.2,0.1,0.3,0.3,0.3h17.3c0.1,0,0.2-0.1,0.3-0.3l10.6-44.1c0.3-1,0.5-2.1,0.8-3.2L66.3,45.3z"
		/>
	<path style="fill:#FBED1D;stroke:#231F20;stroke-width:0.5;stroke-miterlimit:10;" d="M56.3,45.3c0-0.1,0-0.2,0-0.3
		c0.3-3.2,0.5-6.5,0.5-10c0-19.2-5.2-34.7-11.5-34.7S33.8,15.8,33.8,35c0,3.5,0.2,6.8,0.5,10c0,0.1,0,0.2,0,0.3l0.1,0.7
		c0.1,1.1,0.3,2.1,0.4,3.2l5.7,44.1c0,0.2,0.1,0.3,0.1,0.3H50c0.1,0,0.1-0.1,0.1-0.3l5.7-44.1c0.2-1,0.3-2.1,0.4-3.2L56.3,45.3z"/>
	<ellipse style="fill:#FFFFFF;stroke:#231F20;stroke-width:0.5;stroke-miterlimit:10;" cx="45.5" cy="1.7" rx="10.2" ry="1.5"/>
	<ellipse style="fill:#FFFFFF;stroke:#231F20;stroke-width:0.5;stroke-miterlimit:10;" cx="46.2" cy="103.4" rx="9.2" ry="2.7"/>
	<ellipse style="fill:#D1D1D1;stroke:#231F20;stroke-width:0.5;stroke-miterlimit:10;" cx="46.2" cy="103.7" rx="9.2" ry="2.4"/>
	<line style="fill:none;stroke:#231F20;stroke-width:0.5;stroke-miterlimit:10;" x1="31.1" y1="114" x2="38" y2="102.6"/>
	<line style="fill:none;stroke:#231F20;stroke-width:0.5;stroke-miterlimit:10;" x1="55.4" y1="103.7" x2="63.1" y2="114.8"/>
	<line style="fill:none;stroke:#231F20;stroke-width:0.5;stroke-miterlimit:10;" x1="46.2" y1="106.1" x2="45.5" y2="114"/>
	<line style="fill:none;stroke:#231F20;stroke-width:0.5;stroke-miterlimit:10;" x1="50.9" y1="101.6" x2="53.7" y2="114"/>
	<line style="fill:none;stroke:#231F20;stroke-width:0.5;stroke-miterlimit:10;" x1="40.8" y1="101.3" x2="38.9" y2="113.2"/>
	<g>
		<g>
			<path style="fill:#FBED1D;stroke:#231F20;stroke-width:0.5;stroke-miterlimit:10;" d="M57.4,139.8H36.4c-0.6,0-1.3-0.3-1.4-0.7
				l-8.1-20.6c-0.4-1.1,0.2-2,1.3-2h37.4c1.2,0,1.7,0.9,1.3,2l-8.1,20.6C58.7,139.5,58,139.8,57.4,139.8z"/>
			<g>
				<path style="fill:#FFFFFF;stroke:#231F20;stroke-miterlimit:10;" d="M26.8,117.9c0,0.2,0,0.5,0.1,0.8l1.2,3.1l25.4,17.7h2.9
					c0.3,0,0.7-0.2,0.9-0.3L26.8,117.9z"/>
				<polygon style="fill:#FFFFFF;stroke:#231F20;stroke-miterlimit:10;" points="45.7,139.5 49.8,139.5 29.4,125.3 31,129.3 				"/>
				<path style="fill:#FFFFFF;stroke:#231F20;stroke-miterlimit:10;" d="M65.1,120l0.6-1.5c0.4-1.1-0.1-2-1.3-2h-4.3L65.1,120z"/>
				<polygon style="fill:#FFFFFF;stroke:#231F20;stroke-miterlimit:10;" points="33,116.5 28.8,116.5 58.4,137.1 59.3,134.8 				"/>
				<polygon style="fill:#FFFFFF;stroke:#231F20;stroke-miterlimit:10;" points="56.5,116.5 52.3,116.5 63.4,124.3 64.3,122 				"/>
				<path style="fill:#FFFFFF;stroke:#231F20;stroke-miterlimit:10;" d="M32.4,132.7l2.4,6.1c0.1,0.4,0.8,0.7,1.4,0.7H42L32.4,132.7
					z"/>
				<polygon style="fill:#FFFFFF;stroke:#231F20;stroke-miterlimit:10;" points="48.7,116.5 44.5,116.5 61.8,128.6 62.7,126.2 				
					"/>
				<polygon style="fill:#FFFFFF;stroke:#231F20;stroke-miterlimit:10;" points="40.8,116.5 36.6,116.5 60.1,132.9 61,130.5 				"/>
			</g>
		</g>
		<path style="fill:#FFFFFF;stroke:#231F20;stroke-miterlimit:10;" d="M64.5,119h-37c-1.4,0-2.6-1.2-2.6-2.6v0
			c0-1.4,1.2-2.6,2.6-2.6h37c1.4,0,2.6,1.2,2.6,2.6v0C67,117.9,65.9,119,64.5,119z"/>
		<path style="fill:#FFFFFF;stroke:#231F20;stroke-miterlimit:10;" d="M56.7,144.6H36.5c-1.4,0-2.6-1.2-2.6-2.6l0,0
			c0-1.4,1.2-2.6,2.6-2.6h20.2c1.4,0,2.6,1.2,2.6,2.6l0,0C59.3,143.5,58.1,144.6,56.7,144.6z"/>
	</g>
</g>
</svg>
