<?xml version="1.0" encoding="utf-8"?>
<!-- Generator: Adobe Illustrator 20.0.0, SVG Export Plug-In . SVG Version: 6.00 Build 0)  -->
<svg version="1.1" id="Layer_1" xmlns="http://www.w3.org/2000/svg" xmlns:xlink="http://www.w3.org/1999/xlink" x="0px" y="0px"
	 viewBox="0 0 1920 1080" style="enable-background:new 0 0 1920 1080;" xml:space="preserve">
<style type="text/css">
	.st0{fill:url(#SVGID_1_);}
	.st1{fill:#57A53D;}
	.st2{fill:#FFFFFF;}
	.st3{fill:#FFF458;}
	.st4{fill:#F09400;}
	.st5{fill:none;stroke:#EE8D00;stroke-miterlimit:10;}
	.st6{fill:#AEFBFB;}
	.st7{fill:#00D9E9;}
	.st8{fill:#D5D6D7;}
	.st9{fill:#C40035;}
	.st10{fill:#E74234;}
	.st11{fill:#E34032;}
	.st12{fill:#2CAC50;}
	.st13{fill:#9E3B27;}
	.st14{fill:#187C3F;}
	.st15{fill:#22A24D;}
	.st16{fill:#27A24D;}
	.st17{fill:none;stroke:#008000;stroke-miterlimit:10;}
	.st18{fill:#187C3E;}
	.st19{fill:#C0A282;}
	.st20{fill:#575759;}
	.st21{fill:#795F46;}
	.st22{fill:#855D3E;}
	.st23{fill:url(#SVGID_2_);}
	.st24{fill:url(#SVGID_3_);}
	.st25{fill:url(#SVGID_4_);}
	.st26{fill:#FFE000;}
	.st27{fill:#C4C4C4;stroke:#383636;stroke-miterlimit:10;}
	.st28{opacity:0.5;fill:none;stroke:#FFFFFF;stroke-width:0.25;stroke-miterlimit:10;}
	.st29{fill:#E3EAEF;}
	.st30{fill:none;stroke:#DB0E0E;stroke-miterlimit:10;}
	.st31{fill:none;stroke:#990404;stroke-miterlimit:10;}
	.st32{fill:#96E0F5;}
	.st33{fill:#F47831;}
	.st34{clip-path:url(#SVGID_6_);fill:#9E3804;}
	.st35{fill:#CEDD40;stroke:#F7F7F7;stroke-miterlimit:10;}
	.st36{fill:#FA4249;}
	.st37{fill:#D0BB80;}
	.st38{fill:#FDD394;}
	.st39{fill:#367675;}
	.st40{fill:url(#SVGID_7_);}
	.st41{fill:url(#SVGID_8_);}
</style>
<linearGradient id="SVGID_1_" gradientUnits="userSpaceOnUse" x1="958.0805" y1="924.6127" x2="958.0805" y2="-9.094947e-13">
	<stop  offset="0" style="stop-color:#FFFFFF"/>
	<stop  offset="0.1845" style="stop-color:#FDFEFE"/>
	<stop  offset="1" style="stop-color:#C1E1E5"/>
</linearGradient>
<rect class="st0" width="1916.2" height="924.6"/>
<rect y="907.8" class="st1" width="1920" height="172.2"/>
<path class="st2" d="M1531.8,211.7c0.6-0.8,1.3-1.5,1.9-2.3c0.8,0.8,1.7,1.5,2.5,2.3h118c0.4-0.4,0.9-0.7,1.3-1.1
	c0.5,0.4,1.1,0.7,1.6,1.1h202.1c0-25-20.2-45.2-45.2-45.2c-5.1,0-9.9,0.9-14.4,2.4c-4.3-20.5-22.4-35.9-44.2-35.9c-1,0-2,0.1-3,0.2
	c-10-22.4-32.4-38.1-58.6-38.1c-9.5,0-18.6,2.1-26.7,5.9c-15.5-23.2-41.9-38.4-71.8-38.4c-36.3,0-67.3,22.4-80.1,54.2
	c-9.5-5.6-20.6-9-32.4-9c-34.7,0-62.9,27.8-63.6,62.3c-2.7-0.4-5.5-0.7-8.3-0.7c-25.7,0-47.2,18.2-52.3,42.4H1531.8z"/>
<path class="st2" d="M184.9,188.6c0.1-0.2,0.3-0.3,0.4-0.5c0.2,0.2,0.4,0.3,0.6,0.5h26.9c0.1-0.1,0.2-0.2,0.3-0.3
	c0.1,0.1,0.2,0.2,0.4,0.3h46c0-5.7-4.6-10.3-10.3-10.3c-1.2,0-2.3,0.2-3.3,0.5c-1-4.7-5.1-8.2-10.1-8.2c-0.2,0-0.5,0-0.7,0
	c-2.3-5.1-7.4-8.7-13.3-8.7c-2.2,0-4.2,0.5-6.1,1.3c-3.5-5.3-9.5-8.8-16.4-8.8c-8.3,0-15.3,5.1-18.2,12.3c-2.2-1.3-4.7-2-7.4-2
	c-7.9,0-14.3,6.3-14.5,14.2c-0.6-0.1-1.2-0.2-1.9-0.2c-5.9,0-10.8,4.1-11.9,9.7H184.9z"/>
<path class="st2" d="M283.4,150c0.1-0.2,0.3-0.3,0.4-0.5c0.2,0.2,0.4,0.3,0.6,0.5h26.9c0.1-0.1,0.2-0.2,0.3-0.3
	c0.1,0.1,0.2,0.2,0.4,0.3h46c0-5.7-4.6-10.3-10.3-10.3c-1.2,0-2.3,0.2-3.3,0.5c-1-4.7-5.1-8.2-10.1-8.2c-0.2,0-0.5,0-0.7,0
	c-2.3-5.1-7.4-8.7-13.3-8.7c-2.2,0-4.2,0.5-6.1,1.3c-3.5-5.3-9.5-8.8-16.4-8.8c-8.3,0-15.3,5.1-18.2,12.3c-2.2-1.3-4.7-2-7.4-2
	c-7.9,0-14.3,6.3-14.5,14.2c-0.6-0.1-1.2-0.2-1.9-0.2c-5.9,0-10.8,4.1-11.9,9.7H283.4z"/>
<g>
	<path class="st3" d="M1462.4,215.4c0,0,34.4-2.4,35.1-34.3c0,0,8.5-51.2,62.2-17.9c0,0,14,33.3-5.9,60.3
		C1553.8,223.7,1518.8,261.8,1462.4,215.4z"/>
	<polygon class="st4" points="1561.2,167.5 1567.1,164.4 1560,164.4 1563.5,157.4 1556.8,162.4 	"/>
	<circle cx="1538.9" cy="169.1" r="4.1"/>
	<path class="st4" d="M1464.4,184.7c0,0,20.6,56,52.3,13.5C1516.6,198.2,1493.5,180.4,1464.4,184.7z"/>
	<line class="st5" x1="1537.8" y1="233.1" x2="1544.7" y2="241.5"/>
	<line class="st5" x1="1543.6" y1="228.4" x2="1550.4" y2="236.9"/>
</g>
<g>
	<path class="st3" d="M1532.7,109.7c0,0,20.7,7.2,29-11.3c0,0,17.7-27.7,40.8,5.1c0,0-0.1,22.9-18.5,33.7
		C1584,137.2,1554.1,150.8,1532.7,109.7z"/>
	<polygon class="st4" points="1602.3,106.3 1606.5,106 1602.4,104.2 1606.2,101 1601,102.3 	"/>
	<ellipse transform="matrix(0.3928 -0.9196 0.9196 0.3928 871.2354 1522.896)" cx="1588.9" cy="101.7" rx="2.6" ry="2.6"/>
	<path class="st4" d="M1541.5,92.2c0,0-1.9,37.8,27.1,20.9C1568.7,113.2,1559.6,97,1541.5,92.2z"/>
	<line class="st5" x1="1572.3" y1="138.7" x2="1574.2" y2="145.4"/>
	<line class="st5" x1="1576.8" y1="137.5" x2="1578.7" y2="144.1"/>
</g>
<g>
	<path class="st6" d="M1655.2,134.6c0,0-12.4,15.4-27.6,5.3c0,0-26.8-12.7-28.7,23.4c0,0,11.1,17.5,30.3,16.9
		C1629.2,180.3,1658.6,176.3,1655.2,134.6z"/>
	<polygon class="st4" points="1600.4,165.4 1597,167.2 1599.3,163.8 1594.9,163.2 1599.4,161.7 	"/>
	<ellipse transform="matrix(0.5706 -0.8212 0.8212 0.5706 562.9549 1387.5747)" cx="1608.4" cy="155.4" rx="2.3" ry="2.3"/>
	<path class="st7" d="M1640.1,125.5c0,0,19.6,28-10.7,29C1629.4,154.5,1628.6,137.8,1640.1,125.5z"/>
	<line class="st5" x1="1638.9" y1="175.8" x2="1640.6" y2="181.8"/>
	<line class="st5" x1="1634.8" y1="177" x2="1636.5" y2="183"/>
</g>
<g>
	<rect x="1275.9" y="813" class="st8" width="156.2" height="107.7"/>
	<path class="st9" d="M1269.3,813c-0.8,2-1.2,4.2-1.2,6.5c0,9,6.4,16.2,14.4,16.2c4.7,0,8.9-2.6,11.5-6.5c2.6,4,6.8,6.5,11.5,6.5
		s8.9-2.6,11.5-6.5c2.6,4,6.8,6.5,11.5,6.5c5.4,0,10.1-3.4,12.5-8.3c2.5,5,7.1,8.3,12.5,8.3c5,0,9.4-2.9,12-7.4
		c2.6,4.4,7,7.4,12,7.4s9.4-2.9,12-7.4c2.6,4.4,7,7.4,12,7.4c4.4,0,8.3-2.2,11-5.8c2.6,3.5,6.6,5.8,11,5.8c7.9,0,14.4-7.3,14.4-16.2
		c0-2.3-0.4-4.5-1.2-6.5H1269.3z"/>
	<polygon class="st10" points="1437.8,815 1268.1,815 1298.2,756 1408.7,756 	"/>
	<rect x="1295.3" y="846" class="st11" width="43.6" height="74.7"/>
	<rect x="1379.9" y="846" class="st11" width="43.6" height="24.3"/>
	<path class="st12" d="M1414.6,895.2c-4.4,0-8.4,2.1-10.9,5.3c-2.5-3.2-6.5-5.3-10.9-5.3c-4.9,0-9.2,2.5-11.6,6.4
		c-2.5-3.8-6.8-6.4-11.6-6.4c-7.7,0-13.9,6.2-13.9,13.9h72.8C1428.5,901.4,1422.3,895.2,1414.6,895.2z"/>
	<rect x="1348.5" y="907.6" class="st13" width="83.6" height="13.1"/>
</g>
<g>
	<rect x="289.4" y="811.8" class="st8" width="156.2" height="107.7"/>
	<path class="st14" d="M282.9,811.8c-0.8,2-1.2,4.2-1.2,6.5c0,9,6.4,16.2,14.4,16.2c4.7,0,8.9-2.6,11.5-6.5c2.6,4,6.8,6.5,11.5,6.5
		c4.7,0,8.9-2.6,11.5-6.5c2.6,4,6.8,6.5,11.5,6.5c5.4,0,10.1-3.4,12.5-8.3c2.5,5,7.1,8.3,12.5,8.3c5,0,9.4-2.9,12-7.4
		c2.6,4.4,7,7.4,12,7.4s9.4-2.9,12-7.4c2.6,4.4,7,7.4,12,7.4c4.4,0,8.3-2.2,11-5.8c2.6,3.5,6.6,5.8,11,5.8c7.9,0,14.4-7.3,14.4-16.2
		c0-2.3-0.4-4.5-1.2-6.5H282.9z"/>
	<polygon class="st15" points="451.4,813.7 281.7,813.7 311.8,754.7 422.3,754.7 	"/>
	<rect x="308.8" y="844.8" class="st16" width="43.6" height="74.7"/>
	<rect x="393.5" y="844.8" class="st17" width="43.6" height="24.3"/>
	<path class="st12" d="M428.2,894c-4.4,0-8.4,2.1-10.9,5.3c-2.5-3.2-6.5-5.3-10.9-5.3c-4.9,0-9.2,2.5-11.6,6.4
		c-2.5-3.8-6.8-6.4-11.6-6.4c-7.7,0-13.9,6.2-13.9,13.9h72.8C442.1,900.2,435.9,894,428.2,894z"/>
	<rect x="362" y="906.4" class="st18" width="83.6" height="13.1"/>
</g>
<g>
	<rect x="1693.8" y="649" class="st19" width="133.4" height="273.1"/>
	<rect x="1727" y="800.2" class="st20" width="66.7" height="119.3"/>
	<rect x="1702.5" y="656.2" class="st20" width="32.2" height="32.2"/>
	<rect x="1745" y="656.2" class="st20" width="32.2" height="32.2"/>
	<rect x="1787.5" y="656.2" class="st20" width="32.2" height="32.2"/>
	<rect x="1701.9" y="693.1" class="st20" width="32.2" height="32.2"/>
	<rect x="1744.4" y="693.1" class="st20" width="32.2" height="32.2"/>
	<rect x="1786.9" y="693.1" class="st20" width="32.2" height="32.2"/>
	<rect x="1701.9" y="730.4" class="st20" width="32.2" height="32.2"/>
	<rect x="1744.4" y="730.4" class="st20" width="32.2" height="32.2"/>
	<rect x="1786.9" y="730.4" class="st20" width="32.2" height="32.2"/>
	<path class="st21" d="M1840.7,785.6h-159.3c-1.9,0-3.5-1.6-3.5-3.5v-10.8c0-1.9,1.6-3.5,3.5-3.5h159.3c1.9,0,3.5,1.6,3.5,3.5V782
		C1844.3,784,1842.7,785.6,1840.7,785.6z"/>
	<polygon class="st19" points="1698.7,650.1 1698.7,621.1 1725.4,620.2 1751,650.1 	"/>
	<rect x="1759.9" y="800.2" class="st19" width="0.8" height="119.3"/>
</g>
<g>
	<polygon class="st22" points="206.4,919 199.6,919 200.5,859 205.6,859 	"/>
	<linearGradient id="SVGID_2_" gradientUnits="userSpaceOnUse" x1="186.4308" y1="842.2363" x2="217.8762" y2="842.2363">
		<stop  offset="0.533" style="stop-color:#0EA703"/>
		<stop  offset="0.5381" style="stop-color:#317F01"/>
	</linearGradient>
	<ellipse class="st23" cx="202.2" cy="842.2" rx="15.7" ry="28.9"/>
</g>
<g>
	<polygon class="st22" points="268.4,917 260.2,917 261.3,847 267.4,847 	"/>
	<linearGradient id="SVGID_3_" gradientUnits="userSpaceOnUse" x1="244.4095" y1="825.4593" x2="282.1518" y2="825.4593">
		<stop  offset="0.533" style="stop-color:#0EA703"/>
		<stop  offset="0.5381" style="stop-color:#317F01"/>
	</linearGradient>
	<ellipse class="st24" cx="263.3" cy="825.5" rx="18.9" ry="34.7"/>
</g>
<g>
	<polygon class="st22" points="1451.3,924 1440.8,924 1442.1,833 1450,833 	"/>
	<linearGradient id="SVGID_4_" gradientUnits="userSpaceOnUse" x1="1420.3521" y1="805.4647" x2="1468.9913" y2="805.4647">
		<stop  offset="0.533" style="stop-color:#0EA703"/>
		<stop  offset="0.5381" style="stop-color:#317F01"/>
	</linearGradient>
	<ellipse class="st25" cx="1444.7" cy="805.5" rx="24.3" ry="44.8"/>
</g>
<g>
	<path d="M1628.1,862.1h-129.3c-1.5,0-2.7-1.2-2.7-2.7v-4.6c0-1.5,1.2-2.7,2.7-2.7h129.3c1.5,0,2.7,1.2,2.7,2.7v4.6
		C1630.7,860.9,1629.5,862.1,1628.1,862.1z"/>
	<path d="M1635,924h-4.9c-1.5,0-2.8-1.3-2.8-2.8v-77.7c0-1.5,1.3-2.8,2.8-2.8h4.9c1.5,0,2.8,1.3,2.8,2.8v77.7
		C1637.8,922.7,1636.6,924,1635,924z"/>
	<path d="M1496.7,924h-4.9c-1.5,0-2.8-1.3-2.8-2.8v-77.7c0-1.5,1.3-2.8,2.8-2.8h4.9c1.5,0,2.8,1.3,2.8,2.8v77.7
		C1499.5,922.7,1498.2,924,1496.7,924z"/>
	<path class="st14" d="M1548.2,900.5h-36.9c-4.4,0-8-3.6-8-8v-65.3c0-4.4,3.6-8,8-8h36.9c4.4,0,8,3.6,8,8v65.3
		C1556.2,896.9,1552.6,900.5,1548.2,900.5z"/>
	<path class="st26" d="M1614,900.5h-36.9c-4.4,0-8-3.6-8-8v-65.3c0-4.4,3.6-8,8-8h36.9c4.4,0,8,3.6,8,8v65.3
		C1622,896.9,1618.4,900.5,1614,900.5z"/>
	<path d="M1543.4,852.2h-27.3c-2.6,0-4.7-2.1-4.7-4.7v-8.2c0-2.6,2.1-4.7,4.7-4.7h27.3c2.6,0,4.7,2.1,4.7,4.7v8.2
		C1548.1,850.1,1546,852.2,1543.4,852.2z"/>
	<path d="M1609.3,852.2h-27.3c-2.6,0-4.7-2.1-4.7-4.7v-8.2c0-2.6,2.1-4.7,4.7-4.7h27.3c2.6,0,4.7,2.1,4.7,4.7v8.2
		C1614,850.1,1611.8,852.2,1609.3,852.2z"/>
</g>
<g>
	<rect x="140.5" y="825.5" class="st27" width="20" height="23"/>
	<rect x="139.5" y="873.5" class="st27" width="20" height="24"/>
	<line class="st28" x1="152.6" y1="826.2" x2="152.6" y2="847.6"/>
	<rect x="52" y="799" class="st29" width="133" height="116"/>
	<line class="st30" x1="52" y1="817.5" x2="186" y2="817.5"/>
	<line class="st31" x1="52" y1="799.5" x2="186" y2="799.5"/>
	<line class="st30" x1="52" y1="864.5" x2="186" y2="864.5"/>
	<rect x="79.5" y="825.5" class="st27" width="19" height="23"/>
	<rect x="109.5" y="825.5" class="st27" width="19" height="23"/>
	<line class="st28" x1="121.5" y1="826.2" x2="121.5" y2="847.6"/>
	<rect x="143.5" y="882.5" class="st27" width="18" height="24"/>
	<line class="st28" x1="154.9" y1="883.2" x2="154.9" y2="904.6"/>
	<rect x="140.5" y="825.5" class="st27" width="20" height="23"/>
	<line class="st28" x1="152.9" y1="826.2" x2="152.9" y2="847.6"/>
	<line class="st28" x1="89.7" y1="826.3" x2="89.7" y2="847.6"/>
	<rect x="76.5" y="882.5" class="st27" width="20" height="24"/>
	<rect x="107" y="886" class="st32" width="20" height="29"/>
	<line class="st28" x1="87.8" y1="883.3" x2="87.8" y2="904.6"/>
	<polygon class="st33" points="33.8,801 117.8,746.7 201.7,801 	"/>
	<g>
		<defs>
			<polygon id="SVGID_5_" points="33.8,801 117.8,746.7 201.7,801 			"/>
		</defs>
		<clipPath id="SVGID_6_">
			<use xlink:href="#SVGID_5_"  style="overflow:visible;"/>
		</clipPath>
		<rect x="42" y="788" class="st34" width="145" height="4"/>
		<rect x="43" y="776" class="st34" width="144" height="6"/>
		<rect x="43" y="767" class="st34" width="144" height="4"/>
		<rect x="47" y="757" class="st34" width="142" height="5"/>
	</g>
	<rect x="102.5" y="876.5" class="st35" width="31" height="38"/>
</g>
<g>
	<polygon class="st36" points="461.5,854 540.4,794.4 618.8,854 610.9,854 540.2,800.9 471.4,854 	"/>
	<polygon class="st37" points="471.4,854 540.2,800.9 610.9,854 	"/>
	<rect x="471.4" y="854" class="st38" width="139.4" height="54.1"/>
	<polygon class="st39" points="519.7,847.9 503,847.9 503,832.1 519.7,824.2 	"/>
	<polygon class="st39" points="557.7,845.2 574.4,845.2 574.4,829.5 557.7,821.5 	"/>
	<rect x="530.1" y="818.4" class="st39" width="20.3" height="29.5"/>
	<rect x="488.4" y="863.5" class="st39" width="20.3" height="20.3"/>
	<rect x="517.9" y="863.5" class="st39" width="20.3" height="20.3"/>
	<rect x="555.9" y="863.5" class="st39" width="20.3" height="44.6"/>
</g>
<g>
	<polygon class="st22" points="38.4,916 31.6,916 32.5,856 37.6,856 	"/>
	<linearGradient id="SVGID_7_" gradientUnits="userSpaceOnUse" x1="18.4308" y1="839.2363" x2="49.8762" y2="839.2363">
		<stop  offset="0.533" style="stop-color:#0EA703"/>
		<stop  offset="0.5381" style="stop-color:#317F01"/>
	</linearGradient>
	<ellipse class="st40" cx="34.2" cy="839.2" rx="15.7" ry="28.9"/>
</g>
<g>
	<polygon class="st22" points="598.4,924 590.2,924 591.3,854 597.4,854 	"/>
	<linearGradient id="SVGID_8_" gradientUnits="userSpaceOnUse" x1="574.4095" y1="832.4593" x2="612.1518" y2="832.4593">
		<stop  offset="0.533" style="stop-color:#0EA703"/>
		<stop  offset="0.5381" style="stop-color:#317F01"/>
	</linearGradient>
	<ellipse class="st41" cx="593.3" cy="832.5" rx="18.9" ry="34.7"/>
</g>
</svg>
