<?xml version="1.0" encoding="utf-8"?>
<!-- Generator: Adobe Illustrator 20.0.0, SVG Export Plug-In . SVG Version: 6.00 Build 0)  -->
<svg version="1.1" id="Layer_1" xmlns="http://www.w3.org/2000/svg" xmlns:xlink="http://www.w3.org/1999/xlink" x="0px" y="0px"
	 viewBox="0 0 1920 1080" enable-background="new 0 0 1920 1080" xml:space="preserve">
<rect fill="#093547" width="1920" height="1080"/>
<g>
	<polygon fill="#FDFEFF" points="372.9,305.1 371.1,311.8 377.6,314.3 370.7,314.6 370.4,321.2 367.7,314.7 361.4,316.5 
		366.9,312.4 362.8,306.7 368.5,310.6 	"/>
	<polygon fill="#FDFEFF" points="56.1,173.6 52.9,185.6 64.4,190.1 52,190.6 51.6,202.6 46.7,190.9 35.3,194.1 45.3,186.7 
		37.9,176.5 48.2,183.4 	"/>
	<polygon fill="#FDFEFF" points="42.5,910.5 40.1,919 48.4,922.2 39.6,922.6 39.3,931.1 35.8,922.8 27.7,925 34.8,919.8 29.5,912.5 
		36.9,917.5 	"/>
	<polygon fill="#FDFEFF" points="141.6,335.1 139.2,343.7 147.5,347 138.6,347.4 138.3,356 134.8,347.5 126.5,349.9 133.7,344.6 
		128.4,337.2 135.9,342.2 	"/>
	<polygon fill="#FDFEFF" points="322.2,485.9 320.1,493.6 327.7,496.6 319.6,497 319.3,504.8 316.1,497.1 308.6,499.2 315.2,494.4 
		310.3,487.7 317.1,492.3 	"/>
	<polygon fill="#FDFEFF" points="674.4,344 672.3,351.7 679.9,354.7 671.8,355.1 671.5,362.9 668.3,355.2 660.9,357.3 667.4,352.5 
		662.6,345.8 669.3,350.4 	"/>
	<polygon fill="#FDFEFF" points="527.5,463 525.4,470.8 532.9,473.8 524.8,474.2 524.6,481.9 521.3,474.3 513.9,476.4 520.4,471.6 
		515.6,464.9 522.3,469.5 	"/>
	<polygon fill="#FDFEFF" points="255.4,639.5 254.1,644.5 258.9,646.4 253.7,646.7 253.5,651.7 251.5,646.8 246.6,648.1 250.9,645 
		247.7,640.7 252.1,643.6 	"/>
	<polygon fill="#FDFEFF" points="229.3,867.3 228.3,870.9 231.8,872.3 228,872.5 227.9,876.1 226.4,872.5 223,873.5 226,871.3 
		223.8,868.2 226.9,870.3 	"/>
	<polygon fill="#FDFEFF" points="41.7,760.9 40.8,764.5 44.3,765.9 40.5,766.1 40.4,769.6 38.9,766.1 35.5,767.1 38.5,764.9 
		36.3,761.8 39.4,763.9 	"/>
	<polygon fill="#FDFEFF" points="512.9,728 512.4,730.1 514.4,730.8 512.2,730.9 512.2,733 511.3,731 509.3,731.5 511.1,730.3 
		509.8,728.5 511.6,729.7 	"/>
	<polygon fill="#FDFEFF" points="525.6,1123.3 525,1125.4 527.1,1126.1 524.9,1126.2 524.8,1128.3 524,1126.3 522,1126.8 
		523.7,1125.6 522.4,1123.8 524.2,1125 	"/>
	<polygon fill="#FDFEFF" points="150.6,588.6 150,590.7 152,591.5 149.9,591.6 149.8,593.7 148.9,591.6 147,592.2 148.7,590.9 
		147.4,589.1 149.2,590.3 	"/>
	<polygon fill="#FDFEFF" points="1040,322.6 1039.4,324.6 1041.4,325.4 1039.3,325.5 1039.2,327.6 1038.4,325.6 1036.4,326.1 
		1038.1,324.8 1036.8,323 1038.6,324.3 	"/>
	<polygon fill="#FDFEFF" points="84.7,271.9 84.1,274 86.2,274.7 84,274.8 83.9,276.9 83.1,274.9 81.1,275.4 82.8,274.2 81.5,272.4 
		83.3,273.6 	"/>
	<polygon fill="#FDFEFF" points="3.6,274.4 3.1,276.5 5.1,277.3 2.9,277.4 2.8,279.4 2,277.4 0,278 1.7,276.7 0.5,274.9 2.2,276.1 	
		"/>
	<polygon fill="#FDFEFF" points="672.6,786.3 672,788.3 674,789.1 671.9,789.2 671.8,791.3 670.9,789.3 669,789.8 670.7,788.5 
		669.4,786.8 671.2,788 	"/>
	<polygon fill="#FDFEFF" points="444.5,882.6 444,884.6 446,885.4 443.8,885.5 443.7,887.6 442.9,885.5 440.9,886.1 442.6,884.8 
		441.4,883 443.2,884.3 	"/>
	<polygon fill="#FDFEFF" points="855,406.2 854.5,408.3 856.5,409 854.3,409.1 854.2,411.2 853.4,409.2 851.4,409.7 853.1,408.5 
		851.9,406.7 853.6,407.9 	"/>
	<polygon fill="#FDFEFF" points="662.4,411.2 661.9,413.3 663.9,414.1 661.7,414.2 661.7,416.3 660.8,414.2 658.8,414.8 
		660.6,413.5 659.3,411.7 661.1,413 	"/>
	<polygon fill="#FDFEFF" points="328,180.7 327.4,182.7 329.4,183.5 327.3,183.6 327.2,185.7 326.3,183.7 324.3,184.2 326.1,182.9 
		324.8,181.1 326.6,182.4 	"/>
	<polygon fill="#FDFEFF" points="976.7,705.2 976.1,707.3 978.1,708.1 975.9,708.1 975.8,710.2 975,708.2 973,708.7 974.8,707.4 
		973.5,705.7 975.3,706.9 	"/>
	<polygon fill="#FDFEFF" points="234.2,768.5 233.6,770.6 235.7,771.4 233.5,771.5 233.4,773.6 232.6,771.5 230.6,772.1 
		232.3,770.8 231,769 232.8,770.2 	"/>
	<polygon fill="#FDFEFF" points="46.7,629.2 46.1,631.2 48.1,632 46,632.1 45.9,634.2 45.1,632.2 43.1,632.7 44.8,631.4 43.5,629.7 
		45.3,630.9 	"/>
	<polygon fill="#FDFEFF" points="358.4,636.8 357.8,638.8 359.8,639.6 357.7,639.7 357.6,641.8 356.7,639.8 354.7,640.3 356.5,639 
		355.2,637.3 357,638.5 	"/>
	<polygon fill="#FDFEFF" points="44.2,444.2 43.6,446.3 45.6,447 43.5,447.1 43.4,449.2 42.5,447.2 40.5,447.7 42.3,446.5 41,444.7 
		42.8,445.9 	"/>
	<polygon fill="#FDFEFF" points="606.7,563.3 606.1,565.4 608.1,566.1 606,566.2 605.9,568.3 605.1,566.3 603.1,566.8 604.8,565.6 
		603.5,563.8 605.3,565 	"/>
	<polygon fill="#FDFEFF" points="515.5,213.6 514.9,215.7 516.9,216.5 514.8,216.6 514.7,218.6 513.8,216.6 511.9,217.1 
		513.6,215.9 512.3,214.1 514.1,215.3 	"/>
	<polygon fill="#FDFEFF" points="773.9,340.3 773.4,342.4 775.4,343.2 773.2,343.3 773.2,345.3 772.3,343.3 770.3,343.8 772,342.6 
		770.8,340.8 772.6,342 	"/>
	<polygon fill="#FDFEFF" points="436.9,1039.7 436.4,1041.7 438.4,1042.5 436.2,1042.6 436.1,1044.7 435.3,1042.7 433.3,1043.2 
		435,1041.9 433.8,1040.1 435.5,1041.4 	"/>
	<polygon fill="#FDFEFF" points="404,226.3 403.4,228.3 405.4,229.1 403.3,229.2 403.2,231.3 402.3,229.3 400.4,229.8 402.1,228.5 
		400.8,226.8 402.6,228 	"/>
	<polygon fill="#FDFEFF" points="110,864.8 109.5,866.9 111.5,867.7 109.3,867.8 109.3,869.8 108.4,867.8 106.4,868.4 108.2,867.1 
		106.9,865.3 108.7,866.5 	"/>
	<polygon fill="#FDFEFF" points="421.7,446.7 421.2,448.8 423.2,449.6 421,449.7 420.9,451.8 420.1,449.7 418.1,450.3 419.8,449 
		418.6,447.2 420.3,448.4 	"/>
	<polygon fill="#FDFEFF" points="905.8,679.8 904.8,683.4 908.3,684.8 904.6,685 904.5,688.6 903,685 899.5,686 902.5,683.8 
		900.3,680.7 903.4,682.8 	"/>
	<polygon fill="#FDFEFF" points="310.3,1032.1 309.4,1035.6 312.8,1037 309.1,1037.2 309,1040.8 307.5,1037.2 304.1,1038.2 
		307.1,1036 304.9,1032.9 308,1035 	"/>
	<polygon fill="#FDFEFF" points="997,499.9 996.1,503.5 999.5,504.9 995.8,505.1 995.7,508.7 994.2,505.1 990.8,506.1 993.8,503.9 
		991.6,500.8 994.7,502.9 	"/>
	<polygon fill="#FDFEFF" points="895.7,467 894.7,470.6 898.2,471.9 894.4,472.1 894.3,475.7 892.8,472.2 889.4,473.1 892.4,470.9 
		890.2,467.8 893.3,469.9 	"/>
	<polygon fill="#FDFEFF" points="741.1,444.2 740.1,447.8 743.6,449.1 739.9,449.3 739.8,452.9 738.3,449.4 734.8,450.3 
		737.8,448.1 735.6,445 738.7,447.1 	"/>
	<polygon fill="#FDFEFF" points="95.8,512.8 94.4,517.8 99.3,519.7 94.1,520 93.9,525 91.8,520.1 87,521.4 91.2,518.3 88.1,514 
		92.5,516.9 	"/>
	<polygon fill="#FDFEFF" points="149.9,711.4 147.8,719.2 155.4,722.1 147.3,722.5 147,730.3 143.8,722.6 136.3,724.7 142.8,719.9 
		138,713.2 144.8,717.8 	"/>
	<polygon fill="#FDFEFF" points="248.7,394.6 246.6,402.4 254.2,405.4 246.1,405.7 245.8,413.5 242.6,405.9 235.2,408 241.7,403.2 
		236.9,396.5 243.6,401 	"/>
	<polygon fill="#FDFEFF" points="363.7,764.2 362.4,768.9 367,770.6 362.1,770.9 361.9,775.6 359.9,770.9 355.5,772.2 359.4,769.3 
		356.5,765.3 360.6,768 	"/>
	<polygon fill="#FDFEFF" points="358.6,918.7 357.3,923.4 361.9,925.2 357,925.4 356.8,930.1 354.9,925.5 350.4,926.8 354.3,923.9 
		351.4,919.8 355.5,922.6 	"/>
	<polygon fill="#FDFEFF" points="467.6,584.3 466.3,589 470.8,590.7 465.9,591 465.8,595.7 463.8,591 459.4,592.3 463.3,589.4 
		460.4,585.4 464.4,588.1 	"/>
	<polygon fill="#FDFEFF" points="736.2,513.3 734.9,518 739.4,519.8 734.5,520 734.4,524.7 732.4,520.1 727.9,521.3 731.9,518.5 
		729,514.4 733,517.2 	"/>
	<polygon fill="#FDFEFF" points="525.8,351.1 524.6,355.8 529.1,357.6 524.2,357.8 524.1,362.5 522.1,357.9 517.6,359.2 
		521.6,356.3 518.7,352.2 522.7,355 	"/>
	<polygon fill="#FDFEFF" points="616.2,668.3 614,676.1 621.6,679 613.5,679.4 613.2,687.2 610,679.5 602.6,681.6 609.1,676.8 
		604.3,670.1 611,674.7 	"/>
	<polygon fill="#FDFEFF" points="791,764.6 788.9,772.4 796.4,775.3 788.3,775.7 788.1,783.5 784.9,775.8 777.4,777.9 783.9,773.1 
		779.1,766.4 785.9,771 	"/>
	<polygon fill="#FDFEFF" points="208.2,987.6 206.1,995.4 213.6,998.3 205.5,998.7 205.3,1006.5 202,998.8 194.6,1000.9 
		201.1,996.1 196.3,989.4 203.1,994 	"/>
	<polygon fill="#FDFEFF" points="527.5,924.2 525.4,932 532.9,935 524.8,935.3 524.6,943.1 521.3,935.5 513.9,937.6 520.4,932.8 
		515.6,926.1 522.3,930.6 	"/>
	<polygon fill="#FDFEFF" points="1214.4,496.8 1215.3,500.1 1212.1,501.3 1215.5,501.4 1215.6,504.7 1216.9,501.5 1220,502.4 
		1217.3,500.4 1219.3,497.6 1216.5,499.5 	"/>
	<polygon fill="#FDFEFF" points="1812,944.2 1816,958.9 1801.8,964.5 1817.1,965.2 1817.6,979.9 1823.6,965.5 1837.7,969.4 
		1825.4,960.4 1834.4,947.7 1821.7,956.3 	"/>
	<polygon fill="#FDFEFF" points="1746.7,337.7 1749.1,346.3 1740.7,349.5 1749.7,349.9 1750,358.5 1753.5,350.1 1761.7,352.4 
		1754.5,347.1 1759.8,339.7 1752.4,344.7 	"/>
	<polygon fill="#FDFEFF" points="1624.3,485.9 1626.5,493.6 1618.9,496.6 1627,497 1627.3,504.8 1630.5,497.1 1637.9,499.2 
		1631.4,494.4 1636.2,487.7 1629.5,492.3 	"/>
	<polygon fill="#FDFEFF" points="1272.1,328.8 1274.2,336.5 1266.7,339.5 1274.8,339.9 1275,347.6 1278.3,340 1285.7,342.1 
		1279.2,337.3 1284,330.6 1277.3,335.2 	"/>
	<polygon fill="#FDFEFF" points="1419.1,463 1421.2,470.8 1413.6,473.8 1421.7,474.2 1422,481.9 1425.2,474.3 1432.7,476.4 
		1426.2,471.6 1431,464.9 1424.2,469.5 	"/>
	<polygon fill="#FDFEFF" points="1691.1,639.5 1692.5,644.5 1687.6,646.4 1692.9,646.7 1693,651.7 1695.1,646.8 1699.9,648.1 
		1695.7,645 1698.8,640.7 1694.5,643.6 	"/>
	<polygon fill="#FDFEFF" points="1717.3,867.3 1718.3,870.9 1714.8,872.3 1718.5,872.5 1718.7,876.1 1720.1,872.5 1723.6,873.5 
		1720.6,871.3 1722.8,868.2 1719.7,870.3 	"/>
	<polygon fill="#FDFEFF" points="1833.9,728 1834.8,731.6 1831.4,732.9 1835.1,733.1 1835.2,736.7 1836.7,733.2 1840.1,734.1 
		1837.1,731.9 1839.3,728.8 1836.2,730.9 	"/>
	<polygon fill="#FDFEFF" points="1800.9,669.7 1801.9,673.3 1798.4,674.7 1802.2,674.8 1802.3,678.4 1803.8,674.9 1807.2,675.9 
		1804.2,673.6 1806.4,670.6 1803.3,672.7 	"/>
	<polygon fill="#FDFEFF" points="1909.9,839.5 1910.9,843.1 1907.4,844.4 1911.1,844.6 1911.2,848.2 1912.7,844.7 1916.2,845.6 
		1913.1,843.4 1915.4,840.3 1912.3,842.4 	"/>
	<polygon fill="#FDFEFF" points="371.6,331.9 372.1,333.9 370.1,334.7 372.3,334.8 372.3,336.9 373.2,334.9 375.2,335.4 
		373.4,334.1 374.7,332.3 372.9,333.6 	"/>
	<polygon fill="#FDFEFF" points="1170.1,636.8 1170.7,638.8 1168.6,639.6 1170.8,639.7 1170.9,641.8 1171.7,639.8 1173.7,640.3 
		1172,639 1173.3,637.3 1171.5,638.5 	"/>
	<polygon fill="#FDFEFF" points="1796,588.6 1796.5,590.7 1794.5,591.5 1796.7,591.6 1796.8,593.7 1797.6,591.6 1799.6,592.2 
		1797.9,590.9 1799.1,589.1 1797.3,590.3 	"/>
	<polygon fill="#FDFEFF" points="1778.2,1125.8 1778.8,1127.9 1776.8,1128.7 1778.9,1128.8 1779,1130.8 1779.9,1128.8 
		1781.9,1129.4 1780.1,1128.1 1781.4,1126.3 1779.6,1127.5 	"/>
	<polygon fill="#FDFEFF" points="967.4,380.8 967.9,382.9 965.9,383.7 968.1,383.8 968.2,385.9 969,383.8 971,384.4 969.3,383.1 
		970.5,381.3 968.8,382.5 	"/>
	<polygon fill="#FDFEFF" points="1861.9,271.9 1862.4,274 1860.4,274.7 1862.6,274.8 1862.6,276.9 1863.5,274.9 1865.5,275.4 
		1863.7,274.2 1865,272.4 1863.2,273.6 	"/>
	<polygon fill="#FDFEFF" points="1229.5,583.1 1230.1,585.2 1228.1,586 1230.2,586.1 1230.3,588.2 1231.2,586.1 1233.1,586.7 
		1231.4,585.4 1232.7,583.6 1230.9,584.9 	"/>
	<polygon fill="#FDFEFF" points="427.3,443.3 427.9,445.4 425.9,446.2 428,446.3 428.1,448.4 428.9,446.3 430.9,446.9 429.2,445.6 
		430.5,443.8 428.7,445.1 	"/>
	<polygon fill="#FDFEFF" points="1091.5,406.2 1092.1,408.3 1090.1,409 1092.3,409.1 1092.3,411.2 1093.2,409.2 1095.2,409.7 
		1093.4,408.5 1094.7,406.7 1092.9,407.9 	"/>
	<polygon fill="#FDFEFF" points="1618.6,180.7 1619.2,182.7 1617.1,183.5 1619.3,183.6 1619.4,185.7 1620.2,183.7 1622.2,184.2 
		1620.5,182.9 1621.8,181.1 1620,182.4 	"/>
	<polygon fill="#FDFEFF" points="940.6,831.7 941.1,833.8 939.1,834.5 941.3,834.6 941.3,836.7 942.2,834.7 944.2,835.2 942.5,834 
		943.7,832.2 941.9,833.4 	"/>
	<polygon fill="#FDFEFF" points="1712.4,768.5 1712.9,770.6 1710.9,771.4 1713.1,771.5 1713.1,773.6 1714,771.5 1716,772.1 
		1714.2,770.8 1715.5,769 1713.7,770.2 	"/>
	<polygon fill="#FDFEFF" points="1899.9,629.2 1900.4,631.2 1898.4,632 1900.6,632.1 1900.6,634.2 1901.5,632.2 1903.5,632.7 
		1901.7,631.4 1903,629.7 1901.2,630.9 	"/>
	<polygon fill="#FDFEFF" points="1588.2,636.8 1588.8,638.8 1586.7,639.6 1588.9,639.7 1589,641.8 1589.8,639.8 1591.8,640.3 
		1590.1,639 1591.4,637.3 1589.6,638.5 	"/>
	<polygon fill="#FDFEFF" points="1902.4,444.2 1903,446.3 1900.9,447 1903.1,447.1 1903.2,449.2 1904,447.2 1906,447.7 
		1904.3,446.5 1905.6,444.7 1903.8,445.9 	"/>
	<polygon fill="#FDFEFF" points="1339.9,563.3 1340.4,565.4 1338.4,566.1 1340.6,566.2 1340.6,568.3 1341.5,566.3 1343.5,566.8 
		1341.8,565.6 1343,563.8 1341.2,565 	"/>
	<polygon fill="#FDFEFF" points="1431.1,213.6 1431.7,215.7 1429.6,216.5 1431.8,216.6 1431.9,218.6 1432.7,216.6 1434.7,217.1 
		1433,215.9 1434.3,214.1 1432.5,215.3 	"/>
	<polygon fill="#FDFEFF" points="1172.6,340.3 1173.2,342.4 1171.2,343.2 1173.3,343.3 1173.4,345.3 1174.3,343.3 1176.2,343.8 
		1174.5,342.6 1175.8,340.8 1174,342 	"/>
	<polygon fill="#FDFEFF" points="1236,413.8 1236.5,415.9 1234.5,416.6 1236.7,416.7 1236.8,418.8 1237.6,416.8 1239.6,417.3 
		1237.9,416.1 1239.1,414.3 1237.3,415.5 	"/>
	<polygon fill="#FDFEFF" points="447.6,643.5 448.1,645.6 446.1,646.4 448.3,646.5 448.3,648.6 449.2,646.5 451.2,647.1 
		449.5,645.8 450.7,644 448.9,645.2 	"/>
	<polygon fill="#FDFEFF" points="1737.7,522.7 1738.3,524.8 1736.2,525.6 1738.4,525.7 1738.5,527.8 1739.3,525.7 1741.3,526.3 
		1739.6,525 1740.9,523.2 1739.1,524.4 	"/>
	<polygon fill="#FDFEFF" points="1836.5,864.8 1837.1,866.9 1835.1,867.7 1837.2,867.8 1837.3,869.8 1838.2,867.8 1840.1,868.4 
		1838.4,867.1 1839.7,865.3 1837.9,866.5 	"/>
	<polygon fill="#FDFEFF" points="1524.8,446.7 1525.4,448.8 1523.4,449.6 1525.6,449.7 1525.6,451.8 1526.5,449.7 1528.5,450.3 
		1526.7,449 1528,447.2 1526.2,448.4 	"/>
	<polygon fill="#FDFEFF" points="814.4,618.2 815.4,621.8 811.9,623.1 815.6,623.3 815.7,626.9 817.2,623.4 820.7,624.3 
		817.7,622.1 819.9,619.1 816.8,621.2 	"/>
	<polygon fill="#FDFEFF" points="855.8,340.3 856.7,343.9 853.3,345.2 857,345.4 857.1,349 858.6,345.5 862,346.4 859,344.2 
		861.3,341.1 858.1,343.3 	"/>
	<polygon fill="#FDFEFF" points="1050.9,467 1051.9,470.6 1048.4,471.9 1052.1,472.1 1052.2,475.7 1053.7,472.2 1057.2,473.1 
		1054.1,470.9 1056.4,467.8 1053.3,469.9 	"/>
	<polygon fill="#FDFEFF" points="1850.8,512.8 1852.1,517.8 1847.2,519.7 1852.5,520 1852.7,525 1854.7,520.1 1859.6,521.4 
		1855.3,518.3 1858.4,514 1854.1,516.9 	"/>
	<polygon fill="#FDFEFF" points="1784,458 1786.1,465.8 1778.5,468.7 1786.6,469.1 1786.9,476.9 1790.1,469.2 1797.6,471.3 
		1791,466.5 1795.8,459.8 1789.1,464.4 	"/>
	<polygon fill="#FDFEFF" points="1669.8,407.1 1671.9,414.9 1664.4,417.8 1672.5,418.2 1672.7,426 1675.9,418.3 1683.4,420.4 
		1676.9,415.6 1681.7,408.9 1674.9,413.5 	"/>
	<polygon fill="#FDFEFF" points="1388.4,278.2 1390.5,286 1383,288.9 1391.1,289.3 1391.3,297.1 1394.6,289.4 1402,291.5 
		1395.5,286.7 1400.3,280 1393.6,284.6 	"/>
	<polygon fill="#FDFEFF" points="518.3,370.6 519.6,375.3 515,377 519.9,377.3 520.1,382 522,377.4 526.5,378.6 522.6,375.7 
		525.5,371.7 521.4,374.4 	"/>
	<polygon fill="#FDFEFF" points="548.7,720.2 550,725 545.4,726.7 550.3,727 550.5,731.7 552.4,727 556.9,728.3 553,725.4 
		555.9,721.4 551.8,724.1 	"/>
	<polygon fill="#FDFEFF" points="1078.7,147.7 1079.9,152.4 1075.4,154.2 1080.3,154.4 1080.4,159.1 1082.4,154.5 1086.9,155.7 
		1082.9,152.9 1085.8,148.8 1081.8,151.6 	"/>
	<polygon fill="#FDFEFF" points="1479,584.3 1480.3,589 1475.7,590.7 1480.6,591 1480.8,595.7 1482.7,591 1487.2,592.3 
		1483.3,589.4 1486.2,585.4 1482.1,588.1 	"/>
	<polygon fill="#FDFEFF" points="1164.8,178.8 1166.1,183.5 1161.5,185.3 1166.4,185.5 1166.6,190.2 1168.5,185.6 1173,186.9 
		1169.1,184 1172,179.9 1167.9,182.7 	"/>
	<polygon fill="#FDFEFF" points="1291.2,223.3 1293.4,215.5 1285.8,212.6 1293.9,212.2 1294.2,204.4 1297.4,212 1304.8,210 
		1298.3,214.7 1303.1,221.4 1296.4,216.9 	"/>
	<polygon fill="#FDFEFF" points="852.2,267.5 852.8,265.4 850.8,264.6 852.9,264.5 853,262.5 853.9,264.5 855.8,263.9 854.1,265.2 
		855.4,267 853.6,265.8 	"/>
	<polygon fill="#FDFEFF" points="244.1,275.1 244.6,273 242.6,272.2 244.8,272.1 244.9,270.1 245.7,272.1 247.7,271.5 246,272.8 
		247.2,274.6 245.4,273.4 	"/>
	<polygon fill="#FDFEFF" points="1054.9,237.1 1055.5,235 1053.5,234.2 1055.6,234.1 1055.7,232 1056.6,234.1 1058.5,233.5 
		1056.8,234.8 1058.1,236.6 1056.3,235.4 	"/>
	<polygon fill="#FDFEFF" points="1523.7,265 1524.3,262.9 1522.3,262.1 1524.4,262 1524.5,259.9 1525.3,262 1527.3,261.4 
		1525.6,262.7 1526.9,264.5 1525.1,263.2 	"/>
	<polygon fill="#FDFEFF" points="620.1,246.1 618,238.3 625.5,235.4 617.4,235 617.2,227.2 613.9,234.8 606.5,232.8 613,237.5 
		608.2,244.2 615,239.7 	"/>
	<polygon fill="#FDFEFF" points="894.4,211.7 893.9,209.7 895.9,208.9 893.7,208.8 893.6,206.7 892.8,208.7 890.8,208.2 
		892.5,209.5 891.3,211.2 893.1,210 	"/>
	<polygon fill="#FDFEFF" points="800.7,183.9 800.1,181.8 802.1,181 800,180.9 799.9,178.8 799,180.9 797,180.3 798.8,181.6 
		797.5,183.4 799.3,182.2 	"/>
	<polygon fill="#FDFEFF" points="146.9,206.7 146.4,204.6 148.4,203.8 146.2,203.7 146.1,201.6 145.3,203.7 143.3,203.1 145,204.4 
		143.8,206.2 145.5,205 	"/>
	<polygon fill="#FDFEFF" points="714.5,181.3 713.9,179.3 716,178.5 713.8,178.4 713.7,176.3 712.9,178.3 710.9,177.8 712.6,179.1 
		711.4,180.8 713.1,179.6 	"/>
	<polygon fill="#FDFEFF" points="978.2,270 977.2,266.4 980.7,265.1 976.9,264.9 976.8,261.3 975.3,264.8 971.9,263.9 974.9,266.1 
		972.7,269.2 975.8,267.1 	"/>
	<polygon fill="#FDFEFF" points="722.3,320 721.1,315.3 725.6,313.5 720.7,313.3 720.6,308.6 718.6,313.2 714.1,312 718.1,314.8 
		715.2,318.9 719.2,316.1 	"/>
	<polygon fill="#FDFEFF" points="485.1,497.4 484.5,499.5 486.5,500.3 484.4,500.4 484.3,502.4 483.4,500.4 481.4,500.9 
		483.2,499.7 481.9,497.9 483.7,499.1 	"/>
	<polygon fill="#FDFEFF" points="300.1,581 299.5,583.1 301.5,583.9 299.4,584 299.3,586.1 298.4,584 296.5,584.6 298.2,583.3 
		296.9,581.5 298.7,582.7 	"/>
	<polygon fill="#FDFEFF" points="219,515.1 218.4,517.2 220.5,518 218.3,518.1 218.2,520.2 217.4,518.1 215.4,518.7 217.1,517.4 
		215.8,515.6 217.6,516.8 	"/>
	<polygon fill="#FDFEFF" points="442.1,674.8 441.1,678.4 444.6,679.7 440.9,679.9 440.8,683.5 439.3,680 435.8,680.9 438.8,678.7 
		436.6,675.6 439.7,677.7 	"/>
	<polygon fill="#FDFEFF" points="340.7,641.8 339.8,645.4 343.3,646.8 339.5,647 339.4,650.6 337.9,647 334.5,648 337.5,645.8 
		335.3,642.7 338.4,644.8 	"/>
	<polygon fill="#FDFEFF" points="186.2,619 185.2,622.6 188.7,624 184.9,624.2 184.8,627.7 183.3,624.2 179.9,625.2 182.9,623 
		180.7,619.9 183.8,622 	"/>
	<polygon fill="#FDFEFF" points="412.5,555.7 413,557.8 411,558.5 413.2,558.6 413.2,560.7 414.1,558.7 416.1,559.2 414.3,558 
		415.6,556.2 413.8,557.4 	"/>
	<polygon fill="#FDFEFF" points="536.6,581 537.2,583.1 535.2,583.9 537.3,584 537.4,586.1 538.3,584 540.2,584.6 538.5,583.3 
		539.8,581.5 538,582.7 	"/>
	<polygon fill="#FDFEFF" points="300.8,515.1 301.8,518.7 298.3,520.1 302.1,520.3 302.2,523.9 303.7,520.3 307.1,521.3 
		304.1,519.1 306.3,516 303.2,518.1 	"/>
	<polygon fill="#FDFEFF" points="496,641.8 496.9,645.4 493.4,646.8 497.2,647 497.3,650.6 498.8,647 502.2,648 499.2,645.8 
		501.4,642.7 498.3,644.8 	"/>
	<polygon fill="#FDFEFF" points="297.3,442.3 297.9,440.3 295.8,439.5 298,439.4 298.1,437.3 298.9,439.3 300.9,438.8 299.2,440.1 
		300.4,441.8 298.7,440.6 	"/>
	<polygon fill="#FDFEFF" points="423.2,444.9 422.3,441.3 425.7,439.9 422,439.7 421.9,436.1 420.4,439.7 417,438.7 420,440.9 
		417.7,444 420.9,441.9 	"/>
	<polygon fill="#FDFEFF" points="167.4,494.8 166.1,490.1 170.7,488.4 165.8,488.1 165.7,483.4 163.7,488.1 159.2,486.8 
		163.1,489.7 160.2,493.7 164.3,491 	"/>
	<polygon fill="#FDFEFF" points="1740,221.9 1741.3,226.6 1736.7,228.4 1741.6,228.6 1741.8,233.3 1743.7,228.7 1748.2,229.9 
		1744.3,227.1 1747.2,223 1743.1,225.8 	"/>
	<polygon fill="#FDFEFF" points="1327.9,665.8 1330,673.6 1322.4,676.5 1330.5,676.9 1330.8,684.7 1334,677 1341.4,679.1 
		1334.9,674.3 1339.7,667.6 1333,672.2 	"/>
	<polygon fill="#FDFEFF" points="620.5,616.8 622.7,624.6 615.1,627.5 623.2,627.9 623.5,635.7 626.7,628 634.1,630.1 627.6,625.3 
		632.4,618.6 625.7,623.2 	"/>
	<polygon fill="#FDFEFF" points="1619.3,706.3 1621.4,714.1 1613.8,717 1621.9,717.4 1622.2,725.2 1625.4,717.6 1632.8,719.6 
		1626.3,714.9 1631.1,708.2 1624.4,712.7 	"/>
	<polygon fill="#FDFEFF" points="1896.4,1071.7 1897.7,1066.7 1892.9,1064.8 1898.1,1064.5 1898.3,1059.5 1900.4,1064.4 
		1905.2,1063.1 1901,1066.2 1904.1,1070.5 1899.7,1067.6 	"/>
	<polygon fill="#FDFEFF" points="1342.4,410.6 1343,408.5 1341,407.7 1343.1,407.6 1343.2,405.5 1344,407.6 1346,407 1344.3,408.3 
		1345.6,410.1 1343.8,408.9 	"/>
	<polygon fill="#FDFEFF" points="1114.3,266.1 1114.9,264.1 1112.9,263.3 1115.1,263.2 1115.1,261.1 1116,263.1 1118,262.6 
		1116.2,263.9 1117.5,265.6 1115.7,264.4 	"/>
	<line fill="#FDFEFF" x1="1510.2" y1="1128" x2="1510.2" y2="1128"/>
	<path fill="#FDFEFF" d="M448.2,531.7"/>
</g>
</svg>
