<?xml version="1.0" encoding="utf-8"?>
<!-- Generator: Adobe Illustrator 19.2.1, SVG Export Plug-In . SVG Version: 6.00 Build 0)  -->
<svg version="1.1" id="Layer_1" xmlns="http://www.w3.org/2000/svg" xmlns:xlink="http://www.w3.org/1999/xlink" x="0px" y="0px"
	 viewBox="0 0 198.3 47" style="enable-background:new 0 0 198.3 47;" xml:space="preserve">
<g>
	<path style="fill:#FFFFFF;" d="M146.8,38.6c0.1-0.1,0.2-0.2,0.3-0.4c0.1,0.1,0.3,0.2,0.4,0.4h18.6c0.1-0.1,0.1-0.1,0.2-0.2
		c0.1,0.1,0.2,0.1,0.3,0.2h31.8c0-3.9-3.2-7.1-7.1-7.1c-0.8,0-1.6,0.1-2.3,0.4c-0.7-3.2-3.5-5.7-7-5.7c-0.2,0-0.3,0-0.5,0
		c-1.6-3.5-5.1-6-9.2-6c-1.5,0-2.9,0.3-4.2,0.9c-2.4-3.6-6.6-6-11.3-6c-5.7,0-10.6,3.5-12.6,8.5c-1.5-0.9-3.2-1.4-5.1-1.4
		c-5.5,0-9.9,4.4-10,9.8c-0.4-0.1-0.9-0.1-1.3-0.1c-4.1,0-7.4,2.9-8.2,6.7H146.8z"/>
	<path style="fill:#FFFFFF;" d="M53.2,47c0.2-0.2,0.4-0.5,0.6-0.7c0.2,0.3,0.5,0.5,0.8,0.7h36.2c0.1-0.1,0.3-0.2,0.4-0.4
		c0.2,0.1,0.3,0.2,0.5,0.4h62c0-7.9-6.2-14.2-13.9-14.2c-1.6,0-3,0.3-4.4,0.8c-1.3-6.5-6.9-11.3-13.6-11.3c-0.3,0-0.6,0-0.9,0
		c-3.1-7.1-10-12-18-12c-2.9,0-5.7,0.7-8.2,1.8C90,4.8,81.9,0,72.7,0C61.5,0,52,7.1,48.1,17.1c-2.9-1.8-6.3-2.8-10-2.8
		c-10.7,0-19.3,8.7-19.5,19.6c-0.8-0.1-1.7-0.2-2.5-0.2C8.2,33.6,1.6,39.3,0,47H53.2z"/>
</g>
</svg>
