<?xml version="1.0" encoding="utf-8"?>
<!-- Generator: Adobe Illustrator 16.0.0, SVG Export Plug-In . SVG Version: 6.00 Build 0)  -->
<!DOCTYPE svg PUBLIC "-//W3C//DTD SVG 1.1//EN" "http://www.w3.org/Graphics/SVG/1.1/DTD/svg11.dtd">
<svg version="1.1" id="Layer_1" xmlns="http://www.w3.org/2000/svg" xmlns:xlink="http://www.w3.org/1999/xlink" x="0px" y="0px"
	 width="112.4px" height="112.4px" viewBox="0 0 112.4 112.4" style="enable-background:new 0 0 112.4 112.4;" xml:space="preserve"
	>
<circle style="fill:#FFFFFF;" cx="56.2" cy="56.2" r="56.2"/>
<circle style="fill:#0BAEF7;" cx="56.1" cy="56.6" r="49"/>
<circle style="fill:#045A89;" cx="56.1" cy="55.5" r="48.4"/>
<path style="fill-rule:evenodd;clip-rule:evenodd;fill:#0B73B9;" d="M33.7,89.9c5.3,1.5,10.6,3,16,4.5c1.7,0.5,3.6,1.3,5.2,0.9
	c6.9-1.7,13.8-3.7,20.7-5.7c0.7-0.2,1.5-1.1,1.6-1.8c0.5-4.1,0.8-8.3,1.2-12.5c0.7-7.5,1.3-15.1,2-22.6c0.6-6.8,1.2-13.6,1.8-20.7
	c-0.6,0-1.2,0-1.8,0c-17.2,0-34.4,0-51.6,0"/>
<path style="fill-rule:evenodd;clip-rule:evenodd;fill:#0B73B9;" d="M58.5,27.7c0.8-3.8-3.1-4.9-4.2-7.7c1.4,0,2.7,0,4.1,0
	c0-1.1,0-1.9,0-2.7c-3.3,0-6.4,0-9.6,0c-0.7,3.8,3.3,4.7,4.3,7.6c-1.5,0-2.9,0-4.3,0c0,1,0,1.9,0,2.8C52.1,27.7,55.2,27.7,58.5,27.7
	z"/>
<path style="fill-rule:evenodd;clip-rule:evenodd;fill:#0B73B9;" d="M70.1,17.2c-3.3,0-6.5,0-9.6,0c-0.7,3.8,3.2,4.8,4.3,7.6
	c-1.5,0-2.9,0-4.3,0c0,1.1,0,1.9,0,2.8c3.3,0,6.5,0,9.7,0c0.9-3.8-3.3-4.8-4.3-7.7c1.4,0,2.7,0,4.1,0C70.1,19,70.1,18.1,70.1,17.2z"
	/>
<path style="fill-rule:evenodd;clip-rule:evenodd;fill:#0B73B9;" d="M46.7,20c0-1,0-1.9,0-2.8c-2.9,0-5.6,0-8.4,0c0,3.6,0,7,0,10.4
	c2.9,0,5.6,0,8.4,0c0-1,0-1.9,0-3c-1.7,0-3.2,0-4.8,0c-0.6-4.5-0.6-4.5,3.5-4.6C45.8,20.1,46.2,20.1,46.7,20z"/>
<path style="fill-rule:evenodd;clip-rule:evenodd;" d="M58.5,27.7c-3.3,0-6.4,0-9.7,0c0-0.9,0-1.8,0-2.8c1.4,0,2.8,0,4.3,0
	c-1-2.9-5-3.8-4.3-7.6c3.2,0,6.3,0,9.6,0c0,0.8,0,1.7,0,2.7c-1.4,0-2.7,0-4.1,0C55.4,22.9,59.3,23.9,58.5,27.7z"/>
<path style="fill-rule:evenodd;clip-rule:evenodd;" d="M70.1,17.2c0,0.9,0,1.7,0,2.7c-1.4,0-2.6,0-4.1,0c1,3,5.1,3.9,4.3,7.7
	c-3.2,0-6.4,0-9.7,0c0-0.9,0-1.7,0-2.8c1.4,0,2.8,0,4.3,0c-1.1-2.9-5-3.9-4.3-7.6C63.7,17.2,66.8,17.2,70.1,17.2z"/>
<path style="fill-rule:evenodd;clip-rule:evenodd;" d="M46.7,20c-0.5,0-0.9,0.1-1.3,0.1c-4.1,0.1-4.1,0.1-3.5,4.6c1.5,0,3.1,0,4.8,0
	c0,1.1,0,2,0,3c-2.8,0-5.5,0-8.4,0c0-3.4,0-6.9,0-10.4c2.8,0,5.5,0,8.4,0C46.7,18.2,46.7,19,46.7,20z"/>
<polygon style="fill-rule:evenodd;clip-rule:evenodd;fill:#FFFFFF;" points="36.8,43.6 72.1,43.6 68.7,79.7 54.4,83.9 39.9,79.7 
	38.9,68.7 45.9,68.4 46.5,74.2 54.4,76.3 62.1,74 62.5,65.2 46.2,65.2 45.9,58.1 63.6,57.6 63.9,50.7 37.4,50.7 "/>
<polygon style="opacity:0.2;fill-rule:evenodd;clip-rule:evenodd;fill:#FFFFFF;" points="54,36.8 76.5,36.8 72.2,85.8 54,91.4 "/>
</svg>
