<?xml version="1.0" encoding="utf-8"?>
<!-- Generator: Adobe Illustrator 19.2.1, SVG Export Plug-In . SVG Version: 6.00 Build 0)  -->
<svg version="1.1" id="Layer_1" xmlns="http://www.w3.org/2000/svg" xmlns:xlink="http://www.w3.org/1999/xlink" x="0px" y="0px"
	 viewBox="0 0 55.8 105.9" style="enable-background:new 0 0 55.8 105.9;" xml:space="preserve">
<g>
	<circle style="fill:none;stroke:#232020;stroke-width:3;stroke-miterlimit:10;" cx="10.1" cy="95.8" r="8.6"/>
	<circle style="fill:none;stroke:#232020;stroke-width:3;stroke-miterlimit:10;" cx="45.7" cy="95.8" r="8.6"/>
	
		<line style="fill:none;stroke:#C61144;stroke-width:3;stroke-linecap:round;stroke-miterlimit:10;" x1="9.7" y1="96.6" x2="13.9" y2="75"/>
	
		<line style="fill:none;stroke:#C61144;stroke-width:3;stroke-linecap:round;stroke-miterlimit:10;" x1="13.8" y1="80.9" x2="30.4" y2="92.9"/>
	
		<line style="fill:none;stroke:#C61144;stroke-width:3;stroke-linecap:round;stroke-miterlimit:10;" x1="13.4" y1="80.2" x2="31" y2="80.2"/>
	
		<line style="fill:none;stroke:#C61144;stroke-width:3;stroke-linecap:round;stroke-miterlimit:10;" x1="31" y1="79.8" x2="30.8" y2="95.4"/>
	
		<line style="fill:none;stroke:#C61144;stroke-width:3;stroke-linecap:round;stroke-miterlimit:10;" x1="28.8" y1="95.8" x2="47.6" y2="95.8"/>
	
		<line style="fill:none;stroke:#C61144;stroke-width:3;stroke-linecap:round;stroke-miterlimit:10;" x1="31" y1="79.8" x2="47.9" y2="95.8"/>
	
		<line style="fill:none;stroke:#C61144;stroke-width:3;stroke-linecap:round;stroke-miterlimit:10;" x1="8.4" y1="72.5" x2="18.6" y2="76.3"/>
	<path style="fill:#0F76B5;" d="M24.2,53.9c0,0-2.6-1.8,0-2.9c0,0,7.8-1.5,9.8,4.1c0,0,0.7,2.8-1.6,2.8
		C32.4,57.8,27.6,53.1,24.2,53.9z"/>
	<path style="fill:#FACAAB;" d="M23.7,53.4v3.5h1v1.5h0.8v0.5h1l0.5-0.5l0.3-1.5v-1.7l0.2-0.7c0,0-1.3-0.7-2.9-0.8L23.7,53.4z"/>
	<polygon style="fill:#121227;" points="28.1,58.5 26.4,62.9 27.6,62.9 29,58.8 	"/>
	<path style="fill:#121227;" d="M31.7,57.5l0.3,2l-5.4,0.2l0-0.7c0,0,0.7-0.4,0.8-1.6l0.1-1.2v-0.9l0.2-0.7
		C27.7,54.5,30.9,56,31.7,57.5z"/>
	<path style="fill:#2D2927;" d="M23.6,74.2h11.4c0,0-0.2,3.9-5.2,5.2l-4.5,4.2l-3.1,2.9L20.5,85l1.5-1.4l4.1-4.2l-0.1-1.1l-1.7-1.3
		l-0.6-1.4L23.6,74.2z"/>
	<polygon style="fill:#D7B483;" points="21.1,84.6 19,86.3 28.2,96 29.9,94.6 	"/>
	<path style="fill:#2D2927;" d="M31.1,96.2l-3.9,4.1c-0.5,0.6-1.4,0.6-2,0.1h0c-0.6-0.5-0.6-1.4-0.1-2l3.9-4.1
		c0.5-0.6,1.4-0.6,2-0.1l0,0C31.6,94.8,31.7,95.7,31.1,96.2z"/>
	<polygon style="fill:#D7B483;" points="23.5,65.8 24.4,67.4 24.4,69.1 12,74.2 10.8,73.2 10.8,72.5 23.2,66.9 	"/>
	<g>
		<g>
			<path style="fill:#D94B3E;" d="M28.7,0h1.5c3.6,0.2,7.2,2,9.4,4.9c1.4,1.8,2.2,4.1,2.4,6.5v0.9c-0.1,4.5-3,8.2-5.5,11.7
				c-2.8,4-5.4,8.3-6.1,13.2c-0.2,0.8,0,2-1,2.4c-0.2-0.2-0.5-0.3-0.7-0.6c-0.3-2.7-1-5.4-2.1-7.9c-1.3-2.9-3.2-5.5-5-8.1
				c-1.1-1.5-2.2-3.1-3.1-4.8c-1.4-2.5-1.9-5.6-1.3-8.4c0.5-2.3,1.6-4.3,3.3-6C22.6,1.5,25.6,0.2,28.7,0z M28.4,7.9
				c-1.7,0.4-3.2,1.9-3.3,3.7c-0.2,1.7,0.8,3.3,2.3,4.1c1.6,0.9,3.7,0.6,5.1-0.6c1.3-1.1,1.7-3,1.1-4.6C32.7,8.5,30.4,7.4,28.4,7.9z
				"/>
		</g>
	</g>
	<path style="fill:#DC4B3C;" d="M35.1,74.2c0.1-0.3,0.1-3.2,0.1-3.5v-6.3c0-2.8-2.3-5-5-5h-1.6c-2.8,0-5,2.3-5,5v6.3
		c0,0.3,0,3.2,0.1,3.5H35.1z"/>
	<polygon style="fill:#D7B483;" points="28.3,67.8 28.3,70.2 16.8,75.5 17.5,76.7 20.3,75.6 27.6,72.9 29.9,71.9 30.7,71 30.7,67.7 
			"/>
	<path style="fill:#D7B483;" d="M16.8,75.5c0,0-0.7,1.2,0.7,1.2C18.8,76.7,16.8,75.5,16.8,75.5z"/>
	<path style="fill:#D7B483;" d="M10.8,72.5c0,0-0.7,1.6,1.2,1.7L10.8,72.5z"/>
</g>
</svg>
