<?xml version="1.0" encoding="utf-8"?>
<!-- Generator: Adobe Illustrator 16.0.0, SVG Export Plug-In . SVG Version: 6.00 Build 0)  -->
<!DOCTYPE svg PUBLIC "-//W3C//DTD SVG 1.1//EN" "http://www.w3.org/Graphics/SVG/1.1/DTD/svg11.dtd">
<svg version="1.1" id="Layer_1" xmlns="http://www.w3.org/2000/svg" xmlns:xlink="http://www.w3.org/1999/xlink" x="0px" y="0px"
	 width="92.4px" height="92.4px" viewBox="0 0 92.4 92.4" style="enable-background:new 0 0 92.4 92.4;" xml:space="preserve">
<circle style="fill:#FFFFFF;" cx="46.2" cy="46.2" r="46.2"/>
<circle style="fill:#087032;" cx="46.2" cy="46.5" r="40.1"/>
<circle style="fill:#02441E;" cx="46.1" cy="45.6" r="39.8"/>
<g>
	<path style="fill-rule:evenodd;clip-rule:evenodd;fill:#328C41;" d="M48.8,69.8c-1.7-0.3-3.4-0.6-5.1-1
		c-6.2-1.4-10.8-5.1-14.4-10.1c-0.5-0.7-0.5-1.9-1.9-1.7c-0.1,0-0.3-0.5-0.4-0.8c-1-3.7-1.6-7.4-1.6-11.2c0-9,10-14.9,17.9-10.7
		c0.1,0,0.1,0.1,0.2,0.3c-0.5,0.4-1.1,0.8-1.6,1.2C35.6,41,36.2,51.1,43,55.4c4.3,2.7,9,3,13.4,0.2c4.3-2.7,6.1-6.9,5.7-12
		c-0.3-3.3-1.1-6.5-2.6-9.5c-3.1-5.9-7.7-10.1-14.1-12.2c-0.3-0.1-0.6-0.2-0.9-0.6c1.6-0.2,3.2-0.5,4.8-0.7c0.5,0,1,0,1.5,0
		c0.8,0.1,1.6,0.2,2.4,0.3c10.2,1.5,18.3,8.8,20.6,19c0.3,1.4,0.5,2.8,0.8,4.1c0,0.7,0,1.3,0,2c-0.2,1.1-0.4,2.2-0.5,3.3
		c-1.5,9.9-10.1,18.5-20.1,19.8c-1,0.1-1.9,0.3-2.8,0.5C50.3,69.8,49.5,69.8,48.8,69.8z"/>
	<path style="fill-rule:evenodd;clip-rule:evenodd;fill:#A8E000;" d="M43.3,21.5c1.7,0.3,3.4,0.5,5.1,0.9c6.2,1.4,10.9,4.9,14.6,9.9
		c0.5,0.7,0,0,1.4,1.2c0.1,0.1,0.8,1,0.9,1.3c1,3.7,1.7,7.4,1.8,11.2c0.1,8.9-9.8,15-17.7,10.9c-0.1,0-0.1-0.1-0.2-0.3
		c0.5-0.4,1.1-0.8,1.6-1.3c6.1-5.3,5.5-15.4-1.5-19.6c-4.3-2.7-9-2.9-13.4,0c-4.3,2.8-6,7-5.6,12.1c0.3,3.3,1.2,6.5,2.7,9.4
		c3.2,5.9,7.9,9.9,14.3,12c0.3,0.1,0.6,0.2,0.9,0.6c-1.6,0.3-3.2,0.5-4.8,0.8c-0.5,0-1,0-1.5,0c-0.8-0.1-1.6-0.2-2.4-0.3
		C29.4,69,21.3,61.8,18.8,51.7c-0.3-1.4-0.5-2.8-0.8-4.1c0-0.7,0-1.3,0-2c0.2-1.1,0.3-2.2,0.5-3.3c1.3-10,9.8-18.6,19.8-20.1
		c0.9-0.1,1.9-0.4,2.8-0.5C41.8,21.5,42.5,21.5,43.3,21.5z"/>
</g>
</svg>
