<?xml version="1.0" encoding="utf-8"?>
<!-- Generator: Adobe Illustrator 16.0.0, SVG Export Plug-In . SVG Version: 6.00 Build 0)  -->
<!DOCTYPE svg PUBLIC "-//W3C//DTD SVG 1.1//EN" "http://www.w3.org/Graphics/SVG/1.1/DTD/svg11.dtd">
<svg version="1.1" id="Layer_1" xmlns="http://www.w3.org/2000/svg" xmlns:xlink="http://www.w3.org/1999/xlink" x="0px" y="0px"
	 width="111.8px" height="111.8px" viewBox="0 0 111.8 111.8" style="enable-background:new 0 0 111.8 111.8;" xml:space="preserve"
	>
<path style="fill:#FFFFFF;" d="M77.3,107.6c-28.5,11.8-61.2-1.8-73-30.3C-7.5,48.8,6,16.1,34.6,4.3c28.5-11.8,61.2,1.8,73,30.3
	C119.4,63.1,105.8,95.8,77.3,107.6z"/>
<circle style="fill:#C1C5F4;" cx="55.7" cy="56.2" r="48.5"/>
<circle style="fill:#8688C5;" cx="56.2" cy="55.3" r="48.1"/>
<rect x="28.1" y="26.4" style="fill-rule:evenodd;clip-rule:evenodd;fill:#8688C5;" width="59.2" height="59.9"/>
<rect x="31.9" y="30.4" style="fill-rule:evenodd;clip-rule:evenodd;fill:#11084D;" width="51.7" height="52.3"/>
<path style="fill-rule:evenodd;clip-rule:evenodd;fill:#8688C5;" d="M58.8,69.4c-1.5,0-2.8,0.1-4.1,0c-0.4,0-0.9-0.5-1-0.9
	C53,66.7,52.5,65,52,63.2c-0.3-0.8-0.6-1.3-1.6-1.2c-2,0.1-4.1,0.1-6.2,0c-0.8,0-1.2,0.3-1.4,1c-0.5,1.8-1.1,3.7-1.7,5.5
	c-0.1,0.4-0.8,0.8-1.2,0.9c-1.2,0.1-2.3,0-3.7,0c0.2-0.6,0.2-1.1,0.4-1.5c2.5-7.7,4.9-15.3,7.4-23c0.3-1.1,0.8-1.6,2-1.5
	c1.4,0.1,3.3-0.4,4.3,0.3c1,0.7,1.2,2.6,1.6,3.9c2.2,6.7,4.4,13.4,6.5,20.1C58.5,68.2,58.6,68.7,58.8,69.4z M50.7,58.5
	c-1.1-3.8-2.2-7.4-3.4-11.3c-1.2,4-2.2,7.6-3.3,11.3C46.3,58.5,48.4,58.5,50.7,58.5z"/>
<path style="fill-rule:evenodd;clip-rule:evenodd;fill:#8688C5;" d="M66.9,69.3c-1.5,0-2.9,0-4.5,0c0-6.2,0-12.3,0-18.6
	c1,0,2.1-0.1,3.2,0c0.3,0,0.6,0.5,0.7,0.8c0.2,0.5,0.2,1.1,0.3,2c1.5-1.9,3.2-3,5.4-3.2c3.9-0.3,6.9,2,7.1,5.9
	c0.3,4.1,0.1,8.2,0.1,12.3c0,0.3-0.5,0.8-0.8,0.8c-1.2,0.1-2.4,0-3.7,0c0-0.7-0.1-1.2-0.1-1.7c0-3.2,0-6.4-0.1-9.6
	c-0.1-2.7-1.6-4.2-3.8-4.1c-2,0.1-3.7,1.8-3.8,3.9c0,3.2,0,6.5,0,9.7C67,68.2,67,68.7,66.9,69.3z"/>
<path style="fill-rule:evenodd;clip-rule:evenodd;fill:#11084D;" d="M50.7,58.5c-2.3,0-4.4,0-6.7,0c1.1-3.8,2.1-7.4,3.3-11.3
	C48.5,51.1,49.6,54.7,50.7,58.5z"/>
</svg>
