<?xml version="1.0" encoding="utf-8"?>
<!-- Generator: Adobe Illustrator 16.0.0, SVG Export Plug-In . SVG Version: 6.00 Build 0)  -->
<!DOCTYPE svg PUBLIC "-//W3C//DTD SVG 1.1//EN" "http://www.w3.org/Graphics/SVG/1.1/DTD/svg11.dtd">
<svg version="1.1" id="Layer_1" xmlns="http://www.w3.org/2000/svg" xmlns:xlink="http://www.w3.org/1999/xlink" x="0px" y="0px"
	 width="99.7px" height="99.7px" viewBox="0 0 99.7 99.7" style="enable-background:new 0 0 99.7 99.7;" xml:space="preserve">
<g>
	<circle style="fill:#FFFFFF;" cx="49.8" cy="49.8" r="49.8"/>
	<path style="fill:#F78469;" d="M49.9,94.2C26,94.4,6.5,75.2,6.3,51.3C6.1,27.5,25.3,7.9,49.2,7.7c23.9-0.2,43.4,19,43.6,42.9
		C93,74.5,73.8,94,49.9,94.2z"/>
	<circle style="fill:#D50051;" cx="50.3" cy="49.4" r="42.9"/>
	<rect x="23.5" y="20.7" style="fill:#FF491C;" width="54.1" height="54.1"/>
	<rect x="25.9" y="23.7" style="fill:#260602;" width="49.3" height="48.9"/>
	<rect x="39" y="35.8" style="fill:#FF491C;" width="3.8" height="24"/>
	<rect x="39" y="35.8" style="fill:#FF491C;" width="12.8" height="3.8"/>
	<rect x="39" y="46.4" style="fill:#FF491C;" width="12.8" height="3.8"/>
	<path style="fill:#FF4B18;stroke:#FF4B18;stroke-width:2;stroke-miterlimit:10;" d="M62,57.1 M59.9,35.7v19c0,1.9,0.6,2.4,2.1,2.4
		v3.4c-1.7,0-3-0.4-4.2-1.7c-1.1-1.3-1.3-2.5-1.3-4.1v-19H59.9z"/>
</g>
</svg>
