<?xml version="1.0" encoding="utf-8"?>
<!-- Generator: Adobe Illustrator 20.0.0, SVG Export Plug-In . SVG Version: 6.00 Build 0)  -->
<svg version="1.1" id="Layer_1" xmlns="http://www.w3.org/2000/svg" xmlns:xlink="http://www.w3.org/1999/xlink" x="0px" y="0px"
	 viewBox="0 0 140 140" style="enable-background:new 0 0 140 140;" xml:space="preserve">
<style type="text/css">
	.st0{fill:#737374;stroke:#FFFFFF;stroke-miterlimit:10;}
	.st1{fill:#F6F7F2;}
	.st2{fill:#333333;}
	.st3{fill:#F9F9FA;}
	.st4{fill:#FBD737;}
	.st5{fill:#B7B7B8;}
	.st6{fill:#D64527;}
	.st7{fill:#F8BF2B;}
	.st8{fill:#5A5A59;}
	.st9{fill:#BC3A26;}
	.st10{fill:#7C7B7B;}
	.st11{fill:#3A3B3A;}
	.st12{fill:url(#SVGID_1_);}
	.st13{fill:none;stroke:#454546;stroke-width:0.5;stroke-miterlimit:10;}
	.st14{fill:#DAECF9;}
	.st15{fill:#363032;}
	.st16{fill:none;stroke:#FFFFFF;stroke-miterlimit:10;}
	.st17{fill:#FFFFFF;}
	.st18{fill:#32B44A;}
	.st19{fill:#FFDB7C;}
	.st20{fill:#5D5BA8;}
	.st21{fill:#BF202A;}
	.st22{fill:#555554;stroke:#FFFFFF;stroke-miterlimit:10;}
	.st23{fill:#D32027;}
	.st24{fill:#2FB44A;}
	.st25{fill:#E7E622;}
</style>
<g>
	<rect x="79.6" y="111.7" class="st0" width="2" height="3"/>
	<rect x="98.7" y="111.7" class="st0" width="2" height="2"/>
	<rect x="46.6" y="110.7" class="st0" width="3" height="3"/>
	<rect x="65.6" y="110.7" class="st0" width="3" height="3"/>
	<circle class="st1" cx="70" cy="70" r="70"/>
	<path class="st2" d="M120.1,95.7c0,1.4-1.1,2.5-2.5,2.5h-95c-1.4,0-2.5-1.1-2.5-2.5v-62c0-1.4,1.1-2.5,2.5-2.5h95
		c1.4,0,2.5,1.1,2.5,2.5V95.7z"/>
	<rect x="26.1" y="36.2" class="st3" width="87" height="55"/>
	<rect x="35.4" y="56.5" class="st4" width="6.7" height="37.7"/>
	<rect x="35.4" y="94.2" class="st5" width="6.7" height="5.5"/>
	<path class="st6" d="M35.3,112.6h5.3c0.9,0,1.5-0.9,1.5-2V99.7h-6.9V112.6z"/>
	<rect x="28.6" y="56.5" class="st7" width="6.7" height="37.7"/>
	<rect x="28.6" y="94.2" class="st8" width="6.7" height="5.5"/>
	<path class="st9" d="M35.5,112.6h-5.3c-0.9,0-1.5-0.9-1.5-2V99.7h6.9V112.6z"/>
	<rect x="27.9" y="50.4" class="st10" width="14.6" height="4.6"/>
	<rect x="29.5" y="55" class="st11" width="11.4" height="2.2"/>
	
		<linearGradient id="SVGID_1_" gradientUnits="userSpaceOnUse" x1="907.9478" y1="2482.9937" x2="922.2939" y2="2470.9558" gradientTransform="matrix(0.7071 0.7071 -0.7071 0.7071 1140.0629 -2359.9773)">
		<stop  offset="0" style="stop-color:#E9E9E9"/>
		<stop  offset="0.463" style="stop-color:#BEBCC4"/>
		<stop  offset="1" style="stop-color:#BEBCC4"/>
	</linearGradient>
	<polyline class="st12" points="35.6,26.2 26,41.8 30.3,48.1 30.4,50.4 40.4,50.4 40.5,48.1 44.8,41.8 35.2,26.2 	"/>
	<line class="st13" x1="35.4" y1="27.9" x2="35.4" y2="41.1"/>
	<ellipse transform="matrix(0.7071 -0.7072 0.7072 0.7071 -18.5561 37.0786)" class="st11" cx="35.5" cy="40.9" rx="1.8" ry="1.8"/>
	<rect x="46.4" y="36.1" class="st14" width="67.1" height="4.5"/>
	<rect x="46.4" y="40.6" class="st15" width="67.1" height="50.5"/>
	<line class="st16" x1="59.6" y1="41.2" x2="59.6" y2="89.2"/>
	<rect x="47.1" y="41.2" class="st17" width="8" height="3"/>
	<rect x="65.1" y="44.2" class="st17" width="14" height="2"/>
	<rect x="61.1" y="49.2" class="st17" width="14" height="3"/>
	<rect x="77.1" y="49.2" class="st18" width="14" height="3"/>
	<rect x="94.1" y="49.2" class="st19" width="14" height="3"/>
	<rect x="61.1" y="60.2" class="st17" width="7" height="3"/>
	<rect x="69.1" y="60.2" class="st18" width="8" height="3"/>
	<rect x="87.1" y="60.2" class="st20" width="7" height="3"/>
	<rect x="95.1" y="60.2" class="st21" width="8" height="3"/>
	<rect x="78.1" y="60.2" class="st19" width="8" height="3"/>
	<rect x="47.1" y="56.2" class="st17" width="8" height="2"/>
	<line class="st16" x1="48.1" y1="44.7" x2="54.1" y2="44.7"/>
	<line class="st16" x1="48.1" y1="46.7" x2="54.1" y2="46.7"/>
	<line class="st16" x1="48.1" y1="59.7" x2="54.1" y2="59.7"/>
	<line class="st16" x1="48.1" y1="61.7" x2="54.1" y2="61.7"/>
	<line class="st16" x1="48.1" y1="62.7" x2="54.1" y2="62.7"/>
	<line class="st16" x1="48.1" y1="64.7" x2="54.1" y2="64.7"/>
	<line class="st16" x1="50.1" y1="48.7" x2="56.1" y2="48.7"/>
	<line class="st16" x1="50.1" y1="50.7" x2="56.1" y2="50.7"/>
	<line class="st16" x1="50.1" y1="51.7" x2="56.1" y2="51.7"/>
	<line class="st16" x1="50.1" y1="53.7" x2="56.1" y2="53.7"/>
	<path class="st17" d="M64.7,46.6c0.1,0.1,0.2,0.2,0.2,0.3c0,0.2-0.1,0.3-0.3,0.3c-0.1,0-0.2-0.1-0.3-0.1l-2.6-1.7
		c-0.1-0.1-0.2-0.2-0.2-0.3c0-0.2,0.1-0.2,0.2-0.3l2.6-1.7c0.1,0,0.2-0.1,0.3-0.1c0.2,0,0.3,0.2,0.3,0.3c0,0.2-0.1,0.2-0.2,0.3
		l-2.2,1.5L64.7,46.6z"/>
	<path class="st17" d="M83.8,45.3l-2.2-1.5c-0.1-0.1-0.2-0.2-0.2-0.3c0-0.2,0.1-0.3,0.3-0.3c0.1,0,0.2,0,0.3,0.1l2.6,1.7
		c0.1,0.1,0.2,0.2,0.2,0.3c0,0.2-0.1,0.2-0.2,0.3L82,47.4c-0.1,0-0.2,0.1-0.3,0.1c-0.2,0-0.3-0.2-0.3-0.3c0-0.2,0.1-0.2,0.2-0.3
		L83.8,45.3z"/>
	<path class="st17" d="M67.3,83c0.1,0.1,0.2,0.2,0.2,0.3c0,0.2-0.1,0.3-0.3,0.3c-0.1,0-0.2-0.1-0.3-0.1l-2.6-1.7
		c-0.1-0.1-0.2-0.2-0.2-0.3c0-0.2,0.1-0.2,0.2-0.3l2.6-1.7c0.1,0,0.2-0.1,0.3-0.1c0.2,0,0.3,0.2,0.3,0.3c0,0.2-0.1,0.2-0.2,0.3
		l-2.2,1.5L67.3,83z"/>
	<path class="st17" d="M76,81.6l-2.2-1.5c-0.1-0.1-0.2-0.2-0.2-0.3c0-0.2,0.1-0.3,0.3-0.3c0.1,0,0.2,0,0.3,0.1l2.6,1.7
		c0.1,0.1,0.2,0.2,0.2,0.3c0,0.2-0.1,0.2-0.2,0.3l-2.6,1.7c-0.1,0-0.2,0.1-0.3,0.1c-0.2,0-0.3-0.2-0.3-0.3c0-0.2,0.1-0.2,0.2-0.3
		L76,81.6z"/>
	<rect x="65.1" y="55.2" class="st17" width="14" height="2"/>
	<path class="st17" d="M64.7,57.6c0.1,0.1,0.2,0.2,0.2,0.3c0,0.2-0.1,0.3-0.3,0.3c-0.1,0-0.2-0.1-0.3-0.1l-2.6-1.7
		c-0.1-0.1-0.2-0.2-0.2-0.3c0-0.2,0.1-0.2,0.2-0.3l2.6-1.7c0.1,0,0.2-0.1,0.3-0.1c0.2,0,0.3,0.2,0.3,0.3c0,0.2-0.1,0.2-0.2,0.3
		l-2.2,1.5L64.7,57.6z"/>
	<path class="st17" d="M83.8,56.3l-2.2-1.5c-0.1-0.1-0.2-0.2-0.2-0.3c0-0.2,0.1-0.3,0.3-0.3c0.1,0,0.2,0,0.3,0.1l2.6,1.7
		c0.1,0.1,0.2,0.2,0.2,0.3c0,0.2-0.1,0.2-0.2,0.3L82,58.4c-0.1,0-0.2,0.1-0.3,0.1c-0.2,0-0.3-0.2-0.3-0.3c0-0.2,0.1-0.2,0.2-0.3
		L83.8,56.3z"/>
	<line class="st16" x1="68.1" y1="65.7" x2="94.1" y2="65.7"/>
	<line class="st16" x1="68.1" y1="68.7" x2="94.1" y2="68.7"/>
	<line class="st16" x1="68.1" y1="71.7" x2="94.1" y2="71.7"/>
	<line class="st16" x1="61.1" y1="74.7" x2="94.1" y2="74.7"/>
	<line class="st16" x1="70.2" y1="79.5" x2="69" y2="84.9"/>
	<rect x="62.6" y="84.7" class="st0" width="3" height="2"/>
	<rect x="81.6" y="84.7" class="st0" width="3" height="2"/>
	<rect x="72.6" y="100.7" class="st0" width="2" height="3"/>
	<polygon class="st16" points="48.6,113.7 64.8,85.6 81,113.7 	"/>
	<polygon class="st16" points="67.3,113.7 83.6,85.6 99.8,113.7 	"/>
	<polygon class="st22" points="67.3,113.7 74.1,102 80.9,113.7 	"/>
	<circle class="st23" cx="49.5" cy="38.3" r="1.6"/>
	<circle class="st24" cx="54" cy="38.3" r="1.6"/>
	<circle class="st25" cx="58.5" cy="38.3" r="1.6"/>
</g>
</svg>
