<?xml version="1.0" encoding="utf-8"?>
<!-- Generator: Adobe Illustrator 16.0.0, SVG Export Plug-In . SVG Version: 6.00 Build 0)  -->
<!DOCTYPE svg PUBLIC "-//W3C//DTD SVG 1.1//EN" "http://www.w3.org/Graphics/SVG/1.1/DTD/svg11.dtd">
<svg version="1.1" id="Layer_1" xmlns="http://www.w3.org/2000/svg" xmlns:xlink="http://www.w3.org/1999/xlink" x="0px" y="0px"
	 width="140px" height="140px" viewBox="0 0 140 140" style="enable-background:new 0 0 140 140;" xml:space="preserve">
<rect x="79.8" y="111.8" style="fill:#727272;stroke:#FFFFFF;stroke-miterlimit:10;" width="2" height="3"/>
<rect x="98.7" y="111.7" style="fill:#727272;stroke:#FFFFFF;stroke-miterlimit:10;" width="2" height="2"/>
<rect x="46.8" y="110.8" style="fill:#727272;stroke:#FFFFFF;stroke-miterlimit:10;" width="3" height="3"/>
<rect x="65.8" y="110.8" style="fill:#727272;stroke:#FFFFFF;stroke-miterlimit:10;" width="3" height="3"/>
<circle style="fill:#F7CA18;" cx="70" cy="70" r="70"/>
<path style="fill:#333333;" d="M120.3,95.8c0,1.4-1.1,2.5-2.5,2.5h-95c-1.4,0-2.5-1.1-2.5-2.5v-62c0-1.4,1.1-2.5,2.5-2.5h95
	c1.4,0,2.5,1.1,2.5,2.5V95.8z"/>
<rect x="26.3" y="36.3" style="fill:#F9F9F9;" width="87" height="55"/>
<rect x="35.4" y="56.5" style="fill:#FBD734;" width="6.7" height="37.7"/>
<rect x="35.4" y="94.2" style="fill:#B7B7B7;" width="6.7" height="5.5"/>
<path style="fill:#D74214;" d="M35.3,112.6h5.3c0.9,0,1.5-0.9,1.5-2V99.7h-6.9V112.6z"/>
<rect x="28.6" y="56.5" style="fill:#F9BF2C;" width="6.7" height="37.7"/>
<rect x="28.6" y="94.2" style="fill:#595958;" width="6.7" height="5.5"/>
<path style="fill:#BD360C;" d="M35.5,112.6h-5.3c-0.9,0-1.5-0.9-1.5-2V99.7h6.9V112.6z"/>
<rect x="27.9" y="50.4" style="fill:#7A7A7A;" width="14.6" height="4.6"/>
<rect x="29.5" y="55" style="fill:#3A3A3A;" width="11.4" height="2.2"/>
<linearGradient id="SVGID_1_" gradientUnits="userSpaceOnUse" x1="972.3511" y1="2344.6382" x2="986.6972" y2="2332.6003" gradientTransform="matrix(0.7071 0.7071 -0.7071 0.7071 996.6915 -2307.6848)">
	<stop  offset="0" style="stop-color:#E9E9E9"/>
	<stop  offset="0.463" style="stop-color:#BEBBC3"/>
	<stop  offset="1" style="stop-color:#BEBBC3"/>
</linearGradient>
<polyline style="fill:url(#SVGID_1_);" points="35.6,26.2 26,41.8 30.3,48.1 30.4,50.4 40.4,50.4 40.5,48.1 44.8,41.8 35.2,26.2 "/>
<line style="fill:none;stroke:#444445;stroke-width:0.5;stroke-miterlimit:10;" x1="35.4" y1="27.9" x2="35.4" y2="41.1"/>
<circle style="fill:#3A3A3A;" cx="35.5" cy="40.9" r="1.8"/>
<rect x="46.4" y="36.1" style="fill:#D9EDFF;" width="67.1" height="4.5"/>
<rect x="46.4" y="40.6" style="fill:#352F31;" width="67.1" height="50.5"/>
<line style="fill:none;stroke:#FFFFFF;stroke-miterlimit:10;" x1="59.8" y1="41.3" x2="59.8" y2="89.3"/>
<rect x="47.3" y="41.3" style="fill:#FFFFFF;" width="8" height="3"/>
<rect x="65.3" y="44.3" style="fill:#FFFFFF;" width="14" height="2"/>
<rect x="61.3" y="49.3" style="fill:#FFFFFF;" width="14" height="3"/>
<rect x="77.3" y="49.3" style="fill:#0DBF00;" width="14" height="3"/>
<rect x="94.3" y="49.3" style="fill:#FFDB7A;" width="14" height="3"/>
<rect x="61.3" y="60.3" style="fill:#FFFFFF;" width="7" height="3"/>
<rect x="69.3" y="60.3" style="fill:#0DBF00;" width="8" height="3"/>
<rect x="87.3" y="60.3" style="fill:#633FFF;" width="7" height="3"/>
<rect x="95.3" y="60.3" style="fill:#BF0027;" width="8" height="3"/>
<rect x="78.3" y="60.3" style="fill:#FFDB7A;" width="8" height="3"/>
<rect x="47.3" y="56.3" style="fill:#FFFFFF;" width="8" height="2"/>
<line style="fill:none;stroke:#FFFFFF;stroke-miterlimit:10;" x1="48.3" y1="44.8" x2="54.3" y2="44.8"/>
<line style="fill:none;stroke:#FFFFFF;stroke-miterlimit:10;" x1="48.3" y1="46.8" x2="54.3" y2="46.8"/>
<line style="fill:none;stroke:#FFFFFF;stroke-miterlimit:10;" x1="48.3" y1="59.8" x2="54.3" y2="59.8"/>
<line style="fill:none;stroke:#FFFFFF;stroke-miterlimit:10;" x1="48.3" y1="61.8" x2="54.3" y2="61.8"/>
<line style="fill:none;stroke:#FFFFFF;stroke-miterlimit:10;" x1="48.3" y1="62.8" x2="54.3" y2="62.8"/>
<line style="fill:none;stroke:#FFFFFF;stroke-miterlimit:10;" x1="48.3" y1="64.8" x2="54.3" y2="64.8"/>
<line style="fill:none;stroke:#FFFFFF;stroke-miterlimit:10;" x1="50.3" y1="48.8" x2="56.3" y2="48.8"/>
<line style="fill:none;stroke:#FFFFFF;stroke-miterlimit:10;" x1="50.3" y1="50.8" x2="56.3" y2="50.8"/>
<line style="fill:none;stroke:#FFFFFF;stroke-miterlimit:10;" x1="50.3" y1="51.8" x2="56.3" y2="51.8"/>
<line style="fill:none;stroke:#FFFFFF;stroke-miterlimit:10;" x1="50.3" y1="53.8" x2="56.3" y2="53.8"/>
<path style="fill:#FFFFFF;" d="M64.7,46.6c0.1,0.1,0.2,0.2,0.2,0.3c0,0.2-0.1,0.3-0.3,0.3c-0.1,0-0.2-0.1-0.3-0.1l-2.6-1.7
	c-0.1-0.1-0.2-0.2-0.2-0.3c0-0.2,0.1-0.2,0.2-0.3l2.6-1.7c0.1,0,0.2-0.1,0.3-0.1c0.2,0,0.3,0.2,0.3,0.3c0,0.2-0.1,0.2-0.2,0.3
	l-2.2,1.5L64.7,46.6z"/>
<path style="fill:#FFFFFF;" d="M83.8,45.3l-2.2-1.5c-0.1-0.1-0.2-0.2-0.2-0.3c0-0.2,0.1-0.3,0.3-0.3c0.1,0,0.2,0,0.3,0.1l2.6,1.7
	c0.1,0.1,0.2,0.2,0.2,0.3c0,0.2-0.1,0.2-0.2,0.3L82,47.4c-0.1,0-0.2,0.1-0.3,0.1c-0.2,0-0.3-0.2-0.3-0.3c0-0.2,0.1-0.2,0.2-0.3
	L83.8,45.3z"/>
<path style="fill:#FFFFFF;" d="M67.3,83c0.1,0.1,0.2,0.2,0.2,0.3c0,0.2-0.1,0.3-0.3,0.3c-0.1,0-0.2-0.1-0.3-0.1l-2.6-1.7
	c-0.1-0.1-0.2-0.2-0.2-0.3c0-0.2,0.1-0.3,0.2-0.3l2.6-1.7c0.1,0,0.2-0.1,0.3-0.1c0.2,0,0.3,0.2,0.3,0.3c0,0.2-0.1,0.2-0.2,0.3
	l-2.2,1.5L67.3,83z"/>
<path style="fill:#FFFFFF;" d="M76,81.6l-2.2-1.5c-0.1-0.1-0.2-0.2-0.2-0.3c0-0.2,0.1-0.3,0.3-0.3c0.1,0,0.2,0,0.3,0.1l2.6,1.7
	c0.1,0.1,0.2,0.2,0.2,0.3c0,0.2-0.1,0.3-0.2,0.3l-2.6,1.7c-0.1,0-0.2,0.1-0.3,0.1c-0.2,0-0.3-0.2-0.3-0.3c0-0.2,0.1-0.2,0.2-0.3
	L76,81.6z"/>
<rect x="65.3" y="55.3" style="fill:#FFFFFF;" width="14" height="2"/>
<path style="fill:#FFFFFF;" d="M64.7,57.6c0.1,0.1,0.2,0.2,0.2,0.3c0,0.2-0.1,0.3-0.3,0.3c-0.1,0-0.2-0.1-0.3-0.1l-2.6-1.7
	c-0.1-0.1-0.2-0.2-0.2-0.3c0-0.2,0.1-0.2,0.2-0.3l2.6-1.7c0.1,0,0.2-0.1,0.3-0.1c0.2,0,0.3,0.2,0.3,0.3c0,0.2-0.1,0.2-0.2,0.3
	l-2.2,1.5L64.7,57.6z"/>
<path style="fill:#FFFFFF;" d="M83.8,56.3l-2.2-1.5c-0.1-0.1-0.2-0.2-0.2-0.3c0-0.2,0.1-0.3,0.3-0.3c0.1,0,0.2,0,0.3,0.1l2.6,1.7
	c0.1,0.1,0.2,0.2,0.2,0.3c0,0.2-0.1,0.2-0.2,0.3L82,58.4c-0.1,0-0.2,0.1-0.3,0.1c-0.2,0-0.3-0.2-0.3-0.3c0-0.2,0.1-0.2,0.2-0.3
	L83.8,56.3z"/>
<line style="fill:none;stroke:#FFFFFF;stroke-miterlimit:10;" x1="68.3" y1="65.8" x2="94.3" y2="65.8"/>
<line style="fill:none;stroke:#FFFFFF;stroke-miterlimit:10;" x1="68.3" y1="68.8" x2="94.3" y2="68.8"/>
<line style="fill:none;stroke:#FFFFFF;stroke-miterlimit:10;" x1="68.3" y1="71.8" x2="94.3" y2="71.8"/>
<line style="fill:none;stroke:#FFFFFF;stroke-miterlimit:10;" x1="61.3" y1="74.8" x2="94.3" y2="74.8"/>
<line style="fill:none;stroke:#FFFFFF;stroke-miterlimit:10;" x1="70.2" y1="79.5" x2="69" y2="84.9"/>
<rect x="62.8" y="84.8" style="fill:#727272;stroke:#FFFFFF;stroke-miterlimit:10;" width="3" height="2"/>
<rect x="81.8" y="84.8" style="fill:#727272;stroke:#FFFFFF;stroke-miterlimit:10;" width="3" height="2"/>
<rect x="72.8" y="100.8" style="fill:#727272;stroke:#FFFFFF;stroke-miterlimit:10;" width="2" height="3"/>
<polygon style="fill:none;stroke:#FFFFFF;stroke-miterlimit:10;" points="48.6,113.8 64.8,85.7 81,113.8 "/>
<polygon style="fill:none;stroke:#FFFFFF;stroke-miterlimit:10;" points="67.3,113.8 83.6,85.7 99.8,113.8 "/>
<polygon style="fill:#545454;stroke:#FFFFFF;stroke-miterlimit:10;" points="67.3,113.8 74.1,102.1 80.9,113.8 "/>
<circle style="fill:#D4000C;" cx="49.5" cy="38.3" r="1.6"/>
<circle style="fill:#01BF00;" cx="54" cy="38.3" r="1.6"/>
<circle style="fill:#EDFF2A;" cx="58.5" cy="38.3" r="1.6"/>
</svg>
