<?xml version="1.0" encoding="utf-8"?>
<!-- Generator: Adobe Illustrator 16.0.0, SVG Export Plug-In . SVG Version: 6.00 Build 0)  -->
<!DOCTYPE svg PUBLIC "-//W3C//DTD SVG 1.1//EN" "http://www.w3.org/Graphics/SVG/1.1/DTD/svg11.dtd">
<svg version="1.1" id="Layer_1" xmlns="http://www.w3.org/2000/svg" xmlns:xlink="http://www.w3.org/1999/xlink" x="0px" y="0px"
	 width="92.3px" height="92.3px" viewBox="0 0 92.3 92.3" style="enable-background:new 0 0 92.3 92.3;" xml:space="preserve">
<g>
	<circle style="fill:#FFFFFF;" cx="46.2" cy="46.2" r="46.2"/>
	<circle style="fill:#6DF2E5;" cx="46" cy="46.4" r="40.1"/>
	<circle style="fill:#159D93;" cx="46.3" cy="45.6" r="39.7"/>
	<path style="fill:#4480F6;" d="M50,16.6v15.2c0,0-9.3-1.4-11.9,11.2H22.7C22.7,43,24.2,17.8,50,16.6z"/>
	<path style="fill:#F3B502;" d="M18.5,43.1H39c0,0-0.6,12.4,13.6,13.2v18.9C52.6,75.2,20.9,74.6,18.5,43.1z"/>
	<path style="fill:#D34327;" d="M50,21.9v10.3c0,0,9.7,0.7,10,9.6h10.7C70.6,41.8,69.8,22,50,21.9z"/>
	<path style="fill:#D7D7D7;" d="M60.3,41.8c0,0-0.1,6.6-7.9,7.7v6.6c0,0,12.9,0.8,14.5-14.3h-7"/>
</g>
</svg>
