<?xml version="1.0" encoding="utf-8"?>
<!-- Generator: Adobe Illustrator 16.0.0, SVG Export Plug-In . SVG Version: 6.00 Build 0)  -->
<!DOCTYPE svg PUBLIC "-//W3C//DTD SVG 1.1//EN" "http://www.w3.org/Graphics/SVG/1.1/DTD/svg11.dtd">
<svg version="1.1" id="Layer_1" xmlns="http://www.w3.org/2000/svg" xmlns:xlink="http://www.w3.org/1999/xlink" x="0px" y="0px"
	 width="145.1px" height="145.1px" viewBox="0 0 145.1 145.1" style="enable-background:new 0 0 145.1 145.1;" xml:space="preserve"
	>
<path style="fill:#FFFFFF;" d="M133.7,111.6c-21.6,33.8-66.4,43.6-100.2,22c-33.8-21.6-43.6-66.4-22-100.2
	C33-0.3,77.9-10.1,111.6,11.4C145.4,33,155.3,77.9,133.7,111.6z"/>
<path style="fill:#FFBC73;" d="M126.4,107.5c-19,29.8-58.6,38.5-88.4,19.4c-29.8-19-38.5-58.6-19.4-88.4C37.6,8.8,77.2,0.1,107,19.1
	C136.8,38.2,145.5,77.7,126.4,107.5z"/>
<circle style="fill:#F59517;" cx="72.4" cy="71.7" r="62.4"/>
<path style="fill-rule:evenodd;clip-rule:evenodd;fill:#E34C26;" d="M41.6,48c20.4,0,40.8,0,61.3,0c-0.1,1.5-0.2,2.9-0.3,4.3
	c-0.3,4-0.7,8-1,12c-0.4,4.5-0.8,9-1.2,13.5c-0.3,3.8-0.6,7.6-1,11.4c-0.4,4.5-0.8,9-1.2,13.5c-0.2,2.3-0.4,4.6-0.6,6.8
	c0,0.5-0.2,0.8-0.7,0.9c-7.9,2.3-15.9,4.5-23.8,6.8c-0.4,0.1-1,0.2-1.4,0c-8-2.3-15.9-4.5-23.8-6.8c-0.6-0.2-0.8-0.4-0.9-1
	c-0.3-3.1-0.5-6.3-0.8-9.4c-0.3-3.8-0.7-7.7-1-11.5c-0.3-3.1-0.5-6.1-0.8-9.2c-0.3-3.9-0.7-7.8-1-11.7c-0.3-3-0.5-5.9-0.8-8.9
	c-0.3-3.3-0.6-6.7-0.9-10C41.6,48.5,41.6,48.3,41.6,48z M82.5,84.5c-0.3,3-0.6,5.9-0.8,8.8c0,0.7-0.4,0.9-0.9,1
	c-2.6,0.6-5.2,1.3-7.8,1.9c-0.5,0.1-1,0.1-1.4,0c-2.5-0.6-5.1-1.3-7.6-1.9c-0.5-0.1-0.7-0.3-0.7-0.8c-0.1-1.6-0.3-3.1-0.4-4.7
	c0-0.6-0.3-0.9-0.9-0.9c-1.9,0-3.8,0-5.7,0c-0.3,0-0.5,0-0.8,0.1c0,0.2,0,0.3,0,0.4c0.3,3.6,0.6,7.2,0.9,10.8c0.1,0.7,0.5,1,1.1,1.2
	c3.6,0.9,7.2,1.6,10.7,2.7c2.7,0.8,5.3,0.9,8.1,0.1c3.8-1.2,7.7-2,11.5-3c0.3-0.1,0.8-0.4,0.8-0.6c0.4-3.5,0.6-7,0.9-10.5
	c0.2-2.4,0.4-4.9,0.6-7.3c0.1-1.5,0.2-3,0.4-4.7c-9.6,0-19.1,0-28.7,0c-0.3-3-0.5-5.9-0.8-8.9c0.3,0,0.5-0.1,0.7-0.1
	c3.5,0,7,0,10.5,0c6,0,12,0,18,0c0.6,0,0.8-0.2,0.9-0.8c0.1-1.2,0.2-2.4,0.3-3.6c0.1-0.9,0.1-1.9,0.2-2.9c-12.9,0-25.7,0-38.6,0
	c0.7,7.9,1.4,15.7,2,23.5C64.2,84.5,73.3,84.5,82.5,84.5z"/>
<path style="fill-rule:evenodd;clip-rule:evenodd;" d="M81,40.9c-0.1,0-0.1,0.1-0.2,0.1c-2.4,0.2-2.4,0.2-3-2.1c-0.5-2-1-4-1.8-6
	c0,2.7,0,5.3,0,8c-1,0-1.9,0-2.9,0c0-3.8,0-7.6,0-11.5c1.6,0,3.1,0,4.7,0c0.6,2.2,1.2,4.4,1.7,6.7c0.1,0,0.1,0,0.2,0
	c0.4-1.4,0.7-2.8,1.1-4.1c0.2-0.8,0.2-2,0.8-2.4c0.6-0.4,1.7-0.2,2.5-0.2c0.7,0,1.3,0,2,0c0,3.9,0,7.7,0,11.5c-0.9,0-1.8,0-2.9,0
	c0-2.7,0-5.4,0-8.1c-0.1,0-0.2,0-0.2,0C82.4,35.6,81.7,38.3,81,40.9z"/>
<path style="fill-rule:evenodd;clip-rule:evenodd;" d="M47.9,29.5c1.2,0,2.3,0,3.5,0c0,1.3,0,2.6,0,3.9c1.4,0,2.6,0,4,0
	c0-1.3,0-2.6,0-3.9c1.2,0,2.3,0,3.5,0c0,3.8,0,7.6,0,11.5c-1.1,0-2.3,0-3.5,0c0-1.6,0-3.1,0-4.6c-1.3,0-2.6,0-3.9,0c0,1.5,0,3,0,4.6
	c-1.2,0-2.4,0-3.6,0C47.9,37.2,47.9,33.3,47.9,29.5z"/>
<path style="fill-rule:evenodd;clip-rule:evenodd;" d="M67.9,41c-1.3,0-2.4,0-3.6,0c0-2.9,0-5.8,0-8.8c-1.3,0-2.4,0-3.6,0
	c0-0.9,0-1.8,0-2.7c3.6,0,7.2,0,10.9,0c0,0.8,0,1.7,0,2.6c-1.2,0-2.3,0-3.6,0C67.9,35.1,67.9,38,67.9,41z"/>
<path style="fill-rule:evenodd;clip-rule:evenodd;" d="M88.6,40.9c0-3.8,0-7.6,0-11.5c1.1,0,2.3,0,3.5,0c0,2.9,0,5.7,0,8.6
	c1.9,0,3.8,0,5.7,0c0,1,0,1.9,0,2.8C94.7,40.9,91.6,40.9,88.6,40.9z"/>
<path style="fill-rule:evenodd;clip-rule:evenodd;fill:#FFFFFF;" d="M82.5,84.5c-9.2,0-18.3,0-27.3,0c-0.7-7.9-1.4-15.6-2-23.5
	c12.9,0,25.7,0,38.6,0c-0.1,1-0.1,1.9-0.2,2.9c-0.1,1.2-0.2,2.4-0.3,3.6c0,0.6-0.3,0.8-0.9,0.8c-6,0-12,0-18,0c-3.5,0-7,0-10.5,0
	c-0.2,0-0.4,0-0.7,0.1c0.3,2.9,0.5,5.8,0.8,8.9c9.5,0,19,0,28.7,0c-0.1,1.6-0.2,3.2-0.4,4.7c-0.2,2.4-0.4,4.9-0.6,7.3
	c-0.3,3.5-0.6,7-0.9,10.5c0,0.2-0.5,0.5-0.8,0.6c-3.8,1-7.7,1.8-11.5,3c-2.8,0.8-5.3,0.7-8.1-0.1c-3.5-1-7.1-1.8-10.7-2.7
	c-0.7-0.2-1.1-0.4-1.1-1.2c-0.3-3.6-0.6-7.2-0.9-10.8c0-0.1,0-0.2,0-0.4c0.2,0,0.5-0.1,0.8-0.1c1.9,0,3.8,0,5.7,0
	c0.7,0,0.9,0.2,0.9,0.9c0.1,1.6,0.3,3.1,0.4,4.7c0,0.5,0.2,0.7,0.7,0.8c2.5,0.6,5.1,1.3,7.6,1.9c0.4,0.1,1,0.1,1.4,0
	c2.6-0.6,5.2-1.3,7.8-1.9c0.5-0.1,0.9-0.3,0.9-1C81.9,90.4,82.2,87.5,82.5,84.5z"/>
<polygon style="opacity:0.2;fill-rule:evenodd;clip-rule:evenodd;fill:#FFFFFF;" points="94.7,105.8 73.7,112.3 73.7,52.6 
	98.9,52.6 "/>
</svg>
