<?xml version="1.0" encoding="utf-8"?>
<!-- Generator: Adobe Illustrator 16.0.0, SVG Export Plug-In . SVG Version: 6.00 Build 0)  -->
<!DOCTYPE svg PUBLIC "-//W3C//DTD SVG 1.1//EN" "http://www.w3.org/Graphics/SVG/1.1/DTD/svg11.dtd">
<svg version="1.1" id="Layer_1" xmlns="http://www.w3.org/2000/svg" xmlns:xlink="http://www.w3.org/1999/xlink" x="0px" y="0px"
	 width="139.1px" height="139.1px" viewBox="0 0 139.1 139.1" style="enable-background:new 0 0 139.1 139.1;" xml:space="preserve"
	>
<circle style="fill:#F5AB35;" cx="69" cy="69.8" r="69.6"/>
<path style="fill:#333333;" d="M122.8,104.4c0,1.5-1.2,2.7-2.7,2.7H15.5c-1.5,0-2.7-1.2-2.7-2.7V35.9c0-1.5,1.2-2.7,2.7-2.7H120
	c1.5,0,2.7,1.2,2.7,2.7V104.4z"/>
<rect x="19.8" y="37.1" style="fill:#F9F9F9;" width="95" height="61"/>
<rect x="82.2" y="60.8" transform="matrix(0.7069 0.7073 -0.7073 0.7069 69.8487 -41.4312)" style="fill:#FFFFFF;stroke:#353535;stroke-width:2;stroke-miterlimit:10;" width="5.5" height="5.5"/>
<rect x="37.7" y="19.5" transform="matrix(0.7071 0.7071 -0.7071 0.7071 27.5418 -22.0857)" style="fill:none;stroke:#353535;stroke-miterlimit:10;" width="5.5" height="5.5"/>
<rect x="87.5" y="19.5" transform="matrix(0.7071 0.7071 -0.7071 0.7071 42.1252 -57.2929)" style="fill:none;stroke:#353535;stroke-miterlimit:10;" width="5.5" height="5.5"/>
<line style="fill:none;stroke:#353535;stroke-miterlimit:10;" x1="43.8" y1="22.6" x2="86.8" y2="22.6"/>
<rect x="60.4" y="48" style="fill:#7A7A7A;" width="14.6" height="4.6"/>
<rect x="62" y="52.6" style="fill:#3A3A3A;" width="11.4" height="2.2"/>
<linearGradient id="SVGID_1_" gradientUnits="userSpaceOnUse" x1="993.9048" y1="2320.2241" x2="1008.2512" y2="2308.186" gradientTransform="matrix(0.7071 0.7071 -0.7071 0.7071 996.6655 -2308.0613)">
	<stop  offset="0" style="stop-color:#E9E9E9"/>
	<stop  offset="0.463" style="stop-color:#BEBBC3"/>
	<stop  offset="1" style="stop-color:#BEBBC3"/>
</linearGradient>
<polyline style="fill:url(#SVGID_1_);" points="68.1,23.8 58.5,39.4 62.8,45.7 62.8,48 72.9,48 73,45.7 77.3,39.4 67.7,23.8 "/>
<rect x="67.3" y="23.5" style="fill:none;stroke:#444445;stroke-width:0.5;stroke-miterlimit:10;" width="1.9" height="2"/>
<line style="fill:none;stroke:#444445;stroke-width:0.5;stroke-miterlimit:10;" x1="67.9" y1="25.5" x2="67.9" y2="38.7"/>
<rect x="65.6" y="19.5" transform="matrix(0.7071 0.7071 -0.7071 0.7071 35.7048 -41.7928)" style="fill:#FFFFFF;stroke:#353535;stroke-miterlimit:10;" width="5.5" height="5.5"/>
<circle style="fill:#3A3A3A;" cx="67.8" cy="38.5" r="1.8"/>
<circle style="fill:none;stroke:#000000;stroke-miterlimit:10;" cx="67.3" cy="68.5" r="44.4"/>
<linearGradient id="SVGID_2_" gradientUnits="userSpaceOnUse" x1="43.4482" y1="80.8726" x2="59.0654" y2="80.8726">
	<stop  offset="0" style="stop-color:#878787"/>
	<stop  offset="0.2485" style="stop-color:#E4E4E4"/>
	<stop  offset="0.5576" style="stop-color:#DADADA"/>
	<stop  offset="0.7818" style="stop-color:#7F7F7F"/>
	<stop  offset="1" style="stop-color:#ACACAC"/>
</linearGradient>
<path style="fill:url(#SVGID_2_);" d="M59.1,75.2v7.2c0,2.4-1.7,4.3-3.7,4.3h-8.2c-2,0-3.7-1.9-3.7-4.3v-7.2"/>
<linearGradient id="SVGID_3_" gradientUnits="userSpaceOnUse" x1="43.4092" y1="74.7231" x2="59.1045" y2="74.7231">
	<stop  offset="0" style="stop-color:#7F7F7F"/>
	<stop  offset="0.497" style="stop-color:#ADADAD"/>
	<stop  offset="1" style="stop-color:#ACACAC"/>
</linearGradient>
<ellipse style="fill:url(#SVGID_3_);" cx="51.3" cy="74.7" rx="7.8" ry="5.5"/>
<ellipse style="fill:#DB1585;" cx="51.3" cy="74.7" rx="7.8" ry="5.5"/>
<linearGradient id="SVGID_4_" gradientUnits="userSpaceOnUse" x1="57.1411" y1="73.1226" x2="46.1104" y2="73.1226">
	<stop  offset="0" style="stop-color:#7F7F7F"/>
	<stop  offset="0.5394" style="stop-color:#C9C9C9"/>
	<stop  offset="1" style="stop-color:#ACACAC"/>
</linearGradient>
<path style="fill:url(#SVGID_4_);" d="M51.3,73.3c3.4,0,6.2,1.5,7.3,3.5c0.3-0.6,0.5-1.3,0.5-1.9c0-3-3.5-5.5-7.8-5.5
	c-4.3,0-7.8,2.5-7.8,5.5c0,0.7,0.2,1.3,0.5,1.9C45,74.8,47.9,73.3,51.3,73.3z"/>
<linearGradient id="SVGID_5_" gradientUnits="userSpaceOnUse" x1="51.2505" y1="80.104" x2="51.1972" y2="89.3987">
	<stop  offset="0" style="stop-color:#878787"/>
	<stop  offset="0.5576" style="stop-color:#DADADA"/>
	<stop  offset="0.7818" style="stop-color:#7F7F7F"/>
	<stop  offset="1" style="stop-color:#ACACAC"/>
</linearGradient>
<path style="fill:url(#SVGID_5_);" d="M55.4,86.9h-8.2c-2.1,0-3.9-2-3.9-4.5v-7.2l0.4,0c0.4,2.7,3.7,4.8,7.6,4.8
	c4,0,7.2-2.1,7.6-4.8l0.4,0v7.2C59.2,84.9,57.5,86.9,55.4,86.9L55.4,86.9z M43.6,76.5l0,5.9c0,2.3,1.6,4.1,3.5,4.1h8.2
	c1.9,0,3.5-1.8,3.5-4.1v-5.9c-1.1,2.3-4.1,3.9-7.6,3.9C47.7,80.4,44.7,78.8,43.6,76.5L43.6,76.5z"/>
<linearGradient id="SVGID_6_" gradientUnits="userSpaceOnUse" x1="43.2275" y1="74.7222" x2="59.2871" y2="74.7222">
	<stop  offset="0" style="stop-color:#7F7F7F"/>
	<stop  offset="0.2485" style="stop-color:#262626"/>
	<stop  offset="0.4848" style="stop-color:#0B0B0B"/>
	<stop  offset="1" style="stop-color:#ACACAC"/>
</linearGradient>
<path style="fill:url(#SVGID_6_);" d="M51.3,80.4c-4.4,0-8-2.5-8-5.7s3.6-5.7,8-5.7s8,2.5,8,5.7S55.7,80.4,51.3,80.4L51.3,80.4z
	 M51.3,69.4c-4.2,0-7.7,2.4-7.7,5.3S47,80,51.3,80s7.7-2.4,7.7-5.3S55.5,69.4,51.3,69.4L51.3,69.4z"/>
<linearGradient id="SVGID_7_" gradientUnits="userSpaceOnUse" x1="51.2568" y1="80.4282" x2="51.2568" y2="73.4577">
	<stop  offset="0" style="stop-color:#A7A7A7"/>
	<stop  offset="0.2485" style="stop-color:#676767"/>
	<stop  offset="0.4848" style="stop-color:#909090"/>
	<stop  offset="1" style="stop-color:#ACACAC"/>
</linearGradient>
<path style="fill:url(#SVGID_7_);" d="M58.5,76.5c-1,2.1-3.9,3.6-7.2,3.6c-3.4,0-6.2-1.5-7.2-3.6c-0.1,0.1-0.1,0.3-0.2,0.4
	c1.2,2.1,4.1,3.5,7.5,3.5s6.3-1.4,7.4-3.5C58.6,76.8,58.6,76.6,58.5,76.5z"/>
<path style="fill:#DB1585;" d="M47,79.2c0,0,1.7,0.9,4.3,0.9l0.2,3.5c0,0-0.4,0.6-0.9,0c0.1,0.2-0.1-3.1-0.1-3.1s-0.5,0.3-1.3,0
	c0,0,0.2,1.7,0,1.7c0,0-0.6,0.6-0.7-0.3l-0.1-1.6l-1-0.5l-0.3,3.6c0,0-0.5,0.8-0.9-0.2l0.4-4.1L47,79.2z"/>
<path style="fill:#DB1585;" d="M53.9,79.7c0,0-0.3,0-0.1,0.4l0.3,1.1c0,0,0.5,0.2,0.4-0.2L54.3,80c0,0,0,0.2,0.5-0.1l0.7,2
	c0,0,0.6,0.4,0.5-0.2l-0.8-2c0,0,0.1-0.4-0.2-0.4L53.9,79.7"/>
<path style="fill:#DB1585;" d="M48.9,69.3l0.2,2.9c0,0,0.5,0.6,0.8-0.1l-0.4-2.8C49.6,69.2,49.5,69.1,48.9,69.3z"/>
<path style="fill:#129F49;" d="M49.6,69.2c0,0,0.5-0.1,0.8-0.1c0.2,0,0.3,0,0.3,0c0,0,0,0.3,0,0.3s-0.7,0-0.9,0.1L49.6,69.2z"/>
<path style="fill:#DB1585;" d="M50.1,69.5c0,0-0.2,1.6,0.5,1.5c0,0,0.3,0.3,0-1.6C50.6,69.4,50.1,69.2,50.1,69.5z"/>
<path style="fill:#DB1585;" d="M54.5,69.5c0,0,0.5,0.1,0.7,0.2l-0.7,3.7c0,0-1,0.3-0.6-0.8L54.5,69.5z"/>
<path style="fill:#DB1585;" d="M53.7,69.3c0,0-0.6,1.5,0,1.6c0.6,0.2,0.4-1.1,0.4-1.1l0.4-0.3L53.7,69.3z"/>
<path style="opacity:0.13;" d="M44.1,76.6c0,0,2-3.4,7.1-3.3c0,0,4.8-0.1,7.4,3.2l-0.7,1c0,0-6.2-5.8-13,0L44.1,76.6z"/>
<path style="fill:#129F49;" d="M35.9,86.1L35,85.9c0,0-0.2,0.4-0.2,0.5c-0.1,0.1-0.4,0.5-0.6,0.5s-0.5,0.1-1.1,0
	c-0.6-0.1-0.5,0.7-0.5,0.7L32,88.3c0,0-0.5-0.3-0.7,0c-0.2,0.3-0.4-0.1-0.2,0.3c0.2,0.4,0.6,0.6,0.6,0.6s-1.1,0.2-0.7,0.5
	s0.8,0.2,1,0.5c0.3,0.3,0.8,0.2,0.8,0.2l0.2,1.1c0,0,0,0.1-0.2,0.4c-0.3,0.3-0.5-0.2-0.6,0.5c0,0.7-0.1,0.8,0.5,0.8s1.4,0,1.4,0
	s0.4-0.5,0.4,0c0,0.5-1.2,0.9-1.1,1.1c0.1,0.1,1.6,0.1,1.7,0c0.2-0.1,0.1-0.5,0.4-0.9c0.3-0.3,1-0.5,1.3-0.5c0.2,0,0.5-0.1,0.3,0.5
	s-0.4,0.7-0.5,1.1c-0.1,0.4-1,0.2-0.1,0.4c0.9,0.2,1,0.6,1.3-0.3c0.3-0.9,0.4-0.9,0.7-0.9c0.2,0,0.7-0.1,0.9,0c0.2,0.1,1-0.3,1-0.4
	s0.4-0.6,0-0.7S35.9,86.1,35.9,86.1z"/>
<linearGradient id="SVGID_8_" gradientUnits="userSpaceOnUse" x1="36.2061" y1="87.3491" x2="51.8232" y2="87.3491">
	<stop  offset="0" style="stop-color:#878787"/>
	<stop  offset="0.2485" style="stop-color:#E4E4E4"/>
	<stop  offset="0.5576" style="stop-color:#DADADA"/>
	<stop  offset="0.7818" style="stop-color:#7F7F7F"/>
	<stop  offset="1" style="stop-color:#ACACAC"/>
</linearGradient>
<path style="fill:url(#SVGID_8_);" d="M51.8,81.6v7.2c0,2.4-1.7,4.3-3.7,4.3h-8.2c-2,0-3.7-1.9-3.7-4.3v-7.2"/>
<linearGradient id="SVGID_9_" gradientUnits="userSpaceOnUse" x1="36.167" y1="81.1987" x2="51.8623" y2="81.1987">
	<stop  offset="0" style="stop-color:#7F7F7F"/>
	<stop  offset="0.497" style="stop-color:#ADADAD"/>
	<stop  offset="1" style="stop-color:#ACACAC"/>
</linearGradient>
<ellipse style="fill:url(#SVGID_9_);" cx="44" cy="81.2" rx="7.8" ry="5.5"/>
<ellipse style="fill:#129F49;" cx="44" cy="81.2" rx="7.8" ry="5.5"/>
<linearGradient id="SVGID_10_" gradientUnits="userSpaceOnUse" x1="49.8989" y1="79.5991" x2="38.8682" y2="79.5991">
	<stop  offset="0" style="stop-color:#7F7F7F"/>
	<stop  offset="0.5394" style="stop-color:#C9C9C9"/>
	<stop  offset="1" style="stop-color:#ACACAC"/>
</linearGradient>
<path style="fill:url(#SVGID_10_);" d="M44,79.8c3.4,0,6.2,1.5,7.3,3.5c0.3-0.6,0.5-1.3,0.5-1.9c0-3-3.5-5.5-7.8-5.5
	c-4.3,0-7.8,2.5-7.8,5.5c0,0.7,0.2,1.3,0.5,1.9C37.8,81.2,40.7,79.8,44,79.8z"/>
<linearGradient id="SVGID_11_" gradientUnits="userSpaceOnUse" x1="44.0068" y1="86.5806" x2="43.9535" y2="95.8756">
	<stop  offset="0" style="stop-color:#878787"/>
	<stop  offset="0.5576" style="stop-color:#DADADA"/>
	<stop  offset="0.7818" style="stop-color:#7F7F7F"/>
	<stop  offset="1" style="stop-color:#ACACAC"/>
</linearGradient>
<path style="fill:url(#SVGID_11_);" d="M48.1,93.4h-8.2c-2.1,0-3.9-2-3.9-4.5v-7.2l0.4,0c0.4,2.7,3.7,4.8,7.6,4.8
	c4,0,7.2-2.1,7.6-4.8l0.4,0V89C52,91.4,50.3,93.4,48.1,93.4L48.1,93.4z M36.4,83V89c0,2.3,1.6,4.1,3.5,4.1h8.2
	c1.9,0,3.5-1.8,3.5-4.1V83c-1.1,2.3-4.1,3.9-7.6,3.9C40.5,86.9,37.4,85.3,36.4,83L36.4,83z"/>
<linearGradient id="SVGID_12_" gradientUnits="userSpaceOnUse" x1="35.9854" y1="81.1997" x2="52.0439" y2="81.1997">
	<stop  offset="0" style="stop-color:#7F7F7F"/>
	<stop  offset="0.2485" style="stop-color:#262626"/>
	<stop  offset="0.4848" style="stop-color:#0B0B0B"/>
	<stop  offset="1" style="stop-color:#ACACAC"/>
</linearGradient>
<path style="fill:url(#SVGID_12_);" d="M44,86.9c-4.4,0-8-2.5-8-5.7c0-3.1,3.6-5.7,8-5.7c4.4,0,8,2.5,8,5.7
	C52,84.3,48.4,86.9,44,86.9L44,86.9z M44,75.9c-4.2,0-7.7,2.4-7.7,5.3c0,2.9,3.4,5.3,7.7,5.3c4.2,0,7.7-2.4,7.7-5.3
	C51.7,78.3,48.2,75.9,44,75.9L44,75.9z"/>
<linearGradient id="SVGID_13_" gradientUnits="userSpaceOnUse" x1="44.0137" y1="86.9048" x2="44.0137" y2="79.9343">
	<stop  offset="0" style="stop-color:#A7A7A7"/>
	<stop  offset="0.2485" style="stop-color:#676767"/>
	<stop  offset="0.4848" style="stop-color:#909090"/>
	<stop  offset="1" style="stop-color:#ACACAC"/>
</linearGradient>
<path style="fill:url(#SVGID_13_);" d="M51.3,83c-1,2.1-3.9,3.6-7.2,3.6s-6.2-1.5-7.2-3.6c-0.1,0.1-0.1,0.3-0.2,0.4
	c1.2,2.1,4.1,3.5,7.5,3.5s6.3-1.4,7.4-3.5C51.4,83.2,51.3,83.1,51.3,83z"/>
<path style="fill:#129F49;" d="M39.8,85.6c0,0,1.7,0.9,4.3,0.9l0.2,3.5c0,0-0.4,0.6-0.9,0c0.1,0.2-0.1-3.1-0.1-3.1s-0.5,0.3-1.3,0
	c0,0,0.2,1.7,0,1.7c0,0-0.6,0.6-0.7-0.3l-0.1-1.6l-1-0.5l-0.3,3.6c0,0-0.5,0.8-0.9-0.2l0.4-4.1L39.8,85.6z"/>
<path style="fill:#129F49;" d="M46.7,86.2c0,0-0.3,0-0.1,0.4l0.3,1.1c0,0,0.5,0.2,0.4-0.2l-0.2-1.1c0,0,0,0.2,0.5-0.1l0.7,2
	c0,0,0.6,0.4,0.5-0.2l-0.8-2c0,0,0.1-0.4-0.2-0.4L46.7,86.2"/>
<path style="fill:#129F49;" d="M41.7,75.8l0.2,2.9c0,0,0.5,0.6,0.8-0.1l-0.4-2.8C42.4,75.7,42.3,75.6,41.7,75.8z"/>
<path style="fill:#129F49;" d="M42.3,75.6c0,0,0.5-0.1,0.8-0.1c0.2,0,0.3,0,0.3,0c0,0,0,0.3,0,0.3s-0.7,0-0.9,0.1L42.3,75.6z"/>
<path style="fill:#129F49;" d="M42.8,76c0,0-0.2,1.6,0.5,1.5c0,0,0.3,0.3,0-1.6C43.3,75.9,42.8,75.6,42.8,76z"/>
<path style="fill:#129F49;" d="M47.3,76c0,0,0.5,0.1,0.7,0.2l-0.7,3.7c0,0-1,0.3-0.6-0.8L47.3,76z"/>
<path style="fill:#129F49;" d="M46.4,75.8c0,0-0.6,1.5,0,1.6c0.6,0.2,0.4-1.1,0.4-1.1l0.4-0.3L46.4,75.8z"/>
<path style="opacity:0.13;" d="M36.8,83.1c0,0,2-3.4,7.1-3.3c0,0,4.8-0.1,7.4,3.2l-0.7,1c0,0-6.2-5.8-13,0L36.8,83.1z"/>
<path style="fill:none;stroke:#54B848;" d="M33.6,86.2c0-0.2,0.5-0.3,0.7-0.4c0.1,0.4-0.2,0.6-0.6,0.5c0-0.2,0-0.3,0.1-0.4"/>
<path style="fill:none;stroke:#54B848;" d="M36,93.6c-0.1,0.1-0.1,0.2-0.1,0.4c0.2,0,0.4-0.1,0.3-0.4c-0.1,0-0.1,0-0.1,0"/>
<linearGradient id="SVGID_14_" gradientUnits="userSpaceOnUse" x1="43.4482" y1="80.8726" x2="59.0654" y2="80.8726">
	<stop  offset="0" style="stop-color:#878787"/>
	<stop  offset="0.2485" style="stop-color:#E4E4E4"/>
	<stop  offset="0.5576" style="stop-color:#DADADA"/>
	<stop  offset="0.7818" style="stop-color:#7F7F7F"/>
	<stop  offset="1" style="stop-color:#ACACAC"/>
</linearGradient>
<path style="fill:url(#SVGID_14_);" d="M59.1,75.2v7.2c0,2.4-1.7,4.3-3.7,4.3h-8.2c-2,0-3.7-1.9-3.7-4.3v-7.2"/>
<linearGradient id="SVGID_15_" gradientUnits="userSpaceOnUse" x1="43.4092" y1="74.7231" x2="59.1045" y2="74.7231">
	<stop  offset="0" style="stop-color:#7F7F7F"/>
	<stop  offset="0.497" style="stop-color:#ADADAD"/>
	<stop  offset="1" style="stop-color:#ACACAC"/>
</linearGradient>
<ellipse style="fill:url(#SVGID_15_);" cx="51.3" cy="74.7" rx="7.8" ry="5.5"/>
<ellipse style="fill:#DB1585;" cx="51.3" cy="74.7" rx="7.8" ry="5.5"/>
<linearGradient id="SVGID_16_" gradientUnits="userSpaceOnUse" x1="57.1411" y1="73.1226" x2="46.1104" y2="73.1226">
	<stop  offset="0" style="stop-color:#7F7F7F"/>
	<stop  offset="0.5394" style="stop-color:#C9C9C9"/>
	<stop  offset="1" style="stop-color:#ACACAC"/>
</linearGradient>
<path style="fill:url(#SVGID_16_);" d="M51.3,73.3c3.4,0,6.2,1.5,7.3,3.5c0.3-0.6,0.5-1.3,0.5-1.9c0-3-3.5-5.5-7.8-5.5
	c-4.3,0-7.8,2.5-7.8,5.5c0,0.7,0.2,1.3,0.5,1.9C45,74.8,47.9,73.3,51.3,73.3z"/>
<linearGradient id="SVGID_17_" gradientUnits="userSpaceOnUse" x1="51.2505" y1="80.104" x2="51.1972" y2="89.3987">
	<stop  offset="0" style="stop-color:#878787"/>
	<stop  offset="0.5576" style="stop-color:#DADADA"/>
	<stop  offset="0.7818" style="stop-color:#7F7F7F"/>
	<stop  offset="1" style="stop-color:#ACACAC"/>
</linearGradient>
<path style="fill:url(#SVGID_17_);" d="M55.4,86.9h-8.2c-2.1,0-3.9-2-3.9-4.5v-7.2l0.4,0c0.4,2.7,3.7,4.8,7.6,4.8
	c4,0,7.2-2.1,7.6-4.8l0.4,0v7.2C59.2,84.9,57.5,86.9,55.4,86.9L55.4,86.9z M43.6,76.5l0,5.9c0,2.3,1.6,4.1,3.5,4.1h8.2
	c1.9,0,3.5-1.8,3.5-4.1v-5.9c-1.1,2.3-4.1,3.9-7.6,3.9C47.7,80.4,44.7,78.8,43.6,76.5L43.6,76.5z"/>
<linearGradient id="SVGID_18_" gradientUnits="userSpaceOnUse" x1="43.2275" y1="74.7222" x2="59.2871" y2="74.7222">
	<stop  offset="0" style="stop-color:#7F7F7F"/>
	<stop  offset="0.2485" style="stop-color:#262626"/>
	<stop  offset="0.4848" style="stop-color:#0B0B0B"/>
	<stop  offset="1" style="stop-color:#ACACAC"/>
</linearGradient>
<path style="fill:url(#SVGID_18_);" d="M51.3,80.4c-4.4,0-8-2.5-8-5.7s3.6-5.7,8-5.7s8,2.5,8,5.7S55.7,80.4,51.3,80.4L51.3,80.4z
	 M51.3,69.4c-4.2,0-7.7,2.4-7.7,5.3S47,80,51.3,80s7.7-2.4,7.7-5.3S55.5,69.4,51.3,69.4L51.3,69.4z"/>
<linearGradient id="SVGID_19_" gradientUnits="userSpaceOnUse" x1="51.2568" y1="80.4282" x2="51.2568" y2="73.4577">
	<stop  offset="0" style="stop-color:#A7A7A7"/>
	<stop  offset="0.2485" style="stop-color:#676767"/>
	<stop  offset="0.4848" style="stop-color:#909090"/>
	<stop  offset="1" style="stop-color:#ACACAC"/>
</linearGradient>
<path style="fill:url(#SVGID_19_);" d="M58.5,76.5c-1,2.1-3.9,3.6-7.2,3.6c-3.4,0-6.2-1.5-7.2-3.6c-0.1,0.1-0.1,0.3-0.2,0.4
	c1.2,2.1,4.1,3.5,7.5,3.5s6.3-1.4,7.4-3.5C58.6,76.8,58.6,76.6,58.5,76.5z"/>
<path style="fill:#DB1585;" d="M47,79.2c0,0,1.7,0.9,4.3,0.9l0.2,3.5c0,0-0.4,0.6-0.9,0c0.1,0.2-0.1-3.1-0.1-3.1s-0.5,0.3-1.3,0
	c0,0,0.2,1.7,0,1.7c0,0-0.6,0.6-0.7-0.3l-0.1-1.6l-1-0.5l-0.3,3.6c0,0-0.5,0.8-0.9-0.2l0.4-4.1L47,79.2z"/>
<path style="fill:#DB1585;" d="M53.9,79.7c0,0-0.3,0-0.1,0.4l0.3,1.1c0,0,0.5,0.2,0.4-0.2L54.3,80c0,0,0,0.2,0.5-0.1l0.7,2
	c0,0,0.6,0.4,0.5-0.2l-0.8-2c0,0,0.1-0.4-0.2-0.4L53.9,79.7"/>
<path style="fill:#DB1585;" d="M48.9,69.3l0.2,2.9c0,0,0.5,0.6,0.8-0.1l-0.4-2.8C49.6,69.2,49.5,69.1,48.9,69.3z"/>
<path style="fill:#129F49;" d="M49.6,69.2c0,0,0.5-0.1,0.8-0.1c0.2,0,0.3,0,0.3,0c0,0,0,0.3,0,0.3s-0.7,0-0.9,0.1L49.6,69.2z"/>
<path style="fill:#DB1585;" d="M50.1,69.5c0,0-0.2,1.6,0.5,1.5c0,0,0.3,0.3,0-1.6C50.6,69.4,50.1,69.2,50.1,69.5z"/>
<path style="fill:#DB1585;" d="M54.5,69.5c0,0,0.5,0.1,0.7,0.2l-0.7,3.7c0,0-1,0.3-0.6-0.8L54.5,69.5z"/>
<path style="fill:#DB1585;" d="M53.7,69.3c0,0-0.6,1.5,0,1.6c0.6,0.2,0.4-1.1,0.4-1.1l0.4-0.3L53.7,69.3z"/>
<path style="opacity:0.13;" d="M44.1,76.6c0,0,2-3.4,7.1-3.3c0,0,4.8-0.1,7.4,3.2l-0.7,1c0,0-6.2-5.8-13,0L44.1,76.6z"/>
<path style="fill:#129F49;" d="M35.9,86.1L35,85.9c0,0-0.2,0.4-0.2,0.5c-0.1,0.1-0.4,0.5-0.6,0.5s-0.5,0.1-1.1,0
	c-0.6-0.1-0.5,0.7-0.5,0.7L32,88.3c0,0-0.5-0.3-0.7,0c-0.2,0.3-0.4-0.1-0.2,0.3c0.2,0.4,0.6,0.6,0.6,0.6s-1.1,0.2-0.7,0.5
	s0.8,0.2,1,0.5c0.3,0.3,0.8,0.2,0.8,0.2l0.2,1.1c0,0,0,0.1-0.2,0.4c-0.3,0.3-0.5-0.2-0.6,0.5c0,0.7-0.1,0.8,0.5,0.8s1.4,0,1.4,0
	s0.4-0.5,0.4,0c0,0.5-1.2,0.9-1.1,1.1c0.1,0.1,1.6,0.1,1.7,0c0.2-0.1,0.1-0.5,0.4-0.9c0.3-0.3,1-0.5,1.3-0.5c0.2,0,0.5-0.1,0.3,0.5
	s-0.4,0.7-0.5,1.1c-0.1,0.4-1,0.2-0.1,0.4c0.9,0.2,1,0.6,1.3-0.3c0.3-0.9,0.4-0.9,0.7-0.9c0.2,0,0.7-0.1,0.9,0c0.2,0.1,1-0.3,1-0.4
	s0.4-0.6,0-0.7S35.9,86.1,35.9,86.1z"/>
<linearGradient id="SVGID_20_" gradientUnits="userSpaceOnUse" x1="36.2061" y1="87.3491" x2="51.8232" y2="87.3491">
	<stop  offset="0" style="stop-color:#878787"/>
	<stop  offset="0.2485" style="stop-color:#E4E4E4"/>
	<stop  offset="0.5576" style="stop-color:#DADADA"/>
	<stop  offset="0.7818" style="stop-color:#7F7F7F"/>
	<stop  offset="1" style="stop-color:#ACACAC"/>
</linearGradient>
<path style="fill:url(#SVGID_20_);" d="M51.8,81.6v7.2c0,2.4-1.7,4.3-3.7,4.3h-8.2c-2,0-3.7-1.9-3.7-4.3v-7.2"/>
<linearGradient id="SVGID_21_" gradientUnits="userSpaceOnUse" x1="36.167" y1="81.1987" x2="51.8623" y2="81.1987">
	<stop  offset="0" style="stop-color:#7F7F7F"/>
	<stop  offset="0.497" style="stop-color:#ADADAD"/>
	<stop  offset="1" style="stop-color:#ACACAC"/>
</linearGradient>
<ellipse style="fill:url(#SVGID_21_);" cx="44" cy="81.2" rx="7.8" ry="5.5"/>
<ellipse style="fill:#129F49;" cx="44" cy="81.2" rx="7.8" ry="5.5"/>
<linearGradient id="SVGID_22_" gradientUnits="userSpaceOnUse" x1="49.8989" y1="79.5991" x2="38.8682" y2="79.5991">
	<stop  offset="0" style="stop-color:#7F7F7F"/>
	<stop  offset="0.5394" style="stop-color:#C9C9C9"/>
	<stop  offset="1" style="stop-color:#ACACAC"/>
</linearGradient>
<path style="fill:url(#SVGID_22_);" d="M44,79.8c3.4,0,6.2,1.5,7.3,3.5c0.3-0.6,0.5-1.3,0.5-1.9c0-3-3.5-5.5-7.8-5.5
	c-4.3,0-7.8,2.5-7.8,5.5c0,0.7,0.2,1.3,0.5,1.9C37.8,81.2,40.7,79.8,44,79.8z"/>
<linearGradient id="SVGID_23_" gradientUnits="userSpaceOnUse" x1="44.0068" y1="86.5806" x2="43.9535" y2="95.8756">
	<stop  offset="0" style="stop-color:#878787"/>
	<stop  offset="0.5576" style="stop-color:#DADADA"/>
	<stop  offset="0.7818" style="stop-color:#7F7F7F"/>
	<stop  offset="1" style="stop-color:#ACACAC"/>
</linearGradient>
<path style="fill:url(#SVGID_23_);" d="M48.1,93.4h-8.2c-2.1,0-3.9-2-3.9-4.5v-7.2l0.4,0c0.4,2.7,3.7,4.8,7.6,4.8
	c4,0,7.2-2.1,7.6-4.8l0.4,0V89C52,91.4,50.3,93.4,48.1,93.4L48.1,93.4z M36.4,83V89c0,2.3,1.6,4.1,3.5,4.1h8.2
	c1.9,0,3.5-1.8,3.5-4.1V83c-1.1,2.3-4.1,3.9-7.6,3.9C40.5,86.9,37.4,85.3,36.4,83L36.4,83z"/>
<linearGradient id="SVGID_24_" gradientUnits="userSpaceOnUse" x1="35.9854" y1="81.1997" x2="52.0439" y2="81.1997">
	<stop  offset="0" style="stop-color:#7F7F7F"/>
	<stop  offset="0.2485" style="stop-color:#262626"/>
	<stop  offset="0.4848" style="stop-color:#0B0B0B"/>
	<stop  offset="1" style="stop-color:#ACACAC"/>
</linearGradient>
<path style="fill:url(#SVGID_24_);" d="M44,86.9c-4.4,0-8-2.5-8-5.7c0-3.1,3.6-5.7,8-5.7c4.4,0,8,2.5,8,5.7
	C52,84.3,48.4,86.9,44,86.9L44,86.9z M44,75.9c-4.2,0-7.7,2.4-7.7,5.3c0,2.9,3.4,5.3,7.7,5.3c4.2,0,7.7-2.4,7.7-5.3
	C51.7,78.3,48.2,75.9,44,75.9L44,75.9z"/>
<linearGradient id="SVGID_25_" gradientUnits="userSpaceOnUse" x1="44.0137" y1="86.9048" x2="44.0137" y2="79.9343">
	<stop  offset="0" style="stop-color:#A7A7A7"/>
	<stop  offset="0.2485" style="stop-color:#676767"/>
	<stop  offset="0.4848" style="stop-color:#909090"/>
	<stop  offset="1" style="stop-color:#ACACAC"/>
</linearGradient>
<path style="fill:url(#SVGID_25_);" d="M51.3,83c-1,2.1-3.9,3.6-7.2,3.6s-6.2-1.5-7.2-3.6c-0.1,0.1-0.1,0.3-0.2,0.4
	c1.2,2.1,4.1,3.5,7.5,3.5s6.3-1.4,7.4-3.5C51.4,83.2,51.3,83.1,51.3,83z"/>
<path style="fill:#129F49;" d="M39.8,85.6c0,0,1.7,0.9,4.3,0.9l0.2,3.5c0,0-0.4,0.6-0.9,0c0.1,0.2-0.1-3.1-0.1-3.1s-0.5,0.3-1.3,0
	c0,0,0.2,1.7,0,1.7c0,0-0.6,0.6-0.7-0.3l-0.1-1.6l-1-0.5l-0.3,3.6c0,0-0.5,0.8-0.9-0.2l0.4-4.1L39.8,85.6z"/>
<path style="fill:#129F49;" d="M46.7,86.2c0,0-0.3,0-0.1,0.4l0.3,1.1c0,0,0.5,0.2,0.4-0.2l-0.2-1.1c0,0,0,0.2,0.5-0.1l0.7,2
	c0,0,0.6,0.4,0.5-0.2l-0.8-2c0,0,0.1-0.4-0.2-0.4L46.7,86.2"/>
<path style="fill:#129F49;" d="M41.7,75.8l0.2,2.9c0,0,0.5,0.6,0.8-0.1l-0.4-2.8C42.4,75.7,42.3,75.6,41.7,75.8z"/>
<path style="fill:#129F49;" d="M42.3,75.6c0,0,0.5-0.1,0.8-0.1c0.2,0,0.3,0,0.3,0c0,0,0,0.3,0,0.3s-0.7,0-0.9,0.1L42.3,75.6z"/>
<path style="fill:#129F49;" d="M42.8,76c0,0-0.2,1.6,0.5,1.5c0,0,0.3,0.3,0-1.6C43.3,75.9,42.8,75.6,42.8,76z"/>
<path style="fill:#129F49;" d="M47.3,76c0,0,0.5,0.1,0.7,0.2l-0.7,3.7c0,0-1,0.3-0.6-0.8L47.3,76z"/>
<path style="fill:#129F49;" d="M46.4,75.8c0,0-0.6,1.5,0,1.6c0.6,0.2,0.4-1.1,0.4-1.1l0.4-0.3L46.4,75.8z"/>
<path style="opacity:0.13;" d="M36.8,83.1c0,0,2-3.4,7.1-3.3c0,0,4.8-0.1,7.4,3.2l-0.7,1c0,0-6.2-5.8-13,0L36.8,83.1z"/>
<path style="fill:none;stroke:#54B848;" d="M33.6,86.2c0-0.2,0.5-0.3,0.7-0.4c0.1,0.4-0.2,0.6-0.6,0.5c0-0.2,0-0.3,0.1-0.4"/>
<path style="fill:none;stroke:#54B848;" d="M36,93.6c-0.1,0.1-0.1,0.2-0.1,0.4c0.2,0,0.4-0.1,0.3-0.4c-0.1,0-0.1,0-0.1,0"/>
<path style="fill:#129F49;" d="M43.6,48.2c0,0-1.6-0.4-1-5.9c0.1-1.7-1.6-4.2-2.2-4.8C39.8,37,42.9,39,42.9,39l-0.8-2.2
	c0,0,6.6,5.6,8.3,6.7c0,0-1,0.3-2.2-0.8c0,0-1.2,0.6,1.3,3.3c0,0,0,0.4-0.4,0c0,0-2.6-2.4-3.1-1.7c0,0-0.7,0.5,0.2,2.7
	c0,0,0,0.4-0.4,0c0,0-1-1.7-1.6-1.7C44.3,45.6,43.2,45.5,43.6,48.2z"/>
<path d="M43.6,48.2c0,0,0.3,4.3,6.7,5.9c0,0,1.9,0.7,3-1.9c0,0,1.3-5.2-3-8.6c0,0-0.6,0.4-2.2-0.8c0,0-1.2,0.7,1.3,3.3
	c0,0,0,0.4-0.3,0.1c0,0-2.6-2.5-3.2-1.7c-0.1,0.1-0.7,0.7,0.2,2.7c0,0,0.1,0.3-0.4,0c0,0-1.8-3.2-2.3-0.8
	C43.6,46.5,43.3,47,43.6,48.2z"/>
<linearGradient id="SVGID_26_" gradientUnits="userSpaceOnUse" x1="53.6792" y1="63.2012" x2="60.9641" y2="58.9952">
	<stop  offset="0" style="stop-color:#929292"/>
	<stop  offset="0.1394" style="stop-color:#F0F0F0"/>
	<stop  offset="0.297" style="stop-color:#767676"/>
	<stop  offset="0.5636" style="stop-color:#E6E6E6"/>
	<stop  offset="0.9818" style="stop-color:#9F9F9F"/>
</linearGradient>
<path style="fill:url(#SVGID_26_);" d="M50.4,54.5l7.6,16.1c0,0,6.1,0.5,7.1-4.6L53.6,51.7C53.6,51.7,53.6,53.6,50.4,54.5z"/>
<linearGradient id="SVGID_27_" gradientUnits="userSpaceOnUse" x1="67.8589" y1="87.7612" x2="75.1438" y2="83.5553">
	<stop  offset="0" style="stop-color:#BC7D2A"/>
	<stop  offset="0.5636" style="stop-color:#FDC13E"/>
	<stop  offset="0.7758" style="stop-color:#DC8726"/>
</linearGradient>
<path style="fill:url(#SVGID_27_);" d="M57.9,70.6l22.4,32.2c0,0,2.3,1.3,2.8-1.6L65,66C65,66,64.4,70.7,57.9,70.6z"/>
<path style="fill:#919295;" d="M53.5,59.9c-0.4,0-0.7,0-0.7,0l0.1-0.3c0.1,0,3.4,0.6,4.7-2.8l0.3,0.1C56.9,59.6,54.6,59.9,53.5,59.9
	L53.5,59.9z"/>
<path style="fill:#FFFFFF;" d="M53.6,60.1c-0.4,0-0.7,0-0.7,0l0.1-0.3c0.1,0,3.4,0.6,4.7-2.8l0.3,0.1C57,59.8,54.8,60.1,53.6,60.1
	L53.6,60.1z"/>
<path style="fill:#919295;" d="M55.2,63c-0.5,0-0.7-0.1-0.8-0.1l0.1-0.4c0.2,0,3.8,0.7,5.1-3l0.3,0.1C58.9,62.6,56.4,63,55.2,63
	L55.2,63z"/>
<path style="fill:#FFFFFF;" d="M55.3,63.2c-0.5,0-0.7-0.1-0.8-0.1l0.1-0.3c0.2,0,3.8,0.7,5.1-3l0.3,0.1C59,62.8,56.6,63.2,55.3,63.2
	L55.3,63.2z"/>
<path style="fill:#919295;" d="M57.4,67.5c-0.5,0-0.9-0.1-0.9-0.1l0.1-0.4c0.2,0,4.6,0.8,6.2-3.5l0.4,0.1
	C61.9,67.1,58.9,67.5,57.4,67.5L57.4,67.5z"/>
<path style="fill:#FFFFFF;" d="M57.5,67.7c-0.5,0-0.9-0.1-0.9-0.1l0.1-0.4c0.2,0,4.6,0.8,6.2-3.5l0.4,0.1
	C62.1,67.3,59.1,67.7,57.5,67.7L57.5,67.7z"/>
<path style="opacity:0.76;fill:#FFFFFF;" d="M50.4,53.5c0,0-5.5-2-5.8-6c0,0,1.2,3.5,5.8,5.7"/>
<path style="opacity:0.76;fill:#FFFFFF;" d="M47,46.5c0,0-2.2,5,4.7,6.4C51.7,52.9,46.8,49.9,47,46.5z"/>
<path style="fill:#FFFFFF;" d="M50.4,43.9c0,0,2.2,2.6,3.2,7.5C53.6,51.7,51,44.3,50.4,43.9z"/>
<path style="opacity:0.76;fill:#FFFFFF;" d="M49.2,44.5c0,0,3.1,4.3,2.8,7.7C52,51.8,49.2,44.5,49.2,44.5z"/>
<linearGradient id="SVGID_28_" gradientUnits="userSpaceOnUse" x1="-1580.0601" y1="1473.3257" x2="-1568.3322" y2="1468.5873" gradientTransform="matrix(0.5049 0.8632 -0.8632 0.5049 2145.2646 683.5278)">
	<stop  offset="0" style="stop-color:#929292"/>
	<stop  offset="0.1394" style="stop-color:#F0F0F0"/>
	<stop  offset="0.297" style="stop-color:#767676"/>
	<stop  offset="0.5636" style="stop-color:#E6E6E6"/>
	<stop  offset="0.9818" style="stop-color:#9F9F9F"/>
</linearGradient>
<path style="fill:url(#SVGID_28_);" d="M81.4,56.2c0,0-4.7,6.4-5,7.6c0,0-0.9-0.8-1.6,2.2c0,0-1.4-0.4-1.4,2.4c0,0-1-1.1-1.9,1.4
	c0,0,1.7,5.8,7.8,6.7c0,0,2.6-2.1,1.3-2.1c0,0,2.8-1.3,2.1-1.9c0,0,2.4-1.5,1.6-1.7l6.8-6.5C91.1,64.3,82.9,58.5,81.4,56.2z"/>
<linearGradient id="SVGID_29_" gradientUnits="userSpaceOnUse" x1="-1557.9985" y1="1427.6362" x2="-1548.2212" y2="1424.4594" gradientTransform="matrix(0.5359 0.8443 -0.8443 0.5359 2099.3865 635.495)">
	<stop  offset="0" style="stop-color:#BC7D2A"/>
	<stop  offset="0.5636" style="stop-color:#FDC13E"/>
	<stop  offset="0.7758" style="stop-color:#DC8726"/>
</linearGradient>
<path style="fill:url(#SVGID_29_);" d="M71.6,70l-22.8,31c0,0,0.9,4.2,4.8,3.3l26-27.9C79.6,76.4,74.2,76.2,71.6,70z"/>
<path style="fill:#020202;" d="M91.2,45.1c0,0-8.6,7-9.4,11.3c0,0,7.7,6.9,9.6,7.5c0,0,7.8-7.9,8.3-11.3l-1-0.6l0.2-0.7l-0.8,0
	l-0.4-0.4l-0.2-0.2l-0.4-0.5c0,0-0.8,0.4-1,0.2c-0.2-0.2-0.4-0.4-0.4-0.6c0-0.2,0-0.2,0-0.2s-0.1-0.6-0.3-0.7
	c-0.2-0.1,0.4,0-0.2-0.1c-0.6-0.1-1-0.6-1-0.6s0.2-0.1-0.1-0.2c-0.2-0.1-0.4,0.4-0.6-0.2s-0.2-0.3-0.3-0.6C93.2,47,93.2,47,93.2,47
	l-0.4-0.3l-0.2-0.8l-0.3-0.2c0,0,0,0.2-0.3-0.1c-0.3-0.3-0.3-0.3-0.3-0.3L91.2,45.1z"/>
<path style="fill:none;stroke:#000000;" d="M91.7,63.7c0.1,0.5-0.5,0.3-0.5,0.3c-12.6-8.8-9.2-8-9.2-8"/>
<path style="fill:#ACACAC;" d="M77.1,65.3c-0.5-0.9-0.8-1.5-0.8-1.5l0.2-0.1c0,0.1,2.4,6.1,7.9,6.9l0,0.2
	C80.5,70.2,78.2,67.2,77.1,65.3L77.1,65.3z"/>
<linearGradient id="SVGID_30_" gradientUnits="userSpaceOnUse" x1="-1574.2031" y1="1472.186" x2="-1572.9335" y2="1476.1666" gradientTransform="matrix(0.5049 0.8632 -0.8632 0.5049 2145.2646 683.5278)">
	<stop  offset="0" style="stop-color:#FFFFFF"/>
	<stop  offset="0.5879" style="stop-color:#000000"/>
	<stop  offset="1" style="stop-color:#FFFFFF"/>
</linearGradient>
<path style="fill:url(#SVGID_30_);" d="M76.9,65.4c-0.5-0.9-0.8-1.5-0.8-1.5l0.2-0.1c0,0.1,2.4,6.1,7.9,6.9l0,0.2
	C80.4,70.3,78,67.3,76.9,65.4L76.9,65.4z"/>
<path style="fill:#ACACAC;" d="M75.6,67.2c-0.5-0.9-0.8-1.5-0.8-1.5l0.2-0.1c0,0.1,2.4,6.1,7.9,6.9l0,0.2
	C79.1,72.2,76.7,69.1,75.6,67.2L75.6,67.2z"/>
<linearGradient id="SVGID_31_" gradientUnits="userSpaceOnUse" x1="-1573.2886" y1="1474.4429" x2="-1572.0205" y2="1478.4186" gradientTransform="matrix(0.5049 0.8632 -0.8632 0.5049 2145.2646 683.5278)">
	<stop  offset="0" style="stop-color:#FFFFFF"/>
	<stop  offset="0.5879" style="stop-color:#000000"/>
	<stop  offset="1" style="stop-color:#FFFFFF"/>
</linearGradient>
<path style="fill:url(#SVGID_31_);" d="M75.5,67.3c-0.5-0.9-0.8-1.5-0.8-1.5l0.2-0.1c0,0.1,2.4,6.1,7.9,6.9l0,0.2
	C78.9,72.2,76.6,69.2,75.5,67.3L75.5,67.3z"/>
<path style="fill:#ACACAC;" d="M74.2,69.4c-0.5-0.8-0.7-1.4-0.7-1.4l0.2-0.1c0,0.1,2.2,5.7,7.5,6.3l0,0.2
	C77.4,74,75.2,71.2,74.2,69.4L74.2,69.4z"/>
<linearGradient id="SVGID_32_" gradientUnits="userSpaceOnUse" x1="-1572.3848" y1="1476.7632" x2="-1571.0424" y2="1480.9718" gradientTransform="matrix(0.5049 0.8632 -0.8632 0.5049 2145.2646 683.5278)">
	<stop  offset="0" style="stop-color:#FFFFFF"/>
	<stop  offset="0.5879" style="stop-color:#000000"/>
	<stop  offset="1" style="stop-color:#FFFFFF"/>
</linearGradient>
<path style="fill:url(#SVGID_32_);" d="M74,69.5c-0.5-0.8-0.7-1.4-0.7-1.4l0.2-0.1c0,0.1,2.2,5.7,7.5,6.3l0,0.2
	C77.2,74.1,75,71.2,74,69.5L74,69.5z"/>
<rect x="64.2" y="18.6" transform="matrix(-0.6868 0.7268 -0.7268 -0.6868 130.2758 -11.9346)" style="fill:#FFF200;stroke:#000000;stroke-miterlimit:10;" width="7" height="7"/>
<rect x="107.3" y="65.6" style="fill:#1C12E0;stroke:#000000;stroke-miterlimit:10;" width="8" height="8"/>
<rect x="64.3" y="107.6" style="fill:#070000;stroke:#000000;stroke-miterlimit:10;" width="8" height="9"/>
</svg>
