<?xml version="1.0" encoding="utf-8"?>
<!-- Generator: Adobe Illustrator 16.0.0, SVG Export Plug-In . SVG Version: 6.00 Build 0)  -->
<!DOCTYPE svg PUBLIC "-//W3C//DTD SVG 1.1//EN" "http://www.w3.org/Graphics/SVG/1.1/DTD/svg11.dtd">
<svg version="1.1" id="Layer_1" xmlns="http://www.w3.org/2000/svg" xmlns:xlink="http://www.w3.org/1999/xlink" x="0px" y="0px"
	 width="105.1px" height="105.1px" viewBox="0 0 105.1 105.1" style="enable-background:new 0 0 105.1 105.1;" xml:space="preserve"
	>
<circle style="fill:#FFFFFF;" cx="52.6" cy="52.6" r="52.6"/>
<circle style="fill:#F9F68C;" cx="52.5" cy="52.9" r="45.6"/>
<circle style="fill:#DDDD33;" cx="52.5" cy="51.9" r="45.2"/>
<path style="fill-rule:evenodd;clip-rule:evenodd;fill:#E5A229;" d="M26,28.8c17.8,0,35.6,0,53.4,0c-0.1,1.3-0.2,2.5-0.3,3.8
	c-0.3,3.5-0.6,7-0.9,10.4c-0.3,3.9-0.7,7.8-1,11.8c-0.3,3.3-0.6,6.6-0.8,10c-0.3,3.9-0.7,7.8-1,11.8c-0.2,2-0.4,4-0.5,6
	c0,0.5-0.2,0.7-0.6,0.8c-6.9,2-13.9,4-20.8,5.9c-0.4,0.1-0.8,0.1-1.2,0c-6.9-2-13.9-4-20.8-5.9c-0.5-0.1-0.7-0.4-0.8-0.9
	c-0.2-2.7-0.5-5.5-0.7-8.2c-0.3-3.3-0.6-6.7-0.9-10c-0.2-2.7-0.5-5.3-0.7-8c-0.3-3.4-0.6-6.8-0.9-10.2c-0.2-2.6-0.5-5.2-0.7-7.8
	c-0.3-2.9-0.5-5.8-0.8-8.7C26,29.3,26,29.1,26,28.8z M61.6,60.6c-0.2,2.7-0.5,5.2-0.7,7.7c0,0.6-0.3,0.7-0.8,0.9
	c-2.3,0.6-4.5,1.1-6.8,1.7c-0.4,0.1-0.8,0.1-1.2,0c-2.2-0.5-4.4-1.1-6.6-1.6c-0.4-0.1-0.6-0.3-0.6-0.7c-0.1-1.4-0.2-2.7-0.3-4.1
	c0-0.5-0.2-0.8-0.8-0.8c-1.7,0-3.3,0-5,0c-0.2,0-0.5,0-0.7,0.1c0,0.2,0,0.2,0,0.3c0.3,3.1,0.5,6.3,0.8,9.4c0.1,0.6,0.4,0.9,1,1
	c3.1,0.8,6.2,1.4,9.3,2.3c2.4,0.7,4.6,0.8,7,0.1c3.3-1,6.7-1.7,10-2.6c0.3-0.1,0.7-0.3,0.7-0.5c0.3-3.1,0.6-6.1,0.8-9.2
	c0.2-2.1,0.4-4.2,0.6-6.3c0.1-1.3,0.2-2.6,0.3-4.1c-8.4,0-16.7,0-25,0c-0.2-2.6-0.5-5.2-0.7-7.7c0.2,0,0.4-0.1,0.6-0.1
	c3,0,6.1,0,9.1,0c5.2,0,10.5,0,15.7,0c0.5,0,0.7-0.2,0.8-0.7c0.1-1,0.2-2.1,0.3-3.1c0.1-0.8,0.1-1.7,0.2-2.5c-11.2,0-22.4,0-33.6,0
	c0.6,6.9,1.2,13.7,1.8,20.5C45.7,60.6,53.6,60.6,61.6,60.6z"/>
<path style="fill-rule:evenodd;clip-rule:evenodd;fill:#FFFFFF;" d="M61.6,60.6c-8,0-15.9,0-23.8,0C37.2,53.8,36.6,47,36,40.1
	c11.2,0,22.4,0,33.6,0c-0.1,0.8-0.1,1.7-0.2,2.5c-0.1,1-0.2,2.1-0.3,3.1c0,0.5-0.2,0.7-0.8,0.7c-5.2,0-10.5,0-15.7,0
	c-3,0-6.1,0-9.1,0c-0.2,0-0.4,0-0.6,0.1c0.2,2.6,0.4,5.1,0.7,7.7c8.3,0,16.6,0,25,0c-0.1,1.4-0.2,2.8-0.3,4.1
	c-0.2,2.1-0.4,4.2-0.6,6.3c-0.3,3.1-0.5,6.1-0.8,9.2c0,0.2-0.4,0.5-0.7,0.5c-3.3,0.9-6.7,1.6-10,2.6c-2.4,0.7-4.7,0.6-7-0.1
	c-3.1-0.9-6.2-1.6-9.3-2.3c-0.6-0.1-0.9-0.4-1-1c-0.3-3.1-0.5-6.3-0.8-9.4c0-0.1,0-0.2,0-0.3c0.2,0,0.4-0.1,0.7-0.1c1.7,0,3.3,0,5,0
	c0.6,0,0.8,0.2,0.8,0.8c0.1,1.4,0.2,2.7,0.3,4.1c0,0.4,0.2,0.6,0.6,0.7c2.2,0.5,4.4,1.1,6.6,1.6c0.4,0.1,0.8,0.1,1.2,0
	c2.3-0.5,4.5-1.1,6.8-1.7c0.5-0.1,0.8-0.3,0.8-0.9C61.1,65.8,61.4,63.3,61.6,60.6z"/>
<polygon style="opacity:0.2;fill-rule:evenodd;clip-rule:evenodd;fill:#FFFFFF;" points="72.1,79.3 53.6,84.9 53.6,33 75.9,33 "/>
<path style="fill-rule:evenodd;clip-rule:evenodd;" d="M55.1,22c1-0.1,1.8-0.2,2.8-0.3c-1.1-1.4-2.2-2.5-2.9-3.8
	c-0.4-0.8-0.1-1.9-0.1-3c3,0,5.7,0,8.6,0c0,1.1,0,2.1,0,3.4c-0.9,0.1-1.7,0.2-3,0.4c1.4,2.1,4.4,3.3,2.8,6.5c-2.6,0-5.3,0-8.2,0
	C55.1,24.1,55.1,23.2,55.1,22z"/>
<path style="fill-rule:evenodd;clip-rule:evenodd;" d="M42.6,25.1c0-1.2,0-2.2,0-3.4c1.6,0,3.2,0,5,0c0-2.4,0-4.6,0-7
	c1.3,0,2.3,0,3.4,0c0,3.5,0,6.8,0,10.4C48.3,25.1,45.6,25.1,42.6,25.1z"/>
</svg>
