<?xml version="1.0" encoding="utf-8"?>
<!-- Generator: Adobe Illustrator 16.0.0, SVG Export Plug-In . SVG Version: 6.00 Build 0)  -->
<!DOCTYPE svg PUBLIC "-//W3C//DTD SVG 1.1//EN" "http://www.w3.org/Graphics/SVG/1.1/DTD/svg11.dtd">
<svg version="1.1" id="Layer_1" xmlns="http://www.w3.org/2000/svg" xmlns:xlink="http://www.w3.org/1999/xlink" x="0px" y="0px"
	 width="98.2px" height="98.1px" viewBox="0 0 98.2 98.1" style="enable-background:new 0 0 98.2 98.1;" xml:space="preserve">
<path style="fill:#FFFFFF;" d="M61.6,96.5c-26.2,6.9-53.1-8.7-60-34.9c-6.9-26.2,8.7-53,34.9-60c26.2-6.9,53.1,8.7,60,34.9
	C103.5,62.7,87.8,89.6,61.6,96.5z"/>
<path style="fill:#E4F1FE;" d="M59.6,89.9C37.2,95.8,14.2,82.4,8.3,60C2.3,37.6,15.7,14.6,38.1,8.7c22.4-5.9,45.4,7.5,51.3,29.9
	C95.4,61,82,84,59.6,89.9z"/>
<circle style="fill:#3A539B;" cx="48.4" cy="48.5" r="41.5"/>
<path style="fill-rule:evenodd;clip-rule:evenodd;fill:#323232;" d="M35.2,28.6c-5,4.7-6.2,11.2-3,17.5c3.9,7.5,10.8,11.8,20.1,10.5
	c5.3-0.8,10.7-5.2,11.3-9.1c-6.2,6.6-15.6,5.3-20.7,2.1C35.3,44.7,32.7,38,35.2,28.6z M44,25.3c-4,4.7-4.7,9.2-2.2,13.7
	c2.8,5.2,8.3,8,14.1,7.2c4.4-0.6,7.8-3.3,8.6-6.9c-6.9,4.6-10.6,4.8-16.1,1C43.5,36.8,42.1,32.3,44,25.3z M37.4,66.2
	c0.3-1,0.7-1.9,1-2.8c1-3.1,0.3-5.4-1.9-6.6c-2.4-1.3-6-0.8-7.8,1.3c-1.8,2-2.4,4.4-2.4,6.9c0,2.5,1.5,4.1,3.8,4.2
	c2.6,0.1,5.2,0,7.9,0C38.1,68,39.5,66.8,37.4,66.2z M52.7,65.1c1.6,0,3.3,0,4.9,0c0.5,0,1.1-0.1,1.4-0.4c1.6-1.6,0.4-5.4-1.9-5.9
	c-4.6-1.1-7.9,2.1-7.7,7.3c0.1,1.7,0.9,2.8,2.6,3c2,0.2,4,0,6.1,0c0.2-0.9,0.3-1.6,0.4-2.3C56.7,65.7,54.2,67.5,52.7,65.1z
	 M49.8,59.1c-2.6-0.6-2.8-0.6-3.3,1.8c-0.3,1.4-0.7,2.8-0.9,4.3c-0.2,1.5-1.2,1.5-2.1,1.2c-0.5-0.2-0.9-1.2-0.9-1.7
	c0.2-1.9,0.7-3.7,1.1-5.8c-1.3,0.2-2.7-0.9-3.1,1c-0.5,2-0.9,4-1.1,6c-0.2,2.1,0.9,3.2,3,3.3c1.3,0.1,2.6,0.1,4,0
	c0.5-0.1,1.3-0.5,1.4-1C48.6,65.2,49.2,62.2,49.8,59.1z M68.3,69.4c0.8-0.3,2.2-0.3,2.8-1c1.4-1.7,2.3-3.8,3.5-5.6
	c1.2-1.8,2.5-3.4,3.9-5.2c-2.5-0.7-4.1-0.1-5.2,2c-0.6,1.3-1.6,2.4-2.4,3.5c0-0.2-0.1-0.5-0.1-0.7c-1.2-0.2-2.4-0.3-3.5-0.4
	C67.7,64.5,68,66.7,68.3,69.4z M51.1,23.9c-2.4,1.9-3,5-1.8,7.9c1.5,3.4,5.3,5.6,9.2,5.1c2.5-0.3,4.4-1.9,4.7-3.8
	c-3.3,2.1-6.3,2.1-9.2,0C51,30.8,49.6,27.9,51.1,23.9z M70.1,61.6c0.1-1.8-0.6-2.7-2.3-2.7c-1.7,0-3.4-0.1-5.1,0
	c-0.4,0-1.1,0.5-1.2,0.9c-0.7,3-1.3,6.1-2,9.2c2.8,0.6,2.9,0.5,3.4-2c0.4-1.7,0.7-3.4,1.1-5.4C66.1,61.6,68.1,61.6,70.1,61.6z
	 M18.1,73.2c1.9,0,4.1,0.7,4.8-1.3c1.2-3.1,1.8-6.4,2.7-9.6c-2.5-0.7-3.6-0.2-3.8,2c-0.1,1.4-0.5,2.8-0.9,4.2
	c-0.2,0.7-0.6,1.7-1,1.8C18.1,70.5,18.3,71.8,18.1,73.2z M22.7,61.2c2.7,0.8,3.1,0.5,3.3-2.2C23.2,58.5,23.1,58.5,22.7,61.2z"/>
<path style="fill-rule:evenodd;clip-rule:evenodd;fill:#F9F9F9;" d="M35.2,28.6c-2.5,9.4,0,16.1,7.8,21c5.1,3.2,14.4,4.5,20.7-2.1
	c-0.5,3.9-5.9,8.3-11.3,9.1c-9.3,1.3-16.2-3-20.1-10.5C29,39.8,30.2,33.2,35.2,28.6z"/>
<path style="fill-rule:evenodd;clip-rule:evenodd;fill:#F9F9F9;" d="M44,25.3c-1.8,7-0.5,11.5,4.4,14.9c5.5,3.9,9.2,3.6,16.1-1
	c-0.9,3.6-4.2,6.3-8.6,6.9c-5.7,0.8-11.2-2-14.1-7.2C39.3,34.5,39.9,30,44,25.3z"/>
<path style="fill-rule:evenodd;clip-rule:evenodd;fill:#FFFFFF;" d="M37.4,66.2c2.1,0.6,0.7,1.8,0.6,3c-2.7,0-5.3,0.1-7.9,0
	c-2.3-0.1-3.8-1.7-3.8-4.2c0-2.5,0.7-5,2.4-6.9c1.8-2,5.4-2.6,7.8-1.3c2.1,1.2,2.8,3.5,1.9,6.6C38.1,64.3,37.7,65.2,37.4,66.2z"/>
<path style="fill-rule:evenodd;clip-rule:evenodd;fill:#FCFCFC;" d="M52.7,65.1c1.5,2.3,4,0.6,5.8,1.7c-0.1,0.7-0.3,1.5-0.4,2.3
	c-2.1,0-4.1,0.1-6.1,0c-1.6-0.2-2.5-1.2-2.6-3c-0.2-5.2,3.2-8.4,7.7-7.3c2.2,0.5,3.4,4.3,1.9,5.9c-0.3,0.3-0.9,0.4-1.4,0.4
	C56,65.2,54.3,65.1,52.7,65.1z"/>
<path style="fill-rule:evenodd;clip-rule:evenodd;fill:#F8F8F8;" d="M49.8,59.1c-0.6,3-1.2,6.1-2,9.1c-0.1,0.4-0.9,0.9-1.4,1
	c-1.3,0.1-2.6,0.1-4,0c-2.1-0.1-3.2-1.2-3-3.3c0.2-2,0.6-4,1.1-6c0.4-1.9,1.9-0.8,3.1-1c-0.4,2.1-0.9,3.9-1.1,5.8
	c-0.1,0.6,0.4,1.6,0.9,1.7c0.9,0.3,1.9,0.3,2.1-1.2c0.2-1.4,0.6-2.8,0.9-4.3C47,58.6,47.2,58.5,49.8,59.1z"/>
<path style="fill-rule:evenodd;clip-rule:evenodd;fill:#F7F8F9;" d="M68.3,69.4c-0.3-2.7-0.6-4.9-1-7.4c1.2,0.1,2.3,0.3,3.5,0.4
	c0,0.2,0.1,0.5,0.1,0.7c0.8-1.2,1.7-2.3,2.4-3.5c1.1-2.1,2.7-2.7,5.2-2c-1.3,1.8-2.7,3.5-3.9,5.2c-1.2,1.8-2.1,3.9-3.5,5.6
	C70.6,69.1,69.1,69.1,68.3,69.4z"/>
<path style="fill-rule:evenodd;clip-rule:evenodd;fill:#F9F9F9;" d="M51.1,23.9c-1.4,3.9-0.1,6.9,3,9.2c2.9,2.2,5.9,2.1,9.2,0
	c-0.3,1.9-2.2,3.5-4.7,3.8c-3.8,0.5-7.7-1.7-9.2-5.1C48.1,28.9,48.7,25.8,51.1,23.9z"/>
<path style="fill-rule:evenodd;clip-rule:evenodd;fill:#F7F8F9;" d="M70.1,61.6c-2,0-4,0-6.1,0c-0.4,1.9-0.8,3.6-1.1,5.4
	c-0.5,2.5-0.6,2.6-3.4,2c0.6-3.1,1.3-6.1,2-9.2c0.1-0.4,0.8-0.8,1.2-0.9c1.7-0.1,3.4,0,5.1,0C69.5,58.8,70.1,59.7,70.1,61.6z"/>
<path style="fill-rule:evenodd;clip-rule:evenodd;fill:#FBFBFB;" d="M18.1,73.2c0.2-1.4,0-2.7,1.8-2.9c0.4-0.1,0.8-1.1,1-1.8
	c0.4-1.4,0.7-2.8,0.9-4.2c0.2-2.2,1.3-2.8,3.8-2c-0.9,3.2-1.5,6.5-2.7,9.6C22.2,73.9,20,73.2,18.1,73.2z"/>
<path style="fill-rule:evenodd;clip-rule:evenodd;fill:#FBFBFB;" d="M22.7,61.2c0.4-2.7,0.5-2.7,3.3-2.2
	C25.8,61.7,25.4,62,22.7,61.2z"/>
<path style="fill-rule:evenodd;clip-rule:evenodd;fill:#3A539B;" d="M32.5,66.3c1.4,0.4,2.1-0.4,2.3-1.9c0.2-0.9,0.5-1.8,0.7-2.7
	c0.4-2.1-1.1-3.4-3.2-2.7c-2.1,0.8-2.4,2.6-2.6,4.5C29.5,65.8,30.1,66.3,32.5,66.3z"/>
<path style="fill-rule:evenodd;clip-rule:evenodd;fill:#3A539B;" d="M53.4,62.7c1-0.1,2-0.1,3.5-0.2C55.3,60.8,54.3,61.2,53.4,62.7z
	"/>
</svg>
