<?xml version="1.0" encoding="utf-8"?>
<!-- Generator: Adobe Illustrator 16.0.0, SVG Export Plug-In . SVG Version: 6.00 Build 0)  -->
<!DOCTYPE svg PUBLIC "-//W3C//DTD SVG 1.1//EN" "http://www.w3.org/Graphics/SVG/1.1/DTD/svg11.dtd">
<svg version="1.1" id="Layer_1" xmlns="http://www.w3.org/2000/svg" xmlns:xlink="http://www.w3.org/1999/xlink" x="0px" y="0px"
	 width="78.8px" height="78.8px" viewBox="0 0 78.8 78.8" style="enable-background:new 0 0 78.8 78.8;" xml:space="preserve">
<circle style="fill:#FFFFFF;" cx="39.4" cy="39.4" r="39.4"/>
<circle style="fill:#F7F5F7;" cx="39.4" cy="39.7" r="35"/>
<circle style="fill:#ECECEC;" cx="39.3" cy="38.9" r="33.9"/>
<path style="fill-rule:evenodd;clip-rule:evenodd;fill:#00618B;" d="M43.7,25.1c0.9,0.4,1.8,0.9,2.7,1.2c2.9,0.9,4.8,2.9,6.1,5.5
	c0.2,0.4,0.3,0.8,0.5,1.2c0.6,1.4,1.2,2.7,2.9,3.3c0.9,0.3,1.7,1.2,2.8,2.1c-1.1,0.3-1.8,0.5-2.7,0.7c1,0.8,1.9,1.6,2.7,2.3
	c-1.4-0.7-3.2-0.9-3.9-2.8c0.8-0.2,1.6-0.4,2.7-0.6c-1-0.6-1.8-1.2-2.7-1.5c-1-0.3-1.5-0.9-1.9-1.8c-0.5-1.1-0.9-2.3-1.6-3.4
	c-1.4-2.3-3.2-4-6.1-4.4c-0.4,0-0.7-0.4-1.1-0.5c-0.5-0.2-1.1-0.4-1.9-0.7c0.9,2,1.7,3.6,2.5,5.2c0.2,0.5,0.4,1.2,0.2,1.7
	c-0.3,1.4-0.3,2.6,0.5,4c0.3-0.9,0.6-1.7,1-2.7c0.8,1.4,1.4,2.5,2,3.7c-0.1,0-0.1,0.1-0.2,0.1c-0.5-0.6-1.1-1.2-1.5-1.7
	c-0.3,0.4-0.7,0.8-1,1.2c-0.4-0.4-1-0.8-1.2-1.4c-0.3-0.7-0.4-1.6-0.3-2.3c0.6-2.5-0.8-4.3-1.9-6.2c-0.4-0.8-1-1.5-0.1-2.3
	C42.8,25.1,43.3,25.1,43.7,25.1z"/>
<path style="fill-rule:evenodd;clip-rule:evenodd;fill:#00618B;" d="M24.8,49c-0.1-0.9,0.4-1.2,1.3-1.1c1.1,0.1,2.2,0.1,3.3,0
	c0.4,0,0.8-0.4,1.2-0.6c-0.1-0.2-0.1-0.4-0.2-0.6c-0.9,0-1.9,0-2.8,0c-2.4,0-2.8-0.4-2.8-2.8c0-0.6,0-1.2,0-1.9c0.5,0,1,0,1.6,0
	c0,0.9-0.1,1.8,0,2.7c0.1,0.4,0.5,1,0.9,1.1c1,0.1,2.1,0.1,3.3,0.1c0-0.8,0-1.4,0-2.1c0-0.6,0-1.2,0-1.8c0.5,0,0.9,0,1.3,0
	c0,0.1,0.1,0.3,0.1,0.5c0,1.3-0.1,2.6,0,3.9c0.2,1.4-0.4,2.3-1.7,2.7C28.5,49,26.7,49,24.8,49z"/>
<path style="fill-rule:evenodd;clip-rule:evenodd;" d="M59.3,46.2c0-0.3,0-0.6,0-0.8C59.3,45.6,59.3,45.9,59.3,46.2z"/>
<path style="fill-rule:evenodd;clip-rule:evenodd;fill:#00618B;" d="M18.3,45.6c0.7-1.6,1.4-3,2-4.4c0.4-1,0.9-1.8,2.2-1.6
	c1.3,0.3,1.1,1.3,1.1,2.2c0,1.6,0,3.2,0,4.9c-0.6,0-1,0-1.6,0c0-0.9,0-1.7,0-2.6c0-0.9,0-1.7,0-2.6c-0.1,0-0.2,0-0.3,0
	c-0.6,1.4-1.2,2.9-2,4.2c-0.3,0.5-1,1.1-1.5,1c-0.5,0-1.2-0.6-1.5-1.1c-0.8-1.3-1.3-2.8-2.2-4.1c0,1.7,0,3.4,0,5.1
	c-0.5,0-0.9,0-1.3,0.1c-0.1-0.2-0.2-0.3-0.2-0.4c0-1.7,0-3.4,0-5.1c0-0.8,0.2-1.3,1.1-1.5c1-0.2,1.6,0.1,2,1
	C16.9,42.2,17.5,43.8,18.3,45.6z"/>
<path style="fill-rule:evenodd;clip-rule:evenodd;fill:#E58E00;" d="M48.1,47c0.1,0.1,0.5,0.3,0.9,0.5c-0.1,0.1-0.1,0.3-0.2,0.4
	c-0.5-0.1-1.3,0.1-1.6-0.2c-1-1-2.2-0.8-3.3-0.8c-2.6,0-2.9-0.4-2.9-3c0-0.3,0-0.6,0-1c0-2.6,0.4-3,3.1-3c5.4-0.1,4.5,0.6,4.5,4.5
	C48.5,45.1,48.3,45.8,48.1,47z M44.7,45.7c-0.2-0.3-0.3-0.6-0.7-1.3c1.2,0.4,2.1,0.7,3.1,1.1c0-1.3,0-2.5,0-3.8
	c0-0.3-0.5-0.7-0.8-0.8c-3-0.7-3.7-0.1-3.7,2.9c0,0.1,0,0.2,0,0.3C42.7,45.7,43,45.9,44.7,45.7z"/>
<path style="fill-rule:evenodd;clip-rule:evenodd;fill:#E58E00;" d="M40.2,40.3c-0.3,0.2-0.6,0.5-1,0.5c-1.1,0.1-2.2,0-3.3,0.1
	c-0.4,0-0.7,0.6-1.1,0.9c0.3,0.3,0.6,0.9,1,1c0.7,0.2,1.6,0.1,2.3,0.1c1.1,0.1,1.9,0.6,1.9,1.9c0,1.4-0.8,1.9-2,2
	c-1.6,0.1-3.1,0-4.7,0c-0.1-0.1-0.1-0.3-0.2-0.4c0.3-0.2,0.6-0.6,0.9-0.6c1.1-0.1,2.1,0,3.2,0c0.7,0,1.3-0.2,1.1-1
	c-0.1-0.4-0.7-0.8-1.1-1c-0.6-0.2-1.3,0-1.9-0.1c-1.6-0.1-2-0.6-2-2c0-1.3,0.6-1.8,2.2-1.9c1.5,0,2.9,0,4.4,0
	C40,40,40.1,40.1,40.2,40.3z"/>
<path style="fill-rule:evenodd;clip-rule:evenodd;fill:#E58E00;" d="M56.1,46.7c-1.6,0-3.1,0.1-4.7,0c-1.2-0.1-1.9-0.7-1.9-2.1
	c0.1-1.6,0-3.1,0-4.8c0.5,0,0.9,0,1.3-0.1c0.1,0.2,0.2,0.3,0.2,0.4c0,1.3,0.1,2.7,0,4c0,1,0.3,1.5,1.4,1.5c1-0.1,1.9-0.1,2.9,0
	c0.3,0,0.7,0.3,1,0.5C56.3,46.4,56.2,46.6,56.1,46.7z"/>
<polygon style="fill-rule:evenodd;clip-rule:evenodd;" points="58.6,45.6 58.6,45.5 58.7,45.5 "/>
</svg>
