<?xml version="1.0" encoding="utf-8"?>
<!-- Generator: Adobe Illustrator 16.0.0, SVG Export Plug-In . SVG Version: 6.00 Build 0)  -->
<!DOCTYPE svg PUBLIC "-//W3C//DTD SVG 1.1//EN" "http://www.w3.org/Graphics/SVG/1.1/DTD/svg11.dtd">
<svg version="1.1" id="Layer_1" xmlns="http://www.w3.org/2000/svg" xmlns:xlink="http://www.w3.org/1999/xlink" x="0px" y="0px"
	 width="75.1px" height="75.1px" viewBox="0 0 75.1 75.1" style="enable-background:new 0 0 75.1 75.1;" xml:space="preserve">
<circle style="fill:#64D896;" cx="37.5" cy="37.8" r="33.5"/>
<circle style="fill:#FFFFFF;" cx="37.6" cy="37.6" r="37.6"/>
<circle style="fill:#1E824C;" cx="37.5" cy="37.1" r="32.3"/>
<g>
	<polygon style="fill-rule:evenodd;clip-rule:evenodd;fill:#9FCD47;" points="19.4,27.6 37,17.4 54.7,27.6 54.7,48 37,58.2 19.4,48 
			"/>
	<g>
		<path style="fill-rule:evenodd;clip-rule:evenodd;" d="M26.3,40.5c0-2.2,0-4.4,0-6.6c0-0.9,0.3-1.6,1.1-2c2.8-1.6,5.6-3.3,8.5-4.8
			c0.6-0.3,1.7-0.3,2.3,0c2.9,1.6,5.7,3.2,8.5,5c0.5,0.3,1,1.2,1,1.8c0.1,4.6,0.1,9.1,0,13.7c0,1.4-0.4,1.6-1.6,0.9
			c-1.5-0.8-2.9-1.7-4.4-2.5c-1-0.5-1.3-1.2-1.3-2.2c0.1-1.9,0-3.7,0-5.6c0-1.8-3-3.4-4.6-2.7c-1.7,0.8-2.7,1.8-2.5,3.9
			c0.2,1.6,0.1,3.2-0.1,4.7c0,0.6-0.4,1.3-0.9,1.6c-1.6,1-3.3,2-4.9,2.9c-1,0.6-1.4,0.1-1.4-0.9C26.3,45.3,26.3,42.9,26.3,40.5z"/>
	</g>
</g>
</svg>
