<?xml version="1.0" encoding="utf-8"?>
<!-- Generator: Adobe Illustrator 16.0.0, SVG Export Plug-In . SVG Version: 6.00 Build 0)  -->
<!DOCTYPE svg PUBLIC "-//W3C//DTD SVG 1.1//EN" "http://www.w3.org/Graphics/SVG/1.1/DTD/svg11.dtd">
<svg version="1.1" id="Layer_1" xmlns="http://www.w3.org/2000/svg" xmlns:xlink="http://www.w3.org/1999/xlink" x="0px" y="0px"
	 width="72.4px" height="72.4px" viewBox="0 0 72.4 72.4" style="enable-background:new 0 0 72.4 72.4;" xml:space="preserve">
<circle style="fill:#FFFFFF;" cx="36.2" cy="36.2" r="36.2"/>
<circle style="fill:#8688C5;" cx="36.1" cy="36.4" r="31.4"/>
<circle style="fill:#3A539B;" cx="36.3" cy="35.7" r="31.1"/>
<path style="fill-rule:evenodd;clip-rule:evenodd;fill:#26C1F0;" d="M51.4,33.3c-0.6,1-1,2.2-1.7,3.1c-1.1,1.4-2.4,2.6-3.6,3.9
	c0.2,0.2,0.4,0.4,0.6,0.6c2.6-2.3,5.3-4.5,7.8-7c0.8-0.7,1.6-2.1,1.4-2.9c-0.2-0.8-1.8-1.2-2.8-1.6c-0.3-0.2-0.8-0.1-1.2-0.1
	C46.5,29.1,41,29,35.5,28.8c-5.3-0.2-10.4-0.8-14.8-4.3c-0.2,0.2-0.4,0.4-0.6,0.6c1.2,1.1,2.3,2.6,3.7,3.2c2.9,1.2,6,2.4,9.1,2.8
	c5.1,0.6,10.3,0.5,15.4,0.9"/>
<circle style="fill-rule:evenodd;clip-rule:evenodd;fill:#26C1F0;" cx="27.4" cy="47.9" r="2.7"/>
<circle style="fill-rule:evenodd;clip-rule:evenodd;fill:#26C1F0;" cx="39.8" cy="47.9" r="2.7"/>
</svg>
