<?xml version="1.0" encoding="utf-8"?>
<!-- Generator: Adobe Illustrator 16.0.0, SVG Export Plug-In . SVG Version: 6.00 Build 0)  -->
<!DOCTYPE svg PUBLIC "-//W3C//DTD SVG 1.1//EN" "http://www.w3.org/Graphics/SVG/1.1/DTD/svg11.dtd">
<svg version="1.1" id="Layer_1" xmlns="http://www.w3.org/2000/svg" xmlns:xlink="http://www.w3.org/1999/xlink" x="0px" y="0px"
	 width="105.1px" height="105.1px" viewBox="0 0 105.1 105.1" style="enable-background:new 0 0 105.1 105.1;" xml:space="preserve"
	>
<circle style="fill:#FFFFFF;" cx="52.6" cy="52.6" r="52.6"/>
<circle style="fill:#21D0FF;" cx="52.5" cy="52.9" r="45.6"/>
<circle style="fill:#0B73B9;" cx="52.5" cy="51.9" r="45.2"/>
<rect x="26.2" y="26.2" style="fill-rule:evenodd;clip-rule:evenodd;fill:#21D0FF;" width="54.6" height="53.8"/>
<rect x="28.5" y="28.3" style="fill-rule:evenodd;clip-rule:evenodd;fill:#252438;" width="49.9" height="49.6"/>
<path style="fill-rule:evenodd;clip-rule:evenodd;" d="M42.9,57.6c1.3,0,2.3,0.1,3.3,0c4.9-0.4,7.9-3.5,7.9-8.2
	c0-4.7-2.7-7.5-7.8-7.8c-1.8-0.1-3.7,0.1-5.6,0c-1.4-0.1-1.9,0.4-1.9,1.9c0.1,7.2,0.1,14.5,0,21.7c0,1.3,0.4,1.8,1.6,1.6
	c0.2,0,0.5,0,0.7,0c1.4,0.2,1.8-0.4,1.8-1.7C42.9,62.6,42.9,60.2,42.9,57.6z M67.2,52c0-0.7-0.1-1.5,0-2.2c0.1-1.1-0.4-1.7-1.4-1.7
	c-1.8,0-3.7-0.3-5.4,0.1c-3.2,0.8-4.8,4.4-3.2,7.2c0.6,1.1,1.8,1.9,2.8,2.7c1,0.7,2.2,1.2,3.1,2c0.5,0.4,0.9,1.4,0.7,1.9
	c-0.2,0.5-1.1,1.2-1.6,1.2c-1.4,0-2.9-0.4-4.3-0.7c-0.4-0.1-0.7-0.3-1.3-0.5c0,1,0.1,1.7,0,2.5c-0.1,1.1,0.4,1.7,1.4,1.8
	c1.9,0.2,3.9,0.4,5.8,0.2c2.2-0.3,3.8-1.8,4.2-4.1c0.4-2.5-0.4-4.4-2.5-5.7c-1.1-0.7-2.3-1.3-3.5-2c-0.8-0.5-1.7-1.1-1.3-2.3
	c0.4-1.1,1.4-1.3,2.4-1.2C64.4,51.5,65.7,51.8,67.2,52z"/>
<path style="fill-rule:evenodd;clip-rule:evenodd;fill:#33C5FD;" d="M42.9,57.6c0,2.6-0.1,5,0,7.3c0.1,1.4-0.4,2-1.8,1.7
	c-0.2,0-0.5,0-0.7,0c-1.2,0.2-1.6-0.3-1.6-1.6c0-7.2,0-14.5,0-21.7c0-1.5,0.5-1.9,1.9-1.9c1.9,0.1,3.7-0.1,5.6,0
	c5,0.3,7.8,3.1,7.8,7.8c0,4.7-3,7.9-7.9,8.2C45.2,57.7,44.2,57.6,42.9,57.6z M43,49.5c0,1.1,0,2.3,0,3.4c0,0.4,0.3,1,0.5,1
	c1.8,0.2,3.7,0.2,5.2-1.1c1.3-1.2,1.5-2.8,1.2-4.5c-0.5-2.4-2.5-3.5-5.7-3.2c-0.8,0.1-1.2,0.3-1.2,1.2C43,47.4,43,48.4,43,49.5z"/>
<path style="fill-rule:evenodd;clip-rule:evenodd;fill:#34C4F3;" d="M67.2,52c-1.5-0.3-2.9-0.5-4.2-0.7c-1-0.1-2,0.1-2.4,1.2
	c-0.4,1.2,0.5,1.8,1.3,2.3c1.1,0.7,2.3,1.3,3.5,2c2.1,1.3,3,3.3,2.5,5.7c-0.4,2.3-1.9,3.8-4.2,4.1c-1.9,0.3-3.8,0-5.8-0.2
	c-1-0.1-1.5-0.7-1.4-1.8c0.1-0.7,0-1.5,0-2.5c0.6,0.2,0.9,0.4,1.3,0.5c1.4,0.3,2.9,0.6,4.3,0.7c0.6,0,1.5-0.7,1.6-1.2
	c0.2-0.5-0.3-1.5-0.7-1.9c-0.9-0.8-2.2-1.2-3.1-2c-1-0.8-2.2-1.6-2.8-2.7c-1.6-2.9,0-6.5,3.2-7.2c1.7-0.4,3.6-0.2,5.4-0.1
	c1,0,1.5,0.6,1.4,1.7C67.2,50.6,67.2,51.3,67.2,52z"/>
<path style="fill-rule:evenodd;clip-rule:evenodd;fill:#383650;" d="M48.6,52.9c-1.5,1.3-3.3,1.2-5.2,1.1c-0.2,0-0.5-0.6-0.5-1
	c-0.1-1.1,0-2.3,0-3.4c0-1,0-2.1,0-3.1c0-0.9,0.3-1.1,1.2-1.2c3.2-0.2,5.2,0.8,5.7,3.2"/>
</svg>
