<?xml version="1.0" encoding="utf-8"?>
<!-- Generator: Adobe Illustrator 16.0.0, SVG Export Plug-In . SVG Version: 6.00 Build 0)  -->
<!DOCTYPE svg PUBLIC "-//W3C//DTD SVG 1.1//EN" "http://www.w3.org/Graphics/SVG/1.1/DTD/svg11.dtd">
<svg version="1.1" id="Layer_1" xmlns="http://www.w3.org/2000/svg" xmlns:xlink="http://www.w3.org/1999/xlink" x="0px" y="0px"
	 width="86.1px" height="86.1px" viewBox="0 0 86.1 86.1" style="enable-background:new 0 0 86.1 86.1;" xml:space="preserve">
<circle style="fill:#FFFFFF;" cx="43" cy="43" r="43"/>
<circle style="fill:#FCF997;" cx="42.9" cy="43.3" r="38"/>
<circle style="fill:#DDDD33;stroke:#FFFFFF;stroke-width:0.5;stroke-miterlimit:10;" cx="43.1" cy="42.5" r="37"/>
<path style="fill-rule:evenodd;clip-rule:evenodd;" d="M55.3,56c0.3-1.6,0.7-3,0.9-4.4c0.1-0.8,0.4-1,1.2-1c1.6,0,3.1,0,4.7-0.1
	c4-0.2,7.3-3,8.2-6.8c1.1-4.6-0.7-7.8-5.3-8.2c-3.1-0.3-6.3-0.1-9.5-0.1c-0.3,0-0.7,0.4-0.8,0.7c-1.3,6.6-2.6,13.2-3.9,19.9
	C52.3,56,53.8,56,55.3,56z M19.4,35.6c-1.3,6.7-2.6,13.5-4,20.4c1.6,0,3.1,0,4.5,0c0.3-1.5,0.7-2.8,0.8-4.3c0.1-1,0.5-1.2,1.4-1.2
	c1.5,0,2.9,0,4.4-0.1c4.8-0.3,8.5-4.2,8.5-9.1c0-3.2-1.6-5.5-4.7-5.8C26.9,35.4,23.3,35.6,19.4,35.6z M45.4,50.6
	c1.5,0,2.7,0.1,3.9,0c0.3,0,0.8-0.5,0.8-0.8c0.6-3,1.2-6,1.7-9.1c0.5-3.1-0.5-4.7-3.6-5.1c-2.1-0.3-4.2-0.3-6.4-0.4
	c0.3-1.8,0.6-3.5,1-5.3c-1.6,0-3,0-4.5,0c-1.3,6.9-2.7,13.7-4,20.7c1.1,0,2-0.1,2.9,0c1.3,0.1,1.7-0.3,1.9-1.6
	c0.6-3.4,1.3-6.8,2-10.2c1.6,0,3.1,0,4.5,0c1.1,0,1.7,0.6,1.5,1.8c-0.1,0.5-0.1,1-0.2,1.5C46.5,44.9,45.9,47.6,45.4,50.6z"/>
<path style="fill-rule:evenodd;clip-rule:evenodd;fill:#DDDD33;" d="M57,49.9c0.6-3,1.1-5.8,1.7-8.7c1.7,0.1,3.4,0.2,5,0.4
	c1.3,0.2,2,1,2,2.4c0.1,3.8-1.8,5.9-5.5,6C59.2,49.9,58.2,49.9,57,49.9z"/>
<path style="fill-rule:evenodd;clip-rule:evenodd;fill:#DDDD33;" d="M21.8,49.9c0.6-2.9,1.1-5.7,1.7-8.7c1.7,0.1,3.4,0.2,5.1,0.4
	c1.3,0.2,1.9,1.1,1.9,2.4c-0.1,3.5-1.4,6-5.4,6C24,49.9,22.9,49.9,21.8,49.9z"/>
</svg>
