<?xml version="1.0" encoding="utf-8"?>
<!-- Generator: Adobe Illustrator 16.0.0, SVG Export Plug-In . SVG Version: 6.00 Build 0)  -->
<!DOCTYPE svg PUBLIC "-//W3C//DTD SVG 1.1//EN" "http://www.w3.org/Graphics/SVG/1.1/DTD/svg11.dtd">
<svg version="1.1" id="Layer_1" xmlns="http://www.w3.org/2000/svg" xmlns:xlink="http://www.w3.org/1999/xlink" x="0px" y="0px"
	 width="84.8px" height="84.8px" viewBox="0 0 84.8 84.8" style="enable-background:new 0 0 84.8 84.8;" xml:space="preserve">
<circle style="fill:#FFFFFF;" cx="42.4" cy="42.4" r="42.4"/>
<circle style="fill:#3A539B;stroke:#FFFFFF;stroke-width:0.5;stroke-miterlimit:10;" cx="42.4" cy="42.7" r="36.8"/>
<circle style="fill:#0068FF;" cx="42.3" cy="41.9" r="36.5"/>
<path style="fill-rule:evenodd;clip-rule:evenodd;" d="M44.5,39.7c0.2,0.1,0.3,0.2,0.4,0.2c0.1,0,0.1-0.2,0.1-0.3
	c0.2-0.1,0.4-0.3,0.7-0.1c0.1,0,0.2-0.1,0.3-0.1c0.1,0,0.2-0.1,0.2-0.2c0.8-0.2,1.7-0.1,2.4,0.2c0.1,0.1,0.2,0.1,0.3,0.3
	c0.1,0.1,0.3,0.1,0.4,0.2c0,0.2,0.1,0.3,0.4,0.3c0.1,0,0.2,0.2,0.3,0.3c0,0.2,0.1,0.4,0.3,0.5c0.1,0.1,0.2,0.1,0.1,0.3
	c0,0.1,0,0.2,0.1,0.3c0.1,0.2,0.3,0.5,0.4,0.7c0,0.1,0,0.2-0.1,0.3c0,0.1,0,0.2,0,0.3c0,0.1,0.1,0.2,0.1,0.3c0,2.5,0,5.1,0,7.6
	c0,0.2-0.1,0.3-0.3,0.3c-0.7,0-1.4,0-2.1,0c-0.2,0-0.3,0-0.3-0.3c0-2.6,0-5.2,0-7.8c0,0,0-0.1,0-0.1c0.3-0.5-0.1-0.7-0.3-1.1
	c0,0-0.1-0.1-0.1-0.1c-0.6-0.2-1.2-0.3-1.8,0c-0.1,0-0.2,0-0.3,0c-0.1,0-0.2,0-0.2,0c0,0-0.1,0-0.1,0.1C45.4,42,45.2,42,45,42.1
	c-0.1,0-0.1,0.2-0.1,0.2c0.1,0.1,0,0.2,0,0.3c-0.1,0.1-0.1,0.3,0,0.4c0.1,0.1,0.1,0.2,0.1,0.3c0,2.5,0,5,0,7.6
	c0,0.2-0.1,0.2-0.2,0.2c-0.7,0-1.5,0-2.2,0c-0.2,0-0.2-0.1-0.2-0.2c0-2.5,0-5,0-7.5c0-0.1,0.1-0.2,0.1-0.3c0-0.1,0-0.3,0-0.3
	c-0.2-0.2-0.2-0.4-0.3-0.6c0-0.1-0.1-0.1-0.1-0.2c0-0.1-0.1-0.1-0.1-0.2c0-0.2-0.2-0.2-0.3-0.2c-0.2,0-0.4-0.1-0.5-0.1
	c-0.1,0-0.2,0-0.2,0c-0.2,0.1-0.4,0.2-0.6,0.3c0,0-0.1,0-0.1,0c-0.2-0.1-0.3,0-0.3,0.1c0,0-0.1,0.1-0.1,0.1
	c-0.3-0.2-0.5,0.3-0.8,0.2c-0.1,0-0.2,0.2-0.3,0.3c0,0.1,0,0.2,0,0.3c0,2.7,0,5.3,0,8c0,0.4,0,0.4-0.3,0.4c-0.7,0-1.4,0-2.1,0
	c-0.2,0-0.3,0-0.3-0.3c0-3.8,0-7.6,0-11.4c0-0.2,0.1-0.3,0.3-0.3c0.7,0,1.4,0,2.1,0c0.2,0,0.3,0,0.3,0.2c0,0.1,0.1,0.2,0.2,0.1
	c0.1,0,0.3,0,0.4,0c0.1,0,0.2-0.1,0.3-0.1c0.1-0.1,0.2-0.2,0.3-0.2c0.4-0.1,0.8-0.2,1.2-0.2c0.3,0,0.5,0.1,0.8,0.2
	c0.1,0,0.2,0,0.3,0c0.2-0.1,0.3-0.1,0.4,0.1c0,0,0.1,0.1,0.2,0.1c0.4,0,0.6,0.2,0.7,0.5c0,0.1,0.2,0.2,0.3,0.2c0.1,0,0.2,0,0.3-0.1
	C44.1,39.7,44.4,39.7,44.5,39.7z"/>
<path style="fill-rule:evenodd;clip-rule:evenodd;" d="M20.6,48.3c-0.2,0.1-0.3,0.2-0.2,0.5c0.1,0.1-0.2,0.5-0.4,0.6
	c-0.1,0-0.1,0.1-0.1,0.2c0,0.3-0.2,0.5-0.6,0.6c-0.1,0-0.2,0.1-0.2,0.2c-0.1,0.2-0.2,0.3-0.4,0.3c-0.1,0-0.3,0.1-0.4,0.2
	c-0.2,0.2-0.4,0.2-0.6,0.2c-0.1,0-0.3,0.1-0.4,0.1c-0.6,0-1.2,0.1-1.8,0.1c-0.3,0-0.7,0-1,0c-0.9-0.1-1.7,0-2.6-0.1
	c-0.4-0.1-0.7,0-1,0c-0.3,0-0.4,0-0.4-0.4c0-0.7,0-1.4,0-2.2c0-0.2,0.1-0.2,0.2-0.2c0.6,0.1,1.1,0.1,1.7,0.1c0.3,0,0.7,0.1,1,0.1
	c0.1,0,0.2,0.1,0.2,0.1c0.1,0.1,0.2,0.1,0.3,0c0.1-0.1,0.2-0.1,0.4-0.1c0.6,0,1.3-0.1,1.9,0c0.3,0,0.4,0,0.7-0.2
	c0.2-0.1,0.4-0.1,0.6-0.2c0.1,0,0.2-0.1,0.2-0.2c0.1-0.1,0.2-0.2,0.2-0.3c0-0.1,0.1-0.1,0.1-0.2c0-0.3,0.3-0.5,0-0.8
	c-0.1-0.1,0-0.4,0-0.6c0.1-0.3,0-0.7-0.2-0.9c0,0-0.1-0.1-0.1-0.1c-0.2-0.1-0.4-0.1-0.6-0.2c-0.1,0-0.1-0.2-0.2-0.2
	c-0.1-0.1-0.2-0.1-0.3-0.1c-0.1,0-0.3,0-0.4,0c-0.3-0.1-0.6-0.2-0.8-0.3c-0.3-0.1-0.7-0.1-1-0.2c-0.1,0-0.2-0.2-0.3-0.2
	c-0.1-0.1-0.2-0.1-0.3-0.1c-0.3,0-0.6-0.1-0.7-0.3c-0.1-0.2-0.2-0.2-0.4-0.2c-0.1-0.3-0.3-0.5-0.7-0.5c0,0-0.1-0.1-0.1-0.1
	c-0.1-0.1-0.1-0.1-0.2-0.2c-0.1-0.2-0.2-0.3-0.3-0.5c-0.2-0.2-0.2-0.5-0.5-0.6c-0.1,0-0.1-0.1-0.1-0.2c0.1-0.1,0.2-0.3,0.2-0.4
	c0-0.1-0.2-0.1-0.3-0.1c0-0.1,0-0.3,0-0.4c0,0,0-0.1,0-0.1c0.1-0.1,0-0.2-0.1-0.3c-0.1-0.1-0.1-0.2,0-0.3c0.2-0.2,0.2-0.3,0-0.6
	c0.3-0.2,0.1-0.4,0.1-0.7c0.2-0.1,0.3-0.2,0.1-0.4c0,0,0-0.1,0.1-0.2c0.1-0.2,0.3-0.3,0.4-0.5c0.1-0.2,0.3-0.5,0.4-0.7
	c0,0,0.1-0.1,0.1-0.1c0-0.4,0.3-0.4,0.6-0.6c0,0,0.1-0.1,0.1-0.1c0.1-0.4,0.5-0.4,0.8-0.6c0,0,0.1,0,0.2,0c0.1,0,0.2,0,0.2-0.1
	C13.9,35,14,35,14.2,35c0.1,0,0.2,0,0.3,0c0.1,0,0.3-0.1,0.4-0.1c1.7,0,3.3,0,5,0c0.2,0,0.5,0,0.7,0.1c0.1,0,0.2,0.1,0.3,0.2
	c0.2,0.2,0.4,0.2,0.7,0c0.1,0.4,0.3,0.4,0.6,0.3c0.1,0,0.2,0.1,0.3,0.2c0.1,0.2,0.1,0.2,0.4,0.2c0.2,0.3,0.3,0.6,0.7,0.6
	c0,0,0.1,0.1,0.1,0.2c0,0.3,0,0.3,0.3,0.4c0,0,0,0.1,0,0.1c-0.1,0.2,0,0.3,0.2,0.3c0.1,0,0.1,0.1,0.2,0.1c0.1,0.4,0.2,0.4-0.2,0.4
	c-0.2,0-0.4,0.1-0.5,0.1c-0.2,0-0.3,0.1-0.5-0.1c0,0-0.2,0-0.3,0.1c-0.1,0.1-0.2,0.2-0.3,0.1c-0.1,0-0.2,0-0.3,0
	c-0.2-0.1-0.5-0.1-0.7-0.2c-0.3-0.2-0.7-0.2-1-0.5c-0.1-0.1-0.2,0-0.3,0c-0.1,0-0.2,0.1-0.4,0.1c-1.4,0-2.7,0-4.1,0
	c-0.5,0-1,0.1-1.4,0.4c0,0-0.1,0-0.2,0c-0.1-0.1-0.2-0.2-0.3,0c-0.1,0.1,0,0.2-0.1,0.4c-0.2,0.1-0.2,0.3-0.1,0.5
	c-0.3,0.2-0.3,0.2-0.1,0.5c0.1,0.1,0,0.3,0,0.4c0,0.1,0,0.3,0.1,0.4c0.3,0.5,0.6,0.9,1.2,1.2c0,0,0.1,0.1,0.1,0.1
	c0,0.2,0.2,0.3,0.3,0.2c0.1,0,0.1,0,0.2,0c0.2,0.1,0.4,0.1,0.5,0.2c0.1,0,0.1,0.1,0.2,0.2c0.1,0,0.2,0.1,0.2,0.1
	c0.3-0.1,0.6-0.1,0.8,0.2c0,0,0.2,0.1,0.3,0c0.1-0.1,0.2,0,0.2,0c0.1,0.1,0.2,0.1,0.3,0.1c0.1,0,0.1,0,0.2,0
	c0.2,0.2,0.5,0.2,0.7,0.3c0.2,0.1,0.3,0.2,0.4,0.4c0,0.1,0.2,0.1,0.3,0.2c0.1,0.1,0.2,0.2,0.4,0.2c0.1,0,0.1,0.1,0.1,0.2
	c0,0.2,0.1,0.3,0.2,0.4c0.1,0.1,0.1,0.2,0.1,0.3c0,0.3,0,0.5,0.3,0.7c0.1,0,0.1,0.1,0.1,0.2c0,0.2-0.1,0.3-0.1,0.5
	c0,0.1,0,0.2,0.1,0.2c0.2,0.3,0.2,0.6,0,0.9c0,0.1-0.1,0.1-0.1,0.2c0,0.3-0.1,0.5-0.1,0.8C20.5,48,20.5,48.1,20.6,48.3z M14.2,37.8
	c0.1-0.1,0.2-0.2,0.2-0.3c0-0.1-0.1-0.2-0.2-0.2c-0.1,0-0.2,0.1-0.2,0.2C14,37.6,14.1,37.7,14.2,37.8z"/>
<path style="fill-rule:evenodd;clip-rule:evenodd;" d="M69.8,39.2c1.1,0,2.2,0,3.3,0c-0.2,0-0.3,0.1-0.4,0.3c0,0.1-0.2,0.2-0.3,0.4
	c-0.2,0.2-0.5,0.5-0.7,0.7c-0.2,0.2-0.3,0.4-0.4,0.6c0,0.1-0.1,0.3-0.2,0.3c-0.3,0-0.4,0.2-0.3,0.4c-0.4,0.1-0.6,0.4-0.8,0.7
	c-0.1,0.1-0.2,0.2-0.2,0.3c0,0.1-0.1,0.2-0.1,0.3c0,0.2-0.1,0.3-0.3,0.3c-0.1,0-0.2,0-0.2,0.1c-0.1,0.4-0.5,0.5-0.7,0.8
	c-0.1,0.1-0.2,0.2-0.2,0.3c-0.1,0.3,0.1,0.5,0.4,0.6c-0.1,0.2-0.1,0.4,0.2,0.5c0,0.4,0.3,0.6,0.6,0.7c0.1,0,0.1,0.2,0.1,0.3
	c0,0,0,0,0,0.1c0,0.1,0.5,0.7,0.6,0.8c0.1,0.1,0.2,0.2,0.2,0.3c0.1,0.1,0.1,0.3,0.1,0.4c0.1,0.2,0.3,0.4,0.4,0.6
	c0,0.1,0.1,0.1,0.2,0.1c0.3,0.1,0.4,0.3,0.5,0.6c0.1,0.3,0.2,0.7,0.6,0.7c0.1,0,0.2,0.1,0.2,0.2c0.1,0.2,0.1,0.4,0.1,0.6
	c0,0-0.1,0-0.2,0c-0.6,0-1.3,0-1.9,0c-0.1,0-0.2-0.1-0.3-0.1c-0.2-0.2-0.3-0.2-0.4,0c0,0,0,0.1-0.1,0.1c0,0-0.1,0-0.1,0
	c-0.1-0.5-0.6-0.6-0.7-1c0-0.1-0.1-0.2-0.1-0.4c0-0.2-0.2-0.4-0.4-0.5c-0.2-0.1-0.3-0.1-0.2-0.4c0-0.1,0-0.1-0.1-0.2
	c-0.1-0.1-0.3-0.2-0.4-0.3c0,0,0,0-0.1-0.1c-0.1-0.6-0.5-0.9-0.8-1.3c-0.1-0.2-0.4-0.3-0.3-0.6c0,0,0-0.1-0.1-0.2
	c-0.2-0.1-0.5-0.2-0.7-0.3c-0.2-0.1-0.3,0-0.3,0.2c0,0.6,0,1.2,0,1.7c0,1,0,1.9,0,2.9c0,0.2-0.1,0.3-0.3,0.3c-0.7,0-1.3,0-2,0
	c-0.4,0-0.4,0-0.4-0.4c0-2.7,0-5.4,0-8.1c0-2.5,0-5,0-7.6c0-0.3,0-0.3,0.3-0.3c0.7,0,1.3,0,2,0c0.4,0,0.4,0,0.4,0.4
	c0,2.6,0,5.2,0,7.8c0,0.3,0.2,0.5,0.5,0.5c0,0,0.1,0,0.1,0c0.2-0.2,0.3-0.4,0.4-0.6c0.2-0.2,0.2-0.4,0.4-0.5c0.1,0,0.2-0.2,0.3-0.3
	c0.2,0,0.3-0.2,0.3-0.4c0-0.2,0.2-0.4,0.4-0.4c0.3-0.1,0.4-0.3,0.6-0.5c0,0,0,0,0-0.1c0.2-0.2,0.4-0.4,0.6-0.6
	c0.2-0.2,0.3-0.4,0.5-0.5C69.8,39.4,69.8,39.3,69.8,39.2z"/>
<path style="fill-rule:evenodd;clip-rule:evenodd;" d="M61.5,48.4c-0.2,0.2-0.3,0.3-0.1,0.5c0,0,0.1,0.1,0.1,0.2c0,0.6,0,1.1,0,1.7
	c0,0.2-0.1,0.3-0.3,0.3c-0.5,0-1,0.1-1.5,0.1c-0.3,0-0.6,0-1,0c-0.2,0-0.4,0-0.5-0.1c0,0-0.2,0-0.3,0c-0.1,0.2-0.3,0.1-0.4,0.1
	c-0.8,0-1.5,0-2.3-0.2c-0.2-0.1-0.4-0.1-0.5-0.3c0-0.1-0.2-0.1-0.3-0.1c-0.2,0-0.4-0.1-0.4-0.3c0-0.1-0.1-0.1-0.2-0.2
	c-0.2-0.1-0.3-0.2-0.4-0.4c0-0.2-0.1-0.4-0.3-0.5c-0.2-0.1-0.2-0.3-0.1-0.5c0-0.2,0-0.3-0.2-0.4c-0.2-0.1-0.3-0.1-0.2-0.4
	c0-0.1,0-0.2,0-0.2c-0.1-0.1-0.1-0.2-0.2-0.3c0.2-0.3,0.1-0.6-0.1-0.8c0.2-0.2,0.1-0.3,0-0.5c-0.1-0.2,0-0.5,0-0.7
	c0-0.1,0.1-0.2,0.1-0.4c0-0.4,0-0.8,0-1.2c0-0.2,0-0.4-0.1-0.5c0,0,0-0.2,0-0.2c0.2-0.2,0.2-0.4,0.1-0.7c0,0,0-0.2,0.1-0.2
	c0.2-0.1,0.2-0.3,0.2-0.4c-0.1-0.2,0-0.3,0.1-0.3c0.2-0.1,0.2-0.2,0.2-0.4c0-0.3,0.2-0.3,0.4-0.4c0.2-0.1,0.3-0.2,0.3-0.4
	c0-0.2,0.2-0.4,0.4-0.4c0.2,0,0.3-0.1,0.4-0.2c0-0.1,0.2-0.2,0.3-0.1c0.3,0.1,0.4,0,0.4-0.3c0.2,0.2,0.4,0.2,0.5-0.1
	c0,0,0.1-0.1,0.2-0.1c1.1-0.2,2.1-0.2,3.2,0.3c0.3,0.1,0.5,0.4,0.8,0.4c0.1,0,0.2,0.2,0.2,0.3c0,0,0.1,0.1,0.1,0.1
	c0.4,0,0.5,0.3,0.7,0.6c0.1,0.1,0.3,0.3,0.2,0.5c0,0,0,0.1,0,0.1c0.3,0.4,0.3,0.9,0.4,1.3c0,0.1,0,0.1,0.1,0.2
	c0.2,0.1,0.2,0.4,0.2,0.6c0,0.8,0,1.7,0,2.5c0,0,0,0.1,0,0.1c-0.5,0.3-1,0.2-1.4,0.2c-1.6,0-3.2,0-4.9,0c-0.1,0-0.2,0-0.4-0.1
	c-0.2-0.1-0.3,0.1-0.3,0.2c0.1,0.2,0,0.5,0.2,0.7c0,0,0,0.1,0,0.2c0,0.1,0,0.2,0,0.2c0.2,0.1,0.2,0.3,0.2,0.5c0,0.2,0.2,0.3,0.4,0.4
	c0.3,0.1,0.7,0.2,1,0.3c0.1,0,0.3,0.1,0.3,0c0.1-0.1,0.3-0.1,0.4-0.1c0.2,0,0.4,0,0.6,0c0.1,0,0.2,0,0.2,0.1c0.1,0.1,0.3,0.1,0.4,0
	c0,0,0.1-0.1,0.2-0.1c0.8-0.1,1.7-0.1,2.5-0.2C61.4,48.3,61.4,48.4,61.5,48.4z M55.5,42.1c-0.1,0.1-0.3,0.1-0.3,0.1
	c-0.1,0.2-0.2,0.4-0.3,0.6c-0.1,0.2-0.1,0.4,0,0.7c0.1,0.2,0.2,0.3,0.4,0.3c1.1,0,2.2,0,3.2,0c0.2,0,0.5,0.1,0.6-0.3
	c0.1-0.3,0.1-0.4-0.1-0.5c0.1-0.3,0.1-0.4-0.2-0.6c-0.1,0-0.1-0.2-0.1-0.2c0-0.2-0.1-0.3-0.3-0.3c-0.2,0-0.5-0.1-0.7-0.1
	c-0.4-0.1-0.8-0.1-1.2-0.2c-0.1,0-0.1,0.1-0.2,0.1c-0.1,0-0.1,0.1-0.2,0.1C55.9,41.6,55.5,41.8,55.5,42.1z"/>
<path style="fill-rule:evenodd;clip-rule:evenodd;" d="M29,44.7c0.3,0,0.4-0.2,0.4-0.5c0-0.1,0.1-0.2,0.2-0.2c0,0,0.1,0,0.2,0
	c0.2-0.4,0.7-0.6,0.7-1c0-0.1,0.1-0.1,0.1-0.2c0.1-0.1,0.1-0.2,0.1-0.3c0-0.2,0.1-0.3,0.2-0.3c0.1,0,0.3-0.1,0.2-0.2
	c0-0.1-0.1-0.3-0.1-0.3c-0.1,0-0.3,0-0.4,0c-0.1,0-0.2,0.1-0.3,0.1c-1.4,0-2.7,0-4.1,0c-0.2,0-0.3-0.1-0.3-0.3c0-0.7,0-1.4,0-2.1
	c0-0.2,0.1-0.2,0.2-0.2c2.8,0,5.6,0,8.4,0c0.2,0,0.3,0.1,0.2,0.3c0,0.5,0,1,0,1.5c0,0.2,0,0.3-0.2,0.4c-0.3,0.1-0.4,0.4-0.6,0.7
	c-0.1,0.2-0.3,0.3-0.2,0.6c0,0.1-0.2,0.2-0.3,0.3c-0.1,0.1-0.2,0.1-0.3,0.2c-0.2,0.3-0.4,0.6-0.6,0.9c-0.2,0.2-0.4,0.4-0.5,0.6
	c-0.1,0.3-0.5,0.4-0.4,0.8c0,0.2-0.2,0.4-0.4,0.5c-0.3,0.2-0.5,0.5-0.7,0.7c-0.2,0.2-0.2,0.5-0.5,0.6c-0.2,0.1-0.2,0.2-0.1,0.4
	c-0.1,0-0.1,0.1-0.2,0.1c-0.1,0.2-0.2,0.5-0.5,0.6c0,0,0,0.2,0,0.2c0,0,0.2,0.1,0.2,0c0.1,0,0.2-0.1,0.3-0.1c1.5,0,3,0,4.5,0
	c0.2,0,0.3,0.1,0.3,0.3c0,0.7,0,1.4,0,2.1c0,0.2-0.1,0.3-0.3,0.3c-2.8,0-5.6,0-8.3,0c-0.2,0-0.3-0.1-0.3-0.3c0-0.5,0-1,0-1.4
	c0-0.2,0-0.4,0.1-0.6c0-0.1,0.1-0.1,0.1-0.1c0.2-0.1,0.5-0.4,0.5-0.7c0-0.1,0.1-0.1,0.1-0.2c0,0,0,0,0,0c0.3,0,0.2-0.3,0.4-0.4
	c0.2-0.1,0.3-0.2,0.3-0.5c0-0.1,0.2-0.3,0.2-0.4c0.1-0.1,0.1-0.2,0.2-0.2c0.3-0.3,0.3-0.8,0.8-0.9C28.9,45.3,29,45.1,29,44.7z"/>
<path style="fill-rule:evenodd;clip-rule:evenodd;" d="M24.5,45.2c0,1.9,0,3.8,0,5.6c0,0.3,0,0.3-0.3,0.3c-0.6,0-1.2,0-1.9,0
	c-0.2,0-0.5-0.3-0.5-0.5c0-0.1,0-0.1,0-0.2c0-3.5,0-7.1,0-10.6c0-0.3,0.2-0.4,0.3-0.7c0,0,0.2-0.1,0.2-0.1c0.6,0,1.3,0,1.9,0
	c0.2,0,0.3,0.1,0.3,0.3C24.5,41.3,24.5,43.3,24.5,45.2z"/>
<path style="fill-rule:evenodd;clip-rule:evenodd;fill:#FFFFFF;" d="M14.2,37.8c-0.1-0.2-0.2-0.3-0.2-0.3c0-0.1,0.1-0.2,0.2-0.2
	c0.1,0,0.2,0.1,0.2,0.2C14.4,37.6,14.3,37.7,14.2,37.8z"/>
</svg>
