<?xml version="1.0" encoding="utf-8"?>
<!-- Generator: Adobe Illustrator 19.2.1, SVG Export Plug-In . SVG Version: 6.00 Build 0)  -->
<svg version="1.1" id="Layer_1" xmlns="http://www.w3.org/2000/svg" xmlns:xlink="http://www.w3.org/1999/xlink" x="0px" y="0px"
	 viewBox="0 0 71.8 71.7" style="enable-background:new 0 0 71.8 71.7;" xml:space="preserve">
<g>
	<g>
		<path style="fill:#F47831;" d="M67.2,35.7c0-0.2,0-0.2,0-0.2c0-0.2,1-0.7,2.3-1.1c1.3-0.4,2.3-1.5,2.2-2.4
			c-0.1-0.9-1.6-3.3-2.9-3.4s-2.7-1.1-3.1-2.2c-0.3-1.1-0.6-4.6,0.4-5.5c1-0.9,1.5-2.3,1.1-3.1c-0.4-0.8-2.8-2.4-4.1-2
			c-1.3,0.4-3,0.1-3.7-0.7c-0.7-0.8-2.3-3.9-1.7-5.2s0.4-2.7-0.3-3.3c-0.7-0.6-3.6-1.1-4.6-0.2s-2.6,1.3-3.6,0.8
			c-1-0.5-3.6-2.6-3.6-4S44.9,0.6,44,0.4c-0.9-0.2-3.7,0.4-4.3,1.6s-1.9,2.2-3.1,2.1c0,0,0,0-1.1,0c-0.9,0-0.9,0-0.9,0
			c-1,0.1-2.3-0.9-2.8-2.1s-1.7-2.1-2.6-2S26,1.8,26,3.2s-0.8,2.7-1.9,3.1s-4.5,0.9-5.4,0c-1-0.9-2.4-1.2-3.2-0.7s-2.2,2.9-1.7,4.1
			c0.5,1.2,0.3,2.8-0.5,3.6c-0.8,0.8-3.8,2.8-5,2.4c-1.2-0.4-2.6-0.1-3.1,0.6c-0.5,0.8-0.9,3.5,0.1,4.4c1,0.8,1.4,2.4,0.9,3.5
			c-0.4,1.1-2.4,4.2-3.6,4.3c-1.3,0.1-2.4,0.9-2.5,1.8s0.6,3.5,1.8,3.9C3,34.7,4,35.2,4,35.5c0,0,0,0,0,0.2c0,2.1,0,2.1,0,2.1
			c0.3,2.2-0.3,4.4-1.4,5.1c-1.1,0.6-1.8,1.8-1.6,2.6c0.2,0.8,2,2.9,3.2,2.7c1.2-0.1,2.7,0.7,3.2,1.8s1.8,4.8,1,5.8
			c-0.7,1-0.9,2.3-0.3,3c0.5,0.7,3,1.8,4,1.2c1.1-0.6,2.7-0.5,3.7,0.4s3.7,3.7,3.4,4.9c-0.3,1.2,0.1,2.5,0.9,2.9
			c0.8,0.4,3.4,0.4,4.1-0.6c0.7-1,2.3-1.6,3.6-1.2c1.3,0.3,4.9,1.8,5.1,3.1s1.1,2.3,2,2.3c0,0,0,0,0.8,0c0.8,0,0.8,0,0.8,0
			c0.8,0,1.7-1.1,2-2.3c0.3-1.2,1.5-2.4,2.8-2.6c1.3-0.2,5.1-0.3,5.9,0.7c0.7,1,2,1.6,2.8,1.3s2.5-2.3,2.3-3.6
			c-0.3-1.3,0.4-2.9,1.4-3.6c1.1-0.7,4.5-2.3,5.6-1.7c1.1,0.7,2.5,0.7,3.1,0.1c0.6-0.6,1.4-3.2,0.6-4.3s-0.9-2.8-0.3-3.8
			c0.6-1,3.1-3.8,4.4-3.7c1.3,0.2,2.6-0.4,2.9-1.2c0.3-0.8-0.1-3.6-1.3-4.3c-1.2-0.7-1.9-2.9-1.6-5C67.2,37.7,67.2,37.7,67.2,35.7z"
			/>
	</g>
	<path style="fill:none;stroke:#FFFFFF;stroke-width:0.5;stroke-miterlimit:10;" d="M62,33.4c1.3,16.5-12.3,30.1-28.8,28.8
		c-13-1-23.4-11.5-24.5-24.5C7.4,21.3,21.1,7.6,37.5,8.9C50.5,10,61,20.5,62,33.4z"/>
</g>
</svg>
