<?xml version="1.0" encoding="utf-8"?>
<!-- Generator: Adobe Illustrator 19.2.1, SVG Export Plug-In . SVG Version: 6.00 Build 0)  -->
<svg version="1.1" id="Layer_1" xmlns="http://www.w3.org/2000/svg" xmlns:xlink="http://www.w3.org/1999/xlink" x="0px" y="0px"
	 viewBox="0 0 1082.2 185" style="enable-background:new 0 0 1082.2 185;" xml:space="preserve">
<style type="text/css">
	.st0{fill:#EEEEEE;}
	.st1{fill:#DADFE1;stroke:#BFBFBF;stroke-miterlimit:10;}
	.st2{fill:#799827;}
	.st3{fill:#FFFFFF;}
	.st4{fill:#FFBC00;}
	.st5{fill:#CE2152;}
	.st6{fill:none;}
	.st7{clip-path:url(#SVGID_2_);fill:#F2F2F2;}
	.st8{clip-path:url(#SVGID_4_);fill:#F2F2F2;}
	.st9{clip-path:url(#SVGID_6_);fill:#F2F2F2;}
	.st10{fill:none;stroke:#C9C9C9;stroke-miterlimit:10;}
	.st11{fill:#F5B26C;}
	.st12{fill:#FBD734;}
	.st13{fill:#E2E2E2;}
	.st14{fill:#D74214;}
	.st15{fill:#F9BF2C;}
	.st16{fill:#BD360C;}
	.st17{fill:#F5A557;}
	.st18{fill:url(#SVGID_7_);}
	.st19{fill:url(#SVGID_8_);}
	.st20{fill:#919295;}
	.st21{fill:#F7F6F2;}
	.st22{fill:#FFFFFF;stroke:#353535;stroke-width:2;stroke-miterlimit:10;}
	.st23{fill:url(#SVGID_9_);}
	.st24{fill:url(#SVGID_10_);}
	.st25{fill:#020202;}
	.st26{fill:none;stroke:#000000;}
	.st27{fill:#ACACAC;}
	.st28{fill:url(#SVGID_11_);}
	.st29{fill:url(#SVGID_12_);}
	.st30{fill:url(#SVGID_13_);}
	.st31{fill:#129F49;}
	.st32{fill:url(#SVGID_14_);}
	.st33{opacity:0.76;fill:#FFFFFF;}
	.st34{fill:#F95F35;}
	.st35{fill:#353535;}
	.st36{fill:url(#SVGID_15_);}
	.st37{fill:#F77831;}
</style>
<polygon class="st0" points="1022.1,41 84.4,41 0.9,119 1082.2,119 "/>
<polyline class="st1" points="0.5,185 0.5,118.5 1081.5,118.5 1081.5,185 "/>
<path class="st2" d="M168,60H91.4c-2,0-4.4-2.3-4.4-4.3V43.5c0-2,2.4-4.5,4.4-4.5H168"/>
<path class="st3" d="M168,59H92.3c-1.8,0-4.3-2-4.3-3.9V44c0-1.8,2.5-3,4.3-3H168"/>
<path class="st4" d="M173,39H97c-2,0-5-1-5-3V23.7c0-2,3-3.7,5-3.7h76"/>
<path class="st3" d="M173,39H97.9c-1.8,0-4.9-1.8-4.9-3.6V24.3c0-1.8,3.1-3.3,4.9-3.3H173"/>
<path class="st5" d="M168,20H91.4c-2,0-4.4-1.8-4.4-3.8V3.9c0-2,2.4-3.9,4.4-3.9H168"/>
<path class="st3" d="M168,19H92.3c-1.8,0-4.3-1.5-4.3-3.4V4.5C88,2.7,90.5,1,92.3,1H168"/>
<path class="st6" d="M168,19H92.3c-1.8,0-4.3-1.5-4.3-3.4V4.5C88,2.7,90.5,1,92.3,1H168"/>
<g>
	<defs>
		<path id="SVGID_1_" d="M168,19H92.3c-1.8,0-4.3-1.5-4.3-3.4V4.5C88,2.7,90.5,1,92.3,1H168"/>
	</defs>
	<clipPath id="SVGID_2_">
		<use xlink:href="#SVGID_1_"  style="overflow:visible;"/>
	</clipPath>
	<rect x="88.8" y="2.2" class="st7" width="76.8" height="0.1"/>
	<rect x="88.8" y="3.1" class="st7" width="76.8" height="0.1"/>
	<rect x="88.8" y="4" class="st7" width="76.8" height="0.1"/>
	<rect x="88.8" y="4.9" class="st7" width="76.8" height="0.1"/>
	<rect x="88.8" y="5.8" class="st7" width="76.8" height="0.1"/>
	<rect x="88.8" y="6.8" class="st7" width="76.8" height="0.1"/>
	<rect x="88.8" y="7.7" class="st7" width="76.8" height="0.1"/>
	<rect x="88.8" y="8.6" class="st7" width="76.8" height="0.1"/>
	<rect x="88.8" y="9.5" class="st7" width="76.8" height="0.1"/>
	<rect x="88.8" y="10.4" class="st7" width="76.8" height="0.1"/>
	<rect x="88.8" y="11.3" class="st7" width="76.8" height="0.1"/>
	<rect x="88.8" y="12.3" class="st7" width="76.8" height="0.1"/>
	<rect x="88.8" y="13.2" class="st7" width="76.8" height="0.1"/>
	<rect x="88.8" y="14.1" class="st7" width="76.8" height="0.1"/>
	<rect x="88.8" y="15" class="st7" width="76.8" height="0.1"/>
	<rect x="88.8" y="15.9" class="st7" width="76.8" height="0.1"/>
	<rect x="88.8" y="16.9" class="st7" width="76.8" height="0.1"/>
	<rect x="88.8" y="17.8" class="st7" width="76.8" height="0.1"/>
	<rect x="88.8" y="18.7" class="st7" width="76.8" height="0.1"/>
</g>
<g>
	<defs>
		<path id="SVGID_3_" d="M173,39H97.9c-1.8,0-4.9-1.8-4.9-3.6V24.3c0-1.8,3.1-3.3,4.9-3.3H173"/>
	</defs>
	<clipPath id="SVGID_4_">
		<use xlink:href="#SVGID_3_"  style="overflow:visible;"/>
	</clipPath>
	<rect x="94.4" y="21.9" class="st8" width="76.8" height="0.1"/>
	<rect x="94.4" y="22.8" class="st8" width="76.8" height="0.1"/>
	<rect x="94.4" y="23.8" class="st8" width="76.8" height="0.1"/>
	<rect x="94.4" y="24.7" class="st8" width="76.8" height="0.1"/>
	<rect x="94.4" y="25.6" class="st8" width="76.8" height="0.1"/>
	<rect x="94.4" y="26.5" class="st8" width="76.8" height="0.1"/>
	<rect x="94.4" y="27.4" class="st8" width="76.8" height="0.1"/>
	<rect x="94.4" y="28.4" class="st8" width="76.8" height="0.1"/>
	<rect x="94.4" y="29.3" class="st8" width="76.8" height="0.1"/>
	<rect x="94.4" y="30.2" class="st8" width="76.8" height="0.1"/>
	<rect x="94.4" y="31.1" class="st8" width="76.8" height="0.1"/>
	<rect x="94.4" y="32" class="st8" width="76.8" height="0.1"/>
	<rect x="94.4" y="32.9" class="st8" width="76.8" height="0.1"/>
	<rect x="94.4" y="33.9" class="st8" width="76.8" height="0.1"/>
	<rect x="94.4" y="34.8" class="st8" width="76.8" height="0.1"/>
	<rect x="94.4" y="35.7" class="st8" width="76.8" height="0.1"/>
	<rect x="94.4" y="36.6" class="st8" width="76.8" height="0.1"/>
	<rect x="94.4" y="37.5" class="st8" width="76.8" height="0.1"/>
	<rect x="94.4" y="38.5" class="st8" width="76.8" height="0.1"/>
</g>
<g>
	<defs>
		<path id="SVGID_5_" d="M168,59H92.3c-1.8,0-4.3-2-4.3-3.9V44c0-1.8,2.5-3,4.3-3H168"/>
	</defs>
	<clipPath id="SVGID_6_">
		<use xlink:href="#SVGID_5_"  style="overflow:visible;"/>
	</clipPath>
	<rect x="88.8" y="41.7" class="st9" width="76.8" height="0.1"/>
	<rect x="88.8" y="42.6" class="st9" width="76.8" height="0.1"/>
	<rect x="88.8" y="43.5" class="st9" width="76.8" height="0.1"/>
	<rect x="88.8" y="44.4" class="st9" width="76.8" height="0.1"/>
	<rect x="88.8" y="45.4" class="st9" width="76.8" height="0.1"/>
	<rect x="88.8" y="46.3" class="st9" width="76.8" height="0.1"/>
	<rect x="88.8" y="47.2" class="st9" width="76.8" height="0.1"/>
	<rect x="88.8" y="48.1" class="st9" width="76.8" height="0.1"/>
	<rect x="88.8" y="49" class="st9" width="76.8" height="0.1"/>
	<rect x="88.8" y="50" class="st9" width="76.8" height="0.1"/>
	<rect x="88.8" y="50.9" class="st9" width="76.8" height="0.1"/>
	<rect x="88.8" y="51.8" class="st9" width="76.8" height="0.1"/>
	<rect x="88.8" y="52.7" class="st9" width="76.8" height="0.1"/>
	<rect x="88.8" y="53.6" class="st9" width="76.8" height="0.1"/>
	<rect x="88.8" y="54.5" class="st9" width="76.8" height="0.1"/>
	<rect x="88.8" y="55.5" class="st9" width="76.8" height="0.1"/>
	<rect x="88.8" y="56.4" class="st9" width="76.8" height="0.1"/>
	<rect x="88.8" y="57.3" class="st9" width="76.8" height="0.1"/>
	<rect x="88.8" y="58.2" class="st9" width="76.8" height="0.1"/>
</g>
<line class="st10" x1="127" y1="80.5" x2="183" y2="80.5"/>
<polyline class="st11" points="115.5,82.7 115.5,75.4 101.8,79.4 101.8,82.5 "/>
<rect x="115.5" y="75.4" class="st12" width="82.3" height="7.2"/>
<rect x="197.8" y="75.4" class="st13" width="4.9" height="7.2"/>
<path class="st14" d="M216.5,82.7V77c0-0.9-1-1.7-2.2-1.7h-11.6v7.4H216.5z"/>
<rect x="115.5" y="82.6" class="st15" width="82.3" height="7.2"/>
<rect x="197.8" y="82.6" class="st13" width="4.9" height="7.2"/>
<path class="st16" d="M216.5,82.7v5.7c0,0.9-1,1.7-2.2,1.7h-11.6v-7.4H216.5z"/>
<polyline class="st17" points="101.8,82.5 101.8,85.6 115.5,89.9 115.5,82.6 "/>
<g>
	
		<linearGradient id="SVGID_7_" gradientUnits="userSpaceOnUse" x1="-49.2245" y1="912.3044" x2="-49.2245" y2="906.0888" gradientTransform="matrix(1 0 0 1 148.146 -826.7012)">
		<stop  offset="0.5" style="stop-color:#36464E"/>
		<stop  offset="0.5" style="stop-color:#445A64"/>
	</linearGradient>
	<path class="st18" d="M101.8,79.4c0,0-1.8,0.7-4.1,1.5c-2.2,0.9-2.2,2.2,0,3.1c2.2,0.9,4.1,1.6,4.1,1.6"/>
</g>
<linearGradient id="SVGID_8_" gradientUnits="userSpaceOnUse" x1="51.8678" y1="81.2822" x2="58.7806" y2="77.2911">
	<stop  offset="0" style="stop-color:#BC7D2A"/>
	<stop  offset="0.5636" style="stop-color:#FDC13E"/>
	<stop  offset="0.7758" style="stop-color:#DC8726"/>
</linearGradient>
<path class="st19" d="M42.5,65l21.2,30.6c0,0,2.2,1.2,2.6-1.5L49.1,60.6C49.1,60.6,48.6,65.1,42.5,65z"/>
<path class="st20" d="M41.9,62.1c-0.5,0-0.9-0.1-0.9-0.1l0.1-0.4c0.2,0,4.4,0.7,5.9-3.3l0.4,0.1C46.2,61.7,43.4,62.1,41.9,62.1
	L41.9,62.1z"/>
<path class="st3" d="M42.1,62.3c-0.5,0-0.9-0.1-0.9-0.1l0.1-0.4c0.2,0,4.4,0.7,5.9-3.3l0.4,0.1C46.4,61.9,43.5,62.3,42.1,62.3
	L42.1,62.3z"/>
<rect x="49.7" y="85.3" class="st21" width="3.3" height="2.4"/>
<path class="st14" d="M49.6,94.5h2.6c0.4,0,0.8-0.5,0.8-1.1v-5.7h-3.4V94.5z"/>
<rect x="46.4" y="85.3" class="st21" width="3.3" height="2.4"/>
<path class="st16" d="M49.7,94.5h-2.5c-0.4,0-0.7-0.5-0.7-1.1v-5.7h3.3V94.5z"/>
<rect x="67.7" y="45.1" transform="matrix(0.3024 -0.9532 0.9532 0.3024 3.6927 99.6521)" class="st22" width="4.4" height="4.4"/>
<linearGradient id="SVGID_9_" gradientUnits="userSpaceOnUse" x1="300.4525" y1="3314.1846" x2="309.7758" y2="3310.4177" gradientTransform="matrix(0.8457 0.5337 -0.5337 0.8457 1578.0988 -2912.5325)">
	<stop  offset="0" style="stop-color:#929292"/>
	<stop  offset="0.1394" style="stop-color:#F0F0F0"/>
	<stop  offset="0.297" style="stop-color:#767676"/>
	<stop  offset="0.5636" style="stop-color:#E6E6E6"/>
	<stop  offset="0.9818" style="stop-color:#9F9F9F"/>
</linearGradient>
<path class="st23" d="M64.7,43.4c0,0-0.9,6.2-0.7,7.2c0,0-0.9-0.3-0.3,2.1c0,0-1.1,0.2-0.1,2.2c0,0-1.1-0.4-0.8,1.7
	c0,0,3.3,3.5,8,1.9c0,0,1.1-2.5,0.2-1.9c0,0,1.5-2,0.8-2.1c0,0,1.1-1.9,0.5-1.8l2.4-7.1C74.5,45.6,66.6,44.5,64.7,43.4z"/>
<linearGradient id="SVGID_10_" gradientUnits="userSpaceOnUse" x1="253.8047" y1="3312.6003" x2="261.5783" y2="3310.0745" gradientTransform="matrix(0.8645 0.5027 -0.5027 0.8645 1505.4379 -2919.3494)">
	<stop  offset="0" style="stop-color:#BC7D2A"/>
	<stop  offset="0.5636" style="stop-color:#FDC13E"/>
	<stop  offset="0.7758" style="stop-color:#DC8726"/>
</linearGradient>
<path class="st24" d="M62.9,56.7l-4.8,30.2c0,0,2.2,2.6,4.6,0.6l8.2-29.2C70.9,58.3,67,60.1,62.9,56.7z"/>
<path class="st25" d="M67.6,32c0,0-3.5,8.1-2.5,11.4c0,0,8,2.1,9.6,1.8c0,0,2.6-8.5,1.7-11l-0.9-0.1l-0.1-0.6l-0.5,0.3l-0.4-0.1
	l-0.2,0l-0.5-0.2c0,0-0.4,0.6-0.6,0.5c-0.2-0.1-0.4-0.1-0.5-0.3c-0.1-0.2-0.1-0.2-0.1-0.2s-0.3-0.4-0.5-0.3c-0.2,0,0.3-0.1-0.2,0
	c-0.5,0.1-0.9-0.1-0.9-0.1s0.1-0.1-0.1-0.1c-0.2,0-0.1,0.4-0.5,0.1c-0.4-0.3-0.2-0.1-0.4-0.3c-0.2-0.2-0.2-0.2-0.2-0.2l-0.4-0.1
	L68.9,32l-0.3,0c0,0,0.1,0.2-0.2,0c-0.3-0.1-0.3-0.1-0.3-0.1L67.6,32z"/>
<path class="st26" d="M74.8,44.9c0.2,0.3-0.3,0.4-0.3,0.4c-12.1-1.6-9.5-2.3-9.5-2.3"/>
<path class="st27" d="M65,51.4C64.4,51,64,50.6,64,50.6l0.1-0.1c0,0,3.9,3.4,8.1,2l0.1,0.2C69.3,53.6,66.5,52.3,65,51.4L65,51.4z"/>
<linearGradient id="SVGID_11_" gradientUnits="userSpaceOnUse" x1="305.1076" y1="3313.2788" x2="306.1181" y2="3316.4468" gradientTransform="matrix(0.8457 0.5337 -0.5337 0.8457 1578.0988 -2912.5325)">
	<stop  offset="0" style="stop-color:#FFFFFF"/>
	<stop  offset="0.5879" style="stop-color:#000000"/>
	<stop  offset="1" style="stop-color:#FFFFFF"/>
</linearGradient>
<path class="st28" d="M65,51.5c-0.7-0.4-1.1-0.8-1.1-0.8l0.1-0.1c0,0,3.9,3.4,8.1,2l0.1,0.2C69.2,53.7,66.4,52.4,65,51.5L65,51.5z"
	/>
<path class="st27" d="M64.7,53.3c-0.7-0.4-1.1-0.8-1.1-0.8l0.1-0.1c0,0,3.9,3.4,8.1,2l0.1,0.2C68.9,55.5,66.2,54.2,64.7,53.3
	L64.7,53.3z"/>
<linearGradient id="SVGID_12_" gradientUnits="userSpaceOnUse" x1="305.8343" y1="3315.0718" x2="306.8426" y2="3318.2332" gradientTransform="matrix(0.8457 0.5337 -0.5337 0.8457 1578.0988 -2912.5325)">
	<stop  offset="0" style="stop-color:#FFFFFF"/>
	<stop  offset="0.5879" style="stop-color:#000000"/>
	<stop  offset="1" style="stop-color:#FFFFFF"/>
</linearGradient>
<path class="st29" d="M64.6,53.4c-0.7-0.4-1.1-0.8-1.1-0.8l0.1-0.1c0,0,3.9,3.4,8.1,2l0.1,0.2C68.9,55.6,66.1,54.3,64.6,53.4
	L64.6,53.4z"/>
<path class="st27" d="M64.5,55.4c-0.6-0.4-1-0.7-1-0.7l0.1-0.1c0,0,3.6,3.2,7.6,1.7l0,0.1C68.4,57.4,65.8,56.2,64.5,55.4L64.5,55.4z
	"/>
<linearGradient id="SVGID_13_" gradientUnits="userSpaceOnUse" x1="306.5526" y1="3316.9172" x2="307.6193" y2="3320.2617" gradientTransform="matrix(0.8457 0.5337 -0.5337 0.8457 1578.0988 -2912.5325)">
	<stop  offset="0" style="stop-color:#FFFFFF"/>
	<stop  offset="0.5879" style="stop-color:#000000"/>
	<stop  offset="1" style="stop-color:#FFFFFF"/>
</linearGradient>
<path class="st30" d="M64.4,55.5c-0.6-0.4-1-0.7-1-0.7l0.1-0.1c0,0,3.6,3.2,7.6,1.7l0,0.1C68.3,57.5,65.8,56.3,64.4,55.5L64.4,55.5z
	"/>
<path class="st31" d="M36.4,43.7c0,0-1.5-0.4-0.9-5.6c0.1-1.6-1.6-4-2.1-4.5c-0.5-0.5,2.3,1.4,2.3,1.4L34.9,33c0,0,6.3,5.3,7.9,6.3
	c0,0-0.9,0.3-2.1-0.7c0,0-1.1,0.6,1.3,3.2c0,0,0,0.4-0.4,0c0,0-2.5-2.3-3-1.6c0,0-0.7,0.5,0.2,2.6c0,0,0,0.3-0.3,0
	c0,0-0.9-1.6-1.5-1.6C37,41.2,36,41.2,36.4,43.7z"/>
<path d="M36.4,43.7c0,0,0.3,4.1,6.4,5.6c0,0,1.8,0.7,2.9-1.8c0,0,1.3-4.9-2.9-8.2c0,0-0.6,0.4-2.1-0.7c0,0-1.1,0.6,1.3,3.2
	c0,0,0,0.3-0.3,0.1c0,0-2.4-2.4-3.1-1.6c-0.1,0.1-0.7,0.6,0.2,2.6c0,0,0.1,0.3-0.3,0c0,0-1.7-3.1-2.2-0.8
	C36.3,42.1,36.1,42.6,36.4,43.7z"/>
<linearGradient id="SVGID_14_" gradientUnits="userSpaceOnUse" x1="45.9227" y1="57.9761" x2="52.8355" y2="53.985">
	<stop  offset="0" style="stop-color:#929292"/>
	<stop  offset="0.1394" style="stop-color:#F0F0F0"/>
	<stop  offset="0.297" style="stop-color:#767676"/>
	<stop  offset="0.5636" style="stop-color:#E6E6E6"/>
	<stop  offset="0.9818" style="stop-color:#9F9F9F"/>
</linearGradient>
<path class="st32" d="M42.8,49.7L50,65c0,0,5.8,0.5,6.7-4.4L45.9,47.1C45.9,47.1,45.8,48.8,42.8,49.7z"/>
<path class="st20" d="M45.7,54.9c-0.4,0-0.6,0-0.6,0l0.1-0.3c0.1,0,3.3,0.6,4.4-2.6l0.3,0.1C48.9,54.5,46.8,54.9,45.7,54.9
	L45.7,54.9z"/>
<path class="st3" d="M45.9,55.1c-0.4,0-0.6,0-0.6,0l0.1-0.3c0.1,0,3.3,0.6,4.4-2.6l0.3,0.1C49.1,54.7,46.9,55.1,45.9,55.1L45.9,55.1
	z"/>
<path class="st20" d="M47.3,57.8c-0.4,0-0.7,0-0.7-0.1l0.1-0.3c0.1,0,3.6,0.6,4.9-2.9l0.3,0.1C50.9,57.4,48.5,57.8,47.3,57.8
	L47.3,57.8z"/>
<path class="st3" d="M47.5,58c-0.4,0-0.7,0-0.7-0.1l0.1-0.3c0.1,0,3.6,0.6,4.9-2.9l0.3,0.1C51,57.6,48.7,58,47.5,58L47.5,58z"/>
<path class="st33" d="M42.8,48.8c0,0-5.2-1.9-5.5-5.7c0,0,1.1,3.3,5.5,5.4"/>
<path class="st33" d="M39.6,42.1c0,0-2.1,4.8,4.5,6.1C44,48.2,39.4,45.4,39.6,42.1z"/>
<path class="st3" d="M42.8,39.7c0,0,2.1,2.5,3,7.1C45.9,47.1,43.4,40,42.8,39.7z"/>
<path class="st33" d="M41.6,40.2c0,0,3,4.1,2.7,7.4C44.3,47.2,41.6,40.2,41.6,40.2z"/>
<rect x="57.2" y="33.5" class="st34" width="3.3" height="51.9"/>
<rect x="53.9" y="33.5" class="st35" width="3.3" height="51.9"/>
<polyline class="st11" points="57.2,33.5 60.5,33.5 58.7,26.8 57.2,26.8 "/>
<polyline class="st17" points="57.3,26.8 55.9,26.8 53.9,33.5 57.2,33.5 "/>
<g>
	
		<linearGradient id="SVGID_15_" gradientUnits="userSpaceOnUse" x1="3744.8469" y1="7769.4131" x2="3744.8469" y2="7766.5957" gradientTransform="matrix(0 1 -1 0 7825.3203 -3719.4707)">
		<stop  offset="0.5" style="stop-color:#36464E"/>
		<stop  offset="0.5" style="stop-color:#445A64"/>
	</linearGradient>
	<path class="st36" d="M58.7,26.8c0,0-0.3-0.9-0.7-2s-1-1.1-1.4,0c-0.4,1.1-0.7,2-0.7,2"/>
</g>
<path class="st37" d="M42.1,96h34.8l3.4-41.7c-2.3,0.8-10.9,1.2-21.2,1.2c-10.1,0-18.6-0.3-21-1.1L42.1,96z"/>
</svg>
