<?xml version="1.0" encoding="utf-8"?>
<!-- Generator: Adobe Illustrator 20.0.0, SVG Export Plug-In . SVG Version: 6.00 Build 0)  -->
<svg version="1.1" id="Layer_1" xmlns="http://www.w3.org/2000/svg" xmlns:xlink="http://www.w3.org/1999/xlink" x="0px" y="0px"
	 viewBox="0 0 139.1 139.1" style="enable-background:new 0 0 139.1 139.1;" xml:space="preserve">
<style type="text/css">
	.st0{fill:#F7F7F2;}
	.st1{fill:#333333;}
	.st2{fill:url(#SVGID_1_);}
	.st3{fill:#475059;}
	.st4{opacity:0.5;fill:none;stroke:#A3A1A1;stroke-miterlimit:10;}
	.st5{fill:#FBD737;}
	.st6{fill:#F8F6F2;}
	.st7{fill:#D64527;}
	.st8{fill:#F8BF2B;}
	.st9{fill:#BC3A26;}
	.st10{fill:#F4B26D;}
	.st11{fill:#F5A657;}
	.st12{fill:url(#SVGID_2_);}
	.st13{fill:#E6E4E4;}
	.st14{fill:#FFFFFF;}
	.st15{fill:#F5835F;}
	.st16{fill:#CCCAC9;}
	.st17{fill:none;stroke:#010101;stroke-miterlimit:10;}
	.st18{fill:#FFFFFF;stroke:#010101;stroke-miterlimit:10;}
	.st19{fill:#FEC76E;}
	.st20{fill:none;stroke:#190B0C;stroke-miterlimit:10;}
	.st21{fill:url(#SVGID_3_);}
</style>
<g>
	<circle class="st0" cx="69.6" cy="69.6" r="69.6"/>
	<path class="st1" d="M122.7,101.3c0,1.4-1.1,2.5-2.5,2.5h-95c-1.4,0-2.5-1.1-2.5-2.5v-62c0-1.4,1.1-2.5,2.5-2.5h95
		c1.4,0,2.5,1.1,2.5,2.5V101.3z"/>
	<linearGradient id="SVGID_1_" gradientUnits="userSpaceOnUse" x1="72.2109" y1="40.8086" x2="72.2109" y2="95.8086">
		<stop  offset="0.3309" style="stop-color:#2BAA4A"/>
		<stop  offset="0.3409" style="stop-color:#FDE9E9"/>
	</linearGradient>
	<rect x="28.7" y="40.8" class="st2" width="87" height="55"/>
	<rect x="5.7" y="74.8" class="st3" width="127" height="14"/>
	<line class="st4" x1="9.2" y1="74.8" x2="9.2" y2="76.8"/>
	<line class="st4" x1="7.2" y1="74.8" x2="7.2" y2="76.8"/>
	<line class="st4" x1="11.2" y1="74.8" x2="11.2" y2="76.8"/>
	<line class="st4" x1="13.2" y1="74.8" x2="13.2" y2="76.8"/>
	<line class="st4" x1="15.2" y1="74.8" x2="15.2" y2="77.8"/>
	<line class="st4" x1="17.2" y1="74.8" x2="17.2" y2="76.8"/>
	<line class="st4" x1="19.2" y1="74.8" x2="19.2" y2="76.8"/>
	<line class="st4" x1="21.2" y1="74.8" x2="21.2" y2="77.8"/>
	<line class="st4" x1="23.2" y1="74.8" x2="23.2" y2="76.8"/>
	<line class="st4" x1="25.2" y1="74.8" x2="25.2" y2="76.8"/>
	<line class="st4" x1="27.2" y1="74.8" x2="27.2" y2="76.8"/>
	<line class="st4" x1="29.2" y1="74.8" x2="29.2" y2="77.8"/>
	<line class="st4" x1="31.2" y1="74.8" x2="31.2" y2="76.8"/>
	<line class="st4" x1="33.2" y1="74.8" x2="33.2" y2="76.8"/>
	<line class="st4" x1="35.2" y1="74.8" x2="35.2" y2="76.8"/>
	<line class="st4" x1="37.2" y1="74.8" x2="37.2" y2="77.8"/>
	<line class="st4" x1="39.2" y1="74.8" x2="39.2" y2="76.8"/>
	<line class="st4" x1="41.2" y1="74.8" x2="41.2" y2="76.8"/>
	<line class="st4" x1="43.2" y1="74.8" x2="43.2" y2="76.8"/>
	<line class="st4" x1="45.2" y1="74.8" x2="45.2" y2="76.8"/>
	<line class="st4" x1="47.2" y1="74.8" x2="47.2" y2="76.8"/>
	<line class="st4" x1="49.2" y1="74.8" x2="49.2" y2="76.8"/>
	<line class="st4" x1="51.2" y1="74.8" x2="51.2" y2="76.8"/>
	<line class="st4" x1="52.2" y1="74.8" x2="52.2" y2="77.8"/>
	<line class="st4" x1="54.2" y1="74.8" x2="54.2" y2="76.8"/>
	<line class="st4" x1="55.2" y1="74.8" x2="55.2" y2="76.8"/>
	<line class="st4" x1="57.2" y1="74.8" x2="57.2" y2="76.8"/>
	<line class="st4" x1="58.2" y1="74.8" x2="58.2" y2="76.8"/>
	<line class="st4" x1="60.2" y1="74.8" x2="60.2" y2="77.8"/>
	<line class="st4" x1="61.2" y1="74.8" x2="61.2" y2="76.8"/>
	<line class="st4" x1="63.2" y1="74.8" x2="63.2" y2="76.8"/>
	<line class="st4" x1="64.2" y1="74.8" x2="64.2" y2="76.8"/>
	<line class="st4" x1="66.2" y1="74.8" x2="66.2" y2="76.8"/>
	<line class="st4" x1="67.2" y1="74.8" x2="67.2" y2="77.8"/>
	<line class="st4" x1="69.2" y1="74.8" x2="69.2" y2="76.8"/>
	<line class="st4" x1="70.2" y1="74.8" x2="70.2" y2="76.8"/>
	<line class="st4" x1="72.2" y1="74.8" x2="72.2" y2="76.8"/>
	<line class="st4" x1="73.2" y1="74.8" x2="73.2" y2="76.8"/>
	<line class="st4" x1="75.2" y1="74.8" x2="75.2" y2="77.8"/>
	<line class="st4" x1="76.2" y1="74.8" x2="76.2" y2="76.8"/>
	<line class="st4" x1="78.2" y1="74.8" x2="78.2" y2="76.8"/>
	<line class="st4" x1="79.2" y1="74.8" x2="79.2" y2="76.8"/>
	<line class="st4" x1="81.2" y1="74.8" x2="81.2" y2="76.8"/>
	<line class="st4" x1="82.2" y1="74.8" x2="82.2" y2="77.8"/>
	<line class="st4" x1="84.2" y1="74.8" x2="84.2" y2="76.8"/>
	<line class="st4" x1="85.2" y1="74.8" x2="85.2" y2="76.8"/>
	<line class="st4" x1="87.2" y1="74.8" x2="87.2" y2="76.8"/>
	<line class="st4" x1="88.2" y1="74.8" x2="88.2" y2="76.8"/>
	<line class="st4" x1="90.2" y1="74.8" x2="90.2" y2="77.8"/>
	<line class="st4" x1="91.2" y1="74.8" x2="91.2" y2="76.8"/>
	<line class="st4" x1="93.2" y1="74.8" x2="93.2" y2="76.8"/>
	<line class="st4" x1="94.2" y1="74.8" x2="94.2" y2="76.8"/>
	<line class="st4" x1="96.2" y1="74.8" x2="96.2" y2="76.8"/>
	<line class="st4" x1="97.2" y1="74.8" x2="97.2" y2="77.8"/>
	<line class="st4" x1="99.2" y1="74.8" x2="99.2" y2="76.8"/>
	<line class="st4" x1="100.2" y1="74.8" x2="100.2" y2="76.8"/>
	<line class="st4" x1="102.2" y1="74.8" x2="102.2" y2="76.8"/>
	<line class="st4" x1="103.2" y1="74.8" x2="103.2" y2="76.8"/>
	<line class="st4" x1="105.2" y1="74.8" x2="105.2" y2="77.8"/>
	<line class="st4" x1="106.2" y1="74.8" x2="106.2" y2="76.8"/>
	<line class="st4" x1="108.2" y1="74.8" x2="108.2" y2="76.8"/>
	<line class="st4" x1="109.2" y1="74.8" x2="109.2" y2="76.8"/>
	<line class="st4" x1="111.2" y1="74.8" x2="111.2" y2="76.8"/>
	<line class="st4" x1="112.2" y1="74.8" x2="112.2" y2="77.8"/>
	<line class="st4" x1="114.2" y1="74.8" x2="114.2" y2="76.8"/>
	<line class="st4" x1="115.2" y1="74.8" x2="115.2" y2="76.8"/>
	<line class="st4" x1="117.2" y1="74.8" x2="117.2" y2="76.8"/>
	<line class="st4" x1="118.2" y1="74.8" x2="118.2" y2="76.8"/>
	<line class="st4" x1="120.2" y1="74.8" x2="120.2" y2="77.8"/>
	<line class="st4" x1="121.2" y1="74.8" x2="121.2" y2="76.8"/>
	<line class="st4" x1="123.2" y1="74.8" x2="123.2" y2="76.8"/>
	<line class="st4" x1="124.2" y1="74.8" x2="124.2" y2="76.8"/>
	<line class="st4" x1="126.2" y1="74.8" x2="126.2" y2="76.8"/>
	<line class="st4" x1="127.2" y1="74.8" x2="127.2" y2="77.8"/>
	<line class="st4" x1="129.2" y1="74.8" x2="129.2" y2="76.8"/>
	<line class="st4" x1="130.2" y1="74.8" x2="130.2" y2="76.8"/>
	<line class="st4" x1="132.2" y1="74.8" x2="132.2" y2="76.8"/>
	<line class="st4" x1="120.2" y1="88.8" x2="120.2" y2="82.8"/>
	<line class="st4" x1="126.2" y1="88.8" x2="126.2" y2="82.8"/>
	<line class="st4" x1="132.2" y1="88.8" x2="132.2" y2="82.8"/>
	<line class="st4" x1="112.2" y1="88.8" x2="112.2" y2="82.8"/>
	<line class="st4" x1="105.2" y1="88.8" x2="105.2" y2="82.8"/>
	<line class="st4" x1="97.2" y1="88.8" x2="97.2" y2="82.8"/>
	<line class="st4" x1="90.2" y1="88.8" x2="90.2" y2="82.8"/>
	<line class="st4" x1="82.2" y1="88.8" x2="82.2" y2="82.8"/>
	<line class="st4" x1="75.2" y1="88.8" x2="75.2" y2="82.8"/>
	<line class="st4" x1="67.2" y1="88.8" x2="67.2" y2="82.8"/>
	<line class="st4" x1="60.2" y1="88.8" x2="60.2" y2="82.8"/>
	<line class="st4" x1="52.2" y1="88.8" x2="52.2" y2="82.8"/>
	<line class="st4" x1="45.2" y1="88.8" x2="45.2" y2="82.8"/>
	<line class="st4" x1="37.2" y1="88.8" x2="37.2" y2="82.8"/>
	<line class="st4" x1="30.2" y1="88.8" x2="30.2" y2="82.8"/>
	<line class="st4" x1="16.2" y1="88.8" x2="16.2" y2="82.8"/>
	<line class="st4" x1="7.2" y1="88.8" x2="7.2" y2="84.8"/>
	<line class="st4" x1="11.2" y1="88.8" x2="11.2" y2="84.8"/>
	<line class="st4" x1="20.2" y1="88.8" x2="20.2" y2="84.8"/>
	<line class="st4" x1="24.2" y1="88.8" x2="24.2" y2="84.8"/>
	<rect x="23.2" y="45.4" class="st5" width="91.6" height="5.8"/>
	<rect x="114.9" y="45.6" class="st6" width="4.2" height="5.8"/>
	<path class="st7" d="M131.1,51.5v-4.6c0-0.7-0.8-1.3-1.9-1.3h-10.1v5.9H131.1z"/>
	<rect x="23.2" y="51.3" class="st8" width="91.6" height="5.8"/>
	<rect x="114.9" y="51.4" class="st6" width="4.2" height="5.8"/>
	<path class="st9" d="M131.1,51.5V56c0,0.7-0.8,1.3-1.9,1.3h-10.1v-5.9H131.1z"/>
	<polyline class="st10" points="23.2,51.3 23.2,45.4 11.3,48.7 11.3,51.2 	"/>
	<polyline class="st11" points="11.3,51.1 11.3,53.7 23.2,57.1 23.2,51.3 	"/>
	
		<linearGradient id="SVGID_2_" gradientUnits="userSpaceOnUse" x1="8410.1729" y1="12016.1367" x2="8410.1729" y2="12011.1602" gradientTransform="matrix(1 0 0 1 -8401.3203 -11962.584)">
		<stop  offset="0.5" style="stop-color:#37474F"/>
		<stop  offset="0.5" style="stop-color:#445B65"/>
	</linearGradient>
	<path class="st12" d="M11.3,48.6c0,0-1.6,0.6-3.5,1.2c-1.9,0.7-1.9,1.8,0,2.5c1.9,0.7,3.5,1.2,3.5,1.2"/>
	<rect x="50.7" y="26.8" class="st13" width="63" height="89"/>
	<rect x="53.7" y="35.8" class="st14" width="57" height="78"/>
	<rect x="50.7" y="30.8" class="st5" width="63" height="5"/>
	<rect x="50.7" y="28.8" class="st13" width="63" height="2"/>
	<rect x="56.7" y="29.8" class="st14" width="51" height="1"/>
	<rect x="108.7" y="29.8" class="st14" width="3" height="1"/>
	<rect x="111.5" y="29.5" class="st14" width="2" height="1"/>
	<rect x="52" y="29.5" class="st14" width="1.5" height="1"/>
	<rect x="54" y="29.5" class="st14" width="1.5" height="1"/>
	<rect x="50.7" y="26.8" class="st15" width="6" height="1"/>
	<rect x="56.7" y="26.8" class="st3" width="12" height="1"/>
	<rect x="68.7" y="26.8" class="st16" width="14" height="1"/>
	<rect x="56.7" y="38.8" class="st7" width="51" height="3"/>
	<rect x="101.7" y="38.8" class="st3" width="6" height="3"/>
	<rect x="85.7" y="38.8" class="st14" width="15" height="3"/>
	<rect x="57.7" y="39.8" class="st14" width="5" height="1"/>
	<rect x="63.7" y="39.8" class="st14" width="4" height="1"/>
	<rect x="68.7" y="39.8" class="st14" width="4" height="1"/>
	<rect x="73.7" y="39.8" class="st14" width="4" height="1"/>
	<rect x="53.7" y="32.8" class="st14" width="14" height="1"/>
	<rect x="73.7" y="32.8" class="st14" width="3" height="1"/>
	<rect x="78.7" y="32.8" class="st14" width="4" height="1"/>
	<rect x="93.7" y="32.8" class="st14" width="6" height="1"/>
	<rect x="101.7" y="32.8" class="st14" width="6" height="1"/>
	<rect x="108.7" y="32.8" class="st3" width="4" height="1"/>
	<rect x="65.7" y="43.8" class="st7" width="5" height="4"/>
	<rect x="75.7" y="43.8" class="st7" width="4" height="4"/>
	<rect x="84.7" y="43.8" class="st7" width="5" height="4"/>
	<rect x="93.7" y="43.8" class="st7" width="5" height="4"/>
	<line class="st17" x1="74.7" y1="49.3" x2="80.7" y2="49.3"/>
	<line class="st18" x1="74.7" y1="49.3" x2="80.7" y2="49.3"/>
	<line class="st18" x1="76.7" y1="50.3" x2="79.7" y2="50.3"/>
	<line class="st17" x1="65.7" y1="49.3" x2="70.7" y2="49.3"/>
	<line class="st18" x1="65.7" y1="49.3" x2="70.7" y2="49.3"/>
	<line class="st18" x1="67.7" y1="50.3" x2="70.7" y2="50.3"/>
	<line class="st18" x1="84.7" y1="49.3" x2="90.7" y2="49.3"/>
	<line class="st18" x1="84.7" y1="49.3" x2="90.7" y2="49.3"/>
	<line class="st18" x1="85.7" y1="50.3" x2="87.7" y2="50.3"/>
	<line class="st18" x1="93.7" y1="49.3" x2="99.7" y2="49.3"/>
	<line class="st18" x1="93.7" y1="49.3" x2="99.7" y2="49.3"/>
	<line class="st18" x1="94.7" y1="50.3" x2="97.7" y2="50.3"/>
	<rect x="53.7" y="53.8" class="st19" width="57" height="22"/>
	<rect x="62.7" y="58.8" class="st14" width="13" height="12"/>
	<line class="st17" x1="76.7" y1="61.3" x2="101.7" y2="61.3"/>
	<line class="st17" x1="77.5" y1="62.5" x2="102.6" y2="62.7"/>
	<line class="st17" x1="76.7" y1="63.3" x2="101.7" y2="63.3"/>
	<line class="st17" x1="76.7" y1="65.3" x2="98.7" y2="65.3"/>
	<rect x="76.7" y="58.8" class="st15" width="16" height="1"/>
	<polygon class="st14" points="105.7,64.3 105.7,63.2 106.5,63.7 107.2,64.3 106.5,64.8 105.7,65.4 	"/>
	<polygon class="st14" points="58.7,64 58.7,65.1 58.4,64.6 58,64 58.3,63.5 58.7,62.9 	"/>
	<rect x="56.7" y="78.8" class="st19" width="14" height="9"/>
	<rect x="74.7" y="79.8" class="st3" width="15" height="9"/>
	<rect x="93.7" y="78.8" class="st15" width="14" height="9"/>
	<rect x="56.7" y="89.8" class="st3" width="14" height="2"/>
	<rect x="74.7" y="89.8" class="st3" width="15" height="2"/>
	<rect x="93.7" y="89.8" class="st3" width="14" height="2"/>
	<line class="st17" x1="56.7" y1="93.3" x2="70.7" y2="93.3"/>
	<line class="st17" x1="56.7" y1="94.3" x2="70.7" y2="94.3"/>
	<line class="st17" x1="59.7" y1="96.3" x2="65.7" y2="96.3"/>
	<line class="st17" x1="74.7" y1="93.3" x2="89.7" y2="93.3"/>
	<line class="st17" x1="74.7" y1="94.3" x2="89.7" y2="94.3"/>
	<line class="st17" x1="79.7" y1="96.3" x2="85.7" y2="96.3"/>
	<line class="st17" x1="93.7" y1="93.3" x2="107.7" y2="93.3"/>
	<line class="st17" x1="93.7" y1="94.3" x2="107.7" y2="94.3"/>
	<line class="st17" x1="97.7" y1="97.3" x2="104.7" y2="97.3"/>
	<rect x="56.7" y="99.8" class="st3" width="6" height="5"/>
	<line class="st17" x1="64.7" y1="99.3" x2="70.7" y2="99.3"/>
	<line class="st17" x1="64.7" y1="101.3" x2="70.7" y2="101.3"/>
	<line class="st17" x1="64.7" y1="103.3" x2="68.7" y2="103.3"/>
	<line class="st20" x1="56.7" y1="106.3" x2="70.7" y2="106.3"/>
	<line class="st20" x1="56.7" y1="107.3" x2="70.7" y2="107.3"/>
	<line class="st20" x1="56.7" y1="109.3" x2="70.7" y2="109.3"/>
	<line class="st20" x1="56.7" y1="111.3" x2="65.7" y2="111.3"/>
	<rect x="74.7" y="99.8" class="st19" width="15" height="10"/>
	<line class="st17" x1="93.7" y1="99.3" x2="100.7" y2="99.3"/>
	<line class="st17" x1="93.7" y1="101.3" x2="107.7" y2="101.3"/>
	<line class="st17" x1="93.7" y1="102.3" x2="107.7" y2="102.3"/>
	<line class="st17" x1="93.7" y1="103.3" x2="107.7" y2="103.3"/>
	<line class="st17" x1="93.7" y1="105.3" x2="107.7" y2="105.3"/>
	<line class="st17" x1="96.7" y1="107.3" x2="104.7" y2="107.3"/>
	<rect x="93.7" y="108.8" class="st3" width="10" height="1"/>
	<rect x="103.7" y="108.8" class="st19" width="4" height="1"/>
	<rect x="25.7" y="76.8" class="st1" width="24" height="42"/>
	<linearGradient id="SVGID_3_" gradientUnits="userSpaceOnUse" x1="37.2109" y1="78.8086" x2="37.2109" y2="114.8086">
		<stop  offset="0.3309" style="stop-color:#2BAA4A"/>
		<stop  offset="0.3409" style="stop-color:#FDE9E9"/>
	</linearGradient>
	<rect x="25.7" y="78.8" class="st21" width="23" height="36"/>
	<circle class="st14" cx="37.8" cy="116.9" r="1.3"/>
	<rect x="25.7" y="77.8" class="st13" width="23" height="37"/>
	<rect x="26.7" y="81.8" class="st14" width="21" height="33"/>
	<rect x="25.7" y="79.8" class="st5" width="23" height="2"/>
	<rect x="25.7" y="78.8" class="st13" width="23" height="1"/>
	<rect x="27.7" y="78.8" class="st14" width="19" height="1"/>
	<rect x="47.3" y="79.3" class="st14" width="0.7" height="0.4"/>
	<rect x="48" y="79.3" class="st14" width="0.7" height="0.4"/>
	<rect x="26.4" y="79.2" class="st14" width="0.5" height="0.4"/>
	<rect x="27.1" y="79.2" class="st14" width="0.5" height="0.4"/>
	<rect x="26" y="78" class="st15" width="2" height="0.5"/>
	<rect x="27.7" y="77.8" class="st3" width="5" height="1"/>
	<rect x="32.7" y="77.8" class="st16" width="5" height="1"/>
	<rect x="27.7" y="82.8" class="st7" width="19" height="1"/>
	<rect x="45" y="83" class="st3" width="1.5" height="1"/>
	<rect x="38.7" y="82.8" class="st14" width="6" height="1"/>
	<rect x="28.5" y="83" class="st14" width="1.5" height="1"/>
	<rect x="30" y="83" class="st14" width="2" height="1"/>
	<rect x="32.5" y="83" class="st14" width="1.5" height="1"/>
	<rect x="34.5" y="83" class="st14" width="1.5" height="1"/>
	<polygon class="st14" points="31.6,80.8 26.6,80.8 26.6,80.8 31.6,80.8 	"/>
	<rect x="34" y="80.5" class="st14" width="1.5" height="0.5"/>
	<rect x="36.3" y="80.6" class="st14" width="0.9" height="0.6"/>
	<polygon class="st14" points="43.6,80.8 41.6,80.8 41.6,80.8 43.6,80.8 	"/>
	<rect x="45" y="80.5" class="st14" width="2" height="0.5"/>
	<rect x="47" y="80.5" class="st3" width="1.5" height="0.5"/>
	<rect x="31.6" y="84.8" class="st7" width="2" height="2"/>
	<rect x="34.6" y="84.8" class="st7" width="2" height="2"/>
	<rect x="38.6" y="84.8" class="st7" width="1" height="2"/>
	<rect x="41.6" y="84.8" class="st7" width="2" height="2"/>
	<line class="st17" x1="34.7" y1="87.3" x2="36.7" y2="87.3"/>
	<line class="st18" x1="34.7" y1="87.3" x2="36.7" y2="87.3"/>
	<line class="st18" x1="35.7" y1="88.3" x2="36.7" y2="88.3"/>
	<line class="st17" x1="31.7" y1="87.3" x2="33.7" y2="87.3"/>
	<line class="st18" x1="31.7" y1="88.3" x2="32.7" y2="88.3"/>
	<line class="st18" x1="38.7" y1="87.3" x2="40.7" y2="87.3"/>
	<line class="st18" x1="38.7" y1="87.3" x2="40.7" y2="87.3"/>
	<line class="st18" x1="38.7" y1="88.3" x2="39.7" y2="88.3"/>
	<line class="st18" x1="41.7" y1="87.3" x2="43.7" y2="87.3"/>
	<line class="st18" x1="41.7" y1="87.3" x2="43.7" y2="87.3"/>
	<line class="st18" x1="41.7" y1="88.3" x2="43.7" y2="88.3"/>
	<rect x="26.7" y="88.8" class="st19" width="21" height="9"/>
	<rect x="29.7" y="91.8" class="st14" width="5" height="4"/>
	<line class="st17" x1="35.7" y1="92.3" x2="44.7" y2="92.3"/>
	<line class="st17" x1="35.7" y1="92.9" x2="44.9" y2="93"/>
	<line class="st17" x1="35.7" y1="93.3" x2="44.7" y2="93.3"/>
	<line class="st17" x1="35.7" y1="94.3" x2="43.7" y2="94.3"/>
	<polygon class="st15" points="40.6,91.8 35.6,91.8 35.6,91.8 40.6,91.8 	"/>
	<polygon class="st14" points="46,93.6 46,93.1 46.3,93.4 46.5,93.6 46.2,93.8 46,94.1 	"/>
	<polygon class="st14" points="29.1,93.5 29.1,94 28.8,93.7 28.6,93.5 28.8,93.3 29.1,93 	"/>
	<rect x="27.7" y="99.8" class="st19" width="6" height="4"/>
	<rect x="34.7" y="99.8" class="st3" width="5" height="4"/>
	<rect x="41.7" y="99.8" class="st15" width="5" height="4"/>
	<rect x="27.7" y="103.8" class="st3" width="6" height="1"/>
	<rect x="34.7" y="103.8" class="st3" width="5" height="1"/>
	<rect x="41.7" y="103.8" class="st3" width="5" height="1"/>
	<line class="st17" x1="27.7" y1="105.3" x2="33.7" y2="105.3"/>
	<line class="st17" x1="27.7" y1="106.3" x2="33.7" y2="106.3"/>
	<line class="st17" x1="29.7" y1="106.3" x2="31.7" y2="106.3"/>
	<line class="st17" x1="34.7" y1="105.3" x2="39.7" y2="105.3"/>
	<line class="st17" x1="34.7" y1="106.3" x2="39.7" y2="106.3"/>
	<line class="st17" x1="36.7" y1="106.3" x2="38.7" y2="106.3"/>
	<line class="st17" x1="41.7" y1="105.3" x2="46.7" y2="105.3"/>
	<line class="st17" x1="41.7" y1="106.3" x2="46.7" y2="106.3"/>
	<line class="st17" x1="42.7" y1="106.3" x2="44.7" y2="106.3"/>
	<rect x="28" y="108.5" class="st3" width="2" height="1.5"/>
	<line class="st17" x1="30.7" y1="108.3" x2="33.7" y2="108.3"/>
	<line class="st17" x1="30.7" y1="109.3" x2="33.7" y2="109.3"/>
	<line class="st17" x1="30.7" y1="109.3" x2="32.7" y2="109.3"/>
	<line class="st20" x1="27.7" y1="111.3" x2="33.7" y2="111.3"/>
	<line class="st20" x1="27.7" y1="111.3" x2="33.7" y2="111.3"/>
	<line class="st20" x1="27.7" y1="111.3" x2="33.7" y2="111.3"/>
	<line class="st20" x1="27.7" y1="112.3" x2="31.7" y2="112.3"/>
	<rect x="34.7" y="108.8" class="st19" width="5" height="4"/>
	<line class="st17" x1="41.7" y1="108.3" x2="44.7" y2="108.3"/>
	<line class="st17" x1="41.7" y1="109.3" x2="46.7" y2="109.3"/>
	<line class="st17" x1="41.7" y1="109.3" x2="46.7" y2="109.3"/>
	<line class="st17" x1="41.7" y1="109.3" x2="46.7" y2="109.3"/>
	<line class="st17" x1="41.7" y1="110.3" x2="46.7" y2="110.3"/>
	<line class="st17" x1="42.7" y1="111.3" x2="45.7" y2="111.3"/>
	<polygon class="st3" points="45.3,112.8 41.5,112.8 41.5,112.8 45.3,112.8 	"/>
	<polygon class="st19" points="46.7,112.5 45.3,112.5 45.3,112.5 46.7,112.5 	"/>
</g>
</svg>
