<?xml version="1.0" encoding="utf-8"?>
<!-- Generator: Adobe Illustrator 20.0.0, SVG Export Plug-In . SVG Version: 6.00 Build 0)  -->
<svg version="1.1" id="Layer_1" xmlns="http://www.w3.org/2000/svg" xmlns:xlink="http://www.w3.org/1999/xlink" x="0px" y="0px"
	 viewBox="0 0 139.1 139.1" style="enable-background:new 0 0 139.1 139.1;" xml:space="preserve">
<style type="text/css">
	.st0{fill:#FFFCE8;}
	.st1{fill:#B4DBE6;}
	.st2{fill:#42160C;}
	.st3{fill:none;stroke:#939393;stroke-width:0.25;stroke-miterlimit:10;}
	.st4{fill:#FFFFFF;}
	.st5{fill:none;stroke:#181616;stroke-miterlimit:10;}
	.st6{fill:none;stroke:#181616;stroke-miterlimit:10;stroke-dasharray:7.2124,7.2124;}
	.st7{fill:none;stroke:#181616;stroke-miterlimit:10;stroke-dasharray:7.1992,7.1992;}
	.st8{fill:none;stroke:#181616;stroke-miterlimit:10;stroke-dasharray:8.321,8.321;}
	.st9{fill:#FFFFFF;stroke:#181616;stroke-miterlimit:10;}
	.st10{fill:#F4F4F4;}
	.st11{fill:#7C7B7B;}
	.st12{fill:#3A3B3A;}
	.st13{fill:url(#SVGID_1_);}
	.st14{fill:none;stroke:#454546;stroke-width:0.5;stroke-miterlimit:10;}
	.st15{fill:#F9F9FA;stroke:#454546;stroke-width:0.5;stroke-miterlimit:10;}
</style>
<g>
	<circle class="st0" cx="69.6" cy="69.6" r="69.6"/>
	<rect x="26.2" y="25.8" class="st1" width="87" height="70"/>
	<path class="st2" d="M32.2,85.2V19.7c-3,0-6,2.8-6,6.2v62.5c0,0.3-0.1,0.6,0,0.9C27.7,87.1,29.2,85.7,32.2,85.2z"/>
	<path class="st2" d="M107.2,85.2V19.7c3,0,6,2.8,6,6.2v62.5c0,0.3,0.1,0.6,0,0.9C111.7,87.1,109.2,85.7,107.2,85.2z"/>
	<line class="st3" x1="33.6" y1="33.2" x2="105.4" y2="33.2"/>
	<line class="st3" x1="33.6" y1="38.3" x2="105.4" y2="38.3"/>
	<line class="st3" x1="33.6" y1="43.5" x2="105.4" y2="43.5"/>
	<line class="st3" x1="33.6" y1="48.7" x2="105.4" y2="48.7"/>
	<line class="st3" x1="33.6" y1="53.9" x2="105.4" y2="53.9"/>
	<line class="st3" x1="33.6" y1="59.1" x2="105.4" y2="59.1"/>
	<line class="st3" x1="33.6" y1="64.3" x2="105.4" y2="64.3"/>
	<line class="st3" x1="33.6" y1="69.5" x2="105.4" y2="69.5"/>
	<line class="st3" x1="33.6" y1="74.6" x2="105.4" y2="74.6"/>
	<line class="st3" x1="33.6" y1="79.8" x2="105.4" y2="79.8"/>
	<line class="st3" x1="33.6" y1="85" x2="105.4" y2="85"/>
	<line class="st3" x1="87.4" y1="30.9" x2="87.4" y2="87.9"/>
	<line class="st3" x1="82.2" y1="30.9" x2="82.2" y2="87.9"/>
	<line class="st3" x1="77" y1="30.9" x2="77" y2="87.9"/>
	<line class="st3" x1="71.8" y1="30.9" x2="71.8" y2="87.9"/>
	<line class="st3" x1="66.6" y1="30.9" x2="66.6" y2="87.9"/>
	<line class="st3" x1="61.5" y1="30.9" x2="61.5" y2="87.9"/>
	<line class="st3" x1="56.3" y1="30.9" x2="56.3" y2="87.9"/>
	<line class="st3" x1="51.1" y1="30.9" x2="51.1" y2="87.9"/>
	<line class="st3" x1="45.9" y1="30.9" x2="45.9" y2="87.9"/>
	<line class="st3" x1="40.7" y1="30.9" x2="40.7" y2="87.9"/>
	<line class="st3" x1="35.5" y1="30.9" x2="35.5" y2="87.9"/>
	<line class="st3" x1="102.7" y1="30.9" x2="102.7" y2="87.9"/>
	<line class="st3" x1="97.5" y1="30.9" x2="97.5" y2="87.9"/>
	<line class="st3" x1="92.4" y1="30.9" x2="92.4" y2="87.9"/>
	<g>
		<path class="st4" d="M85.3,57.6l-2.8,0.1c-0.1-2-0.3-3.6-0.6-4.9c-0.3-1.3-0.7-2.3-1.2-3.1c-0.5-0.8-1.1-1.3-1.9-1.6
			c-0.7-0.3-1.6-0.5-2.6-0.5h-4v24.7c0,1.4,1.3,2,4,2v2.5H61.6v-2.5c2.6,0,3.9-0.7,3.9-2V47.6h-4c-1,0-1.9,0.2-2.6,0.5
			c-0.7,0.3-1.4,0.9-1.9,1.6c-0.5,0.8-0.9,1.8-1.2,3.1c-0.3,1.3-0.5,2.9-0.6,4.9l-2.8-0.1V44.2h33V57.6z"/>
		<g>
			<g>
				<path class="st5" d="M85.3,53.6v4l-2.8,0.1c-0.1-1.5-0.2-2.8-0.4-4"/>
				<path class="st5" d="M76.2,47.6C76.2,47.6,76.2,47.6,76.2,47.6l-4,0v4"/>
				<line class="st6" x1="72.2" y1="58.8" x2="72.2" y2="69.6"/>
				<path class="st5" d="M72.5,73.2c0.5,0.8,1.7,1.1,3.7,1.1v2.5h-4"/>
				<path class="st5" d="M65.6,76.8h-4v-2.5c2,0,3.2-0.4,3.7-1.2"/>
				<line class="st7" x1="65.5" y1="66" x2="65.5" y2="55.2"/>
				<polyline class="st5" points="65.5,51.6 65.5,47.6 61.5,47.6 				"/>
				<path class="st5" d="M55.6,53.7c-0.2,1.1-0.4,2.5-0.4,4l-2.8-0.1v-4"/>
				<polyline class="st5" points="52.4,48.2 52.4,44.2 56.4,44.2 				"/>
				<line class="st8" x1="64.7" y1="44.2" x2="77.2" y2="44.2"/>
				<polyline class="st5" points="81.3,44.2 85.3,44.2 85.3,48.2 				"/>
			</g>
		</g>
	</g>
	<path class="st5" d="M41.2,66.4c0-17.1,12.8-30.9,28.6-30.9s28.6,13.8,28.6,30.9"/>
	<rect x="37.7" y="32.3" class="st9" width="5" height="5"/>
	<rect x="38.7" y="61.3" class="st9" width="5" height="5"/>
	<rect x="95.7" y="61.3" class="st9" width="5" height="5"/>
	<rect x="97.7" y="32.3" class="st9" width="5" height="5"/>
	<line class="st5" x1="42.2" y1="35.3" x2="97.2" y2="35.3"/>
	<rect x="67.7" y="32.3" class="st9" width="4" height="5"/>
	<rect x="78.2" y="77.8" class="st10" width="37" height="38"/>
	<rect x="89.5" y="106.5" class="st11" width="14.6" height="4.6"/>
	<rect x="91" y="111.1" class="st12" width="11.4" height="2.2"/>
	
		<linearGradient id="SVGID_1_" gradientUnits="userSpaceOnUse" x1="1043.2206" y1="2354.0171" x2="1057.5667" y2="2341.9792" gradientTransform="matrix(0.7071 0.7071 -0.7071 0.7071 1014.7701 -2308.364)">
		<stop  offset="0" style="stop-color:#E9E9E9"/>
		<stop  offset="0.463" style="stop-color:#BEBCC4"/>
		<stop  offset="1" style="stop-color:#BEBCC4"/>
	</linearGradient>
	<polyline class="st13" points="97.2,82.3 87.5,97.9 91.8,104.2 91.9,106.5 102,106.5 102.1,104.2 106.3,97.9 96.7,82.3 	"/>
	<line class="st14" x1="97" y1="83" x2="97" y2="97.2"/>
	<ellipse transform="matrix(0.7072 -0.707 0.707 0.7072 -40.218 96.8825)" class="st12" cx="96.9" cy="97" rx="1.8" ry="1.8"/>
	<rect x="96.3" y="81.6" class="st15" width="1.3" height="1.3"/>
	<rect x="91.2" y="80.3" class="st15" width="1.3" height="1.3"/>
	<rect x="101.6" y="80.3" class="st15" width="1.3" height="1.3"/>
	<line class="st14" x1="91.2" y1="81.6" x2="102.7" y2="81.6"/>
</g>
</svg>
