<?xml version="1.0" encoding="utf-8"?>
<!-- Generator: Adobe Illustrator 20.0.0, SVG Export Plug-In . SVG Version: 6.00 Build 0)  -->
<svg version="1.1" id="Layer_1" xmlns="http://www.w3.org/2000/svg" xmlns:xlink="http://www.w3.org/1999/xlink" x="0px" y="0px"
	 viewBox="0 0 140 140" style="enable-background:new 0 0 140 140;" xml:space="preserve">
<style type="text/css">
	.st0{fill:#F7F7F2;}
	.st1{fill:#333333;}
	.st2{fill:#F9F9FA;}
	.st3{fill:none;stroke:#C9C9C9;stroke-miterlimit:10;}
	.st4{fill:#F68938;}
	.st5{fill:#F8F6F2;}
	.st6{fill:#5C5C5C;}
	.st7{fill:#A91E23;}
	.st8{fill:#C2C1BF;}
	.st9{fill:#111111;}
	.st10{fill:#F4B26D;}
	.st11{fill:#F5A657;}
	.st12{fill:url(#SVGID_1_);}
	.st13{fill:#090705;}
	.st14{fill:#3A3B3A;}
	.st15{fill:none;stroke:#010101;stroke-miterlimit:10;}
	.st16{fill:#676766;}
	.st17{fill:#8F8F8F;}
	.st18{fill:#FDFEFF;}
</style>
<circle class="st0" cx="70" cy="70" r="70"/>
<g>
	<path class="st1" d="M119.5,103.7c0,1.4-1.1,2.5-2.5,2.5H22c-1.4,0-2.5-1.1-2.5-2.5v-62c0-1.4,1.1-2.5,2.5-2.5h95
		c1.4,0,2.5,1.1,2.5,2.5V103.7z"/>
	<rect x="25.5" y="44.2" class="st2" width="87" height="55"/>
</g>
<g>
	<line class="st3" x1="102" y1="89.2" x2="102" y2="50.2"/>
	<rect x="99.4" y="39.8" class="st4" width="5.1" height="58.3"/>
	<rect x="99.4" y="36.3" class="st5" width="5.1" height="3.5"/>
	<path class="st6" d="M104.6,26.5h-4.1c-0.6,0-1.2,0.7-1.2,1.5v8.2h5.2V26.5z"/>
	<rect x="104.6" y="39.8" class="st7" width="5.1" height="58.3"/>
	<rect x="104.6" y="36.3" class="st8" width="5.1" height="3.5"/>
	<path class="st9" d="M104.6,26.5h3.9c0.6,0,1.1,0.7,1.1,1.5v8.2h-5.1V26.5z"/>
	<polyline class="st10" points="104.6,98 99.4,98 102.3,107.7 104.5,107.7 	"/>
	<polyline class="st11" points="104.5,107.7 106.7,107.7 109.7,98 104.6,98 	"/>
	<g>
		
			<linearGradient id="SVGID_1_" gradientUnits="userSpaceOnUse" x1="-2024.1467" y1="2282.4028" x2="-2024.1467" y2="2278.0024" gradientTransform="matrix(0 -1 1 0 -2175.7363 -1914.374)">
			<stop  offset="0.5" style="stop-color:#37474F"/>
			<stop  offset="0.5" style="stop-color:#445B65"/>
		</linearGradient>
		<path class="st12" d="M102.3,107.7c0,0,0.5,1.3,1.1,2.9c0.6,1.6,1.6,1.6,2.2,0c0.6-1.6,1.1-2.9,1.1-2.9"/>
	</g>
</g>
<rect x="79.5" y="74.2" class="st13" width="7" height="3"/>
<rect x="87.5" y="74.2" class="st13" width="8" height="3"/>
<rect x="70.5" y="74.2" class="st13" width="8" height="3"/>
<rect x="62.5" y="49.2" class="st14" width="11" height="1"/>
<rect x="59.5" y="53.2" class="st14" width="11" height="2"/>
<rect x="72.5" y="53.2" class="st14" width="11" height="2"/>
<rect x="85.5" y="53.2" class="st14" width="11" height="2"/>
<path class="st14" d="M62.2,50.9c0.1,0.1,0.2,0.1,0.2,0.3c0,0.1-0.1,0.3-0.3,0.3c-0.1,0-0.2,0-0.2-0.1l-2-1.3
	c-0.1-0.1-0.2-0.1-0.2-0.3c0-0.1,0.1-0.2,0.2-0.3l2-1.3c0.1,0,0.1-0.1,0.2-0.1c0.1,0,0.3,0.1,0.3,0.3c0,0.1-0.1,0.2-0.2,0.3
	l-1.7,1.2L62.2,50.9z"/>
<path class="st14" d="M77.3,49.9l-1.7-1.2c-0.1-0.1-0.2-0.1-0.2-0.3c0-0.1,0.1-0.3,0.3-0.3c0.1,0,0.1,0,0.2,0.1l2,1.3
	c0.1,0.1,0.2,0.1,0.2,0.3c0,0.1-0.1,0.2-0.2,0.3l-2,1.3c-0.1,0-0.1,0.1-0.2,0.1c-0.1,0-0.3-0.1-0.3-0.3c0-0.1,0.1-0.2,0.2-0.3
	L77.3,49.9z"/>
<rect x="62.5" y="57.2" class="st14" width="11" height="2"/>
<path class="st14" d="M62.2,59.6c0.1,0.1,0.2,0.1,0.2,0.3c0,0.1-0.1,0.3-0.3,0.3c-0.1,0-0.2,0-0.2-0.1l-2-1.3
	c-0.1-0.1-0.2-0.1-0.2-0.3c0-0.1,0.1-0.2,0.2-0.3l2-1.3c0.1,0,0.1-0.1,0.2-0.1c0.1,0,0.3,0.1,0.3,0.3c0,0.1-0.1,0.2-0.2,0.3
	l-1.7,1.2L62.2,59.6z"/>
<path class="st14" d="M77.3,58.5l-1.7-1.2c-0.1-0.1-0.2-0.1-0.2-0.3c0-0.1,0.1-0.3,0.3-0.3c0.1,0,0.1,0,0.2,0.1l2,1.3
	c0.1,0.1,0.2,0.1,0.2,0.3c0,0.1-0.1,0.2-0.2,0.3l-2,1.3c-0.1,0-0.1,0.1-0.2,0.1c-0.1,0-0.3-0.1-0.3-0.3c0-0.1,0.1-0.2,0.2-0.3
	L77.3,58.5z"/>
<line class="st15" x1="69.5" y1="81.7" x2="95.5" y2="81.7"/>
<line class="st15" x1="69.5" y1="84.7" x2="95.5" y2="84.7"/>
<line class="st15" x1="69.5" y1="87.7" x2="95.5" y2="87.7"/>
<line class="st15" x1="62.5" y1="90.7" x2="95.5" y2="90.7"/>
<g>
	<rect x="27" y="77.1" class="st1" width="38.4" height="2.3"/>
	<rect x="27" y="75.5" class="st1" width="4.4" height="5.1"/>
	<g>
		<rect x="42.3" y="25" class="st16" width="6.6" height="11.4"/>
		<rect x="43.6" y="36.3" class="st1" width="4.1" height="3.4"/>
		<path class="st17" d="M45.6,39.2c-6.1,0-11,4.9-11,11c0,6.1,4.9,11,11,11c6.1,0,11-4.9,11-11C56.6,44.1,51.7,39.2,45.6,39.2z
			 M45.6,59.1c-4.9,0-8.9-4-8.9-8.9c0-4.9,4-8.9,8.9-8.9c4.9,0,8.9,4,8.9,8.9C54.5,55.1,50.5,59.1,45.6,59.1z"/>
		
			<rect x="13.8" y="78.3" transform="matrix(0.2938 -0.9559 0.9559 0.2938 -51.8756 90.8696)" class="st17" width="43.4" height="4.5"/>
		
			<rect x="54" y="58.6" transform="matrix(0.9608 -0.2772 0.2772 0.9608 -20.0715 18.7476)" class="st17" width="4.5" height="43.4"/>
		<polygon class="st18" points="26.9,111.9 26.9,111.9 27.8,100.3 30.3,101.1 		"/>
		<polygon class="st18" points="64.4,112.2 64.4,112.2 63.5,100.6 61,101.4 		"/>
		<rect x="61.4" y="75.8" class="st1" width="4.4" height="5.1"/>
		<path class="st1" d="M48.6,84.3c0,1.1-0.9,2.1-2.1,2.1l0,0c-1.1,0-2.1-0.9-2.1-2.1V72.1c0-1.1,0.9-2.1,2.1-2.1l0,0
			c1.1,0,2.1,0.9,2.1,2.1V84.3z"/>
	</g>
</g>
</svg>
