<?xml version="1.0" encoding="utf-8"?>
<!-- Generator: Adobe Illustrator 19.2.1, SVG Export Plug-In . SVG Version: 6.00 Build 0)  -->
<svg version="1.1" id="Layer_1" xmlns="http://www.w3.org/2000/svg" xmlns:xlink="http://www.w3.org/1999/xlink" x="0px" y="0px"
	 viewBox="0 0 131.2 235.6" style="enable-background:new 0 0 131.2 235.6;" xml:space="preserve">
<polygon style="fill:#FFFFFF;stroke:#231F20;stroke-width:0.5;stroke-miterlimit:10;" points="77.9,235.3 59,235.3 64.5,71 72.5,71 
	"/>
<g>
	<g>
		<path style="fill:#FFFFFF;" d="M65.8,72.7c-0.5-1-4.9,0-9.9,2.3L8,96.7c-5,2.3-8.4,4.4-7.6,4.8s5.8-0.7,11-2.5L44.3,88
			c5.2-1.7,11-4.9,12.8-6.9s4.7-4.4,6.4-5.1C65.2,75.1,66.3,73.7,65.8,72.7z"/>
		<path style="fill:none;stroke:#231F20;stroke-width:0.5;stroke-miterlimit:10;" d="M65.8,72.7c-0.5-1-4.9,0-9.9,2.3L8,96.7
			c-5,2.3-8.4,4.4-7.6,4.8s5.8-0.7,11-2.5L44.3,88c5.2-1.7,11-4.9,12.8-6.9s4.7-4.4,6.4-5.1C65.2,75.1,66.3,73.7,65.8,72.7z"/>
	</g>
	<g>
		<path style="fill:#FFFFFF;" d="M67.8,71.4c1.1,0.1,2.4-4.3,2.9-9.8l4.7-52.4c0.5-5.5,0.3-9.5-0.5-9c-0.7,0.5-2.2,5.4-3.3,10.8
			l-6.6,34.1c-1.1,5.4-1.2,11.9-0.3,14.6c0.9,2.6,1.5,6.3,1.3,8.1S66.7,71.3,67.8,71.4z"/>
		<path style="fill:none;stroke:#231F20;stroke-width:0.5;stroke-miterlimit:10;" d="M67.8,71.4c1.1,0.1,2.4-4.3,2.9-9.8l4.7-52.4
			c0.5-5.5,0.3-9.5-0.5-9c-0.7,0.5-2.2,5.4-3.3,10.8l-6.6,34.1c-1.1,5.4-1.2,11.9-0.3,14.6c0.9,2.6,1.5,6.3,1.3,8.1
			S66.7,71.3,67.8,71.4z"/>
	</g>
	<g>
		<path style="fill:#FFFFFF;" d="M72.6,72.5c-0.6,0.9,2.5,4.2,7.1,7.4l43.2,30c4.5,3.1,8.1,5,8,4c-0.1-0.9-3.6-4.6-7.8-8.2
			L96.8,83.1c-4.2-3.6-9.8-6.9-12.5-7.5c-2.7-0.5-6.2-1.8-7.7-2.9S73.3,71.6,72.6,72.5z"/>
		<path style="fill:none;stroke:#231F20;stroke-width:0.5;stroke-miterlimit:10;" d="M72.6,72.5c-0.6,0.9,2.5,4.2,7.1,7.4l43.2,30
			c4.5,3.1,8.1,5,8,4c-0.1-0.9-3.6-4.6-7.8-8.2L96.8,83.1c-4.2-3.6-9.8-6.9-12.5-7.5c-2.7-0.5-6.2-1.8-7.7-2.9S73.3,71.6,72.6,72.5z
			"/>
	</g>
</g>
<g>
	<path style="fill:#FFFFFF;" d="M61.7,64.4c0.7-1.2,2.4-1.4,3.9-0.4s3.7,1,5.2,0c1.4-1,3.2-0.9,4,0.4c0.8,1.3,2,3.3,2.6,4.4
		c0.7,1.2-0.1,2.7-1.7,3.5C74,72.9,72.8,75,73,76.7c0.2,1.7-0.8,2.3-2.2,1.3s-3.7-1-5.2,0c-1.4,1-2.4,0.5-2.2-1.3
		c0.2-1.7-1-3.7-2.6-4.4c-1.6-0.7-2.4-2.3-1.7-3.5C59.8,67.6,61,65.6,61.7,64.4z"/>
	<path style="fill:none;stroke:#231F20;stroke-width:0.5;stroke-miterlimit:10;" d="M61.7,64.4c0.7-1.2,2.4-1.4,3.9-0.4s3.7,1,5.2,0
		c1.4-1,3.2-0.9,4,0.4c0.8,1.3,2,3.3,2.6,4.4c0.7,1.2-0.1,2.7-1.7,3.5C74,72.9,72.8,75,73,76.7c0.2,1.7-0.8,2.3-2.2,1.3
		s-3.7-1-5.2,0c-1.4,1-2.4,0.5-2.2-1.3c0.2-1.7-1-3.7-2.6-4.4c-1.6-0.7-2.4-2.3-1.7-3.5C59.8,67.6,61,65.6,61.7,64.4z"/>
</g>
<circle style="fill:#FFFFFF;stroke:#231F20;stroke-width:0.5;stroke-miterlimit:10;" cx="68.5" cy="70.8" r="2.9"/>
</svg>
